<svg width="81" height="80" viewBox="0 0 81 80" fill="none" xmlns="http://www.w3.org/2000/svg">
<path d="M29 17H77V43H29V34.5L41 30.5V26L29 27V17Z" fill="#FEF1D8"/>
<path d="M23.8308 30.5489L23.8299 30.5491C23.7418 30.572 23.6484 30.5844 23.5562 30.5844H6.48906C5.65177 30.5844 4.96875 31.266 4.96875 32.1047V51.5812C4.96875 52.4512 5.67677 53.1578 6.54531 53.1578C7.41534 53.1578 8.12187 52.4497 8.12187 51.5828V35.0359C8.12187 34.4497 8.59815 33.9734 9.18437 33.9734C9.7706 33.9734 10.2469 34.4497 10.2469 35.0359V48.2906H16.7797H23.3125V35.0297C23.3125 34.5481 23.6364 34.1267 24.1005 34.0027L23.8308 30.5489ZM23.8308 30.5489L38.7963 26.5395M23.8308 30.5489L38.7963 26.5395M38.7963 26.5395C38.7963 26.5395 38.7964 26.5395 38.7964 26.5395M38.7963 26.5395L38.7964 26.5395M38.7964 26.5395C39.2328 26.4232 39.691 26.4841 40.0875 26.7129C40.4843 26.942 40.7661 27.307 40.8823 27.7431C40.9987 28.1796 40.9379 28.6378 40.7089 29.0344C40.4799 29.4311 40.1148 29.7129 39.6787 29.8292L39.6786 29.8293L24.1005 34.0027L38.7964 26.5395ZM23.3125 72.9203V73.0134C23.2633 74.4781 22.056 75.6562 20.5781 75.6562C19.069 75.6562 17.8422 74.4294 17.8422 72.9203V50.4141H23.3125V72.9203ZM38.2489 24.4855L38.2489 24.4855L23.4195 28.4594H17.8453V27.3635C21.8198 26.8414 24.9 23.4341 24.9 19.3188C24.9 15.2035 21.8213 11.796 17.8453 11.274V4.34375H76.2812V42.4922H25.4391V35.8428L40.2291 31.8801C41.2146 31.6168 42.0387 30.9816 42.5504 30.0953C43.0622 29.209 43.1997 28.1765 42.9364 27.1927C42.673 26.2072 42.0378 25.3832 41.1516 24.8714C40.2652 24.3597 39.2327 24.2222 38.2489 24.4855ZM77.3438 2.21875H16.7797C16.1935 2.21875 15.7172 2.69503 15.7172 3.28125V11.2724C11.7427 11.7945 8.6625 15.2019 8.6625 19.3172C8.6625 23.4325 11.7412 26.8399 15.7172 27.362V28.4578H6.48906C4.4794 28.4578 2.84375 30.0935 2.84375 32.1031V51.5797C2.84375 53.6206 4.5044 55.2812 6.54531 55.2812C7.10872 55.2812 7.64328 55.1547 8.12187 54.9285V72.9203C8.12187 75.6003 10.3028 77.7812 12.9828 77.7812C14.5184 77.7812 15.8902 77.0654 16.7813 75.9498C17.6724 77.0639 19.044 77.7812 20.5797 77.7812C23.2597 77.7812 25.4406 75.6003 25.4406 72.9203V49.3516V44.6172H77.3438C77.93 44.6172 78.4062 44.1409 78.4062 43.5547V3.28125C78.4062 2.69503 77.93 2.21875 77.3438 2.21875ZM10.7891 19.3172C10.7891 16.0143 13.4769 13.325 16.7812 13.325C20.0841 13.325 22.7734 16.0128 22.7734 19.3172C22.7734 22.6216 20.0857 25.3094 16.7812 25.3094C13.4768 25.3094 10.7891 22.6216 10.7891 19.3172ZM12.9828 75.6562C11.4752 75.6562 10.2469 74.4294 10.2469 72.9203V51.5812V50.4141H15.7172V72.9203C15.7172 74.4294 14.4903 75.6562 12.9828 75.6562Z" fill="#0B0F11" stroke="#0B0F11" stroke-width="0.25"/>
</svg>
