<svg width="252" height="49" viewBox="0 0 252 49" fill="none" xmlns="http://www.w3.org/2000/svg">
<g opacity="1" clip-path="url(#clip0_35_276)">
<path d="M30.5881 40C33.8511 40 36.8631 39.5 39.5404 38.5833C40.2098 38.3333 40.8791 38.0833 41.4648 37.8333C40.7118 39.6667 39.6241 41.1667 38.2018 42.3333C35.3571 44.4167 32.0104 45.8333 28.3291 46.4167C29.3331 44.8333 30.0861 42.6667 30.5881 40ZM15.4444 44.5C15.3608 44.4167 15.2771 44.4167 15.1934 44.3333C13.9384 43.75 13.4364 40.9167 14.1058 36.5833C16.5321 37.6667 19.2094 38.5 21.9704 39.1667C24.0621 39.5833 26.1538 39.9167 28.2454 40C27.2414 44.3333 25.9028 46.6667 25.0661 46.6667C24.9824 46.6667 24.9824 46.6667 24.8988 46.6667C21.5521 46.6667 18.2891 45.8333 15.4444 44.5ZM3.64742 30.5833C3.48009 29.8333 3.39642 29.0833 3.31276 28.3333C4.06576 29.4167 4.98609 30.5 6.07376 31.5C7.74709 33 9.75509 34.4167 11.9304 35.5833C11.5121 38.0833 11.3448 40.3333 11.6794 42.1667C7.91442 39.3333 5.06976 35.25 3.64742 30.5833ZM32.0104 24.5C32.0104 23.5833 32.0104 22.75 32.0104 21.8333C34.8551 21.6667 37.4488 20.9167 39.6241 19.6667C41.6321 23.5833 42.7198 27.75 42.6361 31.6667C42.6361 32.8333 42.5524 33.9167 42.3851 34.9167C41.3811 35.5833 40.2098 36.0833 38.8711 36.5C36.5284 37.25 33.8511 37.75 31.0064 37.8333C31.6758 33.75 32.0104 29 32.0104 24.5ZM22.4724 36.9167C19.6278 36.3333 16.9504 35.4167 14.5241 34.25C15.2771 30.6667 16.7831 26.4167 19.1258 21.5833C19.4604 20.9167 19.7951 20.25 20.1298 19.5C21.8031 20.25 23.5601 20.8333 25.4008 21.25C26.8231 21.5833 28.2454 21.75 29.6678 21.75C29.6678 22.5833 29.6678 23.5 29.6678 24.4167C29.6678 29.75 29.2494 34.25 28.5801 37.6667C26.6558 37.6667 24.5641 37.4167 22.4724 36.9167ZM7.66342 29.8333C5.73909 28.0833 4.40042 26.1667 3.73109 24.25C4.23309 22.1667 5.32076 20 6.82676 18C8.24909 16.0833 10.0898 14.3333 12.1814 12.8333C12.7671 13.9167 13.6038 15 14.6914 15.9167C15.6954 16.8333 16.8668 17.75 18.2054 18.5C17.8708 19.1667 17.4524 19.9167 17.1178 20.5833C15.1098 24.75 13.4364 29.1667 12.4324 33.1667C10.6754 32.25 9.08576 31.0833 7.66342 29.8333ZM30.5044 8.66667C33.0981 10.5833 35.4408 13.0833 37.4488 16C37.7834 16.5833 38.2018 17.0833 38.5364 17.6667C36.6958 18.75 34.4368 19.3333 31.9268 19.5C31.6758 15.5833 31.2574 11.8333 30.5044 8.66667ZM25.9864 19.0833C24.3131 18.75 22.8071 18.25 21.3011 17.5833C23.3928 13.9167 25.7354 10.6667 28.0781 8.25001C28.8311 11.0833 29.4168 14.8333 29.6678 19.5C28.4128 19.5 27.1578 19.3333 25.9864 19.0833ZM16.1974 14.3333C15.2771 13.4167 14.5241 12.5 14.0221 11.5833C16.1974 10.3333 18.5401 9.25001 21.0501 8.50001C22.5561 8.08334 24.0621 7.75001 25.5681 7.50001C23.3928 9.91667 21.2174 13 19.2094 16.5C18.1218 15.9167 17.1178 15.1667 16.1974 14.3333ZM11.3448 7.08334C11.3448 7.16667 11.2611 7.33334 11.2611 7.41667C11.0101 8.50001 11.0938 9.58334 11.3448 10.6667C8.91842 12.3333 6.74309 14.3333 5.06976 16.5833C4.56776 17.25 4.06576 18 3.64742 18.6667C4.90242 14.0833 7.57976 10 11.3448 7.08334ZM13.4364 7.91667C13.6874 6.75001 14.4404 5.66667 15.5281 4.83334C18.2054 4.08334 21.3011 4.25001 24.5641 5.41667C23.2254 5.66667 21.8031 6.00001 20.4644 6.41667C17.9544 7.16667 15.6118 8.16667 13.4364 9.41667C13.3528 8.91667 13.3528 8.41667 13.4364 7.91667ZM31.9268 4.91667C32.6798 4.41667 33.4328 4.08334 34.0184 3.91667C35.1898 4.33334 36.2774 4.91667 37.3651 5.66667C35.6918 5.33334 33.8511 5.08334 31.9268 4.91667ZM28.1618 2.50001C29.0821 2.58334 30.0861 2.75001 31.0901 3.00001C30.4208 3.33334 29.8351 3.75001 29.1658 4.25001C28.7474 3.58334 28.4964 3.00001 28.1618 2.50001ZM25.6518 3.41667C24.6478 3.00001 23.5601 2.75001 22.5561 2.50001C23.3928 2.41667 24.1458 2.33334 24.9824 2.33334C25.4008 2.33334 25.8191 2.83334 26.3211 3.66667C26.1538 3.58334 25.9028 3.50001 25.6518 3.41667ZM0.551758 24.5C0.551758 26.8333 0.886425 29.0833 1.47209 31.1667C1.47209 31.3333 1.55576 31.4167 1.55576 31.5833V31.6667C4.65142 41.6667 14.0221 48.9167 24.9824 48.9167C30.0861 48.9167 34.7714 47.3333 38.7038 44.6667C38.7038 44.6667 38.7874 44.6667 38.7874 44.5833C39.0384 44.4167 39.2058 44.25 39.4568 44.0833C43.9748 40.75 47.3214 35.9167 48.7438 30.3333C48.8274 30.0833 48.9111 29.8333 48.9111 29.5833C48.9111 29.5 48.9111 29.5 48.9111 29.4167C49.2458 27.8333 49.4131 26.1667 49.4131 24.4167C49.4131 21.0833 48.7438 17.9167 47.4888 14.9167C47.2378 14.3333 46.5684 14.0833 45.9828 14.3333C45.3971 14.5833 45.1461 15.25 45.3971 15.8333C46.5684 18.5833 47.1541 21.5 47.1541 24.4167C47.1541 26.25 46.9031 28 46.4848 29.75C46.1501 30.8333 45.5644 31.8333 44.7278 32.75C44.7278 32.3333 44.7278 32 44.7278 31.5833C44.7278 27.25 43.5564 22.5833 41.2974 18.3333C42.9708 16.9167 43.9748 15.1667 44.3094 13.25C44.3931 12.6667 43.9748 12.0833 43.3891 11.9167C42.8034 11.8333 42.1341 12.25 42.0504 12.8333C41.7994 14.0833 41.1301 15.3333 40.1261 16.3333C39.7914 15.8333 39.4568 15.25 39.1221 14.75C37.1141 11.8333 34.7714 9.33334 32.1778 7.25001C35.6081 7.50001 38.7874 8.33334 41.3811 9.75001C41.7994 10 42.3014 10 42.7198 9.66667C43.2218 9.25001 43.3054 8.58334 42.8871 8.08334C39.2058 3.00001 32.8471 0.166673 24.9824 0.166673C11.5121 0.0833393 0.551758 11 0.551758 24.5Z" fill="url(#paint0_radial_35_276)"/>
<path d="M245.026 17.3333C248.623 17.3333 250.631 19.0833 250.631 22.25C250.631 25.25 248.623 27 245.36 27H243.018V31.6667H240.006V17.3333M243.101 24.5833H244.942C246.699 24.5833 247.619 23.8333 247.619 22.25C247.619 20.6667 246.615 19.8333 244.858 19.8333H243.101V24.5833ZM234.4 25.9167C234.4 28 233.563 29 231.89 29C230.217 29 229.38 27.9167 229.38 25.9167V17.3333H226.284V25.6667C226.284 27.75 226.786 29.25 227.79 30.25C228.711 31.1667 230.133 31.6667 231.89 31.6667C234.4 31.6667 237.412 30.5833 237.412 25.5833V17.25H234.4V25.9167ZM218.001 17.25C221.097 17.25 224.444 19.1667 224.444 24.5C224.444 29.8333 221.097 31.75 218.001 31.75C214.906 31.75 211.559 29.8333 211.559 24.5C211.559 19.1667 214.906 17.25 218.001 17.25ZM218.001 29.0833C219.173 29.0833 221.264 28.5 221.264 24.5C221.264 20.5 219.256 19.9167 218.001 19.9167C215.91 19.9167 214.738 21.5833 214.738 24.5C214.738 27.5 215.91 29.0833 218.001 29.0833ZM208.463 27.3333C208.965 28.3333 209.384 29.25 210.388 29.25H211.141V31.5833H211.057C211.057 31.5833 210.471 31.75 209.551 31.75C207.125 31.75 206.372 30.0833 205.786 28.6667C205.284 27.5 204.782 26.4167 203.527 26.4167H202.188V31.6667H199.093V17.3333H204.196C207.878 17.3333 209.635 18.75 209.635 21.8333C209.635 23.75 208.463 24.9167 207.292 25.4167C207.794 26 208.129 26.6667 208.463 27.3333ZM202.105 24.0833H203.778C205.451 24.0833 206.539 23.3333 206.539 22C206.539 20.6667 205.619 19.9167 204.029 19.9167H202.105V24.0833ZM190.893 26.4167H194.073V26.5833C194.073 27.5 193.738 29.0833 191.563 29.0833C189.471 29.0833 188.216 27.4167 188.216 24.5833C188.216 21.6667 189.387 20 191.479 20C193.905 20 193.989 22.5 193.989 22.5833V22.75L196.834 22.3333V22.25C196.834 21.25 195.913 17.3333 191.395 17.3333C187.379 17.3333 185.037 20 185.037 24.5833C185.037 29.0833 187.463 31.8333 191.479 31.8333C195.495 31.8333 196.917 29 196.917 26.6667V24.1667H190.893V26.4167ZM181.774 17.3333H178.176L173.407 23.75V17.3333H170.311V31.6667H173.407V25.0833L178.26 31.6667H181.941L176.419 24.5L181.774 17.3333ZM164.538 26.1667L159.518 17.3333H156.423V31.6667H159.518V23.1667L164.538 31.6667H167.634V17.3333H164.622V26.1667H164.538ZM150.315 17.5L155.586 31.6667H152.407L151.152 28.1667H146.383L145.211 31.6667H142.032L147.303 17.4167H150.315V17.5ZM148.809 21.25L147.303 25.75H150.399L148.809 21.25ZM139.187 24.0833C140.275 24.4167 141.697 25.4167 141.697 27.5833C141.697 30.1667 139.857 31.6667 136.677 31.6667H130.653V17.3333H136.092C139.187 17.3333 140.777 18.6667 140.777 21.1667C140.777 23.1667 139.857 23.9167 139.187 24.0833ZM135.757 23.1667C137.012 23.1667 137.598 22.6667 137.598 21.5C137.598 20.4167 136.845 19.8333 135.339 19.8333H133.665V23.1667H135.757ZM133.665 29.1667H136.092C137.681 29.1667 138.351 28.5833 138.351 27.3333C138.351 25.8333 137.096 25.5 136.008 25.5H133.665V29.1667ZM118.02 17.3333C122.454 17.3333 125.131 20.0833 125.131 24.75C125.131 29.1667 122.789 31.6667 118.605 31.6667H113.753V17.3333H118.02ZM116.848 29.1667H118.605C120.781 29.1667 122.119 27.5 122.119 24.75C122.119 21.5833 120.697 19.9167 118.02 19.9167H116.848V29.1667ZM106.139 17.3333H103.043V31.6667H112.33V29.1667H106.139V17.3333ZM98.9438 27.3333C99.4458 28.3333 99.8641 29.25 100.868 29.25H101.621V31.5833H101.537C101.537 31.5833 100.952 31.75 100.031 31.75C97.6051 31.75 96.8521 30.0833 96.2664 28.6667C95.7644 27.5 95.2624 26.4167 94.0074 26.4167H92.6688V31.6667H89.5731V17.3333H94.6768C98.3581 17.3333 100.115 18.75 100.115 21.8333C100.115 23.75 98.9438 24.9167 97.7724 25.4167C98.3581 26 98.6928 26.6667 98.9438 27.3333ZM92.6688 24.0833H94.3421C96.0154 24.0833 97.1031 23.3333 97.1031 22C97.1031 20.6667 96.1828 19.9167 94.5931 19.9167H92.6688V24.0833ZM81.4574 17.25C84.5531 17.25 87.8998 19.1667 87.8998 24.5C87.8998 29.8333 84.5531 31.75 81.4574 31.75C78.3618 31.75 75.0151 29.8333 75.0151 24.5C75.0151 19.1667 78.3618 17.25 81.4574 17.25ZM81.4574 29.0833C82.7124 29.0833 84.7204 28.5 84.7204 24.5C84.7204 20.5 82.7124 19.9167 81.4574 19.9167C79.3658 19.9167 78.1944 21.5833 78.1944 24.5C78.1944 27.5 79.3658 29.0833 81.4574 29.0833ZM71.1664 17.3333H74.5968L70.4971 31.6667H67.0668L64.5568 22.75L61.9631 31.6667H58.5328L54.4331 17.3333H57.9471L60.3734 27.75L63.3018 17.3333H65.8954L68.6564 27.75L71.1664 17.3333Z" fill="white"/>
</g>
<defs>
<radialGradient id="paint0_radial_35_276" cx="0" cy="0" r="1" gradientUnits="userSpaceOnUse" gradientTransform="translate(47.3869 9.33742) scale(40.3994 40.2384)">
<stop stop-color="white" stop-opacity="0"/>
<stop offset="0.0597037" stop-color="white" stop-opacity="0.2"/>
<stop offset="0.1825" stop-color="white" stop-opacity="0.35"/>
<stop offset="0.3582" stop-color="white" stop-opacity="0.45"/>
<stop offset="0.544" stop-color="white" stop-opacity="0.8"/>
<stop offset="1" stop-color="white"/>
</radialGradient>
<clipPath id="clip0_35_276">
<rect width="251" height="49" fill="white" transform="translate(0.133301)"/>
</clipPath>
</defs>
</svg>
