<svg width="87" height="87" viewBox="0 0 87 87" fill="none" xmlns="http://www.w3.org/2000/svg">
<g clip-path="url(#clip0_1_458)">
<path fill-rule="evenodd" clip-rule="evenodd" d="M0.00915527 0.5625H86.1138V86.6671H0.00915527V0.5625Z" fill="#002569"/>
<path d="M56.9459 43.0765C55.3314 40.7086 53.0711 38.8789 50.0575 37.9102C49.3041 37.695 48.443 37.4797 47.6896 37.3721C46.9362 37.2644 46.0751 37.1568 45.2141 37.1568C44.7836 37.1568 44.2454 37.1568 43.7073 37.1568C43.1691 37.1568 42.7386 37.1568 42.2004 37.1568C41.7699 37.1568 41.3394 37.1568 40.8012 37.1568C40.3707 37.1568 39.8326 37.1568 39.402 37.1568C38.9715 37.1568 38.4334 37.1568 38.0028 37.1568C37.5723 37.1568 37.0342 37.1568 36.6036 37.1568C36.1731 37.1568 35.7426 37.1568 35.2044 37.1568C34.7739 37.1568 34.2358 37.1568 33.8052 37.1568C33.3747 37.1568 32.8366 37.1568 32.406 37.1568C31.9755 37.1568 31.4374 37.1568 31.0068 37.1568V38.4484C31.0068 38.4484 31.0068 38.4484 31.1145 38.4484C31.1145 38.4484 31.1145 38.4484 31.2221 38.4484C32.5137 38.556 33.59 38.6636 34.2358 38.9865C34.9892 39.3094 35.3121 40.2781 35.3121 41.7849V60.5127C35.3121 62.0195 34.9892 62.9882 34.2358 63.3111C33.6976 63.5264 32.9442 63.7416 32.0831 63.8492C31.4374 63.7416 30.7916 63.5264 30.361 63.2035C29.8229 62.7729 29.2847 62.0195 28.8542 61.1585L18.3064 36.6187H16.7996L6.68227 61.0508C6.25174 62.1272 5.71359 62.8806 4.96017 63.3111C4.31439 63.634 3.34571 63.8492 2.16177 63.8492V65.1408H11.8485V63.8492H10.9875C10.8799 63.8492 10.7722 63.8492 10.6646 63.8492C10.557 63.8492 10.4493 63.8492 10.3417 63.8492C9.91119 63.8492 9.37304 63.7416 9.05014 63.4187C8.61962 63.2035 8.40436 62.7729 8.40436 62.2348C8.40436 62.0195 8.40436 61.8043 8.51199 61.6966C8.61962 61.4814 8.61962 61.3737 8.72725 61.1585L10.8799 55.6693H22.0735L24.3337 61.1585C24.4413 61.3737 24.549 61.589 24.6566 61.9119C24.7642 62.1272 24.7642 62.45 24.7642 62.6653C24.7642 63.0958 24.549 63.4187 24.3337 63.5264C24.0108 63.7416 23.6879 63.8492 23.2574 63.8492C23.0421 63.8492 22.9345 63.8492 22.7193 63.8492C22.6116 63.8492 22.3964 63.8492 22.2887 63.8492H21.3201V65.1408H31.2221H32.9442H45.537C49.7346 65.1408 53.0711 63.8492 55.6543 61.3737C58.2374 58.7906 59.529 55.454 59.529 51.3641C59.4214 48.2428 58.5603 45.552 56.9459 43.0765ZM11.418 53.8396L15.9385 42.5383C15.9385 42.4307 16.0461 42.3231 16.0461 42.3231C16.0461 42.2155 16.1538 42.1078 16.1538 42.1078C16.1538 42.0002 16.2614 41.8926 16.2614 41.7849C16.2614 41.6773 16.369 41.5697 16.369 41.462C16.4767 41.8926 16.5843 42.3231 16.7996 42.8612C17.0148 43.2918 17.1225 43.7223 17.3377 44.2604C17.3377 44.3681 17.4453 44.4757 17.4453 44.5833C17.553 44.691 17.553 44.7986 17.553 44.9062L21.2124 53.8396H11.418ZM52.2101 59.9745C50.8109 62.45 48.2278 63.7416 44.4607 63.7416C42.5233 63.7416 41.1241 63.5264 40.4783 62.9882C39.8326 62.45 39.5097 61.1585 39.5097 59.1135V38.556C39.7249 38.556 40.0478 38.556 40.2631 38.4484C40.4783 38.4484 40.8012 38.4484 41.0165 38.4484C41.2318 38.4484 41.447 38.4484 41.7699 38.4484C41.9852 38.4484 42.3081 38.4484 42.5233 38.4484C46.6133 38.4484 49.627 39.6323 51.5643 41.8926C53.5017 44.1528 54.3627 47.2741 54.3627 51.3641C54.4703 54.4854 53.7169 57.3914 52.2101 59.9745Z" fill="white"/>
<path d="M73.0905 49.9648C75.3507 50.0724 77.3957 50.7182 79.3331 51.9022C81.1628 53.0861 82.1315 55.0235 82.1315 57.499C82.1315 59.8668 81.2704 61.8042 79.6559 63.0958C78.0415 64.495 76.1041 65.1407 73.8439 65.1407H59.4214V63.8492C59.4214 63.8492 59.4214 63.8492 59.529 63.8492C59.529 63.8492 59.529 63.8492 59.6366 63.8492C61.0358 63.7415 62.0045 63.6339 62.6503 63.311C63.2961 62.9881 63.7266 62.0195 63.7266 60.5126V41.7849C63.7266 40.278 63.4037 39.3094 62.6503 38.9865C61.8969 38.6636 60.9282 38.4483 59.6366 38.4483C59.6366 38.4483 59.6366 38.4483 59.529 38.4483C59.529 38.4483 59.529 38.4483 59.4214 38.4483V37.1567H72.9828C74.9202 37.1567 76.6423 37.6949 78.1491 38.6636C79.6559 39.6322 80.517 41.2467 80.517 43.2917C80.517 45.5519 79.7636 47.1664 78.2567 48.1351C76.7499 48.9961 75.0278 49.6419 73.0905 49.9648ZM67.9242 50.8259V60.5126C67.9242 61.9118 68.3547 62.7729 69.1081 63.0958C69.8615 63.5263 70.8302 63.6339 72.0142 63.6339C74.0591 63.6339 75.4583 62.9881 76.2118 61.5889C76.9652 60.2974 77.3957 58.6829 77.3957 56.8532C77.3957 53.7319 76.427 52.0098 74.4897 51.4716C72.4447 51.0411 70.2921 50.8259 67.9242 50.8259ZM67.9242 49.4267C70.0768 49.4267 72.0142 49.2114 73.6286 48.6732C75.2431 48.1351 75.9965 46.6282 75.9965 43.9375C75.9965 42.2154 75.6736 40.9238 75.0278 39.9551C74.382 38.9865 73.0905 38.4483 71.2607 38.4483H67.9242V49.4267Z" fill="white"/>
</g>
<defs>
<clipPath id="clip0_1_458">
<rect width="86.1046" height="86.1046" fill="white" transform="translate(0.00915527 0.5625)"/>
</clipPath>
</defs>
</svg>
