<svg width="43" height="75" viewBox="0 0 43 75" fill="none" xmlns="http://www.w3.org/2000/svg">
<g opacity="1" clip-path="url(#clip0_35_265)">
<path fill-rule="evenodd" clip-rule="evenodd" d="M0.151553 -0.0503235V8.72473H0.150879V54.6418C0.150879 65.9644 9.54498 75.0503 21.1326 75.0503C32.722 75.0503 42.1151 65.9644 42.1151 54.6418L42.1153 35.6185C42.1155 23.7289 42.1157 11.8393 42.1157 -0.0503235H0.151553ZM31.7185 17.973L31.804 17.8891H37.5947L37.6797 17.973V19.1481L37.5947 19.2321H33.1617V22.7575H37.337L37.4056 22.8414L37.0961 24.0161L36.9933 24.1005H33.1617V29.1364L33.0758 29.2203H31.804L31.7185 29.1364V17.973ZM25.0518 19.2321H21.8568L21.7709 19.1482V17.973L21.8568 17.8891H29.9139L29.983 17.973L29.6735 19.1482L29.5703 19.2321H26.4958V29.1364L26.409 29.2203H25.1377L25.0518 29.1364V19.2321ZM18.8155 25.1578L17.0287 19.9873L16.8569 19.2661L16.6851 19.9873L14.8983 25.1578H18.8155ZM15.9978 18.0572L16.101 17.9733L17.5442 17.7885L17.6473 17.8556L21.719 29.1366L21.6677 29.2205H20.2932L20.19 29.1366L19.245 26.4337H14.4515L13.5238 29.1366L13.4379 29.2205H12.0466L11.9944 29.1366L15.9978 18.0572ZM5.27682 17.973L5.36273 17.8891H11.1521L11.2389 17.973V19.1481L11.1521 19.2321H6.71996V22.7575H10.8953L10.9631 22.8414L10.6544 24.0161L10.5508 24.1005H6.71996V29.1364L6.63406 29.2203H5.36273L5.27682 29.1364V17.973ZM11.0364 41.7783C11.0364 41.7783 11.6441 42.4708 13.7374 45.1346C17.153 49.4805 34.3912 44.4931 34.3912 44.4931C32.8305 42.5564 30.7978 40.9357 28.3558 39.8231C22.4754 37.1432 15.8135 38.1139 11.0364 41.7783ZM37.1741 59.038L37.2263 59.1013C37.7101 57.4538 37.9106 55.7751 37.8567 54.1198C37.8567 54.1198 25.1545 59.3775 21.2622 54.6856C20.9144 54.2536 20.8295 54.1482 21.2224 54.637C21.2356 54.6533 21.2488 54.6695 21.2622 54.6856C21.5471 55.0396 22.0084 55.6129 22.5279 56.2585C23.3955 57.3367 24.4255 58.6166 25.0672 59.4137C28.8075 64.0627 37.1741 59.038 37.1741 59.038Z" fill="white"/>
<path opacity="0.5" d="M15.5308 48.4173C11.4187 46.5431 5.27088 50.2359 5.27088 50.2359L5.21909 50.1718C4.73523 51.8201 4.53478 53.4988 4.58995 55.1529C4.58995 55.1529 14.4995 51.0519 19.4934 53.3281C20.1731 53.6375 20.7618 54.065 21.2225 54.6369C21.0418 54.4127 20.9623 54.3135 20.9623 54.3135C20.9623 54.3135 20.9639 54.3135 20.9665 54.3188C20.0914 53.2301 18.3181 51.0267 17.379 49.8602C16.8447 49.1961 16.2164 48.7296 15.5308 48.4173ZM21.2225 54.6369C21.4027 54.8616 21.4823 54.9598 21.4823 54.9598C21.4823 54.9598 21.4015 54.8598 21.2608 54.6846C21.2482 54.6688 21.2351 54.6534 21.2225 54.6369ZM27.4352 63.0407C22.1793 60.6473 8.1543 64.7051 8.1543 64.7051C9.71493 66.6406 11.7472 68.2613 14.1896 69.3735C20.0709 72.0534 26.7307 71.0831 31.5082 67.4183C31.5082 67.4183 30.9018 66.7258 28.8076 64.0624C28.4728 63.6365 28.0062 63.3004 27.4352 63.0407Z" fill="black"/>
</g>
<defs>
<clipPath id="clip0_35_265">
<rect width="42" height="75" fill="white" transform="translate(0.133301)"/>
</clipPath>
</defs>
</svg>
