<svg width="48" height="48" viewBox="0 0 48 48" fill="none" xmlns="http://www.w3.org/2000/svg">
<g clip-path="url(#clip0_541_1987)">
<path fill-rule="evenodd" clip-rule="evenodd" d="M41.4199 9.16696H40.3795V19.29C41.7574 19.29 42.7697 20.2742 42.7697 21.5395V26.4323C42.7697 27.7258 41.7574 28.71 40.3795 28.71V38.833H41.4199C42.7697 38.833 43.8663 39.9297 43.8663 41.2794V46.8752H45.5254C46.2846 46.8752 46.2846 48 45.5254 48H2.44628C1.71517 48 1.71517 46.8752 2.44628 46.8752H4.10533V41.2794C4.10533 39.9297 5.20199 38.833 6.55173 38.833H7.62027V28.71C6.21429 28.71 5.23011 27.7258 5.23011 26.4323V21.5395C5.23011 20.2742 6.21429 19.29 7.62027 19.29V9.16696H6.55173C5.20199 9.16696 4.10533 8.0703 4.10533 6.72056V1.12478H2.44628C1.71517 1.12478 1.71517 0 2.44628 0H45.5254C46.2846 0 46.2846 1.12478 45.5254 1.12478H43.8663V6.72056C43.8663 8.0703 42.7697 9.16696 41.4199 9.16696ZM39.6203 43.9789H8.35138C7.62027 43.9789 7.62027 42.8541 8.35138 42.8541H39.6203C40.3795 42.8541 40.3795 43.9789 39.6203 43.9789ZM39.6203 5.14587H8.35138C7.62027 5.14587 7.62027 4.02109 8.35138 4.02109H39.6203C40.3795 4.02109 40.3795 5.14587 39.6203 5.14587ZM24.4076 31.7188C23.6203 31.7188 23.8452 30.5378 23.8452 29.4411C23.8452 28.71 24.97 28.71 24.97 29.4411C24.97 30.5378 25.195 31.7188 24.4076 31.7188ZM24.4076 26.9666C23.6203 26.9666 23.8452 25.7856 23.8452 24.6889C23.8452 23.9297 24.97 23.9297 24.97 24.6889C24.97 25.7856 25.195 26.9666 24.4076 26.9666ZM24.4076 22.1863C23.6203 22.1863 23.8452 21.0053 23.8452 19.9086C23.8452 19.1775 24.97 19.1775 24.97 19.9086C24.97 21.0053 25.195 22.1863 24.4076 22.1863ZM26.9103 18.5589H21.905C19.1774 18.5589 16.9559 16.3374 16.9559 13.6098C16.9559 13.1599 16.8435 12.4007 17.5183 12.4007H31.2969C31.9718 12.4007 31.8593 13.1599 31.8593 13.6098C31.8593 16.3374 29.6378 18.5589 26.9103 18.5589ZM18.0807 13.5255C18.0807 15.7188 19.796 17.4341 21.905 17.4341H26.9103C29.0473 17.4341 30.7345 15.7188 30.7345 13.5255H18.0807ZM16.0561 38.833C16.0561 38.7768 16.0561 38.7206 16.0561 38.6643C16.0561 35.5993 18.5306 33.1248 21.5675 33.1248H27.2477C30.2846 33.1248 32.7591 35.5993 32.7591 38.6643V38.833H35.9929C35.5992 32.6467 30.3971 28.5975 28.0913 27.1072C25.1668 25.1951 25.2793 22.6924 28.3162 20.8647C33.912 17.4903 35.6835 11.9789 36.2459 9.16696H12.9911C13.5535 11.9789 15.325 17.4903 20.9208 20.8647C23.9577 22.6924 24.0702 25.1951 21.1176 27.1072C18.84 28.5975 13.6378 32.6467 13.2442 38.833H16.0561ZM17.1809 38.833H31.6343C31.6343 36.1898 29.6941 34.2496 27.2477 34.2496H21.5675C19.1211 34.2496 17.1809 36.1898 17.1809 38.833ZM12.1194 38.833C12.4849 32.0844 18.0807 27.754 20.5271 26.1793C22.608 24.8014 22.8048 23.283 20.3303 21.8207C14.2002 18.1652 12.4006 12.0633 11.8663 9.16696H8.74505V19.29C10.151 19.29 11.1352 20.2742 11.1352 21.5395V26.4323C11.1352 27.7258 10.151 28.71 8.74505 28.71V38.833H12.1194ZM37.3707 9.16696C36.8364 12.0633 35.0087 18.1652 28.8786 21.8207C26.4322 23.283 26.6291 24.8014 28.7099 26.1793C31.1563 27.754 36.7521 32.0844 37.1176 38.833H39.2547V28.71C37.8487 28.71 36.8646 27.7258 36.8646 26.4323V21.5395C36.8646 20.2742 37.8487 19.29 39.2547 19.29V9.16696H37.3707ZM39.9577 20.4148C39.7046 20.471 37.9893 20.1336 37.9893 21.5395V26.4323C37.9893 27.8102 39.5078 27.5852 40.492 27.5852C41.1387 27.5852 41.6449 27.051 41.6449 26.4323V21.5395C41.6449 20.5272 40.7732 20.4148 39.9577 20.4148ZM8.32326 20.4148C8.07018 20.471 6.35489 20.1336 6.35489 21.5395V26.4323C6.35489 27.8102 7.90146 27.5852 8.88565 27.5852C9.50428 27.5852 10.0104 27.051 10.0104 26.4323V21.5395C10.0104 20.5272 9.13872 20.4148 8.32326 20.4148ZM5.23011 46.8752H42.7415V41.2794C42.7415 40.5483 42.151 39.9578 41.4199 39.9578H6.55173C5.82062 39.9578 5.23011 40.5483 5.23011 41.2794V46.8752ZM5.23011 1.12478V6.72056C5.23011 7.45167 5.82062 8.04218 6.55173 8.04218H41.4199C42.151 8.04218 42.7415 7.45167 42.7415 6.72056V1.12478H5.23011Z" fill="url(#paint0_linear_541_1987)"/>
</g>
<defs>
<linearGradient id="paint0_linear_541_1987" x1="4.56674" y1="9.22806" x2="43.4234" y2="38.7622" gradientUnits="userSpaceOnUse">
<stop stop-color="#134879"/>
<stop offset="0.501961" stop-color="#0B5992"/>
<stop offset="1" stop-color="#3EA9FF"/>
</linearGradient>
<clipPath id="clip0_541_1987">
<rect width="48" height="48" fill="white"/>
</clipPath>
</defs>
</svg>
