<svg width="78" height="75" viewBox="0 0 78 75" fill="none" xmlns="http://www.w3.org/2000/svg">
<g opacity="1" clip-path="url(#clip0_35_235)">
<path fill-rule="evenodd" clip-rule="evenodd" d="M0.641602 0H77.6416V75H0.641602V0ZM51.5577 37.0312C50.1139 34.9687 48.0927 33.375 45.3977 32.5312C44.7239 32.3437 43.9539 32.1562 43.2802 32.0625C42.6064 31.9687 41.8364 31.875 41.0664 31.875H39.7189H38.3714H37.1202H35.8689H34.6177H33.3664H32.1152H30.8639H29.6127H28.3614V33H28.4577H28.5539C29.7089 33.0937 30.6714 33.1875 31.2489 33.4687C31.9227 33.75 32.2114 34.5937 32.2114 35.9062V52.2187C32.2114 53.5312 31.9227 54.375 31.2489 54.6562C30.7677 54.8437 30.0939 55.0312 29.3239 55.125C28.7464 55.0312 28.1689 54.8437 27.7839 54.5625C27.3027 54.1875 26.8214 53.5312 26.4364 52.7812L17.0039 31.4062H15.6564L6.60891 52.6875C6.22391 53.625 5.74266 54.2812 5.06891 54.6562C4.49141 54.9375 3.62516 55.125 2.56641 55.125V56.25H11.2289V55.125H10.4589H10.1702H9.88141C9.49641 55.125 9.01516 55.0312 8.72641 54.75C8.34141 54.5625 8.14891 54.1875 8.14891 53.7187C8.14891 53.5312 8.14891 53.3437 8.24516 53.25C8.29328 53.1562 8.31734 53.0859 8.34141 53.0156C8.36547 52.9453 8.38953 52.875 8.43766 52.7812L10.3627 48H20.3727L22.3939 52.7812C22.4902 52.9687 22.5864 53.1562 22.6827 53.4375C22.7789 53.625 22.7789 53.9062 22.7789 54.0937C22.7789 54.4687 22.5864 54.75 22.3939 54.8437C22.1052 55.0312 21.8164 55.125 21.4314 55.125H20.9502H20.5652H19.6989V56.25H28.5539H30.0939H41.3552C45.1089 56.25 48.0927 55.125 50.4027 52.9687C52.7127 50.7187 53.8677 47.8125 53.8677 44.25C53.7714 41.5312 53.0014 39.1875 51.5577 37.0312ZM10.8439 46.4062L14.8864 36.5625C14.8864 36.4687 14.9827 36.375 14.9827 36.375C14.9827 36.2812 15.0789 36.1875 15.0789 36.1875C15.0789 36.1406 15.103 36.0937 15.127 36.0469C15.1511 36 15.1752 35.9531 15.1752 35.9062C15.1752 35.8594 15.1992 35.8125 15.2233 35.7656C15.2473 35.7187 15.2714 35.6719 15.2714 35.625C15.3677 36 15.4639 36.375 15.6564 36.8437C15.773 37.0708 15.8542 37.2979 15.943 37.5458C16.0008 37.7073 16.0617 37.8776 16.1377 38.0625C16.1377 38.1094 16.1617 38.1562 16.1858 38.2031C16.2098 38.25 16.2339 38.2969 16.2339 38.3437C16.3302 38.4375 16.3302 38.5312 16.3302 38.625L19.6027 46.4062H10.8439ZM47.3227 51.75C46.0714 53.9062 43.7614 55.0312 40.3927 55.0312C38.6602 55.0312 37.4089 54.8437 36.8314 54.375C36.2539 53.9062 35.9652 52.7812 35.9652 51V33.0937C36.1577 33.0937 36.4464 33.0937 36.6389 33H37.3127H37.9864H38.6602C42.3177 33 45.0127 34.0312 46.7452 36C48.4777 37.9687 49.2477 40.6875 49.2477 44.25C49.3439 46.9687 48.6702 49.5 47.3227 51.75ZM71.5778 44.7188C69.8453 43.6875 68.0166 43.125 65.9953 43.0313C67.7278 42.75 69.2678 42.1875 70.6153 41.4375C71.9628 40.5938 72.6366 39.1875 72.6366 37.2188C72.6366 35.4375 71.8666 34.0313 70.5191 33.1875C69.1716 32.3438 67.6316 31.875 65.8991 31.875H53.7716V33H53.8678H53.9641C55.1191 33 55.9853 33.1875 56.6591 33.4688C57.3328 33.75 57.6216 34.5938 57.6216 35.9063V52.2188C57.6216 53.5313 57.2366 54.375 56.6591 54.6563C56.0816 54.9375 55.2153 55.0313 53.9641 55.125H53.8678H53.7716V56.25H66.6691C68.6903 56.25 70.4228 55.6875 71.8666 54.4688C73.3103 53.3438 74.0803 51.6563 74.0803 49.5938C74.0803 47.4375 73.2141 45.75 71.5778 44.7188ZM61.3753 52.2188V43.7813C63.4928 43.7813 65.4178 43.9688 67.2466 44.3438C68.979 44.8125 69.8453 46.3125 69.8453 49.0313C69.8453 50.625 69.4603 52.0313 68.7866 53.1563C68.1128 54.375 66.8616 54.9375 65.0328 54.9375C63.9741 54.9375 63.1078 54.8438 62.4341 54.4688C61.7603 54.1875 61.3753 53.4375 61.3753 52.2188ZM66.4766 41.9063C65.0328 42.375 63.3003 42.5625 61.3753 42.5625V33H64.3591C65.9953 33 67.1503 33.4688 67.7278 34.3125C68.3053 35.1563 68.5941 36.2813 68.5941 37.7813C68.5941 40.125 67.9203 41.4375 66.4766 41.9063Z" fill="white"/>
</g>
<defs>
<clipPath id="clip0_35_235">
<rect width="77" height="75" fill="white" transform="translate(0.641602)"/>
</clipPath>
</defs>
</svg>
