<svg width="71.479980" height="33.627991" viewBox="0 0 71.48 33.628" fill="none" xmlns="http://www.w3.org/2000/svg" xmlns:xlink="http://www.w3.org/1999/xlink">
    <defs/>
    <path id="Vector" d="M53.0166 19.8803C53.0166 22.0686 53.6104 23.7673 54.7979 24.9767C55.9854 26.1572 57.4912 26.7474 59.3159 26.7474C61.3721 26.7474 62.8926 26.2003 63.8774 25.1062C64.8623 23.9833 65.3545 22.2701 65.3545 19.9667L71.48 19.9667C71.48 22.5005 70.9585 24.6887 69.916 26.5315C68.9023 28.3454 67.4976 29.7275 65.7021 30.6777C63.9062 31.599 61.8789 32.0597 59.6201 32.0597L59.0117 32.0597C56.521 32.0597 54.291 31.5558 52.3218 30.5481C50.3521 29.5403 48.8027 28.0575 47.6733 26.0996C46.5439 24.1129 45.979 21.723 45.979 18.9301L45.979 14.6976C45.979 11.991 46.5439 9.64438 47.6733 7.65767C48.8027 5.67094 50.3379 4.15932 52.2783 3.12277C54.2476 2.08623 56.4341 1.56795 58.8379 1.56795L59.4463 1.56795C61.7632 1.56795 63.8193 2.02864 65.6152 2.95001C67.4395 3.84259 68.8735 5.21027 69.916 7.05301C70.9585 8.86697 71.48 11.0984 71.48 13.7474L65.0938 13.7474C65.0938 11.5015 64.5869 9.80275 63.5732 8.65103C62.5884 7.4705 61.1548 6.88025 59.2725 6.88025C57.4478 6.88025 55.9419 7.48491 54.7544 8.69421C53.5962 9.87473 53.0166 11.5591 53.0166 13.7474L53.0166 19.8803Z" fill="#FFFFFF" fill-opacity="1.000000" fill-rule="nonzero"/>
    <path id="Vector" d="M49.2979 7.3123L36.5156 7.3123L36.5156 14.3954L48.002 14.3954L48.002 19.7077L36.5156 19.7077L36.5156 31.628L29.9521 31.628L29.9521 2L49.9888 2L49.2979 7.3123Z" fill="#FFFFFF" fill-opacity="1.000000" fill-rule="nonzero"/>
    <path id="Vector" d="M38.5156 12.3954L38.5156 9.3123L51.0542 9.3123L52.2656 0L27.9521 0L27.9521 33.628L38.5156 33.628L38.5156 21.7077L50.002 21.7077L50.002 12.3954L38.5156 12.3954ZM38.5156 14.3954L36.5156 14.3954L36.5156 12.3954L36.5156 7.3123L49.2979 7.3123L49.7285 4L49.9888 2L29.9521 2L29.9521 31.628L36.5156 31.628L36.5156 19.7077L48.002 19.7077L48.002 14.3954L46.002 14.3954L38.5156 14.3954Z" fill="#131B22" fill-opacity="1.000000" fill-rule="evenodd"/>
    <path id="Vector" d="M22.9277 25.7974L11.2617 25.7974L9.21045 31.628L2.84326 31.628L13.4839 2L21.3467 2L31.9873 31.628L25.0645 31.628L22.9277 25.7974ZM13.0566 20.7442L21.1758 20.7442C20.0933 17.4906 18.7827 13.618 17.2441 9.12627L17.0308 9.12627L13.0566 20.7442Z" fill="#FFFFFF" fill-opacity="1.000000" fill-rule="nonzero"/>
    <path id="Vector" d="M12.6782 27.7974L10.627 33.628L0 33.628L12.0771 0L22.7534 0L34.8306 33.628L23.667 33.628L21.5308 27.7974L12.6782 27.7974ZM22.9277 25.7974L25.0645 31.628L31.9873 31.628L31.269 29.628L21.3467 2L13.4839 2L2.84326 31.628L9.21045 31.628L11.2617 25.7974L22.9277 25.7974ZM20.5078 18.7442Q20.855 19.7804 21.1758 20.7442L13.0566 20.7442L13.7407 18.7442L16.0767 11.9152L17.0024 9.20804L17.0308 9.12627L17.2441 9.12627Q17.2583 9.16769 17.2725 9.20906Q17.748 10.5969 18.1938 11.9051Q19.4697 15.648 20.5078 18.7442ZM18.3877 18.7442L15.8545 18.7442L17.1279 15.0215L18.3877 18.7442Z" fill="#131B22" fill-opacity="1.000000" fill-rule="evenodd"/>
</svg>
