<svg width="78" height="78" viewBox="0 0 78 78" fill="none" xmlns="http://www.w3.org/2000/svg">
<g clip-path="url(#clip0_541_4157)">
<path fill-rule="evenodd" clip-rule="evenodd" d="M49.6782 39.9158H36.6691V52.9689C36.6691 53.4844 36.2633 53.8903 35.7587 53.8903H28.3218C27.8172 53.8903 27.4004 53.4734 27.4004 52.9689V39.9158H24.7349V58.574C24.7349 59.0786 24.3291 59.4844 23.8245 59.4844H16.3876C15.883 59.4844 15.4662 59.0786 15.4662 58.574V39.9158H12.8007V66.4277C12.8007 66.9213 12.3949 67.3382 11.8903 67.3382H4.45338C3.94881 67.3382 3.53199 66.9213 3.53199 66.4277V39.9158H0.91042C0.416819 39.9158 0 39.51 0 39.0054C0 38.5009 0.416819 38.084 0.91042 38.084H41.3309V25.031C41.3309 24.5264 41.7367 24.1096 42.2413 24.1096H49.6782C50.1828 24.1096 50.5996 24.5264 50.5996 25.031V38.084H53.2651V19.4259C53.2651 18.9213 53.6709 18.5155 54.1755 18.5155H61.6124C62.117 18.5155 62.5338 18.9213 62.5338 19.4259V38.084H65.1993V11.5831C65.1993 11.0786 65.6051 10.6617 66.1097 10.6617H73.5466C74.0512 10.6617 74.468 11.0786 74.468 11.5831V38.084H77.0896C77.5942 38.084 78 38.5009 78 39.0054C78 39.51 77.5942 39.9158 77.0896 39.9158H49.6782ZM57.894 70.6179C57.6088 70.6179 57.3346 70.4862 57.159 70.2449L50.4899 61.1407C50.0512 60.5484 50.4899 59.6928 51.2249 59.6928H53.2651V47.4186C53.2651 46.914 53.6709 46.5082 54.1755 46.5082H61.6124C62.117 46.5082 62.5338 46.914 62.5338 47.4186V59.6928H64.5631C65.309 59.6928 65.7477 60.5484 65.309 61.1407L58.6399 70.2449C58.4644 70.4862 58.1901 70.6179 57.894 70.6179ZM53.0347 61.5137L57.894 68.1608L62.7642 61.5137H61.6124C61.1079 61.5137 60.702 61.1078 60.702 60.6032V48.329H55.0969V60.6032C55.0969 61.1078 54.6801 61.5137 54.1755 61.5137H53.0347ZM23.8245 31.4917H16.3876C15.883 31.4917 15.4662 31.0859 15.4662 30.5813V18.3071H13.4369C12.691 18.3071 12.2633 17.4515 12.691 16.8592L19.3601 7.75497C19.7331 7.26137 20.479 7.26137 20.841 7.75497L27.5101 16.8592C27.9488 17.4515 27.5101 18.3071 26.7751 18.3071H24.7349V30.5813C24.7349 31.0859 24.3291 31.4917 23.8245 31.4917ZM17.298 29.6709H22.9031V17.3966C22.9031 16.8921 23.3199 16.4862 23.8245 16.4862H24.9653L20.106 9.83906L15.2358 16.4862H16.3876C16.8921 16.4862 17.298 16.8921 17.298 17.3966V29.6709ZM5.3638 65.5063H10.9799V39.9158H5.3638V65.5063ZM17.298 57.6636H22.9031V39.9158H17.298V57.6636ZM29.2322 52.0584H34.8373V39.9158H29.2322V52.0584ZM67.0311 38.084H72.6362V12.4935H67.0311V38.084ZM55.0969 38.084H60.702V20.3363H55.0969V38.084ZM43.1627 38.084H48.7678V25.9414H43.1627V38.084Z" fill="url(#paint0_linear_541_4157)"/>
</g>
<defs>
<linearGradient id="paint0_linear_541_4157" x1="33.6922" y1="2.48324" x2="44.3091" y2="75.5183" gradientUnits="userSpaceOnUse">
<stop stop-color="#134879"/>
<stop offset="0.501961" stop-color="#0B5992"/>
<stop offset="1" stop-color="#3EA9FF"/>
</linearGradient>
<clipPath id="clip0_541_4157">
<rect width="78" height="78" fill="white"/>
</clipPath>
</defs>
</svg>
