<svg width="78" height="78" viewBox="0 0 78 78" fill="none" xmlns="http://www.w3.org/2000/svg">
<path fill-rule="evenodd" clip-rule="evenodd" d="M40.6677 28.7416V27.5992C40.6677 24.6291 38.6571 22.1616 36.1439 22.0702C35.1387 23.0298 34.4076 23.9894 31.4831 23.9894C28.513 23.9894 27.6448 22.847 26.868 22.0702C24.3548 22.1616 22.2986 24.6291 22.2986 27.5992V28.7416C22.8926 29.3356 23.4866 29.8839 24.1721 30.3409C24.1721 29.0158 23.8522 27.2337 25.0859 27.2337C25.5886 27.2337 25.9998 27.6449 25.9998 28.1476V31.4375C29.3812 33.0825 33.6308 33.0825 37.0121 31.4375V28.1476C37.0121 26.9595 38.8399 26.9595 38.8399 28.1476V30.3409C39.4796 29.8839 40.1193 29.3356 40.6677 28.7416ZM15.5358 66.3022C14.3478 66.3022 14.3478 64.4745 15.5358 64.4745C16.7239 64.4745 16.7239 66.3022 15.5358 66.3022ZM13.0684 72.3339C12.7485 72.3339 12.4743 72.1968 12.2916 71.9226L0.182595 54.239C-0.0915698 53.8277 -0.00018142 53.2337 0.411066 52.9595L9.04727 47.065C9.45852 46.7908 10.0525 46.8822 10.3267 47.2934L11.7432 49.3954C14.0279 48.5272 18.3689 46.3796 21.0648 41.7644C25.4058 34.2706 40.4392 41.0333 41.4445 41.536C41.81 41.6274 46.151 43.181 51.6343 42.6783C53.8276 42.4955 55.0613 42.8154 56.2037 45.1001C57.8944 45.1001 63.1949 44.6432 69.5007 39.4797C74.7555 35.1845 80.1018 40.1194 75.6694 45.2372C65.7538 56.6607 58.0315 64.0175 41.6272 62.1897C41.3074 62.1441 28.513 57.9402 20.9278 62.8295C21.4304 63.5606 22.7098 65.0228 22.5728 65.7082C22.5271 65.9367 22.39 66.1194 22.2072 66.2565L13.571 72.1968C13.4339 72.2882 13.2511 72.3339 13.0684 72.3339ZM12.8399 50.949L19.9225 61.3216C27.8276 56.2038 40.5763 59.9964 41.9014 60.4077C57.4374 62.0527 64.4743 55.3356 74.2529 44.0491C77.2687 40.5764 74.1615 38.0632 70.6888 40.8962C64.3373 46.0597 58.9453 46.8365 56.7063 46.8822C56.7977 50.5834 53.5534 52.3655 49.3039 52.5026C44.506 52.6853 37.7889 52.4112 35.8241 52.1827C34.636 52.0456 34.8645 50.2179 36.0069 50.3549C36.0525 50.4006 41.4445 50.949 49.2582 50.6748C51.7714 50.5834 53.5077 49.9437 54.3302 48.847C55.0613 47.7961 54.8329 46.5623 54.7872 46.2882C53.919 44.4147 53.4163 44.369 51.817 44.5061C45.6483 45.0544 40.9875 43.2723 40.7591 43.2267C36.6923 41.3075 25.5886 37.6063 22.6641 42.6783C19.8311 47.5219 15.3988 49.898 12.8399 50.949ZM2.19314 53.9648L13.2968 70.1405L20.4251 65.297L9.32144 49.0755L2.19314 53.9648ZM63.5148 34.5448C61.093 34.5448 58.5341 33.9507 56.5692 32.7627C55.1527 31.8945 53.6905 30.9349 52.6395 29.6098C50.4462 27.0509 49.0754 23.7152 49.0754 20.1054C49.0754 12.1089 55.564 5.66602 63.5148 5.66602C71.4656 5.66602 77.9541 12.1089 77.9541 20.1054C77.9541 23.7152 76.5833 27.0509 74.39 29.6098C73.4304 30.7978 71.6483 32.2143 70.2775 32.8541C68.267 33.905 65.9366 34.5448 63.5148 34.5448ZM63.5148 7.49378C53.6905 7.49378 47.8417 18.1862 52.5938 26.4112C53.325 21.5219 58.0772 19.5114 59.7221 20.4252C59.7221 20.3795 59.7221 20.3339 59.7221 20.2882C59.1738 19.6027 58.854 18.6889 58.854 17.775V14.7135C58.2142 13.6168 58.2142 12.1546 58.8997 10.8295C60.7274 7.12823 64.8399 8.63614 65.1141 8.63614C65.2511 8.59044 65.4796 8.54475 65.6624 8.54475C67.9471 8.54475 70.6888 13.2513 68.3127 14.9419C68.3127 16.7697 68.6325 18.8716 67.3531 20.4252C68.9524 19.5114 73.7046 21.5219 74.4357 26.4112C79.1879 18.1862 73.339 7.49378 63.5148 7.49378ZM54.3302 28.7416C54.8786 29.3356 55.5183 29.8839 56.2037 30.3409C56.2037 29.0158 55.8381 27.2337 57.1176 27.2337C57.6202 27.2337 58.0315 27.6449 58.0315 28.1476V31.4375C61.3671 33.0825 65.6167 33.0825 68.9981 31.4375V28.1476C68.9981 26.9595 70.8258 26.9595 70.8258 28.1476V30.3409C71.5113 29.8839 72.151 29.3356 72.6993 28.7416V27.5992C72.6993 24.6291 70.6888 22.1616 68.1299 22.0702C67.3531 22.847 66.4849 23.9894 63.5148 23.9894C60.5446 23.9894 59.6765 22.847 58.8997 22.0702C56.3408 22.1616 54.3302 24.6291 54.3302 27.5992V28.7416ZM65.8909 21.6133C65.8909 21.5676 65.8452 21.5219 65.7995 21.4762C64.7028 21.9332 62.3267 21.9332 61.2301 21.4305C61.1844 21.4762 61.1387 21.5676 61.1387 21.6133C62.2353 22.3444 64.7942 22.3444 65.8909 21.6133ZM65.7081 19.42C66.2107 19.0544 66.4849 18.4147 66.4849 17.775V14.485C66.3935 13.5254 65.7995 13.0685 64.977 13.3426C63.7432 13.8453 62.738 13.7082 61.7327 13.2969C61.5956 13.3883 61.2757 13.7082 60.6817 14.7135V17.775C60.6817 18.963 61.687 19.9226 62.8294 19.9226C64.0174 19.9226 64.7028 20.1054 65.7081 19.42ZM63.1035 10.144C61.2757 10.144 60.5903 11.2407 60.3162 12.0632C61.9155 10.4639 62.3267 12.4288 64.3373 11.652C65.4339 11.2407 66.4392 11.3778 67.1246 11.9718C66.7591 11.1036 66.0279 10.3725 65.6624 10.3725C64.3373 10.7381 64.7942 10.144 63.1035 10.144ZM20.7907 29.7926C20.745 29.7469 20.6993 29.6555 20.6536 29.6098C18.4146 27.0509 17.0438 23.7152 17.0438 20.1054C17.0438 12.1089 23.5323 5.66602 31.4831 5.66602C39.4796 5.66602 45.9225 12.1089 45.9225 20.1054C45.9225 23.5324 44.506 27.5078 42.2213 29.7926C41.0332 30.9349 39.7995 32.123 38.2459 32.8541C36.2353 33.905 33.9506 34.5448 31.4831 34.5448C27.3706 34.5448 23.5323 32.8084 20.7907 29.7926ZM20.5622 26.4112C21.2933 21.5219 26.0455 19.5114 27.6905 20.4252C27.6905 20.3795 27.7362 20.3339 27.7362 20.2882C27.1422 19.6027 26.8223 18.6889 26.8223 17.775V14.7135C26.1826 13.6168 26.1826 12.1546 26.868 10.8295C28.7415 7.12823 32.8083 8.63614 33.0824 8.63614C33.2652 8.59044 33.448 8.54475 33.6308 8.54475C35.9155 8.54475 38.7028 13.2056 36.281 14.9419C36.281 16.7697 36.6466 18.8716 35.3214 20.3795C36.9664 19.5114 41.7186 21.5219 42.404 26.4112C47.2019 18.1862 41.3074 7.49378 31.4831 7.49378C21.6589 7.49378 15.81 18.1862 20.5622 26.4112ZM33.9049 21.6133C33.8592 21.5676 33.8135 21.5219 33.8135 21.4762C32.7169 21.9332 30.2951 21.9332 29.1984 21.4305C29.1984 21.4762 29.1527 21.5676 29.107 21.6133C30.2037 22.3444 32.7626 22.3444 33.9049 21.6133ZM33.7221 19.42C34.1791 19.0544 34.4533 18.4147 34.4533 17.775V14.485C34.3619 13.5254 33.7678 13.0685 32.991 13.3426C31.7116 13.8453 30.7063 13.7082 29.7011 13.2969C29.564 13.3883 29.2441 13.7082 28.6501 14.7135V17.775C28.6501 18.963 29.6554 19.9226 30.7977 19.9226C31.9858 19.9226 32.7169 20.1054 33.7221 19.42ZM31.0719 10.144C29.2441 10.144 28.5587 11.2407 28.3302 12.0632C29.9295 10.4639 30.2951 12.4288 32.3056 11.652C33.4023 11.2407 34.4076 11.3778 35.1387 11.9718C34.7274 11.1036 33.9963 10.3725 33.6308 10.3725C32.3056 10.7381 32.8083 10.144 31.0719 10.144Z" fill="url(#paint0_linear_556_6199)"/>
<defs>
<linearGradient id="paint0_linear_556_6199" x1="35.485" y1="2.94127" x2="42.4996" y2="75.0426" gradientUnits="userSpaceOnUse">
<stop stop-color="#134879"/>
<stop offset="0.501961" stop-color="#0B5992"/>
<stop offset="1" stop-color="#3EA9FF"/>
</linearGradient>
</defs>
</svg>
