<svg width="78" height="78" viewBox="0 0 78 78" fill="none" xmlns="http://www.w3.org/2000/svg">
<g clip-path="url(#clip0_556_6202)">
<path fill-rule="evenodd" clip-rule="evenodd" d="M44.0369 36.4183V22.8471H42.7118V36.4183H44.0369ZM66.5641 71.3286H36.8172V77.0861C36.8172 77.9543 35.6749 78.3199 35.1722 77.5888L31.7909 72.8366L28.4095 77.5888C27.8612 78.3199 26.7188 77.9543 26.7188 77.0861V71.3286H18.9965C14.6098 71.3286 11 67.7645 11 63.3322V9.13884C11 4.11248 15.1125 0 20.1845 0H66.5641C67.0668 0 67.478 0.411248 67.478 0.913884V44.9631C67.3866 46.0598 67.478 68.2214 67.478 70.4148C67.478 70.9174 67.0668 71.3286 66.5641 71.3286ZM34.9895 66.9877H28.5466V74.2074L31.0598 70.7346C31.3796 70.232 32.1564 70.232 32.522 70.7346L34.9895 74.2074V66.9877ZM12.8278 58.2601C14.4271 56.3409 16.6204 55.3814 19.2707 55.3814V1.87346C15.6608 2.3304 12.8278 5.43761 12.8278 9.13884V58.2601ZM21.0984 55.3814H54.7294L65.6503 44.4605V12.7487L54.7294 1.82777H21.0984V55.3814ZM57.3339 55.3814H65.6503V47.0193L57.3339 55.3814ZM36.8172 69.5009H65.6503V57.2091H18.9965C15.6608 57.2091 12.8278 59.9508 12.8278 63.3322C12.8278 66.7592 15.6151 69.5009 18.9965 69.5009H26.7188V66.9877H21.464C20.2759 66.9877 20.2759 65.1599 21.464 65.1599H57.0141C58.2478 65.1599 58.2478 66.9877 57.0141 66.9877H36.8172V69.5009ZM57.3339 1.82777L65.6503 10.1898V1.82777H57.3339ZM57.0141 61.5501H21.464C20.2759 61.5501 20.2759 59.7223 21.464 59.7223H57.0141C58.2478 59.7223 58.2478 61.5501 57.0141 61.5501ZM53.6784 18.9174H48.1494C47.9209 20.3339 47.0527 21.522 45.8647 22.2074V36.4183C47.8295 36.5097 47.1898 37.058 47.8295 39.5255C50.1599 39.5255 49.7944 39.5712 49.7944 43.181C49.7944 43.6837 49.3831 44.0949 48.8805 44.0949H37.8682C36.5888 44.0949 36.9543 42.1757 36.9543 40.4394C36.9543 39.3427 38.1881 39.5255 38.8735 39.5255C39.5132 36.6467 39.2847 36.464 40.884 36.464V22.2074C39.696 21.522 38.8278 20.3339 38.5993 18.9174H33.0703C32.8875 19.4657 32.5677 19.9227 32.065 20.2425L37.4569 29.4728C37.5483 29.6098 37.594 29.7926 37.594 29.9754C37.9596 32.123 35.7206 37.1494 30.6942 37.1494C25.7135 37.1494 23.4745 32.1687 23.7944 30.0211C23.7944 29.8383 23.8401 29.6555 23.9315 29.4728L29.3234 20.2425C27.4042 19.0545 27.8612 15.4446 30.6942 15.4446C31.9736 15.4446 32.7504 16.1757 33.0703 17.0896H38.5993C39.6046 11.8348 47.1898 11.8348 48.1494 17.0896H53.6784C53.9982 16.1757 54.775 15.4446 56.0545 15.4446C58.9332 15.4446 59.3902 19.0545 57.4253 20.2425L62.8172 29.4728C62.9086 29.6098 62.9543 29.7926 62.9543 29.9754C63.3199 32.123 61.0808 37.1494 56.0545 37.1494C51.0738 37.1494 48.8348 32.1687 49.1547 30.0211C49.1547 29.8383 49.2004 29.6555 49.2917 29.4728L54.6837 20.2425C54.181 19.9227 53.8612 19.4657 53.6784 18.9174ZM44.4025 20.9279C44.5395 20.8366 44.6309 20.7909 44.768 20.7452C47.3269 19.5571 46.8699 14.942 43.3972 14.942C39.8787 14.942 39.4218 19.5571 41.9807 20.7452C42.8032 21.0193 43.3972 21.2478 44.4025 20.9279ZM30.6942 17.2724C29.6889 17.2724 29.6889 18.7803 30.6942 18.7803C31.6538 18.7803 31.6538 17.2724 30.6942 17.2724ZM35.0808 29.0158L31.6081 23.0756V29.0158H35.0808ZM29.7803 23.0756L26.3076 29.0158H29.7803V23.0756ZM25.6678 30.8436C26.3533 36.7838 35.0808 36.7838 35.7206 30.8436H25.6678ZM56.0545 17.2724C55.0949 17.2724 55.0949 18.7803 56.0545 18.7803C57.0598 18.7803 57.0598 17.2724 56.0545 17.2724ZM60.4411 29.0158L56.9684 23.0756V29.0158H60.4411ZM55.1406 23.0756L51.6678 29.0158H55.1406V23.0756ZM51.0281 30.8436C51.7135 36.7381 60.4411 36.7381 61.0808 30.8436H51.0281ZM47.1441 41.3532H38.7821V42.2671H47.9666V41.3532H47.1441ZM40.7469 39.5255H46.0018L45.7276 38.2917H41.0211L40.7469 39.5255Z" fill="url(#paint0_linear_556_6202)"/>
</g>
<defs>
<linearGradient id="paint0_linear_556_6202" x1="4.3164" y1="18.107" x2="74.191" y2="59.8768" gradientUnits="userSpaceOnUse">
<stop stop-color="#134879"/>
<stop offset="0.501961" stop-color="#0B5992"/>
<stop offset="1" stop-color="#3EA9FF"/>
</linearGradient>
<clipPath id="clip0_556_6202">
<rect width="78" height="78" fill="white"/>
</clipPath>
</defs>
</svg>
