<svg width="160" height="41" viewBox="0 0 160 41" fill="none" xmlns="http://www.w3.org/2000/svg">
<g opacity="1" clip-path="url(#clip0_35_290)">
<path d="M0.694824 21.1013H19.8543L33.3693 33.2647V40.1527C15.6673 39.9613 1.27782 31.5427 0.694824 21.1013ZM19.8543 19.762H0.694824C1.27782 9.29333 15.6673 0.92933 33.3693 0.710663V7.65333L19.8543 19.762ZM34.8268 40.1527V33.2647L48.3418 21.1013H67.4218C66.8388 31.5427 52.5288 39.9613 34.8268 40.1527ZM48.3418 19.762L34.8268 7.65333V0.710663C52.5288 0.92933 66.8388 9.32066 67.4218 19.762H48.3418Z" fill="white"/>
<path d="M133.46 28.4267C133.354 32.226 133.354 41.082 146.18 41C153.361 41 159.695 38.3213 159.695 30.0393C159.695 17.5207 140.164 18.778 140.164 10.0587C140.164 5.822 143.53 4.264 146.842 4.264C152.116 4.264 153.626 7.10667 153.547 11.4253H159.35C159.695 3.41667 155.243 -0.0820007 147.266 -0.0820007C139.979 -0.0820007 134.467 3.63533 134.467 10.6327C134.467 22.4953 154.05 21.5113 154.05 30.258C154.05 34.9593 150.632 36.654 146.259 36.654C142.682 36.654 138.945 34.9593 138.945 29.602V28.4267H133.46ZM122.33 0.737999H116.791V40.18H122.33V0.737999ZM83.507 5.13867H91.3245C95.9885 5.13867 98.029 7.81733 98.029 11.07C98.029 14.8967 95.909 17.3293 91.563 17.3567H83.507V5.13867ZM83.507 21.73H89.39C95.061 21.73 99.354 22.8233 99.354 29.11C99.354 32.0347 97.234 35.8613 91.3245 35.8613H83.507V21.73ZM91.9075 40.18C96.863 40.18 104.999 39.196 104.999 29.0827C104.999 23.6707 102.296 20.2813 96.0945 19.6527V19.3793C101.713 18.2313 103.568 14.9513 103.568 10.0313C103.568 9.266 103.329 6.91533 101.819 4.756C100.202 2.56933 98.135 0.710668 92.093 0.710668H77.9155V40.18H91.9075Z" fill="white"/>
</g>
<defs>
<clipPath id="clip0_35_290">
<rect width="159" height="41" fill="white" transform="translate(0.641602)"/>
</clipPath>
</defs>
</svg>
