<svg width="81" height="80" viewBox="0 0 81 80" fill="none" xmlns="http://www.w3.org/2000/svg">
<g clip-path="url(#clip0_567_8552)">
<path fill-rule="evenodd" clip-rule="evenodd" d="M40.4764 30.2753C39.6796 30.2753 38.8829 30.0879 38.1799 29.8067C38.1799 30.1347 38.1799 30.4159 38.1331 30.6971L40.4764 33.3216L42.8197 30.6971C42.8197 30.4159 42.8197 30.1347 42.8197 29.8067C42.0698 30.0879 41.32 30.2753 40.4764 30.2753ZM26.8853 80C26.4635 80 26.0886 79.6719 25.9948 79.2501L23.9327 70.3456L15.2157 73.017C14.419 73.2982 13.716 72.4077 14.1378 71.6579L25.1512 52.5366C17.2309 47.4751 11.9819 38.6175 11.9819 28.4944C11.9819 12.7944 24.7763 0 40.4764 0C56.2233 0 69.0177 12.7944 69.0177 28.4944C69.0177 38.6175 63.7218 47.4751 55.8015 52.5366L66.8618 71.6579C67.2836 72.4077 66.5806 73.2982 65.7839 73.017L57.0669 70.3456L55.0048 79.2501C54.8173 80.0937 53.6925 80.2343 53.2707 79.5313L40.4764 57.3638L27.682 79.5313C27.5414 79.8125 27.2133 80 26.8853 80ZM26.7915 53.5208L16.9497 70.5331L24.3545 68.2835C24.87 68.0961 25.4324 68.4241 25.5262 68.9397L27.2602 76.5319L38.5549 56.942C34.2901 56.6608 30.3065 55.4423 26.7915 53.5208ZM40.0546 55.1611H40.945C55.4266 54.9268 67.143 43.0697 67.143 28.4944C67.143 13.8254 55.1922 1.87463 40.4764 1.87463C25.8074 1.87463 13.8566 13.8254 13.8566 28.4944C13.8566 43.0697 25.573 54.9268 40.0546 55.1611ZM42.4447 56.942L53.6925 76.5319L55.4734 68.9397C55.5672 68.4241 56.1296 68.0961 56.6451 68.2835L64.0499 70.5331L54.2081 53.5208C50.6931 55.4423 46.6627 56.6608 42.4447 56.942ZM40.4764 52.4897C27.2602 52.4897 16.5279 41.7106 16.5279 28.4944C16.5279 15.2783 27.2602 4.54599 40.4764 4.54599C53.6925 4.54599 64.4717 15.2783 64.4717 28.4944C64.4717 41.7106 53.6925 52.4897 40.4764 52.4897ZM40.4764 6.42062C28.2912 6.42062 18.4026 16.3093 18.4026 28.4944C18.4026 40.6796 28.2912 50.6151 40.4764 50.6151C52.6615 50.6151 62.597 40.6796 62.597 28.4944C62.597 16.3093 52.6615 6.42062 40.4764 6.42062ZM48.7248 45.2724H48.6779H28.2444C27.7289 45.2724 27.3071 44.8506 27.3071 44.3351V36.4148C27.3071 32.5718 33.3059 30.1347 36.2116 30.0879C36.2116 29.6192 36.2116 29.1506 36.2584 28.635C34.0557 26.7604 33.259 23.8547 33.4934 20.8553C33.6808 18.2777 32.7904 15.7001 34.8525 14.1535C34.2901 13.4974 33.6808 12.9818 34.0089 12.2789C34.1495 11.9508 34.4775 11.7633 34.8525 11.7633H42.2104C44.3194 11.7633 46.9439 13.0756 47.5062 16.7311V22.355C47.5062 24.9326 46.4283 27.1822 44.7412 28.635C44.7412 29.1037 44.788 29.6192 44.788 30.041C47.8812 30.1816 53.6925 32.9467 53.6925 36.4148V44.3351C53.6925 44.8506 53.2707 45.2724 52.7552 45.2724H48.7248ZM47.7406 43.3978C47.6937 38.3363 49.0528 35.4774 50.3651 34.2589C48.5373 32.7124 46.3815 31.9625 44.2256 31.9625L41.1794 35.3368C40.8044 35.7586 40.1483 35.7586 39.7734 35.3368L36.774 31.9625C34.665 31.9625 32.228 32.7124 30.4471 34.2589C31.7593 35.4774 33.1184 38.2894 33.0247 43.3978H47.7406ZM51.5836 35.8055C50.6463 36.6491 49.5215 38.3831 49.6152 43.3978H51.8179V36.4616C51.771 36.2273 51.6773 35.993 51.5836 35.8055ZM31.1501 43.3978C31.2438 38.4769 30.1659 36.696 29.2754 35.8524C29.0411 36.4616 29.1817 42.273 29.1817 43.3978H31.1501ZM43.1009 27.5571C43.1946 27.4634 43.2415 27.4165 43.3352 27.3697C44.7412 26.2917 45.6316 24.464 45.6316 22.355V21.4646C45.2098 21.1365 44.6474 20.6678 44.0382 19.8711C42.4447 17.8559 41.8355 17.7153 39.1641 17.9496C38.6486 19.6837 36.6334 21.0428 35.368 21.6052C35.368 24.5108 35.8835 25.8231 37.8987 27.5571C39.1641 28.635 41.5074 28.6819 43.1009 27.5571ZM35.368 19.4962C38.7423 17.5747 36.2116 16.3093 39.1641 16.075C43.6164 15.7001 44.6006 17.5278 45.6316 18.9338V16.9654C45.163 13.8723 42.9134 13.638 42.2104 13.638H36.8208C37.7113 14.669 37.0552 15.3251 36.4928 15.4189C35.6492 15.5595 35.4149 16.4499 35.368 16.6842V19.4962Z" fill="url(#paint0_linear_567_8552)"/>
</g>
<defs>
<linearGradient id="paint0_linear_567_8552" x1="30.7705" y1="3.5559" x2="50.2132" y2="76.4284" gradientUnits="userSpaceOnUse">
<stop stop-color="#134879"/>
<stop offset="0.501961" stop-color="#0B5992"/>
<stop offset="1" stop-color="#3EA9FF"/>
</linearGradient>
<clipPath id="clip0_567_8552">
<rect width="80" height="80" fill="white" transform="translate(0.5)"/>
</clipPath>
</defs>
</svg>
