<svg width="78" height="78" viewBox="0 0 78 78" fill="none" xmlns="http://www.w3.org/2000/svg">
<path d="M10.892 64.6694C10.6509 64.6696 10.4151 64.5983 10.2145 64.4644C10.014 64.3306 9.85762 64.1403 9.76525 63.9176C9.67287 63.6949 9.64864 63.4498 9.6956 63.2133C9.74257 62.9768 9.85862 62.7595 10.0291 62.589L19.9534 52.666C20.7436 51.8714 21.6836 51.2415 22.7189 50.8127C23.7543 50.3838 24.8643 50.1645 25.985 50.1675H47.0864C48.3237 50.1675 49.5104 50.659 50.3853 51.534C51.2602 52.4089 51.7518 53.5956 51.7518 54.8329C51.7518 56.0702 51.2602 57.2569 50.3853 58.1318C49.5104 59.0067 48.3237 59.4983 47.0864 59.4983H33.2975C32.9742 59.4983 32.6642 59.3699 32.4357 59.1413C32.2071 58.9127 32.0787 58.6027 32.0787 58.2795C32.0787 57.9563 32.2071 57.6463 32.4357 57.4177C32.6642 57.1892 32.9742 57.0608 33.2975 57.0608H47.0864C47.6773 57.0608 48.2439 56.826 48.6617 56.4082C49.0796 55.9904 49.3143 55.4238 49.3143 54.8329C49.3143 54.242 49.0796 53.6754 48.6617 53.2575C48.2439 52.8397 47.6773 52.605 47.0864 52.605H25.985C24.37 52.6094 22.8219 53.2505 21.6767 54.3893L11.7536 64.3123C11.5251 64.5409 11.2152 64.6694 10.892 64.6694Z" fill="#0B0F11"/>
<path d="M22.0947 75.8721C21.8537 75.872 21.6181 75.8005 21.4177 75.6666C21.2174 75.5327 21.0612 75.3423 20.969 75.1197C20.8768 74.897 20.8526 74.652 20.8996 74.4156C20.9466 74.1792 21.0627 73.9621 21.2331 73.7917L24.2616 70.7631C25.0519 69.9685 25.9919 69.3386 27.0272 68.9098C28.0625 68.4809 29.1726 68.2616 30.2932 68.2646H43.1949C43.9958 68.2669 44.7892 68.1102 45.5291 67.8037C46.2691 67.4972 46.9409 67.047 47.5056 66.4792L66.0989 47.8859C66.5561 47.4287 66.813 46.8086 66.813 46.162C66.813 45.5154 66.5561 44.8953 66.0989 44.4381C65.6417 43.9809 65.0216 43.724 64.375 43.724C63.7284 43.724 63.1083 43.9809 62.6511 44.4381L51.3959 55.6969C51.166 55.9189 50.8582 56.0417 50.5386 56.039C50.2191 56.0362 49.9134 55.908 49.6874 55.682C49.4615 55.4561 49.3333 55.1504 49.3305 54.8308C49.3277 54.5113 49.4506 54.2034 49.6726 53.9736L60.9277 42.7172C61.842 41.8029 63.082 41.2893 64.375 41.2893C65.6679 41.2893 66.9079 41.8029 67.8222 42.7172C68.7365 43.6315 69.2501 44.8715 69.2501 46.1644C69.2501 47.4574 68.7365 48.6974 67.8222 49.6117L49.229 68.2025C48.4386 68.9976 47.4983 69.628 46.4625 70.0571C45.4267 70.4862 44.3161 70.7054 43.1949 70.7021H30.2932C28.6783 70.7065 27.1302 71.3477 25.985 72.4864L22.9564 75.515C22.8435 75.6285 22.7092 75.7186 22.5613 75.7799C22.4134 75.8412 22.2548 75.8725 22.0947 75.8721Z" fill="#0B0F11"/>
<circle cx="44.5" cy="26.5" r="16.5" fill="#F7E6C5"/>
<path d="M42.6562 43.875C38.5585 43.875 34.5527 42.6599 31.1455 40.3833C27.7383 38.1067 25.0828 34.8708 23.5146 31.085C21.9465 27.2991 21.5362 23.1333 22.3356 19.1142C23.135 15.0952 25.1083 11.4035 28.0059 8.50589C30.9034 5.60832 34.5952 3.63505 38.6142 2.83561C42.6333 2.03618 46.7991 2.44648 50.585 4.01463C54.3708 5.58278 57.6066 8.23836 59.8833 11.6455C62.1599 15.0527 63.375 19.0585 63.375 23.1563C63.3689 28.6493 61.184 33.9157 57.2998 37.7999C53.4157 41.684 48.1493 43.8689 42.6562 43.875ZM42.6562 4.87501C39.0406 4.87501 35.5061 5.94719 32.4997 7.95596C29.4934 9.96473 27.1502 12.8199 25.7666 16.1603C24.3829 19.5008 24.0209 23.1765 24.7263 26.7228C25.4316 30.269 27.1728 33.5264 29.7294 36.0831C32.2861 38.6397 35.5435 40.3809 39.0898 41.0862C42.636 41.7916 46.3117 41.4296 49.6522 40.0459C52.9926 38.6623 55.8478 36.3191 57.8565 33.3128C59.8653 30.3064 60.9375 26.7719 60.9375 23.1563C60.932 18.3095 59.0042 13.6627 55.577 10.2355C52.1498 6.80831 47.503 4.88049 42.6562 4.87501Z" fill="#0B0F11"/>
</svg>
