<svg width="48" height="48" viewBox="0 0 48 48" fill="none" xmlns="http://www.w3.org/2000/svg">
<g clip-path="url(#clip0_540_1936)">
<path fill-rule="evenodd" clip-rule="evenodd" d="M43.9226 41.0264H26.3198C27.4446 43.8102 34.1932 43.0228 35.2899 47.2689C35.3743 47.6344 35.1212 47.9719 34.7556 47.9719H13.2442C12.8786 47.9719 12.5974 47.6344 12.6818 47.2689C13.7785 43.0228 20.5272 43.8102 21.6801 41.0264H4.07724C2.10887 41.0264 0.53418 39.4235 0.53418 37.4833V8.82953C0.53418 6.86116 2.10887 5.28647 4.07724 5.28647H9.02627V2.98067C9.02627 1.34974 10.3479 0.0281195 11.9788 0.0281195L36.5553 0C38.1862 0 39.5359 1.34974 39.5359 2.98067V5.28647H43.9226C45.8628 5.28647 47.4656 6.86116 47.4656 8.82953V37.4833C47.4656 39.4235 45.8628 41.0264 43.9226 41.0264ZM26.6853 32.225V28.9912H16.7873C16.6467 28.9912 16.5342 29.1037 16.5342 29.2443V31.9719C16.5342 32.1125 16.6467 32.225 16.7873 32.225H26.6853ZM27.8101 28.9912V32.225H31.775C31.9156 32.225 32.028 32.1125 32.028 31.9719V29.2443C32.028 29.1037 31.9156 28.9912 31.775 28.9912H27.8101ZM31.775 33.3216H16.7873C16.028 33.3216 15.4094 32.703 15.4094 31.9719V29.2443C15.4094 28.4851 16.028 27.8664 16.7873 27.8664H31.775C32.5342 27.8664 33.1528 28.4851 33.1528 29.2443V31.9719C33.1528 32.703 32.5342 33.3216 31.775 33.3216ZM33.7152 25.0264C33.3778 25.0264 33.1247 24.717 33.1528 24.3796L33.5746 21.7083C27.9507 28.935 16.3092 26.9947 13.4973 18.0808C13.2723 17.3779 14.3409 17.0404 14.5658 17.7434C17.2934 26.4042 28.738 27.3884 33.2372 20.246L30.4252 21.6801C29.7504 22.0176 29.2723 21.0053 29.9191 20.6678C30.4815 20.3866 34.1932 18.4183 34.5025 18.3902C34.8681 18.362 35.1493 18.6995 35.0931 19.065L34.2776 24.5483C34.2495 24.8295 33.9964 25.0264 33.7152 25.0264ZM14.0315 11.1072C13.6379 11.1072 13.4129 10.7698 13.4692 10.4042L14.2846 4.94903C14.3971 4.21793 15.4938 4.38664 15.3813 5.11775L14.9876 7.7891C20.3866 0.759227 32.1686 2.24956 35.0649 11.4165C35.2899 12.0914 34.2214 12.4288 33.9964 11.754C31.325 3.14938 19.8523 2.08084 15.325 9.25132L18.137 7.81722C18.8119 7.47979 19.318 8.49209 18.6431 8.82953C18.5307 8.88576 14.4815 11.1072 14.0315 11.1072ZM24.267 18.4745C22.2424 18.4745 20.5553 16.7873 20.5553 14.7346C20.5553 12.6819 22.2143 11.0228 24.267 11.0228C26.3198 11.0228 28.0069 12.6819 28.0069 14.7346C28.0069 16.7873 26.3198 18.4745 24.267 18.4745ZM24.267 12.1476C20.8646 12.1476 20.8646 17.3497 24.267 17.3497C27.6976 17.3497 27.6976 12.1476 24.267 12.1476ZM25.1106 22.3269C22.4955 22.3269 22.4674 22.5237 22.2143 20.1617C22.1018 20.1336 22.0175 20.0773 21.905 20.0211C20.0491 21.5114 20.1616 21.3708 18.3338 19.5431C17.4902 18.6995 18.4463 17.7996 18.9806 17.1248C18.9525 17.0123 18.8962 16.9279 18.8681 16.8155C16.5061 16.5343 16.6748 16.5062 16.6748 13.9192C16.6748 12.7381 17.9964 12.7944 18.8681 12.6819C18.8962 12.5694 18.9525 12.4851 18.9806 12.3726C17.4902 10.5167 17.659 10.6292 19.4867 8.80141C20.3303 7.95782 21.2301 8.91388 21.905 9.44815C22.0175 9.42004 22.1018 9.3638 22.2143 9.33568C22.4674 6.97364 22.4955 7.14235 25.1106 7.14235C26.2917 7.14235 26.2354 8.46397 26.3479 9.33568C26.4322 9.3638 26.5447 9.42004 26.6572 9.47627C28.5131 7.98594 28.4006 8.12654 30.2284 9.95431C31.072 10.7979 30.1159 11.6977 29.5535 12.3726C29.6098 12.4851 29.666 12.5694 29.6941 12.6819C32.0562 12.9631 31.8874 12.9912 31.8874 15.5782C31.8874 16.7592 30.5658 16.703 29.6941 16.8155C29.666 16.9279 29.6098 17.0123 29.5535 17.1248C31.072 18.9807 30.9032 18.8682 29.0755 20.696C28.2319 21.5395 27.3321 20.5835 26.6572 20.0211C26.5447 20.0773 26.4322 20.1336 26.3479 20.1617C26.2354 21.0334 26.2917 22.3269 25.1106 22.3269ZM21.8488 18.812C22.0737 18.812 22.4112 19.065 22.9173 19.2056C23.5922 19.4306 23.2829 21.0334 23.4797 21.2302H25.0825C25.3637 18.8401 25.0544 19.6274 26.4604 18.8682C27.1071 18.5308 28.0069 19.8805 28.3163 19.8805L29.441 18.7557C27.9507 16.8717 28.2881 17.6591 28.738 16.1125C28.963 15.4376 30.5658 15.7469 30.7627 15.5501V13.9473C28.4006 13.6661 29.1598 13.9754 28.4006 12.5694C28.0632 11.9227 29.4129 11.0228 29.4129 10.7135L28.2881 9.58875C26.4041 11.0791 27.1915 10.7417 25.6449 10.2917C24.97 10.0668 25.2793 8.46397 25.0825 8.26714H23.4797C23.1985 10.6292 23.5078 9.86995 22.1018 10.6292C21.4551 10.9666 20.724 9.75747 20.246 9.58875L19.1212 10.7417C20.6115 12.6257 20.2741 11.8383 19.8242 13.3568C19.5992 14.0598 17.9964 13.7504 17.7996 13.9473V15.5501C20.1616 15.8313 19.4024 15.522 20.1616 16.9279C20.499 17.5747 19.1212 18.4745 19.1212 18.7557L20.2741 19.9086C20.2741 19.8805 21.5113 18.812 21.8488 18.812ZM9.02627 6.41125H4.07724C2.75562 6.41125 1.65896 7.47979 1.65896 8.82953V37.4833C1.65896 38.8049 2.75562 39.9016 4.07724 39.9016H43.9226C45.2442 39.9016 46.3409 38.8049 46.3409 37.4833V8.82953C46.3409 7.47979 45.2442 6.41125 43.9226 6.41125H39.5359V9.61687H42.3198C42.6291 9.61687 42.8822 9.86995 42.8822 10.1793V36.1054C42.8822 36.4148 42.6291 36.6678 42.3198 36.6678H5.65193C5.34262 36.6678 5.08954 36.4148 5.08954 36.1054V10.1793C5.08954 9.86995 5.34262 9.61687 5.65193 9.61687H9.02627V6.41125ZM9.02627 35.5431V10.7417H6.21432V35.5431H9.02627ZM39.5359 10.7417V35.5431H41.7574V10.7417H39.5359ZM10.1511 35.5431H38.4112V2.98067C38.4112 1.96837 37.5957 1.12478 36.5834 1.12478L12.0069 1.1529C10.9946 1.1529 10.1511 1.96837 10.1511 2.98067V35.5431ZM40.3514 38.8612H38.13C37.3989 38.8612 37.3989 37.7364 38.13 37.7364H40.3514C41.0825 37.7364 41.0825 38.8612 40.3514 38.8612ZM14.2565 38.8612H12.0351C11.304 38.8612 11.304 37.7364 12.0351 37.7364H14.2565C14.9876 37.7364 14.9876 38.8612 14.2565 38.8612ZM9.86986 38.8612H7.64842C6.91731 38.8612 6.91731 37.7364 7.64842 37.7364H9.86986C10.601 37.7364 10.601 38.8612 9.86986 38.8612ZM25.1388 41.0264H22.8611C21.9894 44.6819 15.6906 44.0351 14.0597 46.8471H33.912C32.2811 44.0351 26.0386 44.6819 25.1388 41.0264Z" fill="url(#paint0_linear_540_1936)"/>
</g>
<defs>
<linearGradient id="paint0_linear_540_1936" x1="19.5486" y1="1.92298" x2="28.4419" y2="46.0676" gradientUnits="userSpaceOnUse">
<stop stop-color="#134879"/>
<stop offset="0.501961" stop-color="#0B5992"/>
<stop offset="1" stop-color="#3EA9FF"/>
</linearGradient>
<clipPath id="clip0_540_1936">
<rect width="48" height="48" fill="white"/>
</clipPath>
</defs>
</svg>
