<svg width="48" height="48" viewBox="0 0 48 48" fill="none" xmlns="http://www.w3.org/2000/svg">
<g clip-path="url(#clip0_541_1981)">
<path fill-rule="evenodd" clip-rule="evenodd" d="M23.9859 42.5167C19.0931 42.5167 14.6221 40.6046 11.304 37.4833L8.23902 40.5483C17.0685 48.9561 30.9033 48.9561 39.761 40.5483L36.6678 37.4833C33.3497 40.6046 28.9069 42.5167 23.9859 42.5167ZM23.9859 35.9086C23.6766 35.9086 23.4235 35.6555 23.4235 35.3462V32.9279C20.696 32.8717 18.7276 31.4095 18.3339 28.6257C18.2214 27.8946 19.3462 27.7258 19.4587 28.4569C20.0492 32.703 25.167 32.1968 26.6292 30.9033C28.7944 28.9912 28.3726 24.8014 23.9297 24.2953C18.5589 23.7047 17.7153 18.2777 20.6397 15.7188C21.2583 15.1564 22.2988 14.7346 23.4235 14.594V12.6257C23.4235 11.8946 24.5483 11.8946 24.5483 12.6257V14.5378C26.8541 14.5659 29.2162 15.7469 29.6661 18.8401C29.7504 19.5712 28.6538 19.7399 28.5413 19.0088C28.1757 16.3374 26.0105 15.5501 24.0984 15.6626C22.9455 15.8032 22.0457 15.9719 21.3708 16.5624C19.2056 18.4745 19.6274 22.6924 24.0703 23.1705C29.4411 23.7891 30.2847 29.188 27.3603 31.7469C26.6573 32.3656 25.645 32.7311 24.5483 32.8717V35.3462C24.5483 35.6555 24.2953 35.9086 23.9859 35.9086ZM10.5167 11.304L7.45167 8.23902C-0.984183 17.0685 -0.984183 30.9315 7.45167 39.761L10.5167 36.6678C3.79613 29.5536 3.79613 18.4464 10.5167 11.304ZM6.97364 7.08612L7.08612 6.97364C11.4446 2.67135 17.406 0 23.9859 0C37.2302 0 48 10.7698 48 23.9859C48 37.2302 37.2302 48 23.9859 48C10.7698 48 0 37.2302 0 23.9859C0 17.406 2.67135 11.4446 6.97364 7.08612ZM8.23902 7.45167L11.304 10.5167C18.4464 3.79613 29.5536 3.79613 36.6678 10.5167L39.761 7.45167C30.9033 -0.984183 17.0685 -0.984183 8.23902 7.45167ZM40.5483 39.761C48.9561 30.9315 48.9561 17.0685 40.5483 8.23902L37.4833 11.304C44.2039 18.4464 44.2039 29.5536 37.4833 36.6678L40.5483 39.761ZM23.9859 6.60808C14.3972 6.60808 6.60808 14.3972 6.60808 23.9859C6.60808 33.5747 14.3972 41.3919 23.9859 41.3919C33.5747 41.3919 41.3919 33.5747 41.3919 23.9859C41.3919 14.3972 33.5747 6.60808 23.9859 6.60808Z" fill="url(#paint0_linear_541_1981)"/>
</g>
<defs>
<linearGradient id="paint0_linear_541_1981" x1="19.5636" y1="0.831297" x2="28.4269" y2="47.1592" gradientUnits="userSpaceOnUse">
<stop stop-color="#134879"/>
<stop offset="0.501961" stop-color="#0B5992"/>
<stop offset="1" stop-color="#3EA9FF"/>
</linearGradient>
<clipPath id="clip0_541_1981">
<rect width="48" height="48" fill="white"/>
</clipPath>
</defs>
</svg>
