<svg width="78" height="78" viewBox="0 0 78 78" fill="none" xmlns="http://www.w3.org/2000/svg">
<g clip-path="url(#clip0_556_6214)">
<path fill-rule="evenodd" clip-rule="evenodd" d="M36.3269 77.9999C36.2355 77.9999 36.1898 77.9543 36.0984 77.9543C19.1459 73.6133 5.89453 55.427 5.89453 36.601V23.2583C5.89453 22.8927 6.123 22.5272 6.48856 22.3901C13.5255 19.9683 20.8822 14.3022 21.3392 7.17394C21.3849 6.85408 21.5676 6.53422 21.8875 6.39714L35.9613 0.0913373C36.1898 -0.0457453 36.464 -0.0457453 36.6924 0.0913373L50.7662 6.39714C51.0404 6.53422 51.2689 6.85408 51.2689 7.17394C51.7715 14.3022 59.1283 19.9683 66.1652 22.3901C66.5307 22.5272 66.7592 22.8927 66.7592 23.2583V36.601C66.7592 42.1757 65.5255 48.0246 63.1951 53.5079C63.4235 55.6098 63.058 57.8031 62.0984 59.8593L70.9174 68.724C73.4306 71.2372 71.6942 75.5782 68.0843 75.5782C67.0334 75.5782 66.0281 75.1669 65.2513 74.3901L56.4323 65.5254C56.1125 65.7082 55.7469 65.8453 55.4271 65.9367C50.1265 72.014 43.6379 76.1265 36.5553 77.9543C36.464 77.9543 36.4183 77.9999 36.3269 77.9999ZM61.3673 53.5536C61.3673 53.5079 61.3673 53.4622 61.3673 53.4165C60.7276 48.5729 56.6151 44.369 51.1775 44.369C40.348 44.369 36.7381 59.4024 47.1564 64.0632C49.9894 65.3427 53.4165 65.1142 56.1582 63.6063C56.5237 63.4235 56.935 63.4692 57.2548 63.7891L66.5764 73.1107C68.5413 75.0755 71.6942 72.1054 69.6379 70.0492L60.3163 60.6818C59.2197 59.5852 61.9156 58.3971 61.3673 53.5536ZM62.464 50.4007C64.1089 45.8312 64.9314 41.1247 64.9314 36.601V23.898C58.1687 21.3848 50.4007 15.8101 49.5325 7.85935L36.3269 1.91911L23.1212 7.85935C22.2531 15.8101 14.485 21.3848 7.7223 23.898V36.601C7.7223 54.5588 20.2425 71.8769 36.3269 76.1265C42.1757 74.5729 47.6133 71.3286 52.2742 66.6678C50.4464 66.8506 48.6643 66.6221 46.9736 65.9824C43.775 68.6326 40.3023 70.5975 36.601 71.7855H36.0527C22.4358 67.4446 11.8348 51.9999 11.8348 36.601V27.2337C11.8348 26.8681 12.0176 26.5483 12.3374 26.4112C19.6942 22.8014 24.949 17.2267 26.6397 11.1036C26.7311 10.8752 26.9139 10.6467 27.188 10.5553L35.9613 6.57991C36.1898 6.48852 36.464 6.48852 36.6924 6.57991L45.4657 10.5553C45.7399 10.6467 45.9227 10.8752 45.9683 11.1036C47.7047 17.2267 52.9139 22.8014 60.3163 26.4112C60.6362 26.5483 60.819 26.8681 60.819 27.2337C60.819 33.6766 61.2759 39.5711 59.5852 45.9226C60.8647 47.2021 61.8242 48.71 62.464 50.4007ZM45.1459 65.1142C34.4991 58.9912 38.8401 42.5412 51.1775 42.5412C53.7821 42.5412 56.1125 43.3637 57.9859 44.6432C59.3568 38.9314 58.9912 33.6309 58.9912 27.782C51.5887 24.0351 46.2882 18.3233 44.3691 12.0175L36.3269 8.40768L28.2847 12.0175C26.3655 18.3233 21.065 24.0351 13.6625 27.782V36.601C13.6625 51.1318 23.5782 65.7082 36.3269 69.9578C39.4341 68.9068 42.4042 67.3075 45.1459 65.1142ZM51.1775 63.8804C42.9982 63.8804 38.8401 53.9191 44.6432 48.1159C48.2531 44.5061 54.1019 44.5061 57.7118 48.1159C63.5149 53.9191 59.3568 63.8804 51.1775 63.8804ZM51.1775 47.2477C44.5975 47.2477 41.2618 55.2442 45.9227 59.905C48.8471 62.7838 53.5079 62.7838 56.4323 59.905C61.0931 55.2442 57.7575 47.2477 51.1775 47.2477ZM29.8383 56.4323C28.9244 56.4323 28.1019 56.1124 27.5079 55.4727L19.1459 47.1564C16.13 44.0948 20.7451 39.4797 23.8067 42.5412L29.29 47.9789C29.5641 48.2987 30.0668 48.2987 30.3409 47.9789L48.8471 29.5184C51.9086 26.4569 56.5237 31.1177 53.4622 34.1335L32.123 55.4727C31.529 56.1124 30.7065 56.4323 29.8383 56.4323ZM21.4763 43.4094C20.1511 43.4094 19.5571 44.963 20.471 45.8769L28.7873 54.1933C29.3357 54.7416 30.2952 54.7416 30.8436 54.1933L52.1828 32.8541C53.5536 31.4833 51.4973 29.4727 50.1265 30.7978L31.6204 49.304C30.6151 50.3093 29.0158 50.3093 28.0105 49.304L22.5272 43.8207C22.2531 43.5465 21.8875 43.4094 21.4763 43.4094Z" fill="url(#paint0_linear_556_6214)"/>
</g>
<defs>
<linearGradient id="paint0_linear_556_6214" x1="32.984" y1="-0.5901" x2="45.0037" y2="78.5748" gradientUnits="userSpaceOnUse">
<stop stop-color="#134879"/>
<stop offset="0.501961" stop-color="#0B5992"/>
<stop offset="1" stop-color="#3EA9FF"/>
</linearGradient>
<clipPath id="clip0_556_6214">
<rect width="78" height="78" fill="white"/>
</clipPath>
</defs>
</svg>
