<svg width="81" height="80" viewBox="0 0 81 80" fill="none" xmlns="http://www.w3.org/2000/svg">
<path fill-rule="evenodd" clip-rule="evenodd" d="M78.4046 30.9939L60.3157 12.9048C59.7324 12.3213 58.9565 12 58.1313 12C57.3062 12 56.5304 12.3213 55.9471 12.9048L50.024 18.8279C49.4405 19.4113 49.1192 20.1872 49.1192 21.0122C49.1192 21.8373 49.4405 22.6131 50.024 23.1966L50.1389 23.3114L44.699 28.7513C41.7747 27.8616 38.5719 28.4412 36.1238 30.3642L29.6209 23.8611L30.2854 23.1966C30.8689 22.6132 31.1903 21.8373 31.1903 21.0122C31.1903 20.187 30.8689 19.4113 30.2854 18.8279L24.3624 12.9048C23.779 12.3213 23.0031 12 22.1781 12C21.353 12 20.5772 12.3213 19.9937 12.9048L1.90484 30.9939C1.32134 31.5772 1 32.3531 1 33.1783C1 34.0034 1.32134 34.7792 1.90484 35.3625L7.82791 41.2856C8.41125 41.8691 9.18716 42.1904 10.0122 42.1904C10.8373 42.1904 11.6131 41.8691 12.1966 41.2856L12.9356 40.5465L21.7852 49.3961C21.5888 49.5374 21.4019 49.6948 21.2274 49.8693L18.7882 52.3086C17.0432 54.0535 17.0432 56.893 18.7882 58.638C19.6607 59.5106 20.8068 59.9468 21.953 59.9468C22.0333 59.9468 22.1134 59.944 22.1937 59.9398C22.1284 61.1647 22.5619 62.4115 23.4955 63.3451C24.368 64.2177 25.5141 64.6539 26.6603 64.6539C26.9388 64.6539 27.2173 64.6276 27.492 64.5761C27.5567 65.6282 27.9891 66.6617 28.7911 67.4639C29.6365 68.3092 30.7603 68.7748 31.9559 68.7748C32.4533 68.7748 32.938 68.6931 33.3958 68.538L35.4809 70.6232C36.392 71.5343 37.6042 71.9999 38.8028 71.9999C39.8016 71.9999 40.7911 71.6764 41.5886 71.0178C42.4872 70.2755 43.0618 69.2135 43.1933 68.0682C44.5821 68.458 46.1091 68.2005 47.2465 67.2611C48.1362 66.5262 48.7083 65.4775 48.8472 64.3453C50.2498 64.7564 51.8016 64.5045 52.9531 63.5533C53.8442 62.8173 54.4167 61.7667 54.5545 60.6325C55.9549 61.0405 57.503 60.7875 58.6524 59.8382C59.6278 59.0326 60.2214 57.85 60.281 56.5936C60.3408 55.3363 59.8648 54.1049 58.9751 53.2152L57.7026 51.9427L68.2424 41.4029C68.8091 41.9099 69.5307 42.1901 70.2971 42.1901C71.1223 42.1901 71.898 41.8688 72.4814 41.2853L78.4044 35.3622C78.9879 34.7789 79.3093 34.003 79.3093 33.178C79.3094 32.3531 78.9881 31.5772 78.4046 30.9939ZM23.4953 57.0158C22.6449 57.8664 21.261 57.8664 20.4103 57.0158C19.5598 56.1653 19.5598 54.7814 20.4103 53.9309L22.8496 51.4917C23.2616 51.0796 23.8095 50.8526 24.392 50.8526C24.9746 50.8526 25.5225 51.0796 25.9345 51.4917C26.3466 51.9037 26.5734 52.4514 26.5734 53.0341C26.5734 53.6169 26.3466 54.1647 25.9345 54.5766L23.4953 57.0158ZM28.2026 61.7231C27.3522 62.5735 25.9683 62.5735 25.1176 61.7231C24.2671 60.8726 24.2671 59.4887 25.1176 58.6382L26.5298 57.226C27.3803 56.3754 28.7642 56.3754 29.6148 57.226C30.0268 57.638 30.2536 58.1859 30.2536 58.7685C30.2536 59.3511 30.0268 59.8989 29.6148 60.311L28.2026 61.7231ZM33.4983 65.842C33.0862 66.2541 32.5385 66.4809 31.9558 66.4809C31.373 66.4809 30.8253 66.2539 30.4133 65.842C29.5628 64.9915 29.5628 63.6076 30.4133 62.7571C30.8253 62.345 31.3732 62.118 31.9558 62.118C32.5384 62.118 33.0862 62.345 33.4983 62.7571C34.3488 63.6076 34.3488 64.9915 33.4983 65.842ZM57.9892 56.4848C57.9599 57.1059 57.6766 57.6688 57.1915 58.0693C56.3388 58.7737 55.0101 58.6648 54.1669 57.8214L52.0992 55.7536C51.6511 55.3056 50.9249 55.3057 50.4769 55.7536C50.0289 56.2015 50.0289 56.9279 50.4769 57.3759L51.6537 58.5527C52.0873 58.9863 52.3193 59.5866 52.2901 60.1998C52.2606 60.821 51.9771 61.3839 51.492 61.7845C50.6393 62.4888 49.3108 62.3799 48.4674 61.5365L46.3924 59.4615C45.9444 59.0135 45.2181 59.0135 44.7702 59.4615C44.3223 59.9095 44.3223 60.6358 44.7702 61.0837L45.947 62.2604C46.3806 62.694 46.6126 63.2944 46.5834 63.9075C46.5539 64.5288 46.2705 65.0915 45.7854 65.4922C44.9327 66.1964 43.604 66.0875 42.7608 65.2443L40.7345 63.218C40.2866 62.7701 39.5602 62.7701 39.1124 63.218C38.6644 63.666 38.6644 64.3924 39.1124 64.8402L40.2892 66.017C40.7228 66.4506 40.9548 67.0509 40.9256 67.6641C40.8961 68.2854 40.6126 68.8482 40.1275 69.2488C39.2748 69.953 37.9463 69.8442 37.1029 69.0009L35.3344 67.2325C36.8611 65.4763 36.7905 62.8045 35.1204 61.1344C34.3849 60.3988 33.4383 59.9512 32.4172 59.8472C32.5032 59.4983 32.5477 59.1368 32.5477 58.7682C32.5477 57.5727 32.0823 56.4487 31.2368 55.6034C30.5179 54.8845 29.6134 54.4625 28.676 54.3359C28.802 53.9191 28.8673 53.4815 28.8673 53.0337C28.8673 51.8382 28.4017 50.7142 27.5564 49.869C26.711 49.0237 25.5872 48.5581 24.3917 48.5581C24.3257 48.5581 24.2599 48.5601 24.1943 48.5629C24.1915 48.56 24.1889 48.557 24.1863 48.554C24.1829 48.5501 24.1795 48.5462 24.1758 48.5425L14.5578 38.9244L23.8012 29.681C24.2492 29.233 24.2492 28.5066 23.8012 28.0588C23.3532 27.6108 22.6269 27.6108 22.179 28.0588L10.5744 39.6634C10.2645 39.9733 9.76026 39.9734 9.45023 39.6634L3.52716 33.7404C3.21729 33.4305 3.21729 32.9261 3.52716 32.6162L21.616 14.5272C21.9259 14.2173 22.4302 14.2173 22.7402 14.5272L28.6633 20.4502C28.9731 20.7601 28.9731 21.2645 28.6633 21.5744L25.8218 24.4159C25.3738 24.8639 25.3738 25.5902 25.8218 26.038C26.2698 26.486 26.9961 26.486 27.444 26.038L27.9986 25.4834L34.4522 31.9372L29.3794 37.0099C28.534 37.8553 28.0685 38.9791 28.0685 40.1747C28.0685 41.3703 28.5339 42.4942 29.3794 43.3395C30.2519 44.2123 31.3978 44.6483 32.544 44.6483C33.6901 44.6483 34.8364 44.2119 35.7088 43.3395L40.7818 38.2665L57.3528 54.8377C57.7864 55.2713 58.0184 55.8716 57.9892 56.4848ZM70.8595 39.6634L76.7826 33.7403C77.0924 33.4305 77.0924 32.9262 76.7829 32.616L58.6939 14.527C58.384 14.2171 57.8797 14.2171 57.5697 14.527L51.6466 20.45C51.3367 20.7599 51.3367 21.2643 51.6466 21.5742L67.939 37.867L69.7353 39.6634C70.0452 39.9733 70.5495 39.9734 70.8595 39.6634ZM66.3167 39.4891L66.6145 39.7869L56.0808 50.3206L41.5934 35.8331C41.1454 35.3851 40.4191 35.3851 39.9713 35.8331L34.0872 41.7171C33.2366 42.5677 31.8528 42.5675 31.0022 41.7171C30.5902 41.3051 30.3634 40.7572 30.3634 40.1747C30.3634 39.5921 30.5902 39.0442 31.0022 38.6322L36.8863 32.7481C39.2365 30.3979 42.8565 29.9632 45.6897 31.6908C46.2307 32.0207 46.9364 31.8495 47.2663 31.3086C47.5861 30.7839 47.4339 30.1055 46.9312 29.7639L51.7616 24.9335L66.3167 39.4891Z" fill="#0B0F11"/>
<path d="M70.8595 39.6633L76.7826 33.7402C77.0924 33.4303 77.0924 32.926 76.7829 32.6159L58.6939 14.5268C58.384 14.217 57.8797 14.217 57.5697 14.5268L51.6466 20.4499C51.3367 20.7598 51.3367 21.2642 51.6466 21.5741L67.939 37.8669L69.7353 39.6633C70.0452 39.9731 70.5495 39.9733 70.8595 39.6633Z" fill="#FEF1D8"/>
</svg>
