<svg width="81" height="80" viewBox="0 0 81 80" fill="none" xmlns="http://www.w3.org/2000/svg">
<path fill-rule="evenodd" clip-rule="evenodd" d="M25 13.5L24 8L32.5 4L40 3.5L50 4.5L47 8L48 10.5L52 9.5L54 11V13L50 15L45 15.5L41 18.5L40 22L39 26L41 28.5L45.5 27H54L62.5 29.5L68 33L68.5 37.5L72 42.5L77 44L76.5 48L73 57.5L68 65.5L61.5 70H59.5L54 68L44.5 67L32.5 68L22 71.5L19.5 70L12 62.5H13.5L20.5 61L29.5 49L31.5 44L29.5 37.5L26.5 33H22L16 36L10.5 39V28.5L12 27L15 29L19.5 29.5L23 25.5L25 13.5ZM42 39.5L47.5 34L49.5 33.5H53L58 35.5L61.5 39.5L62 44.5L60.5 51L57.5 58.5L54 61.5L52 61L51.5 59.5L52 56.5L52.5 50.5L52 46L50.5 45.5H47.5L42 44L40.5 42L42 39.5ZM41 7L38.5 8L38 9.5L37 13.5L37.5 15H39.5L42 13.5L43 10.5L43.5 7.5L41 7Z" fill="#FEF1D8"/>
<path d="M60.9821 69.063L60.9191 69.0371C55.9622 66.9992 49.5534 65.7854 42.4779 65.7854C34.4502 65.7854 27.2984 67.3443 22.1376 69.8903L22.075 69.9212L22.0158 69.8841C19.1866 68.1088 16.6211 65.9177 14.4162 63.4217L14.2547 63.2388L14.4975 63.2145C17.2527 62.939 19.5125 62.4569 20.0496 62.333C20.0499 62.3329 20.0502 62.3328 20.0505 62.3327L20.4016 62.2449L20.6535 61.9931L20.6537 61.9929C22.7438 59.9097 25.7588 56.598 28.2502 53.2428C29.496 51.5651 30.6088 49.8791 31.4097 48.3323C32.2125 46.782 32.694 45.3859 32.694 44.2836C32.694 42.8336 32.3822 40.7056 31.6525 38.6039C30.9223 36.501 29.7787 34.439 28.1252 33.1053C26.3885 31.7078 24.2447 31.2444 21.9156 31.7483C17.9815 32.6257 14.9345 35.0393 12.9019 36.6571L12.9003 36.6584C12.8119 36.7264 12.7232 36.798 12.6332 36.8707L12.6326 36.8712C12.5432 36.9434 12.4524 37.0167 12.3614 37.0867L12.1581 37.2431L12.1602 36.9866C12.174 35.2619 12.1326 33.7026 12.0774 32.4053L12.0773 32.4035C12.0747 32.3104 12.072 32.2166 12.0693 32.1224C12.0296 30.7408 11.9871 29.2619 12.0922 28.4865L12.1157 28.3133L12.272 28.3915C12.3455 28.4282 12.4282 28.4786 12.5192 28.5339C12.5702 28.5649 12.6238 28.5975 12.6798 28.6302L12.6837 28.6325L12.6837 28.6326C13.7734 29.3223 14.9454 29.9967 16.1324 30.4203C17.3191 30.8437 18.5109 31.0128 19.6451 30.7041L19.6454 30.704C21.0383 30.329 22.2028 29.2685 23.1044 27.5476C23.8909 26.0154 24.9381 22.7234 25.5743 19.039C26.2107 15.3535 26.4314 11.2992 25.5822 8.23778L25.5543 8.13711L25.6484 8.09176C30.2527 5.87279 35.4254 4.63864 40.875 4.63864C43.1906 4.63864 45.4648 4.86049 47.6562 5.29043L47.8654 5.33148L47.7274 5.494C47.1113 6.21959 46.6482 6.92873 46.3499 7.56604C45.9373 8.45879 45.8774 9.15893 45.9643 9.68858C46.0513 10.2189 46.2873 10.5888 46.4834 10.8176L46.4838 10.8181C47.356 11.8465 49.0234 12.0216 51.6743 11.2761C52.0228 11.1766 52.2747 11.1533 52.448 11.1609C52.5346 11.1647 52.6025 11.1763 52.6533 11.1904C52.6786 11.1975 52.7007 11.2054 52.7194 11.214C52.7343 11.2209 52.7583 11.2331 52.7779 11.2527C52.8015 11.2763 52.8146 11.3049 52.8218 11.3238C52.8303 11.3457 52.8369 11.3705 52.8418 11.3966C52.8516 11.4493 52.8563 11.5154 52.8524 11.5926C52.8446 11.7476 52.8025 11.9528 52.6929 12.194C52.2543 13.1733 51.0011 14.1606 48.8481 14.1606H48.5717H48.5711L48.5606 14.1606C47.0829 14.1537 45.9067 14.1482 44.8178 14.406C43.7327 14.6629 42.7294 15.183 41.6103 16.2407C40.3941 17.3951 39.765 18.2827 39.4496 19.0393C39.1359 19.792 39.1279 20.4257 39.1756 21.0869C39.1756 21.0872 39.1757 21.0875 39.1757 21.0877L39.1772 21.1066C39.1971 21.3577 39.2146 21.5788 39.1261 21.8368C39.0363 22.0984 38.8424 22.3868 38.4661 22.7978M60.9821 69.063L38.3739 22.7135M60.9821 69.063L61.038 69.0241C68.8172 63.6161 74.3365 55.1434 75.8342 45.3804L75.8527 45.2596L75.7324 45.2384C73.9751 44.9283 72.4534 44.5032 71.2528 43.7577C70.0574 43.0154 69.1753 41.9523 68.7005 40.3521M60.9821 69.063L68.5805 40.3869M38.4661 22.7978L38.3739 22.7135M38.4661 22.7978C38.4661 22.7978 38.4662 22.7978 38.4662 22.7978L38.3739 22.7135M38.4661 22.7978C37.1988 24.1853 37.1513 26.5772 38.3772 28.2349M38.3739 22.7135C37.0612 24.1505 37.0197 26.6102 38.2772 28.3098C39.3135 29.6916 41.4277 30.6865 44.2466 29.3185C48.3506 27.3425 53.8226 28.1855 54.4306 28.2822C55.5914 28.4756 58.2306 29.0836 62.7354 30.9767M38.3772 28.2349C38.3772 28.2349 38.3772 28.2348 38.3772 28.2348L38.2773 28.3097L38.3777 28.2355C38.3775 28.2353 38.3774 28.2351 38.3772 28.2349ZM38.3772 28.2349C38.8799 28.9051 39.6438 29.4812 40.6235 29.724C41.602 29.9666 42.8053 29.8791 44.1921 29.2061L44.1924 29.2059C46.268 28.2065 48.683 27.9224 50.6481 27.8981C52.6152 27.8738 54.143 28.1099 54.4503 28.1587L54.4512 28.1589C55.6233 28.3542 58.272 28.9654 62.7838 30.8615M62.7838 30.8615L62.7354 30.9767M62.7838 30.8615C62.7838 30.8615 62.7838 30.8615 62.7838 30.8615L62.7354 30.9767M62.7838 30.8615C64.7485 31.6865 65.91 32.7886 66.6758 34.0862C67.4381 35.3776 67.8044 36.8574 68.1905 38.422M62.7354 30.9767C66.6183 32.6073 67.2954 35.3156 68.0692 38.4524M48.5717 14.0356L48.55 14.0355C45.6057 14.0218 43.7851 14.0132 41.5245 16.1498C39.0786 18.4713 38.9543 19.7564 39.051 21.0967L48.5717 14.0356ZM48.5717 14.0356H48.8481C50.9623 14.0356 52.1645 13.0684 52.579 12.1425L48.5717 14.0356ZM47.6321 5.41309C47.6011 5.4496 47.5705 5.48608 47.5402 5.52252C47.5628 5.52691 47.5854 5.53132 47.608 5.53575L47.6321 5.41309ZM47.6321 5.41309L47.5368 5.33219C47.5216 5.35007 47.5065 5.36795 47.4915 5.38582C47.5384 5.39481 47.5853 5.4039 47.6321 5.41309ZM68.0692 38.4524L68.1905 38.422M68.0692 38.4524C68.235 39.1156 68.4008 39.7513 68.5805 40.3869M68.0692 38.4524L68.1905 38.4224C68.1905 38.4223 68.1905 38.4222 68.1905 38.422M68.1905 38.422C68.356 39.0843 68.5214 39.7184 68.7005 40.3521M68.5805 40.3869L68.7003 40.3514C68.7004 40.3516 68.7004 40.3519 68.7005 40.3521M68.5805 40.3869L68.7007 40.3529C68.7007 40.3527 68.7006 40.3524 68.7005 40.3521M40.4018 26.7266C40.749 27.1941 41.227 27.3509 41.7143 27.338C42.1959 27.3252 42.6912 27.1476 43.0995 26.9435C45.5083 25.7803 48.2719 25.4326 50.5275 25.3931C52.7819 25.3535 54.5181 25.6219 54.8649 25.6831L54.8667 25.6834C56.14 25.8888 58.9908 26.5488 63.751 28.5356C66.3106 29.6101 67.8168 31.0916 68.7893 32.7181C69.7587 34.3394 70.2012 36.1095 70.621 37.789L70.6286 37.8194L70.629 37.8209C70.7808 38.428 70.9333 39.038 71.1137 39.6485L71.1137 39.6488C71.392 40.5834 71.9022 41.2346 72.7052 41.7121C73.5012 42.1854 74.5806 42.4855 75.9929 42.7347L76.1282 42.7586L76.1392 42.6217C76.2086 41.7609 76.2364 40.8869 76.2364 40C76.2364 23.9137 65.4475 10.3103 50.7207 6.03922L50.6498 6.01864L50.5975 6.07088L50.5961 6.07235C50.3624 6.30601 50.1392 6.52923 49.9295 6.76683C48.9689 7.82505 48.5678 8.64418 48.4643 9.05841L48.4307 9.19287L48.5679 9.21247C48.8826 9.25744 49.5928 9.25271 50.9829 8.84962C52.1066 8.53154 52.9431 8.62178 53.5415 8.83998C54.1414 9.05874 54.5113 9.40958 54.6946 9.6256L54.6949 9.62596C55.4711 10.5337 55.587 11.916 54.9803 13.2511C54.2131 14.9064 52.2123 16.6743 48.8481 16.6743L48.5585 16.6743C48.5585 16.6743 48.5584 16.6743 48.5583 16.6743C47.148 16.6674 46.2121 16.6631 45.4469 16.8381C44.6707 17.0155 44.0746 17.3755 43.3318 18.0763C42.4859 18.8736 42.0611 19.415 41.8557 19.8421C41.6474 20.2752 41.6686 20.5847 41.6894 20.8906L41.6899 20.898L41.69 20.8994C41.731 21.4115 41.7367 21.9217 41.5604 22.4954C41.384 23.0694 41.0223 23.717 40.3128 24.4947L40.3127 24.4948C40.0752 24.756 39.9789 25.1563 39.997 25.5587C40.0153 25.9636 40.1499 26.3928 40.4018 26.7266ZM40.4018 26.7266C40.402 26.7267 40.4021 26.7268 40.4022 26.727L40.5019 26.6516L40.4015 26.7261C40.4016 26.7263 40.4017 26.7264 40.4018 26.7266ZM53.3798 4.25951L53.3806 4.2598C68.1314 9.42465 78.75 23.5007 78.75 40C78.75 41.0053 78.7087 42.0106 78.6261 42.988L78.626 42.9892C78.5571 43.9128 78.4607 44.8345 78.3096 45.7275L78.3092 45.7295C76.7943 55.6731 71.4093 64.35 63.7376 70.1761L63.7361 70.1772C62.9112 70.8234 62.0445 71.415 61.1629 71.966L61.1619 71.9666C55.2949 75.7127 48.3261 77.875 40.875 77.875C34.0299 77.875 27.5983 76.0433 22.0479 72.848L22.0461 72.847C21.1527 72.3522 20.2996 71.8019 19.4586 71.2229C16.3183 69.0605 13.5224 66.4436 11.1533 63.4547L11.1528 63.4541C10.4232 62.5455 9.74901 61.6098 9.13011 60.6196L9.12869 60.6174C5.2449 54.6815 3 47.6026 3 40C3 25.9109 10.74 13.5841 22.1993 7.0694L22.2008 7.06856C22.9989 6.6007 23.8109 6.17401 24.6509 5.77471L24.6509 5.77468C29.5675 3.43342 35.0765 2.125 40.875 2.125C44.0153 2.125 47.0589 2.51064 49.9645 3.24052L49.9664 3.24095C51.1357 3.51609 52.2643 3.86013 53.3798 4.25951ZM23.3237 9.51836L23.2875 9.35034L23.1388 9.43661C12.6001 15.5519 5.51364 26.9645 5.51364 40C5.51364 47.7657 8.03757 54.963 12.3087 60.8011L12.3483 60.8553L12.4155 60.8521C14.7585 60.7412 17.1974 60.3809 19.1103 59.9651L19.1465 59.9572L19.1726 59.9308C22.1617 56.9071 24.9092 53.6235 26.9102 50.7881C27.9106 49.3705 28.726 48.0629 29.2918 46.9543C29.8547 45.8514 30.1804 44.9274 30.1804 44.2836C30.1804 43.2884 29.95 41.5345 29.3834 39.7582C28.8175 37.9842 27.9097 36.1669 26.541 35.0662L26.5409 35.0661C25.389 34.1418 24.0366 33.8598 22.4563 34.2124C19.0798 34.9519 16.2948 37.1684 14.4596 38.631L14.4595 38.6311C13.6263 39.2977 12.9474 39.8399 12.3286 40.1434C11.718 40.4429 11.1839 40.5012 10.6281 40.2201L10.6265 40.2193C10.1155 39.9702 9.86355 39.5362 9.74028 39.1006C9.61637 38.6628 9.6258 38.2338 9.63267 38.0141L9.63268 38.0135C9.68024 36.2303 9.63591 34.6202 9.59621 33.1783C9.58968 32.9409 9.58327 32.708 9.57742 32.4797L9.57738 32.4787C9.51504 30.6224 9.46758 29.1949 9.6211 28.1237C9.77387 27.0577 10.1215 26.3739 10.827 25.9727C11.443 25.6225 12.0987 25.6613 12.6788 25.8385C13.26 26.016 13.7517 26.3286 14.0272 26.5077L14.0286 26.5086C14.8174 27.0068 15.7125 27.5365 16.5776 27.8983C17.4377 28.258 18.2929 28.4625 18.9912 28.2787L18.992 28.2785C19.7067 28.0849 20.3226 27.4377 20.8666 26.3915L20.8669 26.3911C21.5867 24.9932 22.4842 22.0948 23.0603 18.8941C23.6364 15.6937 23.8955 12.168 23.3237 9.51836ZM25.0199 71.362L24.7656 71.4654L25.0106 71.5894C29.7811 74.0024 35.1757 75.3614 40.875 75.3614C47.1152 75.3614 52.9674 73.7389 58.0569 70.8821L58.3029 70.744L58.0354 70.6545C53.641 69.1851 48.2522 68.299 42.4779 68.299C35.8457 68.299 29.694 69.4619 25.0199 71.362Z" fill="#0B0F11" stroke="white" stroke-width="0.25"/>
<path d="M44.7975 34.6369L44.7978 34.6367C48.7359 31.2709 55.6803 30.9265 61.3044 36.8662L61.3044 36.8662C62.4339 38.0565 63.027 39.6626 63.2351 41.4842C63.4432 43.3059 63.2651 45.335 62.8599 47.3594C62.0493 51.409 60.3343 55.4172 59.021 57.6655L59.021 57.6656C58.1086 59.2297 57.0266 60.4953 55.9249 61.3684C54.8214 62.2431 53.7082 62.7163 52.7311 62.7163C52.3893 62.7163 52.0729 62.6508 51.7538 62.5313C51.3259 62.3599 50.785 62.0121 50.4429 61.2984C50.0998 60.5823 49.9482 59.4803 50.338 57.7842C50.9549 55.1157 51.2254 52.5678 51.2549 50.5743C51.2697 49.5778 51.2242 48.7173 51.1309 48.0483C51.0842 47.7138 51.0253 47.425 50.9551 47.1898C50.8855 46.9569 50.8021 46.7672 50.7016 46.6385L50.6573 46.5818L50.5859 46.5917C47.5383 47.0153 44.6508 46.0597 41.564 45.0354C39.9582 44.5001 39.5265 43.4247 39.4087 42.8224L39.4087 42.8223C39.1639 41.5786 39.8013 40.128 40.8738 38.675C41.9416 37.2283 43.4189 35.8088 44.7975 34.6369ZM56.8462 56.41L56.8464 56.4097C58.3599 53.8131 59.7535 50.1448 60.4055 46.7407C60.7316 45.0385 60.8733 43.397 60.7493 41.9854C60.6255 40.5763 60.2355 39.3802 59.4824 38.5875C56.8644 35.8164 54.0416 34.7068 51.5428 34.7068C49.5369 34.7068 47.7395 35.4223 46.4181 36.5468L46.4178 36.5471C44.4843 38.2034 43.3154 39.5413 42.6478 40.5165C42.3142 41.0039 42.1041 41.4029 41.987 41.7077C41.9284 41.86 41.892 41.9914 41.8758 42.1004C41.8601 42.2055 41.8608 42.3046 41.8925 42.3823L41.898 42.3958L41.9065 42.4078L42.0082 42.3351C41.9065 42.4078 41.9066 42.4079 41.9066 42.4079L41.9067 42.4081L41.907 42.4085L41.9075 42.4092L41.9087 42.4107L41.9113 42.4141L41.9182 42.4223C41.9236 42.4284 41.9304 42.4355 41.9391 42.4435C41.9565 42.4596 41.9811 42.4792 42.0154 42.501C42.0836 42.5445 42.1907 42.5969 42.3573 42.6477C45.7363 43.7649 47.9897 44.4399 50.3177 44.0893L50.3265 44.0879L50.335 44.0854C50.4529 44.05 50.5728 44.0492 50.7137 44.0492C51.3815 44.0492 51.9983 44.3233 52.4873 44.852C53.0128 45.4204 53.3551 46.3108 53.5534 47.402C53.7512 48.4904 53.803 49.7632 53.76 51.0814C53.674 53.7176 53.2091 56.5179 52.7889 58.3501L52.7889 58.3504C52.5518 59.3961 52.6159 59.9199 52.6816 60.1172L52.7123 60.2093L52.8091 60.2023C52.98 60.1901 53.2203 60.1073 53.5011 59.9589C53.7854 59.8088 54.1216 59.586 54.4865 59.2825C55.2166 58.6753 56.0654 57.7416 56.8462 56.41Z" fill="#0B0F11" stroke="white" stroke-width="0.25"/>
<path d="M38.2087 16.6551L37.8703 16.5548L37.869 16.5545C36.6215 16.199 36.0821 15.5269 35.8624 14.8205C35.6387 14.1013 35.7403 13.3305 35.8167 12.7676C35.8583 12.4768 35.9004 12.1542 35.9145 11.8025C35.935 11.3932 36.0137 10.482 36.3085 9.48852C36.6039 8.49308 37.1124 7.42812 37.9838 6.69732C38.8271 6.00139 39.8701 5.69318 41.0247 5.84086L41.0251 5.8409L41.3567 5.88236L41.3575 5.88245L41.3905 5.88637C42.1944 5.98174 42.8271 6.05678 43.3368 6.21617C43.8464 6.37552 44.2243 6.6168 44.5159 7.04435C44.8063 7.47692 44.8838 7.95751 44.8437 8.4954C44.8034 9.03581 44.6457 9.62275 44.4727 10.2662L44.4711 10.2721L44.4711 10.2723L44.4613 10.309C44.1062 11.6406 43.8791 12.4924 43.504 13.194C43.1291 13.8952 42.6027 14.4521 41.6295 15.1786C41.0502 15.6027 40.1905 15.9743 39.4669 16.2413C39.1067 16.3743 38.7832 16.4803 38.5498 16.553C38.4331 16.5893 38.3391 16.6173 38.2743 16.6362C38.2471 16.6442 38.2251 16.6505 38.2087 16.6551ZM39.6072 8.61867L39.6072 8.61866L39.6058 8.61985C39.2269 8.93933 38.9483 9.47715 38.7573 10.0692C38.5654 10.6645 38.4566 11.3314 38.4285 11.9281C38.4148 12.1387 38.367 12.566 38.3203 12.9691C38.3098 13.0598 38.2993 13.1494 38.2893 13.235C38.2553 13.5258 38.2269 13.7693 38.2213 13.8469L38.2082 14.0304L38.3837 13.975C38.9123 13.808 39.647 13.5129 40.1204 13.1545C40.4412 12.9183 40.7294 12.5359 40.9815 12.1019C41.2351 11.6656 41.458 11.1668 41.6441 10.6884C42.0161 9.73229 42.2462 8.84476 42.2822 8.67182L42.3084 8.54628L42.1822 8.52334C42.0256 8.49487 41.6171 8.44258 41.2437 8.39785C41.056 8.37535 40.8755 8.35458 40.7375 8.33941C40.6685 8.33183 40.6099 8.32562 40.5661 8.3213C40.5265 8.31738 40.4905 8.31405 40.474 8.31405C40.0356 8.31405 39.7736 8.48252 39.6072 8.61867Z" fill="#0B0F11" stroke="white" stroke-width="0.25"/>
</svg>
