<svg width="81" height="80" viewBox="0 0 81 80" fill="none" xmlns="http://www.w3.org/2000/svg">
<path d="M24 38H40.5H58L64 42L65 48L65.5 66L62.5 71.5L56.5 74.5H33L20.5 73.5L17 71.5L15 66.5L14.5 48L15.5 44L18.5 40L24 38Z" fill="#FEF1D8"/>
<path d="M49.81 35.8655L49.3555 36.1838H49.9104H55.7652C61.8621 36.1838 66.8243 41.1865 66.825 47.3393V64.6695C66.825 70.8217 61.8628 75.825 55.7659 75.825H55.6169H55.6034H24.2646H24.2511H24.2341C18.1379 75.825 13.175 70.8224 13.175 64.6695V47.3393C13.175 41.1872 18.1372 36.1838 24.2341 36.1838H30.091H30.6461L30.1914 35.8655C25.7005 32.7213 22.7535 27.4874 22.7535 21.5693C22.7535 11.9766 30.4922 4.175 40.0018 4.175C49.5085 4.175 57.2458 11.9766 57.2458 21.5693C57.2458 27.4874 54.2988 32.7213 49.81 35.8655ZM57.2295 72.2367L57.2279 72.456L57.4421 72.4089C60.973 71.6317 63.6246 68.4589 63.6246 64.6695L63.6239 47.3393C63.6239 42.9701 60.0995 39.414 55.7645 39.414H24.2333C19.8984 39.414 16.374 42.9701 16.374 47.3393V64.6681C16.374 68.4232 18.9799 71.5703 22.4627 72.3833L22.676 72.4331L22.6775 72.2141L22.7826 57.4266C22.789 56.537 23.5058 55.8232 24.3824 55.8232H24.3825H24.3825H24.3826H24.3826H24.3827H24.3827H24.3828H24.3828H24.3829H24.3829H24.383H24.383H24.3831H24.3831H24.3832H24.3832H24.3833H24.3833H24.3834H24.3834H24.3835H24.3836H24.3836H24.3837H24.3837H24.3838H24.3838H24.3839H24.384H24.384H24.3841H24.3841H24.3842H24.3842H24.3843H24.3843H24.3844H24.3845H24.3845H24.3846H24.3846H24.3847H24.3847H24.3848H24.3849H24.3849H24.385H24.385H24.3851H24.3851H24.3852H24.3852H24.3853H24.3854H24.3854H24.3855H24.3855H24.3856H24.3856H24.3857H24.3857H24.3858H24.3858H24.3859H24.386H24.386H24.3861H24.3861H24.3862H24.3862H24.3863H24.3863H24.3864H24.3864H24.3865H24.3866H24.3866H24.3867H24.3867H24.3868H24.3868H24.3869H24.3869H24.387H24.387H24.3871H24.3871H24.3872H24.3873H24.3873H24.3874H24.3874H24.3875H24.3875H24.3876H24.3876H24.3877H24.3877H24.3878H24.3878H24.3879H24.3879H24.388H24.3881H24.3881H24.3882H24.3882H24.3883H24.3883H24.3884H24.3884H24.3885H24.3885H24.3886H24.3886H24.3887H24.3887H24.3888H24.3888H24.3889H24.3889H24.389H24.3891H24.3891H24.3892H24.3892H24.3893H24.3893H24.3894H24.3894H24.3895H24.3895H24.3896H24.3896H24.3897H24.3897H24.3898H24.3898H24.3899H24.3899H24.39H24.39H24.3901H24.3901H24.3902H24.3902H24.3903H24.3903H24.3904H24.3905H24.3905H24.3906H24.3906H24.3907H24.3907H24.3908H24.3908H24.3909H24.3909H24.391H24.391H24.3911H24.3911H24.3912H24.3912H24.3913H24.3913H24.3914H24.3914H24.3915H24.3915H24.3916H24.3916H24.3917H24.3917H24.3918H24.3918H24.3919H24.3919H24.392H24.392H24.3921H24.3921H24.3922H24.3922H24.3923H24.3923H24.3924H24.3924H24.3925H24.3925H24.3926H24.3926H24.3927H24.3927H24.3928H24.3928H24.3929H24.3929H24.393H24.393H24.3931H24.3931H24.3932H24.3932H24.3933H24.3933H24.3934H24.3934H24.3935H24.3935H24.3936H24.3936H24.3937H24.3937H24.3938H24.3938H24.3939H24.3939H24.394H24.394H24.3941H24.3941H24.3942H24.3942H24.3943H24.3943H24.3944H24.3944H24.3945H24.3945H24.3946L24.3946 55.8232L24.3947 55.8232H24.3947H24.3948H24.3948H24.3949H24.3949H24.395H24.395H24.3951H24.3951C25.2766 55.8299 25.9894 56.5572 25.983 57.4499L25.8765 72.4179L25.8752 72.5941H26.0515H53.8527H54.0264L54.0277 72.4204L54.1342 57.4274C54.1406 56.5377 54.8574 55.8239 55.734 55.8239H55.7341H55.7341H55.7341H55.7342H55.7342H55.7343H55.7343H55.7344H55.7344H55.7345H55.7345H55.7346H55.7346H55.7347H55.7348H55.7348H55.7349H55.7349H55.735H55.735H55.7351H55.7352H55.7352H55.7353H55.7353H55.7354H55.7354H55.7355H55.7355H55.7356H55.7356H55.7357H55.7357H55.7357H55.7358H55.7359H55.7359H55.7359H55.736H55.736H55.7361H55.7361H55.7362H55.7362H55.7363H55.7363H55.7364H55.7364H55.7364H55.7365H55.7365H55.7366H55.7366H55.7367H55.7367H55.7368H55.7368H55.7369H55.7369H55.737H55.7371H55.7371H55.7371H55.7372H55.7372H55.7373H55.7373H55.7374H55.7374H55.7375H55.7375H55.7376H55.7376H55.7377H55.7377H55.7378H55.7379H55.7379H55.738H55.738H55.7381H55.7381H55.7382H55.7382H55.7383H55.7383H55.7384H55.7384H55.7385H55.7386H55.7386H55.7387H55.7387H55.7387H55.7388H55.7388H55.7389H55.739H55.739H55.7391H55.7391H55.7392H55.7392H55.7393H55.7393H55.7394H55.7394H55.7395H55.7395H55.7396H55.7396H55.7397H55.7398H55.7398H55.7399H55.7399H55.74H55.74H55.7401H55.7401H55.7402H55.7402H55.7403H55.7403H55.7404H55.7404H55.7405H55.7405H55.7406H55.7406H55.7407H55.7407H55.7408H55.7409H55.7409H55.741H55.741H55.7411H55.7411H55.7412H55.7412H55.7413H55.7413H55.7414H55.7414H55.7415H55.7415H55.7416H55.7416H55.7417H55.7417H55.7418H55.7418H55.7419H55.7419H55.742H55.742H55.7421H55.7421H55.7422H55.7422H55.7423H55.7424H55.7424H55.7425H55.7425H55.7426H55.7426H55.7427H55.7427H55.7428H55.7428H55.7429H55.7429H55.743H55.743H55.7431H55.7431H55.7432H55.7432H55.7433H55.7433H55.7434H55.7434H55.7435H55.7435H55.7436H55.7436H55.7437H55.7437H55.7438H55.7438H55.7439H55.7439H55.744H55.744H55.7441H55.7441H55.7442H55.7442H55.7443H55.7443H55.7444H55.7444H55.7445H55.7445H55.7446H55.7446H55.7447H55.7447H55.7448H55.7448H55.7449H55.7449H55.745H55.745H55.7451H55.7451H55.7452H55.7452H55.7453H55.7453H55.7454H55.7454H55.7455H55.7455H55.7456H55.7456H55.7457H55.7457H55.7458H55.7458H55.7459H55.7459H55.746H55.746H55.7461H55.7461L55.7462 55.8239L55.7462 55.8239H55.7463H55.7463H55.7464H55.7464H55.7465H55.7465H55.7466H55.7466H55.7467H55.7467C56.6282 55.8306 57.341 56.5579 57.3346 57.4506L57.2295 72.2367ZM40.0018 7.40517C32.2542 7.40517 25.9532 13.7609 25.9532 21.5693C25.9532 29.3784 32.2542 35.7349 40.0018 35.7349C47.7473 35.7349 54.0461 29.3783 54.0461 21.5693C54.0461 13.761 47.7473 7.40517 40.0018 7.40517Z" fill="#0B0F11" stroke="white" stroke-width="0.35"/>
</svg>
