<svg width="68" height="30" viewBox="0 0 68 30" fill="none" xmlns="http://www.w3.org/2000/svg">
<g clip-path="url(#clip0_150_1222)">
<path fill-rule="evenodd" clip-rule="evenodd" d="M43.3407 7.61947H47.4335L48.193 1.77992C48.3387 1.69362 48.4869 1.61023 48.6375 1.52975C50.5752 0.509915 52.7265 0 55.0916 0H55.69C57.9695 0 59.9927 0.453258 61.7593 1.35977C63.5545 2.23796 64.965 3.58357 65.9908 5.3966C67.0166 7.1813 67.5295 9.37677 67.5295 11.983H61.2464C61.2464 9.77337 60.7478 8.10198 59.7505 6.96884C58.7816 5.80737 57.3712 5.22663 55.519 5.22663C53.7238 5.22663 52.2421 5.82153 51.0738 7.01133C49.934 8.1728 49.3642 9.83003 49.3642 11.983V18.017C49.3642 20.17 49.9483 21.8414 51.1166 23.0312C52.2849 24.1926 53.7666 24.7734 55.5617 24.7734C57.5849 24.7734 59.0808 24.2351 60.0497 23.1586C61.0185 22.0538 61.5029 20.3683 61.5029 18.102H67.5295C67.5295 20.5949 67.0166 22.7479 65.9908 24.5609C64.9935 26.3456 63.6115 27.7054 61.8448 28.6402C60.0782 29.5467 58.0835 30 55.8609 30H55.2626C52.812 30 50.6179 29.5042 48.6803 28.5127C46.7426 27.5212 45.2182 26.0623 44.1069 24.136C43.3835 22.8637 42.8956 21.4233 42.6431 19.8149H46.3983V10.6528H42.5851C42.7294 9.57316 42.9813 8.56204 43.3407 7.61947ZM44.3069 5.65173H45.7051L45.9853 3.49739C45.3549 4.13235 44.7954 4.85047 44.3069 5.65173ZM42.4423 12.6206C42.4407 12.7192 42.4399 12.8183 42.4399 12.9178V17.0822C42.4399 17.3407 42.4449 17.5957 42.4547 17.8472H44.4306V12.6206H42.4423Z" fill="white"/>
<path d="M19.7605 23.8387H8.28261L6.26451 29.5753H0L10.4689 0.42511H18.2049L28.6738 29.5753H21.8627L19.7605 23.8387ZM10.0484 18.867H18.0367C16.9716 15.6659 15.6823 11.8557 14.1687 7.43644H13.9585L10.0484 18.867Z" fill="white"/>
<path fill-rule="evenodd" clip-rule="evenodd" d="M26.6719 24.0008L28.6739 29.5752L26.6719 29.5753V24.0008ZM26.6719 18.179V0.42511H46.3851L45.7053 5.65174H33.1297V12.6206H44.4308V17.8472H33.1297V29.5753H30.7647L26.6719 18.179Z" fill="white"/>
</g>
<defs>
<clipPath id="clip0_150_1222">
<rect width="68" height="30" fill="white"/>
</clipPath>
</defs>
</svg>
