<svg width="548" height="387" viewBox="0 0 548 387" fill="none" xmlns="http://www.w3.org/2000/svg">
<g clip-path="url(#clip0_47_1194)">
<path fill-rule="evenodd" clip-rule="evenodd" d="M331.489 124.565C341.496 119.065 348.96 113.564 359.773 107.195C362.688 105.479 366.141 104.9 369.201 103.225C372.447 101.447 375.341 98.5518 378.629 96.7735C388.656 91.3352 399.821 86.8687 410.386 80.8927C436.851 65.9218 466.003 51.7366 497.719 41.1908C509.235 37.3653 520.028 33.9741 533.446 30.2727C547.464 26.4059 562.392 21.712 580.09 20.3473C588.918 19.6649 598.884 21.5673 607.381 22.8286C620.262 24.731 634.859 24.5036 645.093 30.2727C642.55 24.4415 631.613 22.5598 624.252 21.3398C620.903 20.7815 617.264 20.7815 613.832 20.3473C601.406 18.7757 583.729 13.6682 569.669 19.3547C560.2 19.3547 550.173 22.9734 541.385 25.31C520.958 29.0321 501.813 37.1792 482.337 43.1759C472.867 46.0915 464.101 51.0956 455.045 54.5902C445.844 58.1468 438.236 64.2882 429.242 66.5008C405.135 81.5958 378.773 94.4369 353.818 108.684C353.281 110.297 351.565 110.731 350.841 112.158C345.052 114.701 334.466 119.209 331.489 124.565Z" fill="white" fill-opacity="0.04"/>
<path fill-rule="evenodd" clip-rule="evenodd" d="M533.942 108.188C538.429 118.527 539.421 134.676 538.904 148.386C542.646 146.422 542.109 139.329 541.881 133.498C541.468 123.076 539.876 113.523 535.431 108.188H533.942Z" fill="white" fill-opacity="0.04"/>
<path fill-rule="evenodd" clip-rule="evenodd" d="M504.17 120.098C507.106 130.499 510.62 144.106 511.613 158.312C514.507 157.795 513.701 152.625 513.598 149.379C513.246 137.882 509.421 126.322 504.17 120.098Z" fill="white" fill-opacity="0.04"/>
<path fill-rule="evenodd" clip-rule="evenodd" d="M518.063 120.595C522.281 127.915 525.61 144.188 524.514 155.334C530.82 147.228 526.602 125.806 518.063 120.595Z" fill="white" fill-opacity="0.04"/>
<path fill-rule="evenodd" clip-rule="evenodd" d="M489.283 133.498C489.097 134.904 490.668 137.447 491.764 140.942C493.48 146.401 494.369 152.873 495.238 160.297C495.444 162.013 494.018 165.094 496.726 165.756C499.145 163.543 498.153 157.733 497.719 153.349C497.347 149.503 496.602 145.098 494.741 142.927C495.61 140.053 493.439 136.868 492.26 134.49C491.227 134.201 490.854 133.27 489.283 133.498Z" fill="white" fill-opacity="0.04"/>
<path fill-rule="evenodd" clip-rule="evenodd" d="M477.871 138.46C478.656 143.692 482.295 150.971 483.329 158.311C483.846 161.992 482.585 166.355 484.818 168.733C488.684 164.06 484.88 147.249 481.84 141.934C481.034 140.528 478.966 139.639 477.871 138.46Z" fill="white" fill-opacity="0.04"/>
<path fill-rule="evenodd" clip-rule="evenodd" d="M453.556 138.461C452.667 138.316 452.543 138.936 453.06 138.957C457.36 147.021 460.668 159.18 461.495 171.215C461.805 175.702 460.296 182.153 463.48 184.614C466.375 169.974 462.777 147.476 453.556 138.461Z" fill="white" fill-opacity="0.04"/>
<path fill-rule="evenodd" clip-rule="evenodd" d="M451.075 193.051C453.473 177.832 453.908 153.928 441.151 145.408C440.303 145.222 440.221 145.801 440.158 146.401C446.01 151.633 448.305 161.331 449.09 171.215C449.69 178.824 448.263 186.682 451.075 193.051Z" fill="white" fill-opacity="0.04"/>
<path fill-rule="evenodd" clip-rule="evenodd" d="M415.348 152.356C422.481 164.246 425.769 180.003 427.753 197.021C430.462 193.692 429.655 188.75 429.242 184.614C428.105 173.055 423.081 160.648 416.837 152.356H415.348Z" fill="white" fill-opacity="0.04"/>
<path fill-rule="evenodd" clip-rule="evenodd" d="M431.723 154.341C430.834 154.196 430.71 154.817 431.227 154.837C435.961 163.832 435.238 178.286 437.181 190.073C439.331 188.832 439.145 184.841 439.166 182.629C439.249 171.256 438.091 159.076 431.723 154.341Z" fill="white" fill-opacity="0.04"/>
<path fill-rule="evenodd" clip-rule="evenodd" d="M414.356 209.428C418.511 207.153 418.057 202.79 418.325 198.013C419.173 182.856 412.557 165.404 402.943 158.312H401.454C412.846 170.739 417.188 188.522 414.356 209.428Z" fill="white" fill-opacity="0.04"/>
<path fill-rule="evenodd" clip-rule="evenodd" d="M400.958 175.681C400.379 175.598 400.069 175.784 399.966 176.177C404.535 185.668 405.3 195.945 407.409 207.939C410.882 195.925 406.003 183.704 400.958 175.681Z" fill="white" fill-opacity="0.04"/>
<path fill-rule="evenodd" clip-rule="evenodd" d="M545.851 188.088C553.646 189.37 559.063 193.071 564.707 196.524C561.378 191.396 552.653 186.434 545.851 188.088Z" fill="white" fill-opacity="0.04"/>
<path fill-rule="evenodd" clip-rule="evenodd" d="M534.438 190.073C541.468 192.803 546.409 197.621 553.791 199.999C548.766 195.511 543.267 189.122 534.438 190.073Z" fill="white" fill-opacity="0.04"/>
<path fill-rule="evenodd" clip-rule="evenodd" d="M528.484 196.028C531.585 199.213 537.416 199.668 540.393 202.976C540.434 198.634 532.95 197.517 528.484 196.028Z" fill="white" fill-opacity="0.04"/>
<path fill-rule="evenodd" clip-rule="evenodd" d="M519.056 198.51C522.633 202.211 527.698 204.424 532.454 206.947C531.771 203.328 526.892 201.281 524.514 200.991C523.17 199.606 521.578 197.207 519.056 198.51Z" fill="white" fill-opacity="0.04"/>
<path fill-rule="evenodd" clip-rule="evenodd" d="M513.102 202.976C516.203 206.988 520.545 209.758 526.003 211.413C522.157 208.146 518.105 205.085 513.102 202.976Z" fill="white" fill-opacity="0.04"/>
<path fill-rule="evenodd" clip-rule="evenodd" d="M502.681 208.931C506.981 212.405 512.171 214.99 516.079 218.857C517.691 214.308 509.049 211.744 506.154 208.435C504.996 208.6 504.294 209.221 502.681 208.931Z" fill="white" fill-opacity="0.04"/>
<path fill-rule="evenodd" clip-rule="evenodd" d="M488.291 214.887C495.879 216.231 502.391 218.65 508.635 221.338C505.761 215.921 494.493 212.178 488.291 214.887Z" fill="white" fill-opacity="0.04"/>
<path fill-rule="evenodd" clip-rule="evenodd" d="M473.901 221.835C480.599 224.564 491.475 223.117 497.222 226.797C496.54 225.164 494.431 224.957 492.757 224.316C493.956 223.365 496.726 223.985 498.215 223.323C490.916 221.917 480.31 221.194 473.901 221.835Z" fill="white" fill-opacity="0.04"/>
<path fill-rule="evenodd" clip-rule="evenodd" d="M242.667 233.249C270.31 237.281 304.383 250.205 317.595 271.959C298.925 259.242 274.631 245.036 245.148 240.693C234.356 239.101 220.503 238.729 208.925 241.19C218.932 243.009 229.001 241.996 238.201 243.175C270.62 247.31 295.038 262.84 317.595 275.929C318.732 274.75 319.207 272.91 321.564 272.951C319.89 266.127 314.866 259.903 309.159 255.085C303.536 250.35 294.108 244.209 284.845 240.693C270.083 235.09 255.134 228.617 242.667 233.249Z" fill="white" fill-opacity="0.04"/>
<path fill-rule="evenodd" clip-rule="evenodd" d="M66.5125 238.212C66.864 241.83 69.5311 243.133 73.4594 243.174C110.634 260.151 161.206 248.902 200.489 247.641C204.81 248.944 213.101 248.923 217.36 248.633C217.774 245.511 208.077 247.992 207.932 245.16C187.319 244.622 163.873 245.883 144.417 247.641C116.133 250.205 93.3492 246.793 70.9784 238.212C69.6552 237.695 68.4767 235.462 66.5125 238.212Z" fill="white" fill-opacity="0.04"/>
<path fill-rule="evenodd" clip-rule="evenodd" d="M247.133 254.092C260.862 260.151 274.363 263.522 287.822 269.477C285.176 262.963 276.161 261.185 268.966 258.559C262.019 256.036 253.48 251.983 247.133 254.092Z" fill="white" fill-opacity="0.04"/>
<path fill-rule="evenodd" clip-rule="evenodd" d="M125.562 258.063C150.848 260.441 180.765 256.222 203.963 255.581C203.425 254.072 200.448 255.643 199.497 253.596C198.711 253.803 199.063 255.168 197.512 254.589C179.711 252.273 156.968 254.733 134.99 255.085C131.744 255.126 126.844 254.527 125.562 258.063Z" fill="white" fill-opacity="0.04"/>
<path fill-rule="evenodd" clip-rule="evenodd" d="M411.875 265.507C423.06 265.134 429.139 259.344 439.662 259.055C450.269 258.766 462.488 262.426 470.924 266.995C480.166 271.999 487.505 277.314 494.246 283.869C508.305 297.496 520.09 312.487 532.454 325.556C546.161 340.072 562.268 349.666 578.601 359.799C595.638 370.365 614.37 378.761 639.139 378.161C637.299 375.804 630.848 375.638 628.222 375.679C617.636 371.833 606.864 370.427 597.457 366.25C593.405 364.451 589.435 361.515 585.548 359.302C567.416 348.963 550.421 337.673 535.431 323.571C527.719 313.19 516.926 301.631 507.147 291.313C503.322 287.281 499.228 283.786 495.238 279.402C488.043 271.503 481.385 266.851 468.939 262.033C459.738 258.476 451.365 254.01 440.159 255.085C435.238 255.56 429.986 257.918 425.272 259.551C420.579 261.185 415.059 261.867 411.875 265.507Z" fill="white" fill-opacity="0.04"/>
<path fill-rule="evenodd" clip-rule="evenodd" d="M556.271 31.2652C544.838 30.4174 534.004 34.7392 523.522 37.2205C518.415 38.4405 513.784 40.1775 508.635 41.687C503.611 43.1552 498.236 43.7755 493.749 45.6572C488.952 47.663 484.631 50.9715 479.855 53.1013C476.051 54.7969 472.474 55.9549 468.939 58.0641C465.837 59.9044 458.973 63.0888 453.556 65.5082C449.297 67.4106 445.72 70.2641 441.647 72.456C435.3 75.8679 427.547 76.9639 422.791 82.8778C428.456 80.6859 436.954 75.3096 443.632 72.9523C444.769 72.6421 446.63 71.9597 445.617 70.9672C447.974 71.8357 451.282 69.8092 452.564 67.9896C472.743 62.0136 489.49 49.586 509.628 43.6721C524.68 39.247 539.876 35.9178 556.271 31.2652Z" fill="white" fill-opacity="0.04"/>
<path fill-rule="evenodd" clip-rule="evenodd" d="M462.488 134.987C467.533 144.767 472.143 163.646 471.916 177.17C475.555 177.521 475.079 172.29 474.893 169.726C474.108 158.353 469.911 140.322 462.488 134.987Z" fill="white" fill-opacity="0.04"/>
<path fill-rule="evenodd" clip-rule="evenodd" d="M392.026 54.5903C389.463 56.3272 385.72 56.8855 384.087 59.553C369.18 64.8466 354.79 70.6572 338.932 76.4263C326.465 80.9548 313.935 86.1864 301.22 91.3146C278.787 100.351 255.403 110.566 232.743 120.595C218.022 127.108 202.247 133.332 186.099 138.957C180.993 140.735 176.361 144.044 171.213 145.905C165.755 147.869 159.78 148.427 154.342 150.371C149.504 152.088 145.514 156.078 140.448 157.319C138.422 157.815 135.982 157.319 133.997 157.815C127.485 159.408 120.124 163.026 111.668 163.274C113.736 169.333 118.491 169.829 124.569 172.207C127.402 173.324 129.904 175.392 132.509 176.177C155.396 183.146 179.173 181.554 202.474 180.644C207.995 180.417 213.412 178.928 218.849 178.659C224.721 178.369 230.469 178.576 236.217 178.163C252.612 176.984 264.583 172.683 282.364 173.696C290.655 174.172 299.773 175.888 308.167 177.17C324.17 179.589 338.684 183.787 349.352 192.058C353.012 194.891 357.602 197.166 360.765 199.999C362.874 201.901 369.304 208.89 371.186 211.909C378.443 223.634 381.771 242.306 378.133 258.559C378.236 246.669 377.719 231.553 372.674 221.338C367.154 210.152 354.563 198.365 342.405 193.547C330.414 188.791 312.902 186.641 298.243 183.125C294.376 182.195 287.76 181.616 283.853 181.14C275.872 180.189 264.893 179.052 257.554 179.651C244.797 180.685 231.895 183.373 218.353 183.622C205.658 183.849 193.357 185.938 181.137 187.592C154.859 191.148 129.387 193.65 106.706 190.569C100.896 189.784 95.1483 187.757 90.8271 185.11C98.0222 183.394 105.548 181.223 112.164 178.659C115.452 177.377 121.282 176.157 120.6 172.207C116.733 170.119 113.177 174.254 109.683 175.681C102.013 178.804 93.0601 180.582 82.8878 182.133C72.7568 190.363 67.3812 203.349 58.0773 212.406C58.4495 213.584 59.0491 215.838 58.0773 216.872C53.0945 221.318 49.8485 227.501 46.6646 233.745C35.2724 242.037 21.4406 247.889 10.4413 256.574C6.49231 256.925 5.29309 258.6 1.01331 259.055C-0.764771 263.129 0.0621338 264.638 1.50952 268.485C105.879 285.751 218.126 303.1 321.068 320.097C323.487 329.63 325.286 340.051 334.466 344.414C349.435 351.528 374.349 350.225 383.095 337.963C453.991 377.107 528.463 413.417 600.931 452.602C605.231 454.918 610.338 458.144 616.313 461.039C621.358 463.479 628.201 468.711 631.696 468.979C635.603 469.269 650.717 460.77 655.514 458.558C672.881 450.555 687.436 444.31 703.646 437.218C727.753 426.672 752.647 416.498 776.589 405.456C792.674 398.033 809.111 391.292 826.21 385.109C831.317 381.47 837.168 378.864 843.081 376.672C849.015 374.46 854.142 371.627 859.952 369.228C865.969 366.747 871.82 364.886 877.816 361.784C883.563 358.806 889.766 357.4 895.679 354.836C900.579 352.727 905.066 349.543 910.069 347.392C920.779 342.781 931.468 338.604 942.323 333.993C947.388 331.842 952.164 328.616 957.209 326.549C961.22 324.894 965.562 324.357 969.614 322.578C973.646 320.8 977.492 317.905 981.523 316.127C986.92 313.749 992.75 312.839 997.898 310.172C1012.47 302.624 1032.98 295.986 1048.51 288.336C1048.64 286.536 1048.64 284.903 1046.53 285.358C1055.56 277.169 1045.14 273.096 1035.61 270.47C1024.32 267.368 1014.83 263.584 1003.85 260.544C998.622 259.097 992.977 257.711 987.974 255.581C983.425 253.658 979.084 249.213 974.576 245.656C968.084 240.528 962.357 237.943 958.698 231.76C959.256 219.932 944.246 217.803 938.353 212.406C917.512 209.324 897.54 205.272 883.274 195.036C874.776 188.936 866.279 185.214 859.952 177.17C855.734 171.814 853.398 165.404 849.532 160.297C845.272 154.672 839.525 150.971 833.653 146.401C831.027 144.354 829.001 141.294 826.21 139.453C822.261 136.868 817.299 135.938 812.316 133.498C808.139 131.451 804.666 128.577 799.911 126.55C788.27 121.608 771.441 113.792 754.756 114.639C752.026 114.784 749.318 115.901 746.816 116.128C737.285 116.976 727.919 113.192 719.028 117.121C722.915 109.821 719.545 97.456 716.547 88.3369C709.249 66.108 698.518 41.2529 681.813 30.7691C680.469 29.4664 680.903 26.3853 679.332 25.3101C672.364 23.5111 666.906 17.411 659.979 13.8958C648.815 8.22996 633.37 3.43264 621.275 0.496354C619.042 -0.0412768 617.678 0.785847 614.824 0.992628C607.526 1.53026 599.752 -0.123989 591.999 7.93841e-05C581.537 0.165504 570.827 0.889238 561.73 1.98518C509.463 18.8792 456.099 36.6623 410.386 61.0418C405.548 57.6093 397.278 57.6093 392.026 54.5903ZM344.39 97.7661C354.687 93.5685 364.88 89.5156 374.659 84.863C376.024 84.222 376.768 82.9813 378.133 82.3816C388.491 77.8325 397.547 74.1517 407.409 69.4785C415.658 65.5703 424.156 62.8201 432.219 58.5605C447.974 50.2272 465.569 44.6648 481.84 37.2207C498.133 29.7765 515.707 23.7592 533.942 18.3622C552.674 12.8205 573.308 8.08522 593.984 6.94792C600.496 6.59639 606.575 6.47232 612.84 6.94792C626.134 7.96115 638.084 10.4425 649.559 15.3846C654.211 17.3904 659.152 21.7328 664.445 24.8138C677.492 32.382 683.281 39.3505 691.737 51.6126C697.691 60.2561 701.041 68.7754 705.135 78.9077C706.272 81.7406 708.546 84.1186 709.6 86.8481C711.048 90.6115 715.162 106.203 714.563 110.173C714.046 113.626 709.869 113.502 710.593 118.61C702.798 124.916 691.654 126.033 681.316 129.528C675.713 131.409 670.297 134.139 664.445 135.979C658.677 137.799 652.764 139.433 647.078 141.438C634.838 145.739 622.019 148.386 610.855 152.853C609.408 153.432 607.815 154.238 606.885 155.83C596.32 157.071 586.892 161.661 577.113 165.756C572.254 167.782 566.816 168.527 561.73 170.222C554.845 172.517 548.374 176.674 541.385 179.155C534.149 181.719 527.843 185.276 521.041 188.088C518.477 189.143 515.748 189.163 513.102 190.073C508.429 191.686 504.625 195.036 500.2 197.021C495.176 199.275 489.531 200.64 484.321 202.976C464.576 211.827 443.239 221.276 425.272 230.768C424.135 229.713 426.637 229.113 427.257 228.783C436.437 223.675 446.982 218.65 455.045 213.398C465.279 210.4 475.617 205.354 485.81 200.495C497.616 194.87 512.068 189.536 522.033 183.125C568.325 164.101 618.877 146.256 667.423 132.505C671.33 130.127 674.618 128.907 678.835 129.031C687.581 124.42 701.165 124.979 703.646 116.128C701.62 114.95 696.472 117.845 694.714 120.098C676.086 124.979 657.995 131.471 639.635 136.972C616.789 143.816 594.935 151.901 573.143 159.8C561.316 164.081 551.103 168.506 539.897 172.207C527.243 178.618 514.445 185.421 501.192 190.569C491.702 194.25 483.928 197.724 475.39 201.984C471.296 204.031 467.161 206.161 462.984 207.939C460.255 209.097 457.257 209.283 454.549 210.42C450.228 212.24 446.051 215.59 441.647 217.865C427.505 225.143 414.625 233.063 400.462 239.204C398.642 239.639 400.813 241.314 398.973 241.189C395.789 241.644 391.509 245.304 388.057 247.145C392.605 227.707 392.109 207.939 384.583 191.066C382.516 186.434 378.67 180.851 375.155 176.177C371.186 170.884 367.857 165.053 364.239 161.289C349.456 145.925 329.028 134.842 304.693 131.513C286.727 129.052 269.69 131.637 251.599 133.994C280.917 121.939 314.37 109.987 344.39 97.7661ZM136.478 161.289C147.933 158.022 157.319 154.548 167.74 150.868C211.261 135.524 253.873 115.156 294.273 98.2624C305.686 93.4858 319.084 89.5363 330.993 84.863C342.757 80.2518 353.715 76.5918 367.216 70.9673C378.649 66.2114 393.205 55.955 405.92 63.0269C401.496 65.2188 396.285 66.6456 393.019 69.9748C366.017 80.5206 339.945 91.9969 315.114 104.714C293.611 113.337 270.331 119.644 249.118 129.528C232.082 135.421 215.252 142.638 198.008 147.89C185.004 151.86 173.26 159.118 160.793 162.778C156.554 164.019 151.261 164.35 148.388 168.237C149.855 169.747 151.633 170.946 153.846 171.711C158.498 169.292 163.005 171.649 167.74 171.215C171.937 170.822 176.113 168.547 180.145 167.741C192.488 165.28 204.976 163.543 215.872 159.8C217.257 159.594 214.631 161.641 216.368 161.786C218.208 160.441 219.449 159.532 222.323 160.297C239.028 153.597 258.587 144.002 282.86 143.92C280.379 145.863 276.596 145.657 273.432 146.897C270.6 148.014 268.801 150.785 266.485 149.875C266.775 150.185 267.643 152.232 266.485 152.356C266.63 151.219 266.361 150.495 265.493 150.371C263.818 152.873 260.634 152.005 258.05 153.845C258.298 153.659 256.127 154.9 256.561 155.83C263.343 154.486 270.972 152.956 277.402 147.89C277.464 149.73 278.126 149.131 279.387 148.882C288.319 146.38 301.675 142.72 311.144 145.905C296.361 147.559 281.992 152.439 268.966 158.312C272.481 158.829 274.755 156.657 277.402 157.815C278.064 156.492 279.594 156.037 281.868 156.327C284.266 153.68 288.215 154.61 291.792 153.845C301.096 151.839 313.543 146.174 324.046 149.379C312.695 151.839 303.556 153.783 294.769 158.312C298.739 158.994 302.729 155.189 307.671 155.334C308.663 155.355 308.705 156.43 309.656 156.327C320.407 155.148 334.301 147.083 341.909 154.341C333.66 156.037 315.982 156.823 310.648 162.778C314.907 162.261 320.51 162.365 323.053 159.8C330.207 161.227 349.414 153.163 356.299 161.289C340.669 161.93 333.06 163.874 322.557 168.237C323.963 170.636 328.057 168.775 331.489 168.237C339.056 167.038 346.313 165.859 353.322 165.259C356.713 164.97 361.716 163.915 362.254 167.741C356.837 167.596 351.482 168.961 347.367 169.726C342.55 170.636 336.182 170.45 333.474 174.192C338.436 176.302 348.319 172.29 356.795 171.711C360.476 171.463 366.451 170.202 367.712 174.689C361.344 177.191 350.014 175.785 343.894 180.644C348.381 181.905 352.495 180.148 357.292 179.651C363.288 179.031 370.999 177.087 372.674 182.629C366.41 184.697 356.94 183.973 354.314 188.584C360.517 190.445 375.941 182.526 378.133 192.058C370.71 192.058 363.763 192.575 358.78 195.036C347.822 183.167 330.848 178.431 313.129 174.689C297.168 171.318 274.363 167.679 252.095 171.215C236.899 173.634 220.4 175.495 203.963 176.674C172.598 178.928 140.221 178.535 120.6 165.756C127.691 165.859 131.227 162.778 136.478 161.289ZM526.003 190.073C542.502 183.311 558.298 176.157 574.631 170.222C585.403 166.293 596.899 162.22 608.374 158.808C619.787 155.417 631.137 151.116 642.612 147.89C654.046 144.664 665.479 140.735 676.851 136.972C688.181 133.229 699.345 127.667 710.593 125.061C716.795 123.614 723.246 123.49 729.449 123.076C735.61 122.663 742.102 121.567 748.801 121.587C759.676 121.587 766.044 124.979 775.596 127.543C790.028 131.409 801.813 133.622 812.316 140.446C817.567 143.858 823.212 147.249 827.202 150.371C833.942 155.644 838.284 162.034 843.081 168.237C851.702 179.383 861.068 189.97 872.357 198.014C882.405 205.189 894.335 210.09 907.588 214.391C911.868 215.776 916.458 218.382 920.49 218.857C925.369 219.436 931.055 216.975 936.368 219.353C931.013 224.089 924.79 227.955 918.008 231.264C912.075 231.657 907.691 235.875 903.122 238.212C896.94 241.355 889.973 243.526 883.274 246.648C876.823 249.647 869.587 251.88 862.929 254.589C849.656 259.986 834.873 262.467 823.232 270.47C809.855 272.475 798.008 279.154 786.017 284.365C773.839 289.659 761.64 295.056 750.29 301.239C735.589 304.009 726.389 313.046 714.066 315.631C691.365 330.023 665.169 339.948 643.108 355.829C642.323 354.94 642.447 353.182 640.131 353.844C617.119 352.107 596.113 346.379 581.578 333.993C572.709 326.445 567.457 315.734 561.234 305.705C547.65 283.828 532.578 262.633 513.102 246.648C508.367 242.761 501.978 240.59 495.734 237.219C482.502 230.065 464.762 223.055 447.602 224.316C472.929 213.026 500.303 200.598 526.003 190.073ZM336.947 147.394C322.598 142.369 298.346 136.703 280.875 138.957C278.291 139.288 276.306 140.921 273.929 140.942C272.233 140.942 270.496 139.949 268.47 139.949C265.245 139.949 257.802 141.624 253.088 142.927C240.869 146.318 228.753 152.811 215.872 155.83C207.457 157.795 199.518 159.718 192.054 162.778C190.545 162.365 190.855 161.393 189.077 162.282C185.396 164.412 177.54 165.735 172.206 165.756C182.605 163.915 191.31 157.691 200.986 154.838C205.121 153.618 209.628 154.217 212.895 150.868C226.251 149.193 239.235 141.273 253.088 138.461C270.021 135.028 291.916 135.111 306.678 135.979C321.833 140.342 337.857 143.837 348.36 152.853C344.556 151.653 340.958 148.8 336.947 147.394ZM326.527 229.775C327.664 231.181 325.596 230.085 326.03 230.271C321.006 228.142 316.995 224.709 312.137 222.331C304.569 218.65 295.286 213.026 288.319 215.879C300.682 221.214 311.144 225.557 321.068 231.76C335.521 240.776 342.219 259.924 350.345 274.936C346.292 276.963 342.819 282.132 337.94 280.395C339.656 261.475 327.333 252.294 318.091 242.678C309.656 234.883 296.403 230.974 283.357 226.797C278.56 225.267 274.259 222.827 269.959 221.835C259.973 219.539 239.876 217.637 234.232 223.324C255.796 220.222 268.615 226.611 285.341 231.264C295.968 234.221 307.154 239.556 313.625 245.16C324.562 254.651 334.135 265.341 336.451 282.38C329.835 287.012 325.245 293.67 324.046 303.72C318.546 298.881 313.667 294.353 308.663 289.824C303.515 285.172 299.049 279.713 293.281 275.432C287.616 271.235 278.146 267.637 270.455 266.003C259.931 263.77 249.18 266.934 237.705 266.003C224.907 264.969 212.171 266.748 197.512 266.003C185.417 265.383 173.529 262.281 161.289 261.537C153.556 261.082 144.955 262.384 136.975 263.026C107.988 265.362 86.4026 258.993 64.0319 252.107C59.7107 250.763 50.5722 249.419 49.1456 247.641C46.3544 244.167 49.7038 242.616 51.1304 239.204C51.5439 238.253 51.1718 236.516 51.6266 235.234C51.8747 234.51 52.9498 234.593 53.1152 233.745C53.322 232.711 52.3089 231.946 52.6191 231.264C53.1566 230.085 56.8162 223.799 57.5811 222.827C59.2145 220.759 61.4888 220.367 62.5432 218.361C64.0526 215.507 63.0188 211.475 66.5129 210.42C70.5653 217.492 78.2979 220.036 87.85 222.331C100.689 225.412 116.217 226.405 129.531 226.301C135.796 226.26 142.598 227.439 145.41 224.812C121.572 221.545 86.5887 223.365 68.4977 207.939C70.1311 207.422 69.5728 204.713 70.4825 203.473C90.3102 218.071 124.714 218.237 150.869 214.887C160.317 213.688 169.89 211.496 177.664 207.939C143.157 211.889 100.11 219.167 73.4598 199.999C76.6645 194.933 79.9726 189.97 84.3764 186.103C91.1166 189.887 97.3193 193.34 106.706 194.54C115.596 195.677 126.285 196.67 136.478 196.028C164.39 194.292 194.907 188.522 226.292 187.096C241.261 186.413 253.956 182.36 269.463 183.622C288.463 185.152 310.09 188.626 327.023 193.051C336.244 195.449 344.349 198.675 351.833 202.976C361.509 211.02 371.806 226.549 373.17 244.167C373.956 254.217 374.039 269.539 367.216 271.462C370.172 270.904 368.787 272.806 368.705 274.44C364.383 274.543 360.496 272.992 354.314 273.447C355.266 244.457 330.889 222.538 310.152 213.398C303.639 210.524 295.534 209.903 287.822 207.939C282.716 206.636 276.286 204.114 272.44 207.939C293.074 212.612 313.873 217.12 326.527 229.775ZM381.606 200.991C376.334 201.301 371.578 200.929 368.208 203.969C367.05 201.157 364.507 199.73 362.75 197.517C368.043 197.207 381.875 192.162 381.606 200.991ZM383.095 204.961C383.219 206.492 383.591 207.774 384.087 208.932C380.593 210.09 377.409 209.966 374.659 210.917C373.129 209.469 371.868 207.753 370.689 205.954C375.135 205.768 378.897 203.948 383.095 204.961ZM385.079 218.857C383.363 217.554 379.849 217.554 378.133 218.857C377.554 216.81 376.727 215.776 376.644 214.391C378.96 213.894 381.027 213.15 384.087 213.398C384.645 214.99 385.1 216.686 385.079 218.857ZM931.902 233.745C927.767 236.144 924.728 237.219 920.49 239.204C914.039 242.244 907.753 247.579 900.641 250.122C891.771 253.286 885.073 255.995 877.319 259.055C871.199 261.475 864.563 261.93 858.463 264.018C856.995 264.514 855.941 265.982 854.494 266.499C849.097 268.464 843.246 269.58 838.119 271.462C830.159 274.378 822.778 276.425 815.293 279.899C803.136 281.967 792.612 285.668 784.528 291.809C782.543 291.479 781.696 292.285 780.062 292.306C777.25 294.229 773.26 295.635 770.634 295.283C808.057 278.948 845.893 263.026 886.747 250.122C903.929 239.349 926.796 234.242 941.33 220.842C946.851 225.081 956.237 229.424 952.247 238.708C944.328 243.361 935.851 247.455 927.436 251.611C883.481 266.541 840.269 279.899 799.414 298.261C795.093 303.038 786.285 303.327 781.551 307.69C780.269 308.6 780.062 307.483 778.574 308.186C774.046 313.294 762.612 313.914 756.74 319.105C738.794 325.37 719.07 336.64 702.654 343.918C696.782 346.524 691.034 348.819 686.775 353.347C677.037 356.553 668.312 364.948 657.995 369.228C656.217 373.736 649.993 373.798 647.574 377.665C649.084 380.332 650.035 381.552 646.582 383.124C646.582 376.631 648.05 375.494 648.567 368.732C665.975 352.686 688.574 344.084 709.6 332.504C712.164 331.098 713.984 328.41 716.547 327.045C719.607 325.411 723.391 324.626 726.472 323.075C742.33 315.114 757.94 306.656 774.108 299.254C780.807 296.193 788.022 294.146 794.452 290.817C796.375 289.824 797.822 287.798 799.911 286.847C809.09 282.711 819.718 281.532 829.683 277.417C836.878 274.461 845.252 272.992 852.509 270.47C854.866 269.643 856.623 267.885 858.96 266.996C858.649 267.12 859.373 267.968 859.456 267.988C860.758 268.319 864.004 265.341 864.914 265.011C870.496 262.984 876.72 261.992 882.281 260.048C893.487 256.14 905.148 251.983 915.031 246.152C920.055 243.175 925.472 240.156 931.406 238.708C934.756 234.056 950.262 230.788 943.315 223.82C941.186 228.969 937.567 230.458 931.902 233.745ZM384.583 221.338C384.025 227.108 385.886 229.858 384.583 234.738C381.689 231.347 382.268 224.482 379.621 220.842C381.606 220.677 382.371 221.731 384.583 221.338ZM480.848 236.723C475.452 235.338 468.567 235.441 463.977 233.249C469.621 233.249 476.94 233.601 480.848 236.723ZM427.257 241.686C409.208 246.793 394.507 255.251 382.102 266.003C381.647 262.074 384.356 261.309 387.064 260.544C394.156 249.998 408.96 247.806 421.799 242.182C428.539 239.225 434.142 234.738 441.151 235.73C435.341 236.475 428.953 238.377 427.257 241.686ZM514.094 261.04C514.735 261.723 516.43 261.351 517.071 262.033C532.991 278.141 543.453 301.135 556.768 319.601C561.316 325.928 566.92 330.891 571.158 336.97C549.821 319.766 530.221 300.804 517.567 274.936C506.899 263.935 496.313 252.852 481.84 245.656C474.997 242.906 468.298 240.011 460.999 237.716C482.833 239.452 501.399 248.509 514.094 261.04ZM944.308 248.137C949.435 245.18 955.017 237.86 959.194 241.686C950.696 245.759 942.405 252.686 931.902 253.1C935.769 251.384 939.821 250.722 944.308 248.137ZM532.454 375.68C518.808 367.16 507.436 356.366 494.742 346.896C474.376 332.421 449.587 322.372 421.799 316.623C431.971 313.997 441.11 319.042 451.075 319.601C464.804 320.366 471.709 327.851 480.352 330.519C483.35 335.461 490.462 336.288 494.246 340.444C495.776 340.093 495.197 340.093 496.727 340.444C496.892 343.67 499.58 343.505 501.192 343.422C501.42 347.041 508.346 346.813 510.124 350.37C510.166 349.584 510.062 348.654 511.117 348.881C534.79 371.213 565.576 389.658 596.465 403.967C608.084 409.344 624.604 413.583 640.131 411.908C635.045 407.317 626.341 409.22 619.29 407.938C613.501 406.883 606.658 404.546 600.931 402.479C583.625 396.213 569.938 384.261 554.287 377.169C544.301 369.042 533.632 363.17 524.018 354.836C519.904 351.28 517.464 345.738 511.613 344.414C496.375 329.981 468.236 311.516 442.143 307.194C434.866 305.995 429.635 308.703 422.791 309.675C425.458 312.86 429.304 310.254 432.716 310.172C441.957 309.944 451.509 314.493 459.015 316.623C449.876 318.174 437.864 311.205 426.265 312.653C422.647 313.108 420.662 314.328 417.829 314.142C414.004 313.894 411.296 311.66 406.913 311.164C402.095 310.606 394.156 310.854 391.53 314.142C398.043 314.576 403.708 312.818 407.905 315.631C399.945 314.1 392.977 314.886 386.568 317.119C386.444 302.355 382.929 289.121 373.667 281.388C373.935 278.865 372.571 275.143 373.667 274.44C376.665 274.853 373.336 278.782 375.651 279.403C381.213 279.754 383.694 274.316 387.56 271.462C392.316 267.947 399.345 264.556 405.92 261.537C412.495 258.518 419.463 254.568 425.769 253.1C461.661 244.787 485.479 265.383 504.666 281.388C505.803 282.38 505.224 281.264 506.155 280.891C506.837 283.848 509.173 285.151 512.109 285.854C510.724 282.752 507.374 281.656 505.162 279.403C503.88 278.1 505.968 279.01 505.658 277.417C503.074 274.771 500.076 272.806 497.223 270.47C494.473 268.216 492.116 265.155 489.283 263.026C475.079 252.273 453.701 245.346 431.227 248.634C421.055 250.122 410.076 256.388 402.447 260.048C392.13 265.011 386.382 269.25 379.125 274.44C380.634 273.137 380.055 269.746 381.606 268.485C381.523 269.56 382.019 270.056 383.095 269.973C386.878 264.68 393.97 262.364 398.973 258.559C401.144 256.905 402.509 254.217 404.928 253.1C407.719 251.818 411.482 251.115 414.356 250.122C423.06 247.124 432.902 241.851 442.143 240.693C458.56 238.646 470.634 246.069 481.84 251.611C488.932 255.126 495.527 259.324 500.2 263.522C510.889 273.116 518.456 285.73 526.499 297.765C540.166 318.195 562.019 334.303 580.586 346.896C580.11 344.249 574.301 342.698 576.12 340.941C586.892 348.964 609.945 361.453 631.199 362.28C632.399 362.074 630.931 364.534 632.688 363.769C635.479 362.921 638.684 362.487 642.612 362.777C647.223 369.807 638.787 379.795 643.605 387.094C642.364 387.301 641.33 388.79 642.116 389.575C641.93 391.581 644.99 390.341 644.597 392.553C640.4 394.724 638.953 396.709 635.665 397.02C636.244 397.929 636.968 398.695 637.65 399.501C639.573 399.439 639.945 397.826 642.116 398.012C642.654 407.048 643.584 413.665 639.139 418.856C600.29 407.048 563.963 395.221 532.454 375.68ZM42.6948 244.663C41.4543 244.746 41.1649 243.878 40.2138 243.671C40.3379 241.624 43.8527 240.383 44.6797 240.693C43.5012 241.5 43.6252 243.609 42.6948 244.663ZM339.428 243.175C341.806 247.414 346.54 251.942 346.375 257.07C344.824 252.314 339.594 246.028 339.428 243.175ZM964.156 251.611C959.401 255.478 950.614 255.085 946.789 260.048C930 265.569 913.067 272.765 900.145 278.906C894.087 281.781 887.533 283.848 881.289 286.35C875.045 288.852 868.739 291.541 862.433 293.795C859.249 294.932 855.507 295.552 852.509 296.772C849.614 297.93 847.443 300.101 844.569 301.239C838.656 303.575 832.206 304.568 826.21 306.698C821.31 308.435 816.844 311.888 811.82 313.645C806.63 315.465 801.027 316.416 795.941 318.608C793.687 319.58 791.723 321.524 789.49 322.578C781.654 326.259 773.301 326.817 768.153 333C759.552 334.53 750.083 339.369 743.343 344.414C723.722 350.804 704.266 359.427 687.271 368.236C685.121 369.352 683.177 371.606 680.82 371.213C680.283 373.653 677.243 373.591 676.354 375.68C666.223 375.907 658.388 385.088 649.063 386.102C649.559 386.102 649.662 385.709 650.055 385.605C655.658 378.244 663.991 375.08 672.385 370.221C677.698 367.16 682.888 363.976 688.263 361.288C721.365 344.787 755.851 327.624 790.483 313.645C796.354 311.288 801.854 308.352 807.85 306.201C813.887 304.03 820.214 302.107 826.21 299.75C838.139 295.035 849.635 289.514 861.441 284.862C885.631 275.35 910.565 268.485 932.895 256.574C939.408 254.485 946.685 253.493 952.743 250.619C957.623 248.303 962.75 241.148 968.126 246.152C965.334 247.103 966.203 249.957 964.156 251.611ZM40.71 247.641C40.71 248.468 40.71 249.295 40.71 250.122C38.7458 250.06 35.5204 249.543 31.7782 249.13C32.6879 245.263 37.1745 247.517 40.71 247.641ZM982.019 265.507C973.853 273.22 961.261 276.508 951.255 282.38C938.56 283.435 929.773 292.637 916.52 294.787C906.699 301.549 890.303 304.258 880.793 309.675C870.91 311.143 860.82 315.961 850.524 318.608C850.317 319.559 848.601 319.001 849.035 320.593C834.046 323.323 818.208 332.07 803.384 334.985C831.999 321.607 864.749 308.703 894.687 298.757C899.504 295.201 905.934 294.332 912.054 291.809C917.843 289.431 923.942 286.288 930.414 283.869C935.769 281.863 941.847 277.335 946.292 274.936C950.634 272.599 955.844 272.186 959.194 269.973C960.972 268.815 962.833 265.672 965.645 264.018C970.069 261.433 975.217 259.531 973.584 253.1C969.263 252.087 971.062 257.194 968.126 257.566C968.539 254.692 967.113 251.094 970.607 249.13C974.99 253.7 980.655 259.552 982.019 265.507ZM388.057 251.611C389.173 251.694 390.248 249.233 391.034 250.619C390.104 250.722 388.45 252.604 388.057 251.611ZM21.854 253.596C26.7335 251.735 34.5694 252.562 40.71 253.596C47.8637 254.796 57.0436 257.98 62.5432 259.552C48.8768 258.208 31.7162 255.478 21.854 253.596ZM938.849 270.47C927.354 271.876 921.647 279.092 911.062 281.388C909.986 281.801 909.966 283.249 908.58 283.373C904.528 284.779 899.525 285.234 897.168 288.336C894.004 287.819 892.764 289.225 891.213 290.321C877.547 293.05 865.514 300.722 852.013 304.713C845.128 306.739 838.822 310.151 832.164 312.653C825.465 315.155 818.312 316.582 812.812 321.09C789.47 328.72 769.125 335.544 748.801 347.392C747.933 345.924 746.155 347.682 744.831 347.392C743.322 349.026 740.655 349.501 739.869 351.859C738.505 349.977 735.424 352.541 732.922 353.347C714.893 359.179 699.097 369.27 683.301 374.687C704.824 362.632 728.663 352.893 752.771 343.422C818.911 309.489 896.403 287.963 964.652 254.589C964.673 254.279 964.735 254.01 965.148 254.093C960.745 263.915 945.507 262.901 938.849 270.47ZM898.656 267.492C895.824 268.857 893.012 271.049 890.221 271.958C886.272 273.241 882.075 273.034 878.312 274.44C867.788 278.369 857.864 284.469 846.554 286.847C831.585 295.035 813.887 300.515 796.437 306.201C774.687 317.223 751.634 327.272 728.953 337.467C706.375 347.62 685.121 359.84 663.949 369.725C683.012 359.303 701.578 346.958 722.006 337.467C732.922 332.401 744.294 328.43 755.748 323.571C760.069 321.751 764.225 318.629 768.649 316.623C783.122 310.089 797.243 304.506 810.827 297.765C824.246 291.106 839.256 284.882 853.005 280.395C858.112 278.72 863.074 276.363 867.891 274.936C874.177 273.075 880.937 272.041 887.243 269.973C899.421 265.962 912.736 259.407 924.955 256.078C917.368 261.33 907.092 263.398 898.656 267.492ZM20.8616 259.055C18.4633 258.766 22.5984 258.083 22.8464 258.063C28.098 257.753 34.3007 260.255 40.71 261.04C55.2861 262.839 72.24 264.37 82.8878 268.981C62.7499 266.065 41.0615 262.633 20.8616 259.055ZM18.8768 259.552C16.251 258.993 13.8113 260.71 12.9222 259.055C14.2455 258.208 19.1042 259.014 18.8768 259.552ZM12.9222 264.018C112.64 278.844 224.39 297.661 328.015 313.645C327.374 330.932 340.379 338.583 352.826 344.414C336.285 344.414 326.113 333.745 325.534 316.127C321.627 314.845 321.275 314.224 318.091 316.127C277.464 311.371 247.485 303.617 212.895 299.75C195.569 294.994 171.296 292.761 151.365 289.328C124.549 284.717 98.1876 281.202 70.9788 276.921C54.025 274.254 37.464 270.366 20.3655 267.988C15.4653 267.306 9.07666 267.74 5.47913 263.522C7.65002 261.371 10.6273 263.667 12.9222 264.018ZM575.128 333C560.552 321.937 552.178 304.671 542.378 288.832C536.775 279.713 529.828 271.938 524.018 263.026C546.285 281.119 557.512 310.254 575.128 333ZM1039.08 276.425C1026 274.274 1011.44 269.332 999.883 264.018C1012.99 268.112 1025.81 272.496 1039.08 276.425ZM905.603 291.313C886.685 296.152 868.346 304.816 851.516 311.164C845.479 313.439 839.173 314.845 833.653 317.119C827.74 319.559 822.137 323.199 815.789 325.556C809.318 327.955 803.777 331.904 797.926 333.993C793.253 335.668 788.994 336.433 784.528 338.459C775.121 342.74 765.362 345.717 756.244 350.866C751.179 353.72 745.803 355.229 740.365 357.318C735.3 359.282 730.669 362.529 725.479 364.762C714.583 369.435 704.742 374.377 694.218 378.657C684.19 382.731 674.018 387.363 663.453 392.057C658.201 394.393 653.219 398.55 647.078 397.516C649.849 391.519 656.92 389.286 662.461 387.094C668.58 384.675 674.452 381.552 680.324 379.154C684.521 377.437 689.173 377.003 693.226 375.184C700.772 371.792 708.463 367.884 716.051 364.266C719.711 362.529 723.205 359.964 726.968 358.31C730.813 356.615 735.362 356.263 739.373 354.836C744.459 353.017 749.504 349.667 754.756 347.392C771.234 340.238 787.237 332.959 804.376 327.045C821.206 321.234 838.16 313.894 854.494 307.69C860.386 305.457 866.63 304.154 871.861 301.735C876.079 299.791 879.201 296.876 883.274 295.283C887.595 293.588 892.371 292.843 897.168 291.313C901.261 290.01 905.438 287.674 909.573 285.854C926.775 278.327 942.157 271.4 958.201 264.018C944.059 276.508 921.895 280.974 905.603 291.313ZM1032.14 279.899C1019.77 277.686 1007.12 271.504 994.425 267.988C996.161 267.844 993.184 266.148 994.921 266.003C1005.65 272.31 1021.43 273.571 1032.14 279.899ZM983.012 276.425C972.902 281.719 961.737 285.089 952.743 289.824C949.104 291.747 945.693 292.761 941.827 294.291C934.507 297.186 928.036 301.404 920.49 304.216C905.541 309.758 890.634 315.052 875.334 321.09C873.515 322.124 872.585 320.966 870.869 320.593C870.021 322.951 868.429 323.385 866.899 324.067C861.172 326.631 854.101 327.955 847.547 330.519C834.666 335.544 822.137 340.424 809.835 344.911C801.461 347.971 794.37 353.244 786.513 353.347C786.699 355.353 784.818 355.291 784.032 356.325C772.33 360.461 761.454 366.788 750.29 372.702C744.79 375.618 738.36 377.21 732.426 379.65C714.563 386.991 697.878 395.427 679.828 402.479C668.064 407.09 656.465 412.135 645.093 416.871C648.215 415.816 646.582 408.62 647.078 406.449C647.554 407.793 648.319 408.847 650.055 408.93C675.135 398.674 699.159 384.571 725.479 374.687C751.385 364.948 775.679 350.639 801.895 339.948C815.086 334.572 829.456 330.374 843.081 326.052C849.883 323.902 856.396 320.717 862.929 318.112C869.897 315.32 877.257 313.976 884.266 311.66C891.192 309.365 897.726 306.532 904.611 304.216C911.413 301.942 917.264 298.675 923.963 295.78C930.558 292.926 937.712 291.334 944.308 288.336C951.151 285.213 958.098 283.724 964.652 280.891C972.219 277.604 980.51 270.656 986.982 268.485C987.188 269.767 988.47 269.973 988.47 271.462C988.388 272.889 983.508 273.757 983.012 276.425ZM97.2779 270.966C95.1484 270.118 91.5508 270.738 89.8348 269.477C92.5433 269.746 96.1201 269.146 97.2779 270.966ZM100.751 270.966C99.945 271.607 96.9264 271.069 98.2703 269.973C98.0428 271.359 100.979 269.58 100.751 270.966ZM198.008 272.951C217.505 274.378 238.139 277.252 257.554 279.899C271.179 281.76 289.828 281.47 297.25 288.336C246.699 282.07 200.117 277.438 155.334 270.47C169.001 272.372 183.412 271.896 198.008 272.951ZM135.486 272.951C133.46 272.496 131.02 272.455 129.531 271.462C131.888 271.586 135.114 270.842 135.486 272.951ZM260.531 275.929C251.124 274.75 242.709 274.626 233.736 271.958C244.177 271.772 252.571 273.633 260.531 275.929ZM1008.81 276.425C1014.42 278.617 1020.37 280.623 1024.69 283.373C1013.53 282.732 1002.65 277.686 992.936 273.944C997.485 271.379 1003.69 274.419 1008.81 276.425ZM224.804 284.365C190.648 281.698 168.112 279.113 136.975 272.951C166.354 274.688 194.99 280.519 224.804 284.365ZM367.216 277.914C367.485 286.04 359.132 281.905 358.78 275.929C362.295 275.887 365.624 276.032 367.216 277.914ZM990.455 277.417C998.394 281.057 1007.57 283.455 1017.25 285.358C1016.42 287.178 1014.05 287.446 1012.29 288.336C1006.4 284.159 996.534 283.538 988.47 280.395C988.946 279.216 988.636 277.252 990.455 277.417ZM354.811 282.876C354.294 285.585 350.634 285.441 347.367 286.35C346.127 285.11 344.287 284.469 344.39 281.884C348.112 279.878 355.989 276.632 354.811 282.876ZM978.05 315.134C972.674 314.39 965.024 319.952 957.705 323.075C943.811 328.989 931.778 332.959 919.001 338.955C899.917 347.93 880.896 356.222 862.433 364.266C856.334 366.912 850.11 369.27 844.073 372.206C837.602 375.349 830.717 377.127 824.225 380.146C790.172 395.944 754.011 411.163 721.013 426.3C708.257 432.152 694.404 436.287 681.316 442.181C666.596 448.818 652.35 456.903 637.154 461.039C637.505 459.509 637.505 460.088 637.154 458.558C638.456 456.283 641.372 458.64 641.62 455.58C640.979 454.029 639.263 456.655 639.139 454.587C689.752 430.911 746.733 408.062 797.43 384.613C799.27 384.261 799.559 385.461 801.399 385.109C801.503 384.22 800.903 382.628 802.392 383.124C810.145 379.278 817.278 375.721 825.713 373.695C826.003 372.661 826.747 372.082 827.202 371.213C830.924 371.523 833.074 367.946 836.63 369.725C837.023 368.794 837.271 367.719 838.119 367.243C851.93 361.391 865.162 356.201 878.312 349.377C885.403 345.697 896.093 344.807 902.626 338.459C920.903 332.752 936.926 324.77 953.239 317.119C954.418 317.119 954.707 317.967 956.217 317.616C956.713 316.623 957.457 315.879 958.201 315.134C970.958 311.681 974.514 308.683 985.493 304.216C987.064 304.299 987.685 305.333 989.463 305.209C989.669 304.258 990.538 303.968 990.455 302.727C1006.81 295.594 1022.56 287.86 1040.08 281.884C1039.81 280.25 1040.49 278.782 1041.56 279.899C1043.98 281.16 1040.88 283.29 1042.06 284.862C1043.36 285.048 1044.79 285.11 1045.53 285.854C1031.91 291.561 1029.32 293.67 1018.24 296.276C1016.94 299.812 1009.27 301.156 1005.34 303.72C1004.95 303.617 1004.37 303.72 1004.35 303.224C1004.62 303.224 1004.91 302.831 1004.35 302.727C1001.19 303.927 997.361 305.436 993.432 307.194C989.649 308.89 981.668 311.909 983.508 313.149C981.461 312.467 976.458 314.803 978.05 315.134ZM1007.33 290.817C997.195 293.36 988.636 286.144 980.035 283.869C989.876 280.891 998.725 287.405 1007.33 290.817ZM368.705 287.343C368.994 280.126 377.037 286.268 377.14 291.809C372.778 294.911 368.601 289.886 368.705 287.343ZM336.451 291.313C335.603 290.672 334.507 290.279 334.466 288.832C335.624 286.516 337.278 284.696 339.924 283.869C340.875 286.826 338.601 289.907 336.451 291.313ZM226.789 285.358C226.003 283.972 228.939 283.993 228.773 284.862C227.843 284.758 227.678 285.42 226.789 285.358ZM304.197 292.306C304.942 293.546 309.077 296.131 307.174 296.772C285.155 291.024 257.533 291.623 234.728 284.862C254.7 287.074 281.227 291.685 304.197 292.306ZM998.891 294.787C989.69 296.048 979.621 290.486 972.095 286.847C979.621 286.64 989.897 292.471 998.891 294.787ZM292.784 298.757C300.62 300.267 308.973 299.75 315.114 304.216C280.524 299.047 246.285 294.911 214.88 288.336C241.551 290.259 268.408 294.063 292.784 298.757ZM966.141 289.328C973.584 292.802 983.074 294.229 989.959 298.261C980.924 302.603 972.157 292.326 961.179 292.306C961.923 290.403 964.301 290.134 966.141 289.328ZM333.474 313.645C333.226 311.474 333.308 312.012 332.977 310.172C339.056 305.995 340.483 297.165 345.879 292.306C349.187 293.009 350.696 290.176 354.314 289.824C347.223 297.62 338.518 303.803 333.474 313.645ZM343.894 307.194C347.202 303.389 350.862 298.881 354.314 296.276C357.085 294.187 366.12 290.92 368.208 293.795C368.767 293.898 368.973 294.353 369.201 294.787C367.629 294.87 367.547 293.464 365.727 293.795C352.516 301.073 342.529 311.619 334.466 324.067C334.404 323.137 334.135 322.413 333.474 322.082C337.361 317.822 339.428 312.343 343.894 307.194ZM331.985 300.246C330.248 300.329 330.352 298.571 329.008 298.261C330 296.441 329.876 293.505 332.481 293.298C334.755 294.828 332.543 298.468 331.985 300.246ZM980.035 303.224C969.532 303.658 960.372 298.84 952.247 295.283C962.192 293.484 971.64 298.716 980.035 303.224ZM379.621 304.216C377.078 304.113 372.633 301.632 373.667 296.276C375.631 295.676 377.057 296.007 379.621 295.283C380.903 297.33 381.172 303.513 379.621 304.216ZM766.168 299.75C754.838 302.996 748.76 307.98 740.862 313.149C733.356 314.08 728.601 317.76 723.991 321.586C721.179 321.669 720.951 322.434 720.021 323.571C712.598 324.501 707.512 329.733 701.661 333.496C697.03 336.474 690.62 336.867 686.775 341.437C673.377 344.58 666.037 353.782 654.521 358.806C653.715 360.316 652.722 361.639 651.048 362.28C650.303 362.818 647.802 365.92 647.574 363.769C646.21 361.288 652.722 360.13 650.055 356.325C686.733 333.29 728.374 312.57 770.138 296.276C768.856 297.475 765.92 297.02 766.168 299.75ZM952.247 300.246C957.581 302.852 964.962 303.41 970.11 306.201C961.592 309.551 948.546 303.885 939.842 301.239C944.039 299.75 950.303 295.945 952.247 300.246ZM340.917 323.075C347.037 312.984 357.85 303.968 367.712 298.757C367.815 298.158 368.27 298.447 368.705 298.757V300.246C355.183 306.408 347.946 318.877 340.917 331.511C336.492 330.436 339.821 324.874 340.917 323.075ZM329.008 307.69C327.478 308.062 328.057 306.325 326.527 306.698C326.485 304.671 326.589 302.789 328.512 302.727C329.028 304.03 329.111 305.767 329.008 307.69ZM936.368 303.224C944.039 306.16 954.439 306.325 959.69 311.66C951.213 316.127 944.514 307.483 935.872 306.201C936.658 304.258 934.59 305.167 934.383 304.216C935.128 303.968 935.624 303.472 936.368 303.224ZM345.879 330.519C346.768 328.203 350.076 325.184 352.33 322.082C357.478 314.948 363.432 306.284 372.178 304.713C372.633 305.581 373.997 305.54 374.163 306.698C360.496 312.053 355.328 325.908 346.375 335.978C344.328 335.089 345.403 331.739 345.879 330.519ZM928.925 306.698C934.342 310.875 942.633 312.177 948.773 315.631C941.434 314.597 931.22 312.426 925.948 307.69C926.403 306.822 927.498 306.594 928.925 306.698ZM381.11 319.105C377.781 317.306 376.727 313.79 377.636 310.172C380.8 311.019 379.621 307.525 382.598 308.186C382.929 312.653 381.937 315.796 381.11 319.105ZM941.33 317.616C940.689 320.387 938.105 318.381 937.361 320.593C932.13 315.734 922.226 315.548 916.024 311.66C917.926 311.743 918.422 310.42 919.993 310.172C925.638 314.121 934.259 315.093 941.33 317.616ZM373.667 316.623C361.923 319.104 359.463 330.87 351.833 337.467C358.077 328.658 363.101 318.629 372.674 313.149C372.633 314.679 373.274 315.527 373.667 316.623ZM931.902 322.578C921.255 326.445 911.93 317.884 902.626 315.631C913.853 312.074 923.86 318.464 931.902 322.578ZM920.986 327.045C919.27 328.927 917.781 327.996 916.024 329.526C908.973 325.163 898.222 324.501 890.717 320.593C900 317.347 911.62 323.468 920.986 327.045ZM393.019 322.578C433.935 343.008 473.653 366.54 515.086 386.598C546.492 401.796 577.071 417.718 606.885 434.24C616.975 439.844 627.912 443.731 637.154 450.617C631.385 452.044 626.32 447.619 621.771 445.158C606.43 436.846 591.006 429.96 576.12 421.833C561.275 413.728 545.458 406.118 530.965 398.508C482.833 373.24 434.494 346.813 386.072 322.082C386.175 321.524 386.63 321.296 387.064 321.09C386.919 323.716 390.951 322.144 393.019 322.578ZM378.629 325.06C377.119 325.535 377.078 327.479 375.155 327.541C375.217 325.411 373.212 323.53 374.659 321.586H376.148C375.238 324.481 377.843 323.86 378.629 325.06ZM885.755 324.067C892.743 326.176 903.804 329.092 909.077 332.504C907.113 333.517 904.818 334.2 902.626 334.985C903.019 330.519 887.988 330.374 892.206 328.534C888.133 327.645 884.949 325.866 880.793 325.06C881.93 322.909 884.308 323.633 885.755 324.067ZM428.25 331.511C462.137 349.832 497.926 367.471 530.469 384.613C570.083 405.477 609.159 424.811 647.574 446.151C641.951 450.204 636.782 444.497 632.192 442.181C626.92 439.534 621.275 436.99 616.313 434.24C605.851 428.45 594.728 423.322 584.059 418.856C575.645 413.293 567.436 408.517 558.257 405.456C508.284 376.858 455.128 351.445 404.432 323.571C415.782 323.095 420.393 327.252 428.25 331.511ZM383.591 328.037C464.349 371.007 547.836 411.246 628.222 454.587C631.179 453.946 631.592 455.849 633.68 456.076C634.094 459.612 633.163 461.825 631.696 463.52C630.166 461.659 627.56 461.473 625.741 462.032C545.334 419.807 466.582 378.471 386.072 335.978C385.079 335.316 386.237 332.525 384.583 332.504C380.82 333.621 383.219 330.415 379.125 329.526C381.482 328.079 382.495 322.661 386.072 324.067C385.059 325.205 383.653 325.949 383.591 328.037ZM371.186 328.037C365.769 329.733 363.577 337.281 358.284 337.467C362.192 333.104 364.755 327.396 369.697 324.067C369.594 326.011 370.772 326.631 371.186 328.037ZM899.649 336.474C888.546 337.735 876.286 332.256 866.403 329.03C877.815 323.219 888.505 334.344 899.649 336.474ZM446.113 333C464.018 342.243 482.977 350.969 499.704 360.295C506.982 364.348 513.184 369.745 519.056 373.695C522.157 375.783 525.052 375.928 526.995 378.657C494.556 361.143 460.648 345.097 429.242 326.549C437.636 326.383 439.993 329.836 446.113 333ZM484.818 330.519C484.631 329.836 482.006 329.113 483.329 328.534C483.37 329.382 486.554 329.526 484.818 330.519ZM491.268 333.993C489.263 334.179 488.973 332.628 487.795 332.008C489.428 332.194 490.276 333.166 491.268 333.993ZM889.228 340.941C886.437 342.45 883.419 343.732 880.297 344.911C871.985 340.961 863.343 337.384 854.99 333.496C866.796 332.09 879.345 337.26 889.228 340.941ZM357.788 343.918C371.268 345.821 370.937 333.91 381.606 333C378.732 341.023 366.058 346.11 357.788 343.918ZM578.105 336.474C577.691 335.358 574.611 334.365 575.624 333.496C576.265 334.365 579.056 335.647 578.105 336.474ZM874.342 346.4C873.867 348.075 871.654 348.013 870.372 348.881C870.414 347.185 868.904 347.041 867.891 346.4C859.104 344.084 852.033 340.093 844.569 336.474C856.148 334.551 863.611 344.29 874.342 346.4ZM746.32 361.288C728.891 369.787 709.952 375.225 694.218 385.605C686.527 386.66 680.965 389.968 675.858 393.049C674.059 394.145 672.55 396.151 670.896 397.02C671.62 396.647 670.234 396.441 669.904 396.523C661.551 398.715 653.074 402.809 646.582 405.953C646.892 403.554 645.92 402.437 646.582 400.99C666.823 397.909 683.384 385.874 701.661 378.657C709.373 375.618 716.382 371.441 723.991 368.236C731.702 364.969 740.117 363.004 746.816 357.814C753.742 356.139 759.904 353.699 764.68 349.874C769.125 348.943 773.487 347.103 777.581 345.407C781.654 343.711 786.596 342.595 788.994 338.955C791.785 340.258 795.114 336.061 797.926 337.467C781.261 344.911 763.687 352.81 746.32 361.288ZM866.403 349.874C865.741 352.189 862.95 352.376 860.944 353.347C853.15 347.744 841.055 346.441 833.157 340.941C846.099 339.452 855.052 346.917 866.403 349.874ZM854.494 355.333C841.84 354.588 834.666 348.364 825.217 344.414C836.01 345.056 846.058 350.68 854.494 355.333ZM847.547 358.806C845.831 359.241 844.445 360.006 843.081 360.792C833.529 356.449 822.24 353.844 813.308 348.881C826.148 345.283 835.679 356.594 847.547 358.806ZM809.339 353.347C818.477 355.229 829.807 358.931 837.623 363.769C835.968 363.935 835.431 365.217 833.157 364.762C825.011 359.489 813.494 357.628 804.873 352.851C805.886 352.376 806.837 351.838 807.85 351.362C807.767 352.603 808.615 352.913 809.339 353.347ZM618.298 355.829C617.43 355.374 615.817 355.663 615.321 354.836C616.52 354.671 619.332 355.395 618.298 355.829ZM829.187 367.243C827.347 367.553 826.065 368.422 824.225 368.732C816.265 363.128 805.369 360.461 796.437 355.829C807.312 356.056 818.787 363.314 829.187 367.243ZM807.85 364.762C812.295 366.271 817.629 367.595 819.759 371.213C817.051 373.219 815.707 369.745 813.308 368.732C812.378 368.339 811.282 368.939 810.331 368.732C807.602 368.112 805.307 365.878 802.392 364.762C797.326 362.818 790.586 363.314 788.002 359.303C795.238 358.124 801.11 362.446 807.85 364.762ZM783.039 362.28C792.757 366.788 804.645 369.125 813.804 374.191C811.758 374.625 810.393 375.742 808.346 376.176C802.557 368.897 790.214 368.174 782.047 363.273C782.109 362.673 782.192 362.094 783.039 362.28ZM804.873 377.665C800.986 380.043 796.975 379.361 792.964 377.665C785.913 374.687 777.891 369.27 771.627 367.243C783.143 363.418 794.514 374.046 804.873 377.665ZM780.558 376.176C785.831 378.285 791.578 378.74 793.956 382.628C791.434 382.586 791.186 384.82 788.498 384.613C782.295 377.913 771.957 375.349 763.191 371.213C769.476 368.897 774.625 373.798 780.558 376.176ZM784.528 386.598C782.44 387.156 780.951 388.314 778.574 388.583C772.784 382.317 761.496 381.511 755.252 375.68C765.507 375.039 777.788 380.456 784.528 386.598ZM750.29 378.161C757.526 381.097 766.727 388.872 775.1 390.568C773.012 390.961 771.875 392.305 769.642 392.553C761.868 387.59 751.902 384.82 743.839 380.146C746.072 380.146 748.325 377.355 750.29 378.161ZM739.869 385.605C748.491 386.618 758.105 390.361 764.184 395.531C761.744 396.399 759.552 397.516 757.237 398.508C750.807 392.367 741.13 389.472 732.426 385.605C734.969 385.171 735.92 383.145 738.877 383.124C738.794 384.365 739.125 385.192 739.869 385.605ZM727.96 389.079C736.727 392.057 745.1 395.427 751.778 400.493C748.47 401.321 746.299 403.306 743.343 404.464C742.64 403.347 742.971 401.197 741.358 400.99C733.232 398.529 727.443 393.752 718.532 392.057C720.145 389.038 724.507 388.79 727.96 387.59V389.079ZM713.074 396.523C724.549 396.958 732.612 400.804 738.877 406.449C736.354 407.4 734.308 408.827 731.434 409.426C730.855 408.682 730.813 407.4 729.945 406.945C720.558 404.753 714.625 399.108 704.142 398.012C707.45 398.095 710.882 392.925 713.074 396.523ZM701.165 402.975C711.42 404.133 719.297 407.669 726.968 411.412C724.301 412.383 722.44 414.162 719.525 414.885C713.239 409.096 701.868 405.746 694.218 402.975C695.004 400.948 697.609 400.742 699.676 399.997C699.656 401.507 700.131 402.52 701.165 402.975ZM577.609 403.967C589.621 408.331 600.558 413.769 612.84 417.863C613.977 418.049 613.501 419.848 614.328 420.344C628.387 427.458 642.509 434.509 656.01 442.181C653.529 444.765 651.399 442.181 649.063 441.188C638.663 436.742 630.91 432.462 621.275 427.789C610.09 422.371 599.38 415.485 589.022 410.419C584.659 408.289 580.007 407.152 576.616 403.967H577.609ZM688.76 406.945C697.753 408.124 708.112 412.011 714.563 417.367C712.888 417.367 711.937 418.049 711.089 418.856C704.018 414.844 694.507 410.626 688.76 406.945ZM681.316 410.419C688.863 410.584 696.637 418.38 705.135 420.841C703.129 421.296 702.033 422.702 699.676 422.826C697.815 420.903 694.404 420.489 691.241 419.848C686.733 415.423 681.895 411.329 675.362 408.93C677.243 408.331 679.27 407.876 681.316 407.441C681.461 408.31 679.911 409.923 681.316 410.419ZM669.407 413.397C679.042 414.513 686.775 421.378 694.218 426.3C692.895 426.631 691.696 427.086 690.745 427.789C681.275 424.356 674.349 418.38 665.438 414.389C666.037 412.673 667.94 412.259 669.904 411.908C669.924 412.59 669.676 413.004 669.407 413.397ZM661.468 417.863C670.979 420.096 675.465 427.354 684.294 430.27C681.937 430.394 680.862 431.779 678.835 432.255C678.918 429.939 677.905 428.512 676.354 427.292C671.372 423.384 661.055 421.751 657.002 417.367C658.615 417.388 661.427 415.072 661.468 417.863ZM664.942 427.789C669.345 429.794 673.625 429.98 676.851 433.248C675.031 433.744 674.039 435.067 671.889 435.233C666.327 428.223 655.348 426.631 648.567 420.841C656.713 419.104 659.277 425.204 664.942 427.789ZM667.919 437.714C665.438 438.045 663.804 439.224 661.468 439.699C658.656 431.593 648.112 431.221 643.605 424.811C652.619 428.202 660.951 432.255 667.919 437.714ZM642.612 430.766C641.558 429.546 636.244 427.727 637.154 427.789C639.511 427.913 642.943 429.588 642.612 430.766Z" fill="white" fill-opacity="0.04"/>
<path fill-rule="evenodd" clip-rule="evenodd" d="M507.147 278.906C506.258 280.974 510.786 281.863 511.613 283.869C512.337 281.987 507.871 281.015 507.147 278.906Z" fill="white" fill-opacity="0.04"/>
<path fill-rule="evenodd" clip-rule="evenodd" d="M479.359 311.66C480.972 314.059 487.133 318.711 490.772 319.104C495.796 324.998 502.454 329.257 509.132 333.496C523.708 350.121 544.9 362.26 566.692 375.183C576.637 381.077 586.334 388.81 596.961 394.538C602.047 397.288 608.332 398.715 614.824 400.493C623.632 402.913 633.453 407.731 641.124 403.471C637.609 399.832 629.814 401.176 624.749 399.997C601.716 394.641 583.667 382.4 565.7 370.717C582.591 379.133 604.363 386.97 625.245 393.049C625.059 391.416 622.598 392.036 622.764 390.072C618.835 390.072 615.197 386.887 611.847 385.605C610.669 385.15 611.124 386.536 611.351 386.598C610.751 386.453 609.945 385.316 609.366 385.109C592.35 378.781 572.399 369.786 556.768 359.799C554.204 358.165 551.392 356.738 548.829 355.332C546.017 353.782 544.569 351.858 541.882 349.873C537.933 346.958 533.219 344.973 529.476 341.933C525.755 338.914 522.674 335.502 519.056 332.504C523.191 334.158 526.54 339.245 530.469 339.452C530.903 338.108 527.864 336.598 527.492 334.489C512.853 322.992 499.745 309.965 487.299 296.276C465.073 285.585 425.996 271.462 400.958 288.832C397.485 289.183 394.983 288.397 394.011 291.809C401.206 293.939 405.217 287.922 410.386 286.35C430.855 280.064 450.124 286.991 465.465 291.809C472.578 294.042 479.194 296.731 484.321 300.742C495.052 309.138 503.053 319.539 513.102 327.541C501.213 318.918 491.289 308.331 476.382 302.727C475.865 301.59 474.459 301.342 473.901 300.246C459.738 292.719 434.597 292.719 414.852 292.802C408.132 292.822 401.578 295.428 397.485 299.253C404.804 296.875 409.931 295.904 419.318 296.276C430.441 296.731 442.702 295.469 453.06 297.765C470.241 301.569 484.652 311.495 496.23 320.097C490.379 316.85 485.5 312.632 478.863 310.171C479.38 310.792 481.117 313.004 479.359 311.66ZM515.583 330.022C515.19 329.381 513.06 327.975 514.094 327.541C514.094 328.575 516.802 329.402 515.583 330.022Z" fill="white" fill-opacity="0.04"/>
</g>
<defs>
<clipPath id="clip0_47_1194">
<rect width="1050" height="469" fill="white" transform="matrix(-1 0 0 1 1050 0)"/>
</clipPath>
</defs>
</svg>
