<svg width="48" height="48" viewBox="0 0 48 48" fill="none" xmlns="http://www.w3.org/2000/svg">
<g clip-path="url(#clip0_540_1975)">
<path fill-rule="evenodd" clip-rule="evenodd" d="M8.99824 36.1898H2.61511C1.18102 36.1898 0 35.0088 0 33.5747V20.1336C0 18.6995 1.18102 17.5185 2.61511 17.5185H8.99824C9.56063 17.5185 10.0668 17.6872 10.4886 17.9965V12.9912C10.4886 11.5571 11.6696 10.3761 13.1037 10.3761H19.4868C20.0492 10.3761 20.5554 10.5448 20.9772 10.826V5.82074C20.9772 4.38664 22.1582 3.23374 23.5923 3.23374H29.9754C31.4095 3.23374 32.5905 4.38664 32.5905 5.82074V23.4517L33.1248 23.6485L35.2619 21.1459C35.4868 20.8647 35.9086 20.8647 36.1336 21.1459L37.1459 22.355V10.3199H35.29C34.812 10.3199 34.5589 9.81371 34.812 9.44816L39.058 3.40246C39.9297 2.1652 41.4763 2.1652 42.348 3.40246L46.5659 9.44816C46.819 9.81371 46.5659 10.3199 46.116 10.3199H44.232V26.4886L45.9473 26.826C46.2847 26.8823 46.5097 27.2197 46.3972 27.5571L45.2724 30.6784L47.8032 32.8155C48.0562 33.0404 48.0562 33.4341 47.8032 33.6591L45.2724 35.7961L46.3972 38.9174C46.5097 39.2267 46.2847 39.5923 45.9473 39.6485L42.7135 40.239L42.123 43.5009C42.0668 43.8383 41.7012 44.0352 41.3638 43.9227L38.2707 42.7979L36.1336 45.3286C35.9086 45.5817 35.4868 45.5817 35.2619 45.3286L33.1248 42.7979L30.0316 43.9227C29.6942 44.0352 29.3568 43.8383 29.2724 43.5009L28.6819 40.239L25.4482 39.6485C25.1107 39.5923 24.8858 39.2267 25.0264 38.9174L25.9824 36.1898H23.5923C22.7487 36.1898 22.0176 35.7961 21.5395 35.1775C21.0615 35.7961 20.3304 36.1898 19.4868 36.1898H13.1037C12.2601 36.1898 11.529 35.7961 11.051 35.1775C10.5729 35.7961 9.84183 36.1898 8.99824 36.1898ZM32.7592 38.8893C32.3374 38.8893 32.0562 38.4113 32.2812 38.0457L38.1582 27.8383C38.5237 27.2197 39.5079 27.7821 39.1424 28.4007L33.2373 38.6081C33.1529 38.7768 32.9561 38.8893 32.7592 38.8893ZM39.8453 38.0738C36.6116 38.0738 36.6116 33.181 39.8453 33.181C43.051 33.181 43.051 38.0738 39.8453 38.0738ZM39.8453 34.3058C38.1019 34.3058 38.1019 36.949 39.8453 36.949C41.5888 36.949 41.5888 34.3058 39.8453 34.3058ZM31.5501 33.2935C29.6942 33.2935 28.4851 31.2408 29.4411 29.6098C30.116 28.4569 31.6063 28.0352 32.7873 28.71C34.9526 29.9754 34.0527 33.2935 31.5501 33.2935ZM31.5782 29.5255C29.8067 29.5255 29.8348 32.1687 31.5501 32.1687C33.2935 32.1687 33.2935 29.5255 31.5782 29.5255ZM38.2707 23.6485L41.3638 22.5518C41.7012 22.4394 42.0668 22.6362 42.123 22.9736L42.7135 26.2074L43.1072 26.2917V9.75747C43.1072 8.99824 44.1476 9.19508 45.0193 9.19508L41.42 4.04921C40.9982 3.4587 40.3796 3.4587 39.9859 4.04921L36.3585 9.19508C37.2584 9.19508 38.2707 8.99824 38.2707 9.75747V23.6485ZM43.6134 27.529L42.123 27.2478C41.8981 27.2197 41.7294 27.0228 41.6731 26.7979L41.1388 23.8172C37.4552 25.1388 38.1863 25.1107 37.3427 24.2953L35.7118 22.3831L33.7434 24.6889C33.6028 24.8576 33.3497 24.9139 33.1248 24.8576L30.2847 23.8172L29.7223 26.7979C29.6942 27.0228 29.4974 27.2197 29.2724 27.2478L26.2917 27.8102L27.304 30.6503C27.3884 30.8752 27.3322 31.1283 27.1353 31.2689L24.8295 33.2373C25.1951 33.5185 27.1634 35.1213 27.2759 35.3743C27.3603 35.4868 27.3603 35.6555 27.304 35.7961L26.2917 38.6643L29.2724 39.1986C29.4974 39.2548 29.6942 39.4236 29.7223 39.6485L30.2847 42.6292L33.3216 41.5888C33.4622 41.5888 33.6309 41.645 33.7434 41.7856L35.7118 44.0914L37.652 41.7856C37.8207 41.6169 38.0738 41.5325 38.2707 41.6169L41.1388 42.6292L41.6731 39.6485C41.7294 39.4236 41.8981 39.2548 42.123 39.1986L45.1037 38.6643L44.0914 35.7961C44.007 35.5993 44.0633 35.3462 44.2601 35.1775L46.5659 33.2373L44.2601 31.2689C44.0633 31.1283 44.007 30.8752 44.0914 30.6503L45.1037 27.8102L43.6134 27.529ZM31.4657 23.058V5.82074C31.4657 5.00527 30.7909 4.35852 29.9754 4.35852H23.5923C22.7768 4.35852 22.1019 5.00527 22.1019 5.82074V33.5747C22.1019 34.3902 22.7768 35.065 23.5923 35.065H25.2513L23.6204 33.6591C23.3392 33.4341 23.3392 33.0404 23.6204 32.8155L26.123 30.6784L25.0264 27.5571C24.8858 27.2197 25.1107 26.8823 25.4482 26.826L28.6819 26.2074L29.2724 22.9736C29.3568 22.6362 29.6942 22.4394 30.0316 22.5518L31.4657 23.058ZM11.6134 20.1054V20.1336V33.5747C11.6134 34.3902 12.2882 35.065 13.1037 35.065H19.4868C20.3023 35.065 20.9772 34.3902 20.9772 33.5747V12.9912C20.9772 12.1757 20.3023 11.5009 19.4868 11.5009H13.1037C12.2882 11.5009 11.6134 12.1757 11.6134 12.9912V20.1054ZM10.4886 33.5747V20.1336C10.4886 19.3181 9.81371 18.6432 8.99824 18.6432H2.61511C1.79965 18.6432 1.12478 19.3181 1.12478 20.1336V33.5747C1.12478 34.3902 1.79965 35.065 2.61511 35.065H8.99824C9.81371 35.065 10.4886 34.3902 10.4886 33.5747Z" fill="url(#paint0_linear_540_1975)"/>
</g>
<defs>
<linearGradient id="paint0_linear_540_1975" x1="20.0156" y1="-0.748372" x2="27.9749" y2="48.7395" gradientUnits="userSpaceOnUse">
<stop stop-color="#134879"/>
<stop offset="0.501961" stop-color="#0B5992"/>
<stop offset="1" stop-color="#3EA9FF"/>
</linearGradient>
<clipPath id="clip0_540_1975">
<rect width="48" height="48" fill="white"/>
</clipPath>
</defs>
</svg>
