<svg width="78" height="78" viewBox="0 0 78 78" fill="none" xmlns="http://www.w3.org/2000/svg">
<g clip-path="url(#clip0_541_4163)">
<path fill-rule="evenodd" clip-rule="evenodd" d="M38.9774 74.7101C38.7489 74.7101 38.5204 74.6187 38.3376 74.4359L6.80863 42.9069C-2.28452 33.8594 -2.28452 19.1002 6.80863 10.0528C15.6276 1.18808 29.8842 1.00531 38.9774 9.41304C48.0705 1.00531 62.3728 1.18808 71.1918 10.0528C80.2392 19.1002 80.2392 33.8594 71.1918 42.9069L39.6171 74.4359C39.48 74.6187 39.2515 74.7101 38.9774 74.7101ZM36.9668 52.0457C36.3271 52.0457 35.8701 51.406 36.1443 50.812L40.9422 39.4798L35.5503 34.0422C35.3218 33.8137 35.2304 33.4939 35.2761 33.2197L37.9721 20.9737C33.4484 16.4043 30.2498 12.1547 23.2129 12.1547C10.4642 12.1547 4.11267 27.645 13.0687 36.6011L38.9774 62.5097L64.886 36.6011C70.5064 31.0264 70.5064 21.9333 64.886 16.3586C59.3113 10.7382 50.2181 10.7382 44.6434 16.3586L39.8455 21.1565L37.1496 33.1283L42.6786 38.6116C42.9071 38.8858 42.9984 39.2514 42.8614 39.6169L37.835 51.4974C37.6522 51.863 37.3324 52.0457 36.9668 52.0457ZM38.9774 64.7487C38.7489 64.7487 38.5204 64.6573 38.3376 64.4746L11.7893 37.9262C1.69088 27.7821 8.81917 10.3269 23.2129 10.3269C30.8895 10.3269 34.2252 14.6222 38.9774 19.4201L43.364 15.0334C49.6241 8.77332 59.9053 8.77332 66.2111 15.0334C72.5169 21.3392 72.5169 31.6204 66.2111 37.9262L39.6171 64.4746C39.48 64.6573 39.2058 64.7487 38.9774 64.7487ZM23.2129 5.07209C4.24975 5.07209 -5.34603 28.1477 8.08807 41.5818L38.9774 72.5167L69.9123 41.6275C78.2287 33.2654 78.2287 19.6942 69.9123 11.3322C61.5503 3.01585 47.9791 3.01585 39.6171 11.3322C39.2972 11.6978 38.7032 11.6978 38.3376 11.3322C34.1795 7.17403 28.6962 5.07209 23.2129 5.07209Z" fill="url(#paint0_linear_541_4163)"/>
</g>
<defs>
<linearGradient id="paint0_linear_541_4163" x1="34.2327" y1="-0.830914" x2="43.7522" y2="78.8157" gradientUnits="userSpaceOnUse">
<stop stop-color="#134879"/>
<stop offset="0.501961" stop-color="#0B5992"/>
<stop offset="1" stop-color="#3EA9FF"/>
</linearGradient>
<clipPath id="clip0_541_4163">
<rect width="78" height="78" fill="white"/>
</clipPath>
</defs>
</svg>
