<svg width="78" height="78" viewBox="0 0 78 78" fill="none" xmlns="http://www.w3.org/2000/svg">
<g clip-path="url(#clip0_541_4160)">
<path fill-rule="evenodd" clip-rule="evenodd" d="M48.3901 78H17.0439C12.9314 78 9.5957 74.6186 9.5957 70.5062V7.44815C9.5957 3.33568 12.9314 0 17.0439 0H48.3901C52.5026 0 55.8839 3.33568 55.8839 7.44815V34.8647C62.9665 35.9156 68.4041 42.0387 68.4041 49.4411C68.4041 56.7979 62.9665 62.9209 55.8839 63.9719V70.5062C55.8839 74.6186 52.5026 78 48.3901 78ZM43.3637 59.9508C43.318 59.8594 43.2723 59.8137 43.2266 59.768C40.5764 57.1178 38.9771 53.4622 38.9771 49.4411C38.9771 41.1705 45.7855 34.5448 54.0562 34.7276V11.6977H11.4235V66.3023H54.0562V64.1547C49.898 64.246 46.1511 62.6468 43.3637 59.9508ZM43.9577 57.8946L62.144 39.7083C53.8277 32.4886 40.8048 38.3831 40.8048 49.4411C40.8048 52.6854 41.9929 55.6098 43.9577 57.8946ZM63.4235 40.9877L45.2372 59.174C53.5535 66.348 66.5764 60.4991 66.5764 49.4411C66.5764 46.1968 65.3883 43.2724 63.4235 40.9877ZM32.717 31.1634C31.5289 31.1634 31.8031 29.6098 31.8031 28.4218C31.8031 27.2337 33.6309 27.2337 33.6309 28.4218C33.6309 29.6098 33.905 31.1634 32.717 31.1634ZM32.717 26.5026C32.2143 26.5026 31.8031 26.0914 31.8031 25.5888V20.0598C31.8031 18.8717 33.6309 18.8717 33.6309 20.0598V25.5888C33.6309 26.0914 33.2196 26.5026 32.717 26.5026ZM21.2477 42.9982C20.6537 42.9982 20.2425 42.4499 20.3795 41.8559L22.0245 35.7329H21.0193C19.2372 35.7329 17.775 34.2707 17.775 32.4886V19.1459C17.775 17.3181 19.2372 15.8559 21.0193 15.8559H44.4147C46.1968 15.8559 47.659 17.3181 47.659 19.1459V32.4886C47.659 34.2707 46.1968 35.7329 44.4147 35.7329H34.1335C33.4481 35.9156 22.0245 42.9982 21.2477 42.9982ZM21.0193 17.6837C20.2425 17.6837 19.6027 18.3234 19.6027 19.1459V32.4886C19.6027 34.9104 23.1669 33.2197 23.9437 34.2707C24.1265 34.4991 24.1722 34.7733 24.0808 35.0475L22.7099 40.2109C23.9894 39.4798 33.311 33.9051 33.905 33.9051H44.4147C45.1915 33.9051 45.8312 33.2654 45.8312 32.4886V19.1459C45.8312 18.3234 45.1915 17.6837 44.4147 17.6837H21.0193ZM39.9367 73.065H25.4973C24.2635 73.065 24.2635 71.2373 25.4973 71.2373H39.9367C41.1704 71.2373 41.1704 73.065 39.9367 73.065ZM40.8505 7.1283H24.5834C24.2178 7.1283 23.898 6.89982 23.7609 6.57997L21.7961 1.82777H17.0439C13.9367 1.82777 11.4235 4.34095 11.4235 7.44815V9.86995H54.0562V7.44815C54.0562 4.34095 51.4973 1.82777 48.3901 1.82777H43.6379L41.7187 6.57997C41.5816 6.89982 41.2161 7.1283 40.8505 7.1283ZM23.7609 1.82777L25.1774 5.30053H40.2565L41.673 1.82777H23.7609ZM11.4235 68.1301V70.5062C11.4235 73.6134 13.9367 76.1722 17.0439 76.1722H48.3901C51.4973 76.1722 54.0562 73.6134 54.0562 70.5062V68.1301H11.4235Z" fill="url(#paint0_linear_541_4160)"/>
</g>
<defs>
<linearGradient id="paint0_linear_541_4160" x1="2.91736" y1="15.0131" x2="75.0668" y2="62.9721" gradientUnits="userSpaceOnUse">
<stop stop-color="#134879"/>
<stop offset="0.501961" stop-color="#0B5992"/>
<stop offset="1" stop-color="#3EA9FF"/>
</linearGradient>
<clipPath id="clip0_541_4160">
<rect width="78" height="78" fill="white"/>
</clipPath>
</defs>
</svg>
