<svg width="78" height="78" viewBox="0 0 78 78" fill="none" xmlns="http://www.w3.org/2000/svg">
<g clip-path="url(#clip0_541_4154)">
<path fill-rule="evenodd" clip-rule="evenodd" d="M24.2635 68.8612C17.912 68.4042 12.8399 63.3779 12.4287 57.0264H9.2301C9.68704 65.1142 16.1756 71.6028 24.2635 72.0598V68.8612ZM53.5535 78C53.0051 78 48.2529 75.0756 47.4304 74.5729C46.2881 73.9332 45.9225 72.5167 46.5623 71.42L49.8522 65.7083C50.4463 64.6573 52.0456 65.5712 51.4515 66.6221C51.1317 67.1705 49.3953 70.0035 48.5728 71.6028C62.4181 66.8506 71.1457 53.0967 69.4094 38.3831C69.2723 37.1494 71.1 36.9666 71.2371 38.1547C73.0649 53.8278 63.6062 68.587 48.984 73.3849C50.492 74.3445 53.4621 75.9438 54.0104 76.2636C54.8329 76.7206 54.513 78 53.5535 78ZM26.3197 18.9174C25.6343 18.9174 25.1774 18.1406 25.5429 17.5466C25.8628 16.9982 27.5078 14.2566 28.376 12.6573C17.0895 16.5413 9.00162 26.4112 7.5851 38.3831C7.44802 39.5712 5.62025 39.3427 5.75734 38.1547C7.31094 25.406 15.9928 14.8506 28.0561 10.8295C26.5939 9.86995 23.5324 8.22496 22.9384 7.9051C21.9331 7.26538 22.8013 5.71178 23.8522 6.3058L29.564 9.59578C30.6607 10.2355 31.0262 11.652 30.4322 12.7487L27.1422 18.4605C26.9594 18.7346 26.6396 18.9174 26.3197 18.9174ZM53.8733 26.1371C52.9137 26.1371 52.8681 25.1775 52.9137 24.1722C51.9542 24.1722 50.5377 24.4007 50.5377 23.2583V12.246C50.5377 11.8348 50.7661 11.6063 51.0403 11.4692C51.3601 11.2865 52.4111 11.3322 52.9137 11.3322C52.9137 11.0123 52.9594 10.6924 52.9594 10.3726C52.9594 9.18454 54.7872 9.18454 54.7872 10.3726V11.3322C58.4427 11.4692 59.2195 15.8102 57.1176 17.775C59.2195 19.6942 58.4427 24.0352 54.7872 24.1722C54.8329 25.1775 54.7872 26.1371 53.8733 26.1371ZM53.7362 22.3445C54.4674 22.2531 56.4779 22.5272 56.4779 20.5167C56.4779 18.3234 54.0561 18.6889 52.3654 18.6889V22.3445H53.7362ZM53.8733 13.1599H52.3654V16.8612C54.0561 16.8612 56.4779 17.181 56.4779 14.9877C56.4779 13.3427 55.0614 13.1599 53.8733 13.1599ZM41.673 18.7346H38.4744C38.9313 26.7768 45.4199 33.3111 53.5078 33.768V30.5694C47.202 30.1125 42.1299 25.0404 41.673 18.7346ZM38.4744 16.9069H41.673C42.1299 10.5554 47.202 5.4833 53.5078 5.07206V1.87346C45.4199 2.3304 38.9313 8.81898 38.4744 16.9069ZM55.3355 30.5694V33.768C63.4234 33.3111 69.912 26.7768 70.3689 18.7346H67.1703C66.7134 25.0404 61.6413 30.1125 55.3355 30.5694ZM67.1703 16.9069H70.3689C69.912 8.81898 63.4234 2.3304 55.3355 1.87346V5.07206C61.6413 5.4833 66.7134 10.5554 67.1703 16.9069ZM54.4217 35.5958C44.5974 35.5958 36.6466 27.5993 36.6466 17.8207C36.6466 7.99649 44.5974 0 54.4217 0C64.2459 0 72.2424 7.99649 72.2424 17.8207C72.2424 27.5993 64.2459 35.5958 54.4217 35.5958ZM54.4217 6.85413C48.39 6.85413 43.455 11.7434 43.455 17.8207C43.455 23.8524 48.39 28.7417 54.4217 28.7417C60.4533 28.7417 65.3883 23.8524 65.3883 17.8207C65.3883 11.7434 60.4533 6.85413 54.4217 6.85413ZM12.4287 55.1986C12.8399 48.8928 17.912 43.8207 24.2635 43.3638V40.1652C16.1756 40.6221 9.68704 47.1107 9.2301 55.1986H12.4287ZM26.0913 72.0598C34.1334 71.6028 40.6677 65.1142 41.1246 57.0264H37.9261C37.4691 63.3779 32.3971 68.4042 26.0913 68.8612V72.0598ZM41.1246 55.1986C40.6677 47.1107 34.1334 40.6221 26.0913 40.1652V43.3638C32.3971 43.8207 37.4691 48.8928 37.9261 55.1986H41.1246ZM25.1774 73.9332C15.3531 73.9332 7.35663 65.9367 7.35663 56.1125C7.35663 46.2882 15.3531 38.3374 25.1774 38.3374C34.9559 38.3374 42.9524 46.2882 42.9524 56.1125C42.9524 65.9367 34.9559 73.9332 25.1774 73.9332ZM25.1774 64.9772C24.2178 64.9772 24.1721 63.9719 24.2178 62.8752C20.8364 62.4183 19.9682 58.7627 21.5675 58.5343C22.847 58.3058 22.2986 59.8137 23.3039 60.6362C24.1264 61.3216 27.2793 61.5501 27.2793 59.0826C27.2793 56.1582 23.2582 57.9859 21.6589 55.0615C20.608 53.0967 21.4304 50.0808 24.2178 49.4868C24.2178 49.167 24.2635 48.8471 24.2635 48.5729C24.2635 47.3849 26.0913 47.3849 26.0913 48.5729V49.3954C29.5183 49.8981 30.3408 53.5536 28.7415 53.7821C27.0051 54.0105 28.5587 51.1775 25.3601 51.1775C22.3443 51.1775 22.1159 54.8787 25.2688 55.2443C30.2037 55.7926 30.2494 61.8243 26.0913 62.7838C26.1369 63.9262 26.1369 64.9772 25.1774 64.9772ZM25.1774 45.1459C19.1 45.1459 14.2108 50.0808 14.2108 56.1125C14.2108 62.1441 19.1 67.0791 25.1774 67.0791C31.209 67.0791 36.0983 62.1441 36.0983 56.1125C36.0983 50.0808 31.209 45.1459 25.1774 45.1459Z" fill="url(#paint0_linear_541_4154)"/>
</g>
<defs>
<linearGradient id="paint0_linear_541_4154" x1="18.4947" y1="2.11688" x2="59.4878" y2="75.8675" gradientUnits="userSpaceOnUse">
<stop stop-color="#134879"/>
<stop offset="0.501961" stop-color="#0B5992"/>
<stop offset="1" stop-color="#3EA9FF"/>
</linearGradient>
<clipPath id="clip0_541_4154">
<rect width="78" height="78" fill="white"/>
</clipPath>
</defs>
</svg>
