<svg width="61" height="107" viewBox="0 0 61 107" fill="none" xmlns="http://www.w3.org/2000/svg">
<path d="M2.62288 2.31104V14.3223H2.62198V77.1734C2.62198 92.6717 15.196 105.108 30.7062 105.108C46.2186 105.108 58.7913 92.6717 58.7913 77.1734C58.7916 52.2193 58.7922 27.2651 58.7922 2.31104H2.62288Z" fill="#DB3721"/>
<path d="M44.8755 26.9815L44.9899 26.8667H52.7407L52.8546 26.9815V28.5901L52.7407 28.705H46.8071V33.5305H52.3958L52.4877 33.6454L52.0734 35.2534L51.9358 35.3688H46.8071V42.2619L46.6921 42.3768H44.9899L44.8755 42.2619V26.9815ZM35.952 28.705H31.6755L31.5605 28.5901V26.9816L31.6755 26.8667H42.46L42.5524 26.9816L42.1381 28.5901L42 28.705H37.8848V42.2619L37.7686 42.3768H36.067L35.952 42.2619V28.705ZM27.6047 36.816L25.2131 29.7388L24.9831 28.7515L24.7531 29.7388L22.3615 36.816H27.6047ZM23.8332 27.0968L23.9713 26.9819L25.903 26.729L26.0411 26.8208L31.4911 42.2622L31.4223 42.3771H29.5825L29.4444 42.2622L28.1796 38.5625H21.7635L20.5217 42.2622L20.4068 42.3771H18.5444L18.4745 42.2622L23.8332 27.0968ZM9.48308 26.9815L9.59806 26.8667H17.3472L17.4633 26.9815V28.5901L17.3472 28.705H11.4147V33.5305H17.0034L17.0941 33.6454L16.681 35.2534L16.5423 35.3688H11.4147V42.2619L11.2997 42.3768H9.59806L9.48308 42.2619V26.9815Z" fill="white"/>
<path d="M23.2077 68.6536C17.7036 66.0881 9.47473 71.1429 9.47473 71.1429L9.4054 71.0551C8.75776 73.3113 8.48946 75.6092 8.5633 77.8732C8.5633 77.8732 21.8273 72.2597 28.5117 75.3754C29.4214 75.7989 30.2094 76.3841 30.8261 77.167C30.5843 76.86 30.4777 76.7243 30.4777 76.7243C30.4777 76.7243 30.48 76.7243 30.4834 76.7315C29.3121 75.2413 26.9385 72.2253 25.6816 70.6286C24.9663 69.7196 24.1253 69.0811 23.2077 68.6536ZM30.8261 77.167C31.0673 77.4745 31.1738 77.609 31.1738 77.609C31.1738 77.609 31.0656 77.4721 30.8774 77.2322C30.8605 77.2106 30.843 77.1895 30.8261 77.167ZM39.1418 88.67C32.1068 85.3939 13.3342 90.9482 13.3342 90.9482C15.4231 93.5975 18.1433 95.816 21.4125 97.3384C29.2846 101.006 38.1988 99.6785 44.5935 94.662C44.5935 94.662 43.7818 93.7141 40.9788 90.0685C40.5307 89.4855 39.9061 89.0254 39.1418 88.67Z" fill="#EA9F75"/>
<path d="M20.8077 64.1603C18.0057 60.5141 17.1924 59.5662 17.1924 59.5662C23.5865 54.5503 32.5036 53.2217 40.3745 56.8898C43.6431 58.4127 46.3639 60.6312 48.4528 63.2822C48.4528 63.2822 25.3795 70.1089 20.8077 64.1603ZM52.2476 83.2778L52.1778 83.1911C52.1778 83.1911 40.979 90.069 35.9726 83.7053C33.9716 81.1635 29.1501 75.0347 30.8264 77.167C35.9726 83.7053 53.0914 76.4591 53.0914 76.4591C53.1636 78.7249 52.8953 81.0227 52.2476 83.2778Z" fill="white"/>
</svg>
