<svg width="218" height="56" viewBox="0 0 218 56" fill="none" xmlns="http://www.w3.org/2000/svg">
<g clip-path="url(#clip0_1_444)">
<path d="M46.0438 54.4554H45.103V45.222L26.6501 28.9171H0.490311V28.0378V27.1584H26.6501L45.103 10.9268V1.62012H46.0438H47.0569V10.8901L65.5098 27.1217H91.5611C91.5611 27.4515 91.5973 27.7446 91.5973 28.0011C91.5973 28.3309 91.5611 28.624 91.5611 28.8805H65.5098L47.0569 45.1854V54.4187H46.0438V54.4554Z" fill="#D2D4D4"/>
<path d="M0.454269 28.9171H26.6141L45.067 45.2221V54.4554C20.8973 54.1989 1.25028 42.9137 0.454269 28.9171ZM26.6141 27.1218H0.454269C1.25028 13.0885 20.8973 1.87662 45.067 1.5835V10.8901L26.6141 27.1218ZM47.057 54.4554V45.2221L65.51 28.9171H91.5612C90.7652 42.9137 71.2268 54.1989 47.057 54.4554ZM65.51 27.1218L47.057 10.8901V1.5835C71.2268 1.87662 90.7652 13.1252 91.5612 27.1218H65.51Z" fill="#AA322F"/>
<path d="M181.727 38.7368C181.583 43.8298 181.583 55.7013 199.095 55.5913C208.9 55.5913 217.548 52.0006 217.548 40.8986C217.548 24.1173 190.882 25.8028 190.882 14.1145C190.882 8.4353 195.477 6.3468 199.999 6.3468C207.2 6.3468 209.262 10.1574 209.154 15.9466H217.077C217.548 5.21095 211.469 0.520996 200.578 0.520996C190.628 0.520996 183.102 5.50407 183.102 14.884C183.102 30.7859 209.841 29.4668 209.841 41.1917C209.841 47.4938 205.174 49.7655 199.203 49.7655C194.319 49.7655 189.217 47.4938 189.217 40.3123V38.7368H181.727ZM166.531 1.6202H158.969V54.4921H166.531V1.6202ZM113.524 7.51929H124.198C130.566 7.51929 133.352 11.11 133.352 15.4702C133.352 20.5999 130.457 23.8609 124.523 23.8975H113.524V7.51929ZM113.524 29.7599H121.556C129.299 29.7599 135.161 31.2255 135.161 39.6528C135.161 43.5733 132.266 48.703 124.198 48.703H113.524V29.7599ZM124.994 54.4921C131.76 54.4921 142.868 53.1731 142.868 39.6162C142.868 32.3614 139.177 27.818 130.71 26.9753V26.6089C138.381 25.07 140.914 20.6731 140.914 14.0779C140.914 13.052 140.588 9.90091 138.526 7.00632C136.319 4.0751 133.496 1.58357 125.247 1.58357H105.889V54.4921H124.994Z" fill="black"/>
</g>
<defs>
<clipPath id="clip0_1_444">
<rect width="217.094" height="54.9604" fill="white" transform="translate(0.381836 0.630859)"/>
</clipPath>
</defs>
</svg>
