<svg width="110" height="101" viewBox="0 0 110 101" fill="none" xmlns="http://www.w3.org/2000/svg">
<g clip-path="url(#clip0_1_465)">
<path d="M84.4482 70.7536H61.0121V70.262H84.4482V70.7536ZM72.7302 74.3585C68.479 74.3585 64.9363 72.7199 62.7562 71.409H82.7041C80.524 72.7745 76.9268 74.3585 72.7302 74.3585ZM55.2894 68.0772C49.1851 68.0772 43.4079 66.4933 38.4481 63.4892L41.3368 58.5734C45.2064 61.1405 50.0026 62.7245 55.2349 62.7245C60.4671 62.7245 65.3178 61.1951 69.133 58.5734L72.0216 63.4892C67.1709 66.4933 61.3937 68.0772 55.2894 68.0772ZM56.6519 75.0139L55.6709 76.5433V68.7873C56.0524 68.7873 56.4884 68.7873 56.87 68.7327L56.6519 75.0139ZM54.9624 76.5433L53.9813 75.0139L53.7633 68.7327C54.1448 68.7327 54.5809 68.7873 54.9624 68.7873V76.5433ZM49.6211 70.7536H26.1851V70.262H49.6211V70.7536ZM37.9031 74.3585C33.6519 74.3585 30.1093 72.7199 27.9292 71.409H47.8771C45.697 72.7745 42.0998 74.3585 37.9031 74.3585ZM32.0714 61.1951C32.1804 61.3044 32.2894 61.359 32.4529 61.4682C33.1614 61.9598 34.1424 62.3422 35.2325 62.5606C35.1235 62.6153 35.0145 62.6699 34.96 62.7245C34.742 62.8884 34.524 62.9976 34.3605 63.1068C33.7064 63.4346 32.9979 63.5984 32.9979 63.5984L32.2349 63.7623L32.8344 64.2538C34.5785 65.6193 36.159 66.1109 37.5216 66.2748V69.552H29.0192L32.0714 61.1951ZM28.9102 57.0441C29.8913 56.9894 32.0169 57.0441 34.524 57.918C36.05 58.4642 37.3036 59.1196 38.1756 59.775C37.8486 59.9389 37.6306 60.2666 37.6306 60.649C37.5761 60.5943 37.5216 60.5943 37.4671 60.5397C36.8676 60.212 36.2135 59.9389 35.5595 59.6658C34.9055 59.4473 34.1969 59.2288 33.5429 59.1742L35.3415 60.1574L37.1401 61.1405L37.6306 61.4136C37.0856 61.5775 36.5951 61.796 36.1045 62.0144C34.6875 61.796 33.5974 61.359 32.7799 60.8674C31.0358 59.6658 29.6732 58.0818 28.9102 57.0441ZM28.6377 50.2712C29.0737 50.4897 29.6732 50.7628 30.4908 50.9813C30.8723 51.0905 31.1993 51.1997 31.5263 51.3636C31.6898 51.6367 32.0169 51.8552 32.3984 51.8552C32.4529 51.8552 32.4529 51.8552 32.4529 51.8552C32.5619 51.9098 32.6709 52.019 32.7799 52.0737C32.8344 52.5106 33.2159 52.8383 33.6519 52.893C33.8699 53.1114 34.0879 53.3845 34.306 53.7123C34.415 53.8761 34.524 54.04 34.5785 54.2038C34.9055 55.4601 35.6685 56.6617 36.5951 57.6449C36.4315 57.481 36.268 57.3718 36.1045 57.2079L34.1424 55.5147C33.4884 54.9139 32.8344 54.3677 32.1804 53.7669C32.6164 54.5315 33.1614 55.2416 33.7609 55.897C34.306 56.4979 34.851 57.0441 35.4505 57.5903C35.2325 57.481 35.0145 57.4264 34.7965 57.3172C33.8699 56.9894 32.9434 56.771 32.1804 56.6071C30.7088 55.187 29.0192 53.0022 28.6377 50.2712ZM32.6709 50.872C32.6709 51.0905 32.5074 51.2544 32.2894 51.2544C32.0714 51.2544 31.9078 51.0905 31.9078 50.872C31.9078 50.6536 32.0714 50.4897 32.2894 50.4897C32.5074 50.4351 32.6709 50.6536 32.6709 50.872ZM34.0879 51.8552C34.0879 52.0737 33.9244 52.2375 33.7064 52.2375C33.4884 52.2375 33.3249 52.0737 33.3249 51.8552C33.3249 51.6367 33.4884 51.4728 33.7064 51.4728C33.8699 51.4182 34.0879 51.6367 34.0879 51.8552ZM28.3652 41.4774C28.7467 41.969 29.2917 42.6245 29.9458 43.3345C29.9458 43.3891 29.9458 43.4438 29.9458 43.4438C29.9458 43.99 30.3818 44.4269 30.9268 44.4269C30.9813 44.4269 30.9813 44.4269 31.0358 44.4269C31.6353 45.0277 32.2894 45.5739 32.9434 46.1201C33.2704 47.8679 33.8154 49.5612 34.633 51.0905C34.633 51.1451 34.5785 51.2544 34.5785 51.309C34.415 51.0359 34.0879 50.872 33.7609 50.872C33.6519 50.872 33.5429 50.872 33.4339 50.9266C33.3794 50.872 33.3794 50.872 33.3794 50.8174C33.3794 50.3258 33.0524 49.9435 32.6164 49.8343C32.1804 49.2881 31.7988 48.6872 31.3628 48.0864C30.9268 47.3764 30.4908 46.6663 30.1093 45.847C30.1093 46.284 30.2183 46.7209 30.3818 47.1579C30.4908 47.5948 30.7088 47.9772 30.8723 48.3595C31.1448 48.9057 31.4718 49.4519 31.8533 49.9981C31.6898 50.1074 31.5263 50.3258 31.4718 50.5443C31.4173 50.5443 31.3628 50.4897 31.3083 50.4897C29.1827 47.5949 28.2017 44.6454 28.3652 41.4774ZM31.1448 43.3345C31.1448 43.553 30.9813 43.7169 30.7633 43.7169C30.5453 43.7169 30.3818 43.553 30.3818 43.3345C30.3818 43.116 30.5453 42.9522 30.7633 42.9522C30.9813 42.8976 31.1448 43.116 31.1448 43.3345ZM31.6353 32.1375C31.8533 32.4106 32.1259 32.7929 32.5074 33.4484C32.2349 34.0492 32.0169 34.7046 32.0169 35.4147C31.9623 36.9986 32.2894 38.3095 33.0524 39.5658C32.8889 40.2212 32.8344 40.8766 32.7254 41.5321C32.6709 41.4228 32.6164 41.3136 32.5619 41.2043C32.2894 40.5489 32.0714 39.8935 31.9078 39.1834C31.6898 38.4734 31.5263 37.8179 31.3628 37.1079C31.2538 37.8179 31.3083 38.5826 31.3628 39.2927C31.4718 40.0027 31.6353 40.7674 31.9078 41.4228C32.0714 41.9144 32.3439 42.3514 32.6164 42.7883C32.6164 42.8976 32.6164 43.0068 32.6164 43.116C32.6164 43.7715 32.6709 44.4269 32.7254 45.0823C32.3439 44.7546 31.9623 44.4269 31.6353 44.0992C31.7988 43.9353 31.8533 43.7169 31.8533 43.4438C31.8533 42.8976 31.4173 42.4606 30.8723 42.4606C30.8178 42.4606 30.7633 42.4606 30.7633 42.4606C30.0003 40.4397 28.6922 35.6331 31.6353 32.1375ZM32.6709 35.4693C32.7254 33.7215 33.9789 32.2467 34.6875 31.4274C34.7965 31.3182 34.851 31.2089 34.96 31.0997C35.069 30.9359 35.178 30.8266 35.287 30.6628C35.505 30.3897 35.7775 30.1166 35.941 29.8435C36.1045 30.335 36.3225 31.0997 36.4315 32.3013C35.941 32.9022 35.505 33.5576 35.1235 34.1584C35.1235 33.9946 35.1235 33.8307 35.178 33.6668C35.178 33.3391 35.178 33.0114 35.178 32.6837C34.9055 32.9568 34.742 33.2299 34.633 33.5576C34.524 33.8853 34.415 34.213 34.415 34.5407C34.3605 34.8685 34.3605 35.1962 34.415 35.5239C33.9244 36.5071 33.5429 37.4902 33.2704 38.528C32.8344 37.6541 32.6709 36.6163 32.6709 35.4693ZM38.1211 60.3759C38.1211 60.1574 38.2846 59.9935 38.5026 59.9935C38.7206 59.9935 38.8842 60.1574 38.8842 60.3759C38.8842 60.5943 38.7206 60.7582 38.5026 60.7582C38.3391 60.7582 38.1211 60.5943 38.1211 60.3759ZM40.1922 66.0563C40.1922 65.8378 40.3557 65.674 40.5737 65.674C40.7917 65.674 40.9552 65.8378 40.9552 66.0563C40.9552 66.2748 40.7917 66.4386 40.5737 66.4386C40.3557 66.4386 40.1922 66.2748 40.1922 66.0563ZM40.5192 67.0395C41.0643 67.0395 41.5003 66.6025 41.5003 66.0563C41.5003 66.0017 41.5003 65.9471 41.5003 65.8924C42.9718 66.5479 44.4979 67.0941 46.024 67.531L46.787 69.552H38.2301V66.3294C38.2846 66.3294 38.2846 66.3294 38.3391 66.3294C38.7752 66.3294 39.2112 66.2748 39.5927 66.2202C39.6472 66.6571 40.0287 67.0395 40.5192 67.0395ZM37.6851 63.8169L37.1946 63.8715C36.7586 63.9261 36.3225 63.9261 35.832 63.9808C36.268 64.1992 36.7041 64.3085 37.1401 64.4177C37.5761 64.4723 38.0666 64.5269 38.5571 64.4723C38.6116 64.4723 38.6661 64.4723 38.7206 64.4177C39.1567 64.6908 39.5927 64.9093 40.0832 65.1278C39.9742 65.1824 39.8652 65.2916 39.7562 65.4009C38.3391 65.7286 36.268 65.7286 33.8699 64.0354C34.1424 63.9261 34.415 63.8169 34.6875 63.7077C34.851 63.5984 35.069 63.4892 35.3415 63.3253C36.1045 62.7791 37.2491 62.0691 38.5026 61.9598L37.4671 63.7077L37.6851 63.8169ZM39.9742 59.2288C39.9742 59.4473 39.8107 59.6112 39.5927 59.6112C39.3747 59.6112 39.2112 59.4473 39.2112 59.2288C39.2112 59.0104 39.3747 58.8465 39.5927 58.8465C39.7562 58.7919 39.9742 59.0104 39.9742 59.2288ZM39.5382 58.1911C39.1567 58.1911 38.8297 58.4095 38.6661 58.6826C37.3036 57.5356 35.7775 55.897 35.2325 53.9853C35.1235 53.3299 35.069 52.7291 35.1235 52.0737C36.5406 54.4223 38.4481 56.4979 40.7917 58.1364L40.4647 58.7373C40.3012 58.4095 39.9742 58.1911 39.5382 58.1911ZM55.2894 24.3815C67.3889 24.3815 77.2539 32.7929 77.2539 43.1707C77.2539 43.8261 77.1994 44.4815 77.1448 45.0823C77.0358 45.3554 76.4908 45.4647 76.6543 45.847C76.7633 45.6285 77.0358 45.4101 77.0903 45.2462C76.2728 51.7459 71.5311 57.2625 64.9908 60.0481C64.9363 60.0481 64.9363 60.1028 64.8818 60.1028C64.7183 60.1028 64.5003 60.1028 64.5003 59.9389L64.2278 59.775C64.1188 59.5566 63.6828 59.5566 63.6828 59.2835C63.1377 59.1196 63.1922 59.065 62.7017 59.0104C62.3202 58.9557 61.9932 58.7919 61.5572 58.7919C61.1211 58.7373 60.1401 59.3381 59.6496 59.3927C59.4861 59.4473 59.4861 59.3381 59.3771 59.1742C58.7775 58.5734 57.633 58.9557 56.3794 59.4473C56.0524 59.6112 55.5619 59.8843 55.1804 59.8843C54.3083 59.8843 53.7088 59.2835 52.5643 59.2288C52.1827 59.2288 52.5098 60.1028 52.3463 60.4851C52.1827 60.4305 51.6377 60.212 51.6377 60.212C51.6377 60.212 51.0927 60.1574 50.9292 60.1028C50.7112 60.0481 50.5477 59.9935 50.4932 60.0481C50.1662 60.4305 49.8936 59.3927 49.2396 59.3381C48.9671 58.9557 48.4221 58.5188 47.9861 58.0818C47.768 57.8087 47.223 56.5525 47.223 56.9348C47.1685 57.918 48.0951 58.3549 48.0406 59.065C48.0406 58.9557 47.8226 59.0104 47.8771 59.0104C47.8771 59.1196 47.6045 59.1742 47.659 59.3927C47.3865 59.4473 46.7325 59.4473 46.6235 59.6112C46.46 59.9389 45.915 60.0481 45.5334 60.1028C38.2846 57.0441 33.3249 50.6536 33.3249 43.2253C33.3249 32.7929 43.1898 24.3815 55.2894 24.3815ZM37.1401 24.2176C41.6093 21.0497 46.9505 19.1926 52.6733 18.701C52.7823 19.7934 52.8368 21.2682 52.8368 23.2891V23.7261C47.9861 24.163 43.6259 25.9108 40.1922 28.5872L37.1401 24.2176ZM52.9458 16.0247C53.5453 16.0247 54.1993 16.0247 54.9079 16.0247V23.6714C54.4173 23.6714 53.9813 23.6714 53.5453 23.7261V23.3437C53.5453 19.6842 53.3273 17.1717 52.9458 16.0247ZM57.633 16.0247C57.2515 17.1717 57.0335 19.6842 57.0335 23.3437V23.7261C56.5429 23.6714 56.1069 23.6714 55.6164 23.6714V16.0247C56.3794 16.0247 57.0335 16.0247 57.633 16.0247ZM48.9671 15.1508V14.6592C49.6756 14.6046 51.5287 14.4953 54.1993 14.4953H56.3249C58.9955 14.4953 60.8486 14.6046 61.5572 14.6592V15.1508C60.7941 15.2054 58.5595 15.3146 55.2349 15.3146C51.9647 15.3692 49.7846 15.2054 48.9671 15.1508ZM57.0335 13.7853H56.3794C55.6709 13.7853 54.9079 13.7853 54.2538 13.7853H53.5453C53.7088 13.2391 53.8178 12.1467 53.8178 10.1804V4.17221C54.3628 4.22683 54.9079 4.22683 55.3439 4.22683C55.7254 4.22683 56.3249 4.17221 56.87 4.17221V10.1804C56.8154 12.2013 56.9245 13.2391 57.0335 13.7853ZM53.1093 3.40754V2.97058C53.5998 2.91596 54.5263 2.86134 55.2894 2.86134C56.0524 2.86134 57.0335 2.91596 57.4695 2.97058V3.40754C56.9245 3.46216 55.8344 3.51678 55.2894 3.51678C54.7444 3.51678 53.6543 3.46216 53.1093 3.40754ZM55.2894 1.22275C55.6164 1.22275 55.9434 1.44123 55.9434 1.71433C55.9434 1.98743 55.6709 2.20591 55.2894 2.20591C54.9624 2.20591 54.6354 1.98743 54.6354 1.71433C54.6899 1.44123 54.9624 1.22275 55.2894 1.22275ZM73.4387 24.1084L70.332 28.5872C66.8984 25.9655 62.5382 24.2176 57.742 23.7807V23.2891C57.742 21.2682 57.7965 19.7934 57.9055 18.701C63.6283 19.138 68.9695 20.9951 73.4387 24.1084ZM74.6377 29.8981C74.8012 30.1712 75.0738 30.4443 75.2918 30.7174C75.4008 30.8812 75.5098 30.9905 75.6188 31.1543C75.6733 31.2636 75.7823 31.3182 75.8913 31.482C76.5998 32.3013 77.8534 33.7761 77.9079 35.5239C77.9624 36.7255 77.7989 37.7087 77.3083 38.6372C77.0358 37.5994 76.6543 36.6163 76.1638 35.6331C76.2183 35.3054 76.2183 34.9777 76.1638 34.65C76.1093 34.3223 76.0548 33.9946 75.9458 33.6668C75.8368 33.3391 75.6733 33.066 75.4008 32.7929C75.4008 33.1206 75.4008 33.4484 75.4008 33.7761C75.4008 33.9399 75.4008 34.1038 75.4553 34.2677C75.0738 33.6122 74.6377 33.0114 74.1472 32.4106C74.2017 31.1543 74.4197 30.335 74.6377 29.8981ZM78.9434 32.1375C81.8866 35.6331 80.5785 40.4397 79.8155 42.5152C79.761 42.5152 79.7065 42.5152 79.7065 42.5152C79.1614 42.5152 78.7254 42.9522 78.7254 43.4984C78.7254 43.7169 78.8344 43.9899 78.9434 44.1538C78.6164 44.4815 78.2349 44.8092 77.8534 45.137C77.9079 44.4815 77.9624 43.8261 77.9624 43.1707C77.9624 43.0614 77.9624 42.9522 77.9624 42.8429C78.2349 42.406 78.5074 41.969 78.6709 41.4774C78.9434 40.7674 79.1069 40.0573 79.2159 39.3473C79.3249 38.6372 79.3249 37.8725 79.2159 37.1625C78.9979 37.8725 78.8344 38.5826 78.6709 39.238C78.5074 39.9481 78.2894 40.6035 78.0169 41.259C77.9624 41.3682 77.9079 41.4774 77.8534 41.5867C77.7989 40.9312 77.6899 40.2758 77.5264 39.6204C78.2894 38.3641 78.6164 37.0533 78.5619 35.4693C78.5619 34.7592 78.3439 34.1038 78.0714 33.503C78.3984 32.7929 78.7254 32.356 78.9434 32.1375ZM79.4339 43.3345C79.4339 43.116 79.5975 42.9522 79.8155 42.9522C80.0335 42.9522 80.197 43.116 80.197 43.3345C80.197 43.553 80.0335 43.7169 79.8155 43.7169C79.5975 43.7169 79.4339 43.553 79.4339 43.3345ZM80.633 43.3345C81.287 42.6245 81.832 41.969 82.2136 41.4774C82.3771 44.6454 81.396 47.5949 79.3249 50.4897C79.2704 50.4897 79.2159 50.5443 79.1614 50.5443C79.1069 50.3258 78.9434 50.162 78.7799 49.9981C79.1614 49.5065 79.4339 48.9603 79.761 48.3595C79.979 47.9772 80.1425 47.5402 80.2515 47.1579C80.3605 46.7209 80.4695 46.284 80.524 45.847C80.197 46.6663 79.761 47.3764 79.2704 48.0864C78.8889 48.6872 78.4529 49.2334 78.0169 49.8343C77.5809 49.9435 77.2539 50.3258 77.2539 50.8174C77.2539 50.872 77.1993 50.872 77.1993 50.9266C77.0903 50.872 76.9813 50.872 76.8723 50.872C76.5453 50.872 76.2728 51.0359 76.0548 51.309C76.0548 51.2544 76.0003 51.1451 76.0003 51.0905C76.8178 49.5065 77.4174 47.8679 77.6899 46.1201C78.3439 45.5739 78.9979 45.0277 79.5975 44.4269C79.652 44.4269 79.652 44.4269 79.7065 44.4269C80.2515 44.4269 80.6875 43.99 80.6875 43.4438C80.633 43.4438 80.633 43.3891 80.633 43.3345ZM77.9079 50.872C77.9079 50.6536 78.0714 50.4897 78.2894 50.4897C78.5074 50.4897 78.6709 50.6536 78.6709 50.872C78.6709 51.0905 78.5074 51.2544 78.2894 51.2544C78.0714 51.2544 77.9079 51.0905 77.9079 50.872ZM76.4908 51.8552C76.4908 51.6367 76.6543 51.4728 76.8723 51.4728C77.0903 51.4728 77.2539 51.6367 77.2539 51.8552C77.2539 52.0737 77.0903 52.2375 76.8723 52.2375C76.7088 52.2375 76.4908 52.0737 76.4908 51.8552ZM81.9411 50.2712C81.505 53.0022 79.87 55.187 78.4529 56.6071C77.6354 56.771 76.7633 56.9894 75.8368 57.3172C75.6188 57.4264 75.4008 57.481 75.1828 57.5903C75.7823 57.0441 76.3273 56.4979 76.8723 55.897C77.4719 55.2416 78.0169 54.5315 78.4529 53.7669C77.7989 54.3677 77.1448 54.9685 76.4908 55.5147L74.5287 57.2079C74.3652 57.3718 74.2017 57.481 74.0382 57.6449C74.9102 56.6617 75.6733 55.4601 76.0548 54.2038C76.1638 54.04 76.2728 53.8761 76.3273 53.7123C76.5453 53.4392 76.7633 53.1661 76.9813 52.893C77.4174 52.8383 77.7444 52.5106 77.8534 52.0737C77.9624 51.9644 78.0714 51.9098 78.1804 51.8552C78.1804 51.8552 78.2349 51.8552 78.2894 51.8552C78.6709 51.8552 78.9979 51.6367 79.1614 51.3636C79.4885 51.2544 79.8155 51.0905 80.197 50.9813C80.96 50.7628 81.5595 50.4897 81.9411 50.2712ZM81.6685 57.0441C80.9055 58.0818 79.5975 59.6658 77.7444 60.8674C76.9268 61.4136 75.8368 61.796 74.4197 62.0144C73.9837 61.796 73.4387 61.5229 72.8937 61.4136L73.3842 61.1405L75.1828 60.1574L76.9813 59.1742C76.2728 59.2288 75.6188 59.4473 74.9648 59.6658C74.3107 59.8843 73.6567 60.212 73.0572 60.5397C73.0027 60.5943 72.9482 60.5943 72.8937 60.649C72.8937 60.2666 72.6756 59.9389 72.3486 59.775C73.2752 59.1742 74.4742 58.4642 76.0003 57.918C78.5619 57.0441 80.6875 56.9894 81.6685 57.0441ZM72.0216 59.9935C72.2396 59.9935 72.4031 60.1574 72.4031 60.3759C72.4031 60.5943 72.2396 60.7582 72.0216 60.7582C71.8036 60.7582 71.6401 60.5943 71.6401 60.3759C71.6401 60.1574 71.8036 59.9935 72.0216 59.9935ZM71.4221 59.2288C71.4221 59.4473 71.2586 59.6112 71.0406 59.6112C70.8226 59.6112 70.6591 59.4473 70.6591 59.2288C70.6591 59.0104 70.8226 58.8465 71.0406 58.8465C71.2586 58.7919 71.4221 59.0104 71.4221 59.2288ZM71.0406 58.1911C70.6591 58.1911 70.332 58.4095 70.1685 58.7373L69.8415 58.1364C72.1851 56.4432 74.0927 54.3677 75.5098 52.0737C75.5643 52.7291 75.5098 53.3299 75.3463 53.9853C74.8012 55.897 73.2752 57.5356 71.9126 58.6826C71.6946 58.3549 71.3676 58.1911 71.0406 58.1911ZM70.8226 65.4555C70.7136 65.3462 70.6046 65.237 70.4956 65.1824C70.9316 64.9639 71.4221 64.6908 71.8581 64.4723C71.9126 64.4723 71.9671 64.5269 72.0216 64.5269C72.5121 64.5816 72.9482 64.5269 73.4387 64.4723C73.8747 64.4177 74.3652 64.2538 74.7467 64.0354C74.2562 63.9807 73.8202 63.9261 73.3842 63.9261L72.8937 63.8715L73.0572 63.7623L72.0216 62.0144C73.2752 62.0691 74.4197 62.8337 75.1828 63.3799C75.4553 63.5438 75.6733 63.7077 75.8368 63.7623C76.1093 63.9261 76.4363 64.0354 76.6543 64.09C74.3107 65.7832 72.2396 65.7286 70.8226 65.4555ZM69.569 66.0563C69.569 65.8378 69.7325 65.674 69.9505 65.674C70.1685 65.674 70.332 65.8378 70.332 66.0563C70.332 66.2748 70.1685 66.4386 69.9505 66.4386C69.787 66.4386 69.569 66.2748 69.569 66.0563ZM70.0595 67.0395C70.5501 67.0395 70.9861 66.6571 71.0406 66.2202C71.4221 66.2748 71.8581 66.3294 72.2941 66.3294C72.3486 66.3294 72.3486 66.3294 72.4031 66.3294V69.552H63.8463L64.6093 67.531C66.1899 67.0941 67.6614 66.5479 69.133 65.8924C69.133 65.9471 69.133 66.0017 69.133 66.0563C69.0785 66.6025 69.5145 67.0395 70.0595 67.0395ZM81.5595 69.552H73.0572V66.2748C74.4197 66.1109 76.0003 65.6193 77.7444 64.2538L78.3439 63.7623L77.5809 63.5984C77.5809 63.5984 76.8723 63.4346 76.2183 63.1068C76.0548 63.0522 75.8913 62.8884 75.6188 62.7245C75.5098 62.6699 75.4553 62.6153 75.3463 62.5606C76.4908 62.2875 77.4174 61.9052 78.1259 61.4682C78.2349 61.359 78.3984 61.3044 78.5074 61.1951L81.5595 69.552ZM48.2041 16.4616H47.7135C47.659 16.0793 47.659 15.4785 47.659 14.9323C47.659 14.3861 47.7135 13.7853 47.7135 13.4029H48.2041C48.2586 13.8399 48.3131 14.55 48.3131 14.9323C48.3131 15.3146 48.2586 16.0247 48.2041 16.4616ZM46.5145 15.5331C46.2965 15.5331 46.0785 15.26 46.0785 14.9323C46.0785 14.6046 46.242 14.3315 46.5145 14.3315C46.7325 14.3315 46.9505 14.6046 46.9505 14.9323C46.9505 15.26 46.787 15.5331 46.5145 15.5331ZM62.3747 13.4029H62.8652C62.9197 13.7853 62.9197 14.3861 62.9197 14.9323C62.9197 15.4785 62.8652 16.0793 62.8652 16.4616H62.3747C62.3202 16.0247 62.3202 15.3146 62.3202 14.9323C62.3202 14.55 62.3747 13.8399 62.3747 13.4029ZM64.0643 14.3315C64.2823 14.3315 64.5003 14.6046 64.5003 14.9323C64.5003 15.26 64.3368 15.5331 64.0643 15.5331C63.8463 15.5331 63.6282 15.26 63.6282 14.9323C63.6828 14.6046 63.8463 14.3315 64.0643 14.3315ZM82.3226 69.552L79.1069 60.7582C80.851 59.3927 81.9956 57.8087 82.5951 56.9348L82.9221 56.4979L82.3771 56.4432C82.3226 56.4432 81.2325 56.2794 79.5975 56.4432C81.505 54.3677 82.5951 52.019 82.7586 49.6158L82.8131 48.8511L82.2136 49.3427C82.2136 49.3427 81.614 49.7796 80.415 50.162C82.4316 47.1033 83.2491 43.9353 82.8676 40.5489L82.7586 39.675L82.2136 40.3851C82.2136 40.3851 81.5595 41.259 80.633 42.3514C81.505 39.8935 82.5406 34.9231 79.2159 31.3728L78.9979 31.0997L78.7254 31.3182C78.7254 31.3182 78.2894 31.7551 77.7444 32.6837C77.3084 31.919 76.8178 31.3728 76.4363 30.9359C76.3273 30.8266 76.2728 30.7174 76.2183 30.6628C76.1093 30.4989 76.0003 30.3897 75.8368 30.2258C75.4553 29.7888 75.0738 29.3519 74.9648 28.9695L74.7467 28.3687L74.3652 28.9149C74.3107 28.9695 73.7657 29.6796 73.5477 31.5913C72.7847 30.6628 71.8581 29.8435 70.9316 29.0242L74.4742 23.9445L74.2017 23.7261C69.569 20.4489 64.0098 18.4826 58.069 17.991C58.2325 16.6255 58.396 16.1339 58.505 15.9701C60.1401 15.9154 61.2301 15.8608 61.7752 15.8062C61.8297 16.2978 61.8297 16.7347 61.8297 16.7894V17.1171H63.5737L63.6282 16.7894C63.6282 16.7894 63.6828 16.4616 63.6828 16.0793C63.8463 16.1339 63.9553 16.1885 64.1188 16.1885C64.7183 16.1885 65.2088 15.5877 65.2088 14.8777C65.2088 14.1676 64.7183 13.5668 64.1188 13.5668C63.9553 13.5668 63.7918 13.6214 63.6828 13.676C63.6828 13.2937 63.6282 12.966 63.6282 12.966L63.5737 12.6383H61.8297V12.966C61.8297 13.0206 61.7752 13.4576 61.7752 13.9491C61.1756 13.8945 59.8131 13.8399 57.9055 13.7853C57.7965 13.5668 57.633 12.6929 57.633 10.1804V4.11759C57.851 4.11759 58.0145 4.06297 58.0145 4.06297H58.3415V2.31514L58.0145 2.26052C57.96 2.26052 57.3605 2.20591 56.6519 2.15129C56.7609 1.98743 56.7609 1.82357 56.7609 1.65971C56.7609 1.00427 56.1614 0.512695 55.4529 0.512695C54.7444 0.512695 54.1448 1.05889 54.1448 1.65971C54.1448 1.82357 54.1993 1.98743 54.2538 2.15129C53.4908 2.20591 52.8913 2.26052 52.8913 2.26052L52.5643 2.31514V4.06297H52.8913C52.8913 4.06297 53.0548 4.06297 53.2728 4.11759V10.1804C53.2728 12.7475 53.0548 13.5668 53.0003 13.7853C51.0927 13.8399 49.7301 13.8945 49.1306 13.9491C49.0761 13.4576 49.0761 13.0206 49.0761 12.966V12.6383H47.332L47.2775 12.966C47.2775 12.966 47.223 13.2937 47.223 13.676C47.0595 13.6214 46.9505 13.5668 46.787 13.5668C46.1875 13.5668 45.697 14.1676 45.697 14.8777C45.697 15.5877 46.1875 16.1885 46.787 16.1885C46.9505 16.1885 47.114 16.1339 47.223 16.0793C47.223 16.4616 47.2775 16.7894 47.2775 16.7894L47.332 17.1171H49.0761V16.7894C49.0761 16.7347 49.1306 16.2978 49.1306 15.8062C49.6756 15.8608 50.7657 15.9154 52.4008 15.9701C52.5098 16.1339 52.6733 16.6255 52.8368 17.991C46.8415 18.4826 41.2823 20.5035 36.6496 23.8353L36.2135 24.0538L39.7017 29.0242C38.7752 29.7888 37.9031 30.6628 37.1401 31.5367C36.8676 29.625 36.3225 28.9149 36.3225 28.8603L35.941 28.3141L35.723 28.9149C35.614 29.2973 35.2325 29.7342 34.851 30.1712C34.742 30.335 34.633 30.4443 34.4695 30.6081C34.415 30.6628 34.306 30.772 34.2515 30.8812C33.9244 31.2636 33.4339 31.8644 32.9434 32.6291C32.3984 31.7005 31.9624 31.2636 31.9624 31.2636L31.6898 31.0451L31.4718 31.3182C28.0382 34.9231 29.1282 39.8935 30.0003 42.3514C29.0192 41.259 28.4197 40.3851 28.4197 40.3851L27.8747 39.675L27.7657 40.5489C27.3841 43.9353 28.1472 47.1033 30.2183 50.162C29.0192 49.7796 28.4197 49.3427 28.4197 49.3427L27.8202 48.8511L27.8747 49.6158C28.0382 51.9644 29.1282 54.3131 31.0358 56.4432C29.4007 56.2794 28.3652 56.4432 28.2562 56.4432L27.7112 56.4979L28.0382 56.9348C28.6377 57.8087 29.7823 59.3927 31.5263 60.7582L28.3107 69.552H25.4766V71.4636H26.6211C28.6922 72.8291 32.7799 75.0685 37.9031 75.0685C43.0263 75.0685 47.114 72.8291 49.1851 71.4636H50.3297V69.552H47.55L46.896 67.7495C48.9126 68.2411 50.9837 68.5688 53.0548 68.7327L53.2728 75.2324L55.2894 78.2365L57.306 75.2324L57.524 68.7327C59.6496 68.6234 61.7207 68.2957 63.6828 67.7495L63.0287 69.552H60.2491V71.4636H61.3936C63.4647 72.8291 67.5524 75.0685 72.6756 75.0685C77.7989 75.0685 81.8866 72.8291 83.9576 71.4636H85.1022V69.552H82.3226ZM73.0027 54.04C72.9482 54.04 72.8392 54.0946 72.6756 54.04C72.5666 53.9854 72.5121 53.8215 72.5121 53.8761C72.5121 53.8761 72.5666 54.1492 72.5121 54.2038C72.4576 54.4223 72.4031 54.5315 72.1306 54.5862C72.2396 54.8046 72.2396 54.9685 72.1851 55.0777C72.6211 54.6408 73.0027 54.2038 73.0027 54.04ZM38.3936 37.9272C38.0121 38.8557 38.8842 39.3473 38.9387 40.2212C39.1567 40.3304 39.0477 40.0573 39.2112 40.112C39.2657 40.3304 39.4292 40.4397 39.4292 40.7128C39.5382 40.822 39.8652 40.7128 39.9742 40.8766C39.9742 41.2043 39.8652 41.3682 39.9742 41.6413C40.1377 41.7505 40.4102 41.7505 40.6282 41.8052C40.6282 41.969 40.7372 42.0783 40.7917 42.2421C40.6282 42.5698 40.5192 42.9522 40.3012 43.2253C40.5192 43.7169 40.2467 44.4269 40.3557 44.9731C40.4647 45.6285 41.1733 46.1747 41.1733 47.1033C42.0998 47.3764 42.0998 48.6872 42.5903 49.3973C42.5358 50.5443 43.1898 51.1451 43.0263 52.2921C43.3534 52.8383 43.4079 53.603 43.8984 53.9853C44.4434 54.4223 45.5334 55.7332 45.3154 55.2416C45.2064 55.0777 44.5524 53.5484 44.6069 52.5652C44.6069 51.9644 44.9884 51.309 45.2609 50.6535C45.697 49.5065 45.3699 48.8511 46.2965 48.5234C46.2965 48.5234 46.46 48.5234 46.46 48.4688C46.46 48.4141 46.4055 48.4141 46.4055 48.3595C45.915 47.1033 47.114 46.1747 46.9505 45.2462C46.8415 44.7 46.4055 44.0992 46.2965 43.99C46.1875 43.8807 45.8605 43.99 45.3699 43.9353C45.0429 43.3345 44.2799 43.1707 44.2799 42.2421C44.0074 42.0236 43.5714 41.969 43.5714 41.4774C43.0808 41.5867 42.9718 40.9859 42.5903 40.822C42.3178 40.8766 42.1543 41.0405 41.9908 41.2043C41.6093 40.9859 41.2278 41.1497 40.8462 41.3682C40.6282 41.3136 40.5192 41.2043 40.3557 41.0951C40.3557 40.5489 40.5192 40.112 40.1922 39.7842C40.3012 39.3473 40.5192 38.9649 40.1922 38.6918C39.8652 38.6372 39.9742 39.0742 39.5927 38.9103C39.3202 38.2549 40.2467 37.7633 40.1922 36.9986C40.5737 36.8894 41.0097 36.944 41.3913 36.8348C41.6093 36.944 41.6093 37.5448 41.3913 37.6541C41.4458 37.7633 41.5003 37.8179 41.6093 37.8179C41.9908 37.5448 41.8273 37.1079 41.9363 36.6709C42.0998 36.2886 42.6448 35.9609 42.9173 35.5239C43.0263 35.4147 42.9718 35.1962 43.0263 35.0869C43.0808 35.0323 43.2443 35.0323 43.3534 34.9231C43.4079 34.8685 43.4079 34.65 43.4624 34.65C43.7349 34.4315 44.2799 34.2677 44.6614 34.0492C44.8794 33.9399 45.0429 33.7761 45.4244 33.7215C45.6425 33.3391 45.5334 32.6291 46.0785 32.5744C46.024 32.8475 46.0785 32.9568 46.024 33.2299C46.787 33.0114 46.4055 32.0282 47.005 31.6459C46.8415 30.9359 47.332 30.7174 47.6045 30.2804C47.3865 30.1166 46.787 30.1166 47.0595 29.6796C47.3865 29.5704 47.2775 29.8981 47.4955 29.8981C47.8771 29.8435 47.8771 29.4065 48.1496 29.2426C48.3676 29.188 48.3131 29.4611 48.4766 29.4065C48.5856 29.0788 48.5311 28.5872 48.6946 28.2595C47.9861 28.1502 48.0406 29.2973 47.1685 29.2426C46.133 29.8981 45.8605 31.3728 44.9339 32.1375C44.8794 31.7005 44.6069 31.209 44.6614 30.8812C44.6614 30.6628 44.9884 30.1166 45.2064 29.9527C45.3699 29.7888 45.697 29.8435 45.8605 29.7342C46.1875 29.5157 46.2965 29.188 46.569 29.0788C47.659 29.1334 47.9861 28.4233 48.5311 27.7133C48.1496 27.4402 47.768 27.7679 47.441 27.9318C47.4955 27.7679 47.332 27.8225 47.2775 27.7679C47.0595 27.6041 47.4955 27.4402 47.332 27.2763C47.0595 27.7133 46.4055 27.6587 46.024 27.9864C45.915 28.2049 46.133 28.6418 45.7515 28.6418C45.588 28.478 45.8605 28.3687 45.915 28.2049C45.4789 27.8225 44.9884 27.8225 44.4979 28.1502C44.4979 27.9318 44.7704 27.9864 44.7159 27.7133C44.5524 27.6587 44.3889 27.6041 44.2799 27.4948C43.9529 27.6587 43.6804 28.041 43.2989 27.9318C43.2989 27.8772 43.0263 27.7679 42.8628 27.6587C42.7538 27.7133 42.6448 27.7679 42.5358 27.8225C42.4813 28.0956 42.3723 28.478 42.4268 28.6964C41.3913 28.6418 41.2823 29.5157 40.4102 29.625C40.6827 30.1166 41.4458 29.188 41.8818 29.625C41.2278 30.5535 40.7917 31.7005 39.8107 32.3013C39.5927 33.1753 38.8842 33.6122 38.3936 34.213C38.2846 35.1962 38.1211 35.8516 37.7941 36.5071C38.0666 37.2171 38.1211 37.7087 38.3936 37.9272ZM70.2775 56.0609C70.332 56.1155 70.5501 56.2248 70.7136 56.1701C71.0406 56.1155 71.2041 55.8424 71.4221 55.6239C71.4766 55.5693 71.6946 55.5693 71.7491 55.5147C71.8036 55.4601 71.7491 55.4601 71.8036 55.4055C71.9126 55.2962 71.9671 55.3508 71.9126 55.0777C71.3131 55.3508 70.7681 55.6786 70.2775 56.0609ZM58.396 33.7761C58.6685 33.7761 58.614 34.1038 58.8865 34.213C59.1045 34.213 59.1045 33.9399 59.4316 33.9946C59.5406 34.2677 59.6496 34.5954 60.0311 34.65C60.0311 34.8685 59.9221 34.9231 59.8676 35.0869C59.3226 34.7592 58.832 35.1416 58.3415 35.0323C58.614 34.7046 58.287 34.1038 58.396 33.7761ZM61.4482 33.8853C61.5572 34.0492 61.4482 34.4861 61.5572 34.65C61.5572 34.8685 61.9387 34.7046 62.0477 34.8138C62.0477 35.1416 62.1022 35.5239 62.1022 36.0155C61.5572 36.1247 61.2846 35.797 61.1211 35.3054C60.7396 34.4861 60.4671 33.5576 61.4482 33.8853ZM52.9458 33.1753C52.9458 33.4484 53.3818 33.3391 53.4908 33.503C53.5453 33.9399 53.3273 34.0492 53.1093 34.213C52.8913 34.1584 52.6733 34.1038 52.4553 33.9946C52.0192 34.3769 51.9647 35.1962 52.4008 35.5785C52.6733 35.4693 53.2728 35.36 53.4908 35.5239C53.5998 35.36 53.5998 35.1416 53.5998 34.9231C54.1993 34.7592 54.5809 33.9946 55.2349 34.0492C55.7254 34.1038 56.0524 34.5954 56.3794 34.9777C56.4339 35.1962 56.2704 35.2508 56.3249 35.4693C56.5429 35.4147 56.6519 35.1962 56.7609 35.0323C56.6519 34.5408 56.2704 34.3223 56.1069 33.8307C56.4339 33.9399 56.5974 34.1584 56.9245 34.1038C56.7609 34.9777 57.633 34.9777 57.5785 35.5239C57.9055 35.4147 57.742 34.7592 58.287 34.8685C58.287 35.3054 58.4505 35.5785 58.723 35.7424C59.05 35.7424 59.05 35.4693 59.4316 35.5239C59.6496 35.7424 59.4861 36.2886 59.5406 36.7255C59.3226 37.0533 58.941 36.7802 58.723 37.1079C58.396 37.1079 58.3415 36.8348 58.069 36.7255C57.197 37.2717 56.7609 36.3978 55.8344 36.3432C55.6709 36.1247 55.7254 35.797 55.5074 35.6878C55.0714 35.7424 54.6354 35.9062 54.3083 35.6331C53.8723 35.9062 53.1093 36.0155 52.5643 35.9062C51.8012 36.2886 51.6922 37.2717 50.8202 37.4902C50.6567 38.4187 49.3486 39.8935 50.0572 40.8766C50.2207 41.0951 50.4387 41.1497 50.5477 41.4228C50.6567 41.6959 50.4932 41.969 50.7112 42.2421C51.4197 42.7337 52.9458 42.8976 53.7633 42.3514C54.4173 42.5698 54.9079 42.4606 55.6709 42.5698C55.6164 42.8429 55.7799 42.9522 55.8344 43.1707C55.7254 43.3891 55.5619 43.553 55.5619 43.7715C55.4529 44.5908 56.3794 44.8639 56.4339 45.847C56.4884 46.6663 55.9434 47.5402 55.9434 48.0864C55.9434 48.3049 56.1614 48.5234 56.1614 48.7965C56.2159 49.3973 55.8889 50.2166 56.4339 50.5989C56.4884 51.0905 56.5974 51.4182 56.87 51.7459C57.3605 51.4182 57.851 51.5275 58.287 51.309C59.1045 50.9813 59.2681 49.9981 59.8676 49.4519C59.7041 47.9772 61.2301 47.5402 61.1211 46.284C61.1211 46.0109 60.9031 45.847 60.8486 45.5193C61.4481 44.0992 62.4837 43.116 63.0287 41.6959C62.7562 41.4228 62.2657 41.7505 61.7752 41.6413C60.7396 40.7674 60.3036 39.238 59.7586 37.8725C60.2491 37.8725 60.4126 38.528 60.3581 38.8557C60.7396 39.5658 61.2846 40.1666 61.5572 41.0405C62.2657 40.8766 63.5738 40.4397 63.6828 39.7296C63.6828 39.6204 63.6828 39.1288 63.6282 39.0196C63.5737 38.8011 63.4102 38.6918 63.1922 38.4734C63.0832 38.6372 63.0287 38.8011 62.8107 38.8011C62.4292 38.4734 61.9932 37.9818 62.1022 37.381C62.6472 37.2717 62.5382 37.8725 62.7562 38.091C63.0287 38.1456 63.0287 37.8725 63.3557 37.9272C63.4647 38.1456 63.5737 38.3095 63.6282 38.528C64.3368 38.091 65.0453 38.4187 65.0453 39.2927C65.0998 39.4019 65.2088 39.5111 65.4268 39.5111C65.7538 40.5489 66.2989 41.3136 66.7894 42.1875C67.0074 42.0236 66.9529 41.6413 67.1164 41.4774C66.6259 40.6582 67.3889 39.8935 67.8249 39.3473C68.1519 39.5111 68.2065 40.0027 68.6425 40.0573C68.6425 40.1666 68.6425 40.2758 68.588 40.3304C68.697 40.4397 68.8605 40.4943 69.0785 40.4943C69.1875 41.0951 69.1875 41.8052 69.6235 42.0783C69.569 42.5698 69.678 42.8976 69.7325 43.3891C69.569 43.3891 69.569 43.2799 69.4055 43.2799C69.678 44.1538 69.787 45.137 70.332 45.6832C70.5501 44.7546 70.005 44.263 69.787 43.4984C70.114 43.6076 70.0595 43.0068 70.005 42.8429C69.9505 42.3514 69.2965 41.6959 69.5145 41.259C69.8415 41.259 69.678 41.8052 69.896 41.9144C71.0951 41.4228 69.896 40.2758 69.46 39.7296C69.569 39.1288 70.441 39.2927 70.6591 38.8011C70.6046 38.2549 70.4955 38.2003 70.6591 37.7633C70.6046 37.5448 70.3865 37.4902 70.2775 37.2717C70.441 36.234 69.787 35.6878 69.5145 35.2508C70.0595 34.9777 70.005 35.9062 70.4411 36.0701C70.7136 35.8516 70.4411 35.2508 70.1685 35.2508C70.114 34.4861 69.569 33.3937 69.4055 32.356C68.915 32.2467 68.588 31.9736 68.4245 31.5913C67.7159 31.7005 67.6614 31.0997 67.2799 30.8266C67.2254 30.6081 67.3344 30.1712 67.2254 29.8981C67.7159 30.0619 67.9339 30.5535 68.0974 31.0451C68.6425 31.4274 69.351 31.7551 69.8415 32.1921C69.787 31.9736 69.46 31.5367 69.2965 31.209C68.697 31.1543 68.697 30.3897 67.9884 30.4443C67.8249 30.1712 68.2065 29.625 67.8794 29.188C67.5524 28.7511 67.9339 28.3141 67.8794 28.0956C67.8249 27.7133 67.2254 27.7679 66.7349 27.3856C66.5714 27.2763 65.4813 27.2763 65.5358 27.331C65.2633 27.2763 65.1543 27.7133 64.9908 27.7133C64.8818 27.6041 64.8273 27.4402 64.6638 27.3856C64.2823 27.4948 64.1188 27.8225 63.9008 28.0956C63.3557 27.7133 62.7562 27.8225 62.5382 28.3687C61.8842 28.3687 61.3391 27.7679 60.7941 28.2049C60.5761 27.8225 60.0856 27.4402 59.6496 27.7133C59.6496 27.9864 59.7586 28.1502 59.7041 28.4233C59.5951 28.5326 59.4316 28.5872 59.2136 28.5326C59.1591 28.8057 59.1591 29.1334 58.941 29.188C58.832 29.0788 58.832 29.1334 58.8865 28.9695C58.7775 28.9149 58.5595 29.0242 58.396 28.9149C58.287 28.6964 58.6685 28.9149 58.5595 28.6964C58.505 28.5872 58.287 28.5326 58.178 28.6418C58.396 29.2973 57.6875 29.6796 57.4695 30.2258C57.306 29.8981 57.5785 29.625 57.6875 29.4065C57.415 29.0242 56.6519 29.3519 56.3794 28.8603C55.0169 28.7511 55.3439 30.335 54.4718 30.772C54.5808 30.8812 54.4718 31.1543 54.5808 31.2636C54.9079 31.2636 55.0169 31.0451 55.3439 31.0451C55.5074 31.209 55.4529 31.5913 55.6164 31.7005C55.7254 31.6459 55.8344 31.5367 56.1069 31.5913C55.9979 31.3182 55.8889 30.9905 55.7254 30.772C55.9434 30.6081 55.9434 30.2258 56.2159 30.1166C56.7064 30.6628 56.8154 32.2467 55.6709 32.356C55.5074 32.0829 55.3439 32.0829 55.0714 31.8098C55.0169 31.9736 54.9624 32.1921 54.8534 32.356C54.4173 32.4652 53.9813 32.6291 53.8178 33.0114C53.4908 32.6291 53.3273 33.1206 52.9458 33.1753ZM70.8771 54.1492C70.7136 54.2038 70.6591 54.0946 70.4956 54.0946C70.4411 54.3677 70.114 54.3677 70.114 54.75C70.6046 54.75 70.6046 54.3677 70.8771 54.1492ZM36.2135 49.5065V49.2881C36.05 49.3427 35.9955 49.1242 35.941 49.3427C36.05 49.3973 35.9955 49.5612 36.2135 49.5065ZM62.7562 48.578C62.7562 48.6872 62.7017 48.6872 62.7017 48.7965C62.8652 48.7965 62.9742 48.7965 62.9197 48.6326C62.8652 48.6326 62.8652 48.5234 62.7562 48.578ZM69.9505 49.7796C69.7325 50.162 69.4055 50.872 69.351 51.1997C69.242 51.8006 69.1875 51.4728 69.1875 52.1283C69.787 52.4014 69.787 51.9098 70.4956 52.019C71.0951 52.4014 70.9316 53.1114 70.7681 53.7123C71.5311 53.603 71.8036 53.0568 72.2396 52.7291C72.8392 52.1283 73.8747 50.6535 73.4387 49.3427C73.8202 48.6872 73.8202 47.5402 73.6022 47.5402C73.6022 47.5402 73.2752 48.5234 73.0572 48.7965C73.0572 48.7965 72.8392 48.4688 72.5666 48.4688C72.6756 48.0864 73.0027 47.9772 72.7847 47.4856C72.6211 47.4856 72.5121 47.5402 72.3486 47.5402C71.9126 48.3595 71.8036 48.0864 71.2586 48.3049C71.2586 49.0696 70.4411 49.3427 69.9505 49.7796ZM62.7562 47.7041C62.5927 47.431 62.8107 46.8302 62.4837 46.8302C62.3202 47.431 61.7752 47.7041 61.2846 48.0318C61.2301 48.7965 61.0121 49.4519 61.2846 50.1074C61.8842 49.6158 62.2112 48.8511 62.3202 47.9226C62.4837 47.8133 62.7017 47.8679 62.7562 47.7041ZM75.1283 46.7756C74.9647 46.7756 75.0192 46.8848 74.8557 46.8302C74.9647 47.1033 74.9102 47.2671 74.8557 47.5402C75.1283 47.3764 74.9647 47.1033 75.1283 46.7756ZM71.4766 46.7756V46.994C71.6401 47.0487 72.4031 47.1033 72.2396 46.7756C72.0216 46.8848 71.6946 46.7209 71.4766 46.7756ZM71.8036 46.6663C71.9671 46.7209 72.0216 46.5571 72.1851 46.5571C72.1851 46.3932 72.0216 46.3932 71.9671 46.284C71.8581 46.3386 71.7491 46.4478 71.8036 46.6663ZM71.2586 46.6663C70.9316 46.3932 70.6046 45.6832 70.0595 45.9563C70.1685 46.5025 70.7136 46.7209 71.2586 46.6663ZM72.6211 45.847C72.5666 45.7924 72.5121 45.7378 72.4031 45.7378C72.1851 45.9016 72.6756 46.1747 72.6211 45.847ZM74.0382 46.0655C74.1472 46.1201 74.2562 46.1747 74.3652 46.1747C74.2562 45.9016 74.4197 45.6285 74.4197 45.0823C74.3107 45.0823 74.2562 44.9731 74.1472 44.9731C74.0382 45.5193 74.2562 45.6832 74.0382 46.0655ZM73.1117 46.994C73.4387 46.994 73.3297 46.5571 73.7112 46.5571C73.9292 46.6663 73.8202 47.1579 74.0927 47.2125C74.2562 46.6117 73.7657 46.0109 73.8747 45.137C73.4932 45.0823 73.2207 45.0277 72.9482 44.7546C73.0027 45.5739 73.3842 46.2294 73.1117 46.994ZM74.0927 44.8092C74.0382 44.5908 73.9292 44.3723 73.7657 44.2631C73.8202 44.5908 73.8202 44.7546 74.0927 44.8092ZM72.6211 45.0823C72.5666 44.7 72.7847 44.4269 72.4576 44.1538C72.2941 44.4815 72.4031 44.7 72.3486 45.0277C72.4576 44.9731 72.4576 45.137 72.6211 45.0823ZM71.8581 44.0446C71.3676 44.3723 71.3676 45.137 71.2586 45.9016C71.5311 45.9563 71.6401 45.7924 71.8036 45.7378C71.6946 44.9731 71.8581 44.8092 71.9671 44.1538C71.9671 44.0992 71.9126 44.0446 71.8581 44.0446ZM70.9861 45.3008C71.0951 45.3008 71.0951 45.2462 71.2041 45.2462C71.0406 44.5361 71.7491 43.99 71.4221 43.1707H71.2586C71.2041 43.553 70.7136 43.553 70.6046 43.99C70.5501 44.4269 70.7681 44.9731 70.9861 45.3008ZM67.0074 42.0236C67.0619 42.2967 66.7349 42.6245 67.0074 42.7337C67.1709 42.6245 67.2254 42.4606 67.2799 42.2421C67.1709 42.2967 67.2254 42.0236 67.0074 42.0236ZM71.8036 42.9522C72.1851 42.9522 72.2941 42.1875 72.0216 41.969C71.9126 42.1875 71.5856 42.4606 71.8036 42.9522ZM71.2041 40.2758C71.2586 40.822 71.4766 41.3682 71.8036 41.8052C71.8581 41.3682 71.9126 40.2212 71.2041 40.2758ZM69.7325 40.0027H70.0595C70.114 39.675 69.9505 39.5658 69.7325 39.5658C69.6235 39.675 69.7325 39.8389 69.7325 40.0027ZM41.6638 39.5658C41.6093 39.7842 41.7728 39.8389 41.9363 39.7842C41.9363 39.6204 41.8273 39.5658 41.6638 39.5658ZM42.2088 39.7842C42.4813 39.8935 42.5358 39.675 42.8628 39.675C42.8628 39.3473 42.5358 39.238 42.2633 39.4019C41.9363 39.238 41.8273 38.9103 41.6093 38.6372C41.3913 38.6372 41.1733 38.6372 41.0098 38.7465C41.3368 38.8011 41.6093 38.9649 41.7183 39.4019C41.8818 39.3473 42.0453 39.2927 42.1543 39.4565C42.0998 39.5658 42.0998 39.7296 42.2088 39.7842ZM71.0951 39.3473C71.2041 39.0742 71.0406 38.9103 71.2041 38.528C71.0406 38.5826 71.0951 38.4187 70.9861 38.4187C70.9316 38.5826 70.8771 38.8557 70.8226 39.0196C70.9316 39.0742 70.9316 39.2927 71.0951 39.3473ZM59.1045 36.0701C59.1591 35.8516 58.8865 35.8516 58.832 35.9609C58.832 36.1793 58.9955 36.1247 59.1045 36.0701ZM58.287 35.8516C58.069 35.9062 57.9055 35.6878 57.742 35.8516C57.851 35.9062 58.2325 36.0701 58.287 35.8516ZM71.4221 37.1625C71.4766 36.8348 71.2586 36.7802 71.2586 36.5071C71.6946 36.1247 71.3676 35.4147 71.0406 35.1416C71.4221 35.797 70.2775 36.944 71.4221 37.1625ZM70.7136 34.4861C70.4411 34.3223 70.7681 33.9399 70.5501 33.7761C70.5501 33.9399 70.1685 33.7215 70.114 33.8853C70.332 33.9946 70.3865 34.5954 70.7136 34.4861ZM52.6733 31.9736H52.4008C52.3462 32.0829 52.2917 32.3013 52.4008 32.4106H52.6188C52.5643 32.1375 52.8368 32.1375 52.6733 31.9736ZM53.3273 31.5913C53.2728 31.4274 53.5453 31.1543 53.2728 31.0997C52.5643 31.482 53.5453 32.1375 53.1638 32.6837C53.4363 32.6291 53.6543 32.5198 53.8723 32.4652C53.8723 31.9736 53.3818 31.9736 53.3273 31.5913ZM51.9647 29.4065C51.8557 29.5157 51.7467 29.625 51.8012 29.8981C52.1827 29.9527 52.6188 29.9527 52.6188 29.4611C52.3463 29.2426 52.1827 29.625 51.9647 29.4065ZM58.2325 28.3141C58.2325 28.0956 58.178 28.041 58.0145 28.041C58.0145 28.1502 58.069 28.3141 58.2325 28.3141ZM61.9932 28.0956C62.2112 28.1502 62.2657 28.041 62.4837 28.041V27.8225C62.3202 27.8225 62.2657 27.9318 62.0477 27.8772C62.1022 27.9864 61.9932 27.9864 61.9932 28.0956ZM49.4576 27.4948C49.1851 27.2763 48.9126 27.4402 48.9671 27.8225C49.2941 27.8771 49.2941 27.6041 49.4576 27.4948ZM61.4482 27.7133C61.8297 27.7679 62.0477 27.6041 62.1567 27.3856C61.9387 27.2763 61.6117 27.4948 61.3936 27.4402C61.3391 27.6041 61.4482 27.6041 61.4482 27.7133ZM48.2586 27.2217C48.0406 27.2763 47.9861 27.4402 47.8771 27.6587C48.0951 27.5494 48.2586 27.4402 48.2586 27.2217ZM48.0406 27.0579C48.0406 26.9486 47.9861 26.894 47.9316 26.894C47.9316 27.0032 47.7135 26.9486 47.7135 27.0579C47.768 27.1671 47.9316 27.1671 48.0406 27.0579ZM49.8391 26.7301C49.6756 26.6755 49.3486 26.9486 49.3486 27.2763C49.6756 27.2217 49.8391 27.0579 49.8391 26.7301ZM48.4221 27.7133C48.6401 27.7133 48.6946 27.6041 48.8581 27.5494C48.9126 27.3856 48.7491 27.4402 48.7491 27.331C49.0761 27.2217 49.1851 26.894 49.4031 26.6755C48.9671 26.7301 48.8036 27.0579 48.5311 27.2763C48.6946 27.3856 48.4221 27.6041 48.4221 27.7133ZM48.6946 26.6755C48.4766 26.6755 48.3676 26.8394 48.2586 26.9486C48.3676 26.9486 48.3676 27.0579 48.4221 27.0579C48.4766 26.894 48.8036 26.8394 48.6946 26.6755ZM51.8012 26.894C51.1472 27.0579 50.3297 27.0032 50.3297 27.7679C50.4932 27.7679 50.6567 27.6041 50.7657 27.7133C50.5477 28.2595 50.0026 28.478 49.6211 28.9149C49.5666 29.625 48.8036 29.9527 49.0216 30.772C49.5121 30.6628 49.6756 30.1712 50.2752 30.1166C50.4387 29.0788 52.0192 29.4611 52.4553 28.6964C52.4553 28.5326 52.1827 28.7511 52.2917 28.5326C52.5098 28.5326 52.5098 28.3687 52.7823 28.4233C53.0003 27.8225 53.5998 27.5494 53.7088 26.894H53.2728C53.2728 26.7301 53.5453 26.8394 53.4908 26.6209C52.9458 26.4024 52.1282 26.5117 51.8012 26.894ZM50.1662 27.4402C50.6022 26.894 51.6377 26.9486 52.0192 26.2932C51.0382 26.457 50.3842 26.8394 49.7846 27.331C49.8391 27.4402 50.0026 27.4402 50.1662 27.4402ZM70.0595 23.453C69.4055 23.0706 68.697 23.5076 68.2064 24.3269C67.6069 25.31 67.8794 25.9108 68.4245 26.2386C68.9695 26.5663 69.7325 26.4024 70.332 25.3646C70.7681 24.4907 70.6591 23.7807 70.0595 23.453ZM70.223 23.1799C71.2041 23.7261 71.6401 24.7638 71.0406 25.8562C70.4955 26.7848 69.351 27.1125 68.3155 26.5117C67.3344 25.9655 66.8439 24.9823 67.4979 23.8353C68.0429 22.9068 69.133 22.579 70.223 23.1799ZM66.1899 21.6505C66.1354 21.5959 66.0264 21.5959 65.9719 21.5959C65.8083 22.0875 65.5903 22.5244 65.4268 23.016C65.7538 23.1252 66.1899 23.2345 66.4624 22.579C66.6804 22.0328 66.4624 21.7597 66.1899 21.6505ZM64.8273 22.3606C65.0453 21.8144 65.2088 21.432 65.3178 20.9405C65.4268 20.9951 65.5358 21.0497 65.6993 21.1043C65.9174 21.2136 66.1899 21.2682 66.4624 21.3774C66.9529 21.5413 67.1709 21.7597 67.2254 21.9236C67.3889 22.1967 67.3889 22.4152 67.2799 22.7429C67.0074 23.5076 66.2989 23.6168 65.5903 23.2891L65.3178 23.1799C65.0998 23.6714 64.9363 24.163 64.7728 24.7092C64.6638 24.6546 64.5548 24.6 64.3913 24.5454C64.2278 24.4907 64.0643 24.4361 63.9553 24.4361C64.1733 23.9992 64.3368 23.6168 64.5548 23.0706L64.8273 22.3606ZM63.5737 23.6168C63.4647 23.7261 63.4102 23.8899 63.3557 24.0538C63.0287 24.1084 62.6472 24.1084 62.2657 23.9992C61.0666 23.6714 60.5216 22.7429 60.7941 21.7597C61.1756 20.3396 62.2657 20.0119 63.3557 20.285C63.7373 20.3943 64.1733 20.6127 64.3368 20.8312C64.2278 20.9951 64.1188 21.1589 64.0643 21.3228H64.0098C63.8463 20.9405 63.5737 20.722 63.2467 20.6127C62.7017 20.4489 61.9387 20.7766 61.6662 21.9236C61.3936 23.016 61.9387 23.5622 62.5382 23.7261C62.8652 23.8353 63.3012 23.7261 63.5737 23.5622V23.6168ZM59.2136 21.0497C59.3226 20.4489 59.3226 20.0665 59.3771 19.575C59.4861 19.6296 59.6496 19.6296 59.8131 19.6842C59.9766 19.6842 60.1401 19.7388 60.2491 19.7388C60.1401 20.1758 60.0856 20.6127 59.9766 21.2136L59.8676 21.9236C59.7586 22.5244 59.7041 22.9068 59.7041 23.3983C59.5951 23.3437 59.4316 23.3437 59.2681 23.2891C59.1046 23.2891 58.941 23.2345 58.832 23.2345C58.941 22.7975 58.9955 22.3606 59.1045 21.7597L59.2136 21.0497ZM51.8012 22.579C51.7467 22.7429 51.7467 22.9068 51.7467 23.0706C51.4742 23.2891 51.1472 23.3983 50.7112 23.5076C49.5121 23.7261 48.6401 23.1252 48.4221 22.0875C48.1496 20.6127 49.0216 19.9027 50.1117 19.6842C50.4932 19.6296 50.9837 19.6296 51.2562 19.7388C51.2017 19.9027 51.2017 20.1212 51.2562 20.285H51.2017C50.8747 20.0119 50.6022 19.9027 50.2207 20.0119C49.6756 20.1212 49.1306 20.722 49.2941 21.869C49.5121 22.9614 50.2207 23.2891 50.8202 23.1252C51.1472 23.0706 51.5287 22.8521 51.6922 22.5244L51.8012 22.579ZM46.133 21.0497C46.024 21.0497 45.9695 21.1043 45.915 21.1043C46.0785 21.5959 46.1875 22.0875 46.351 22.5244C46.678 22.4152 47.114 22.1967 46.896 21.5413C46.7325 21.0497 46.4055 20.9405 46.133 21.0497ZM45.4789 22.4698C45.3154 21.9236 45.1519 21.4866 44.9884 21.0497C45.0974 21.0497 45.2609 20.9951 45.4244 20.9405C45.6425 20.8858 45.915 20.7766 46.1875 20.6674C46.678 20.5035 46.9505 20.5035 47.114 20.6127C47.3865 20.722 47.55 20.8858 47.659 21.2136C47.9316 21.9782 47.441 22.4698 46.678 22.7429L46.4055 22.8521C46.569 23.3437 46.7325 23.8899 46.9505 24.3815C46.8415 24.3815 46.678 24.4361 46.5145 24.4907C46.351 24.5454 46.1875 24.6 46.0785 24.6546C45.9695 24.2176 45.8605 23.7807 45.6425 23.2345L45.4789 22.4698ZM43.7349 23.2345C43.5169 22.6883 43.2988 22.3059 43.1353 21.869C43.2443 21.8144 43.4079 21.8144 43.5714 21.7051C43.7349 21.6505 43.8439 21.5413 43.9529 21.4866C44.1164 21.9236 44.2799 22.3059 44.4979 22.8521L44.7704 23.5076C44.9884 24.0538 45.1519 24.4361 45.3699 24.8731C45.2609 24.9277 45.0974 24.9277 44.9339 25.0369C44.7704 25.0915 44.6614 25.2008 44.5524 25.2554C44.3889 24.8184 44.2254 24.4361 44.0074 23.8899L43.7349 23.2345ZM40.4102 23.5076C39.7562 23.8899 39.7562 24.7092 40.2467 25.5285C40.8462 26.5117 41.5003 26.5663 41.9908 26.2932C42.5358 25.9655 42.7538 25.2008 42.1543 24.2176C41.7183 23.3983 41.0097 23.1799 40.4102 23.5076ZM40.2467 23.2345C41.2278 22.6337 42.3178 22.7429 42.9718 23.8353C43.5169 24.7638 43.1898 25.9108 42.2088 26.5117C41.2278 27.1125 40.1377 27.0579 39.4837 25.9108C38.9387 25.0369 39.2112 23.8899 40.2467 23.2345ZM67.4979 62.4514C67.2254 61.8506 67.0074 61.4682 66.7349 61.0313C66.8439 60.9767 67.0074 60.9221 67.1709 60.8674C67.3344 60.7582 67.4979 60.7036 67.6069 60.649C67.8249 61.1405 67.9884 61.5229 68.261 62.1237L68.588 62.8337C68.7515 63.2161 68.9695 63.5984 69.133 63.8715C69.5145 63.7077 69.896 63.4892 70.2775 63.2161C70.2775 63.2707 70.332 63.3253 70.3865 63.4346C70.441 63.5438 70.4956 63.5984 70.4956 63.653C70.332 63.7623 70.0595 63.8169 69.569 64.09C68.7515 64.5269 68.588 64.5816 68.479 64.6362C68.261 64.1446 68.0974 63.7623 67.8249 63.1615L67.4979 62.4514ZM63.9553 62.3422C63.1922 62.5606 63.0287 63.4892 63.3012 64.4177C63.6827 65.5647 64.3368 65.8378 64.9363 65.6193C65.5903 65.4009 65.9719 64.6908 65.6448 63.4892C65.3178 62.5606 64.6638 62.1237 63.9553 62.3422ZM63.9008 62.0144C65.0453 61.6321 66.1899 62.0144 66.5714 63.3253C66.8984 64.4177 66.2989 65.5647 65.0998 65.9471C63.9553 66.3294 62.8107 66.0017 62.4292 64.6362C62.0477 63.5438 62.5927 62.3968 63.9008 62.0144ZM59.8676 63.3799C59.7586 63.3799 59.7041 63.4346 59.6496 63.4346C59.7041 63.9808 59.8131 64.5269 59.8676 65.0185C60.2491 64.9639 60.6851 64.8 60.5761 64.0354C60.4671 63.4892 60.1946 63.3253 59.8676 63.3799ZM58.941 64.8C58.832 64.1446 58.7775 63.7077 58.6685 63.2161C58.7775 63.2161 58.941 63.2161 59.1591 63.1615C59.4316 63.1068 59.7041 63.0522 59.9766 62.9976C60.5216 62.8884 60.7941 62.943 61.0121 63.0522C61.2846 63.2161 61.4482 63.4346 61.5027 63.7623C61.6117 64.6362 61.0666 65.0731 60.2491 65.1824L59.9766 65.237C60.0856 65.7832 60.1401 66.384 60.3036 66.9302C60.1946 66.9302 60.0311 66.9302 59.8131 66.9848C59.6496 67.0395 59.4861 67.0394 59.3771 67.0941C59.3226 66.6025 59.2681 66.1655 59.1591 65.5101L58.941 64.8ZM55.8889 63.7077C55.8889 64.2538 55.8889 64.7454 55.9434 65.2916C55.9979 65.2916 56.0524 65.2916 56.0524 65.2916C56.5429 65.2916 56.8155 64.9639 56.8155 64.4723C56.7609 63.7623 56.5429 63.7077 55.8889 63.7077ZM55.9979 65.5101L55.9434 65.7286C55.9434 66.384 55.9979 66.821 56.0524 67.3125C55.9434 67.3125 55.7799 67.3125 55.5619 67.3125C55.3984 67.3125 55.2349 67.3672 55.0714 67.3672C55.0714 66.8756 55.0714 66.4386 55.0714 65.7832V65.0185C55.0714 64.3631 55.0169 63.9261 54.9624 63.4346C55.0714 63.4346 55.2349 63.4346 55.4529 63.4346C55.6709 63.4346 55.8889 63.3799 56.2704 63.3799C56.87 63.3799 57.088 63.3799 57.2515 63.5438C57.4695 63.7077 57.633 63.9261 57.633 64.3085C57.633 64.8547 57.3605 65.237 56.7609 65.4009C57.1425 66.0563 57.5785 66.6571 58.069 67.3125C57.9055 67.3125 57.742 67.3125 57.5785 67.3125C57.415 67.3125 57.2515 67.3672 57.0335 67.3672L55.9979 65.5101ZM51.6922 64.8C51.7467 64.1446 51.7467 63.7077 51.8012 63.2161C52.1282 63.2707 52.4553 63.3253 52.8368 63.3253C53.3818 63.3799 53.8723 63.3799 54.0358 63.3799C54.0358 63.4346 53.9813 63.4892 53.9813 63.5984C53.9813 63.7077 53.9813 63.7623 53.9813 63.8715C53.5453 63.8169 52.8913 63.7077 52.6733 63.7077C52.6188 64.1446 52.5643 64.5269 52.5643 64.9639C53.0548 65.0185 53.4363 65.0185 53.8723 65.0185C53.8178 65.1278 53.8178 65.1824 53.8178 65.2916C53.8178 65.3462 53.8178 65.4009 53.8178 65.5101C53.3818 65.4555 52.9458 65.4009 52.5098 65.3462C52.5098 65.5647 52.4553 65.8378 52.4553 66.0563C52.4553 66.2748 52.4008 66.5479 52.4008 66.7664C52.8368 66.821 53.2728 66.821 53.7088 66.821C53.7088 66.8756 53.6543 66.9302 53.6543 67.0941C53.6543 67.2579 53.6543 67.2579 53.6543 67.3672C53.4363 67.3672 53.1638 67.3125 52.6733 67.2579C51.7467 67.2033 51.5832 67.2033 51.4742 67.2033C51.5287 66.7117 51.5832 66.2748 51.6377 65.6193L51.6922 64.8ZM48.9671 63.653C49.0216 63.4346 49.0761 63.2161 49.0761 63.1615C48.8581 63.1068 48.3676 63.0522 48.0406 63.0522C48.0951 62.9976 48.0951 62.8884 48.0951 62.8337C48.0951 62.7245 48.0951 62.6699 48.0951 62.5606C48.5856 62.6699 48.8581 62.7245 49.5666 62.8884C50.2752 63.0522 50.4932 63.0522 50.9837 63.1615C50.9292 63.2707 50.9292 63.3253 50.9292 63.3799C50.9292 63.4892 50.9292 63.5438 50.9292 63.653C50.6567 63.5438 50.1662 63.4346 49.9481 63.3799C49.8936 63.4346 49.8936 63.653 49.8391 63.8715L49.5666 65.2916C49.4576 65.9471 49.3486 66.384 49.2941 66.8756C49.1851 66.821 49.0216 66.7664 48.8581 66.7664C48.6946 66.7117 48.5311 66.7117 48.3676 66.7117C48.4766 66.2202 48.5856 65.7832 48.7491 65.1824L48.9671 63.653ZM44.1164 61.1951C44.1709 61.2498 44.2799 61.3044 44.3344 61.3044C44.3889 61.359 44.4979 61.359 44.6069 61.359C45.0974 62.506 45.5334 63.653 46.024 64.7454C46.351 63.8715 46.8415 62.3968 46.896 62.1783C46.9505 62.2329 47.0595 62.2875 47.114 62.2875C47.1685 62.3422 47.2775 62.3422 47.3865 62.3422C46.7325 63.8715 46.46 64.5816 45.9695 66.0563C45.915 66.0017 45.8605 66.0017 45.7515 65.9471C45.697 65.9471 45.588 65.8924 45.5334 65.8924C45.0974 64.7454 44.6069 63.5984 44.1164 62.3968C43.9529 62.7791 43.7894 63.2707 43.6804 63.653C43.3534 64.5269 43.2989 64.8 43.2443 65.0185C43.1898 64.9639 43.0808 64.9093 43.0263 64.9093C42.9173 64.8547 42.8628 64.8547 42.7538 64.8547C42.8628 64.6908 43.4079 63.3253 43.7894 62.2329C43.8984 61.7413 44.0074 61.4136 44.1164 61.1951ZM41.4458 61.6321C41.7183 61.0859 41.9363 60.6489 42.1543 60.212C42.2633 60.2666 42.3723 60.3759 42.5358 60.4305C42.6993 60.5397 42.8628 60.5943 42.9718 60.5943C42.6993 61.0313 42.4813 61.4136 42.2088 62.0144L41.8273 62.7245C41.5548 63.2707 41.3368 63.7077 41.1188 64.1446C41.0097 64.09 40.9007 63.9808 40.7372 63.9261C40.5737 63.8169 40.4102 63.7623 40.3012 63.7623C40.5737 63.3253 40.7917 62.943 41.0643 62.3422L41.4458 61.6321Z" fill="#00467F"/>
<path d="M1.16851 89.4333C1.16851 87.3577 1.05951 85.2822 0.9505 83.2612C1.33202 83.3159 1.71353 83.3705 2.09505 83.3705C2.47657 83.3705 2.85808 83.3159 3.2396 83.2612C3.1306 85.3368 3.07609 87.4123 3.07609 89.4333V93.5297C3.07609 95.6053 3.1851 97.6808 3.2396 99.7017C2.85808 99.6471 2.47657 99.5925 2.09505 99.5925C1.71353 99.5925 1.33202 99.6471 0.9505 99.7017C1.05951 97.6262 1.16851 95.5507 1.16851 93.5297V89.4333Z" fill="#00467F"/>
<path d="M21.4434 100.03C17.8463 95.7692 13.4861 91.1812 9.39838 86.8116C9.39838 87.6855 9.34388 89.1056 9.34388 91.6727C9.34388 93.7483 9.45288 98.7733 9.56189 99.7018C9.28938 99.6472 9.01687 99.5926 8.74435 99.5926C8.47184 99.5926 8.14483 99.6472 7.87231 99.7018C8.09032 98.5548 8.36284 92.4374 8.36284 89.3241C8.36284 86.32 8.36284 83.9714 8.30833 82.9336H8.68985C12.5595 87.1393 17.8463 92.929 20.7349 95.8785C20.7349 91.6181 20.7349 86.9208 20.5169 83.2613C20.7894 83.3159 21.0619 83.3706 21.3344 83.3706C21.6069 83.3706 21.8249 83.3159 22.0974 83.2613C21.9339 84.6814 21.7159 89.3787 21.7159 91.2358C21.7159 93.6937 21.7704 98.9372 21.7704 100.03H21.4434Z" fill="#00467F"/>
<path d="M30.1638 89.4332C30.1638 87.7946 30.1638 86.156 30.1093 84.4628C28.4742 84.4628 26.3486 84.572 24.9861 84.7359C25.0406 84.5174 25.0951 84.2443 25.0951 83.9712C25.0951 83.7527 25.0406 83.4796 24.9861 83.2065C27.0571 83.2612 29.0737 83.3158 31.1448 83.3158C33.2159 83.3158 35.2325 83.2612 37.3036 83.2065C37.2491 83.4796 37.1946 83.6981 37.1946 83.9712C37.1946 84.1897 37.2491 84.4628 37.3036 84.7359C35.9955 84.572 33.8699 84.4628 32.1804 84.4628C32.1259 86.1014 32.1259 87.74 32.1259 89.4332V93.5297C32.1259 95.6052 32.2349 97.6808 32.3439 99.7017C31.9624 99.6471 31.5808 99.5924 31.1993 99.5924C30.8178 99.5924 30.4363 99.6471 30.0548 99.7017C30.1638 97.6261 30.2728 95.5506 30.2728 93.5297V89.4332H30.1638Z" fill="#00467F"/>
<path d="M40.3557 89.3786C40.3557 87.303 40.2467 85.2275 40.1377 83.2065C41.5548 83.2612 42.9719 83.3158 44.3889 83.3158C45.806 83.3158 47.223 83.2612 48.6401 83.2065C48.5856 83.425 48.5856 83.6981 48.5856 83.9166C48.5856 84.1351 48.5856 84.4082 48.6401 84.6267C46.6235 84.4628 45.479 84.2989 42.3723 84.2989C42.3723 85.3367 42.2633 86.156 42.2633 87.3576C42.2633 88.6139 42.2633 89.9248 42.2633 90.5256C45.0974 90.5256 46.6235 90.4163 48.0406 90.3071C47.9861 90.5256 47.9861 90.7987 47.9861 91.0718C47.9861 91.2903 47.9861 91.5634 48.0406 91.7818C46.4055 91.618 43.4079 91.5634 42.2633 91.5634C42.2633 92.1642 42.2633 92.7104 42.2633 95.0044C42.2633 96.8068 42.2633 98.0085 42.3178 98.6093C44.4434 98.6093 47.2775 98.6093 48.7491 98.2816C48.6946 98.5001 48.6946 98.8278 48.6946 99.0462C48.6946 99.2647 48.6946 99.5378 48.7491 99.7563C47.332 99.7017 45.915 99.6471 44.4434 99.6471C42.9718 99.6471 41.5548 99.7017 40.0832 99.7563C40.1922 97.6808 40.3012 95.6052 40.3012 93.5297V89.3786H40.3557Z" fill="#00467F"/>
<path d="M54.5263 90.7987C54.9624 90.908 55.5074 90.908 56.1069 90.908C58.069 90.908 60.6851 90.0887 60.6851 87.2485C60.6851 84.736 58.614 84.1351 56.979 84.1351C55.8889 84.1351 55.1804 84.1898 54.6899 84.2444C54.6354 85.9922 54.5263 87.6854 54.5263 89.4333V90.7987ZM52.5643 89.4333C52.5643 87.3577 52.4553 85.2822 52.3463 83.2612C53.2728 83.3159 54.1448 83.3705 55.0714 83.3705C55.9979 83.3705 56.87 83.2612 57.7965 83.2612C60.4671 83.2612 62.7562 84.1898 62.7562 87.03C62.7562 90.0887 59.7041 91.3449 57.851 91.618C58.9955 93.0928 62.9742 98.227 64.3913 99.7564C63.9008 99.7017 63.4647 99.6471 62.9742 99.6471C62.5382 99.6471 62.0477 99.7017 61.6117 99.7564C60.6851 98.2816 57.4695 93.9121 55.4529 91.8365H54.5263V93.5843C54.5263 95.6599 54.6354 97.7354 54.7444 99.7564C54.3628 99.7017 53.9813 99.6471 53.5998 99.6471C53.2183 99.6471 52.8368 99.7017 52.4553 99.7564C52.5643 97.6808 52.6733 95.6053 52.6733 93.5843V89.4333H52.5643Z" fill="#00467F"/>
<path d="M69.351 91.1811C69.8415 91.2903 70.4956 91.3996 71.0406 91.3996C73.0027 91.3996 75.5098 90.6349 75.5098 87.4123C75.5098 84.6813 73.9837 84.1351 71.5311 84.1351H69.4055V91.1811H69.351ZM67.3889 89.4333C67.3889 87.3577 67.2799 85.2822 67.1709 83.2612C67.934 83.3159 68.697 83.3705 69.46 83.3705C70.2231 83.3705 71.7491 83.2612 72.4032 83.2612C73.8202 83.2612 77.6354 83.3158 77.6354 87.3031C77.6354 91.5088 73.4932 92.3281 71.2041 92.3281C70.4956 92.3281 69.896 92.3281 69.2965 92.2735V93.5843C69.2965 95.6599 69.4055 97.7354 69.5145 99.7564C69.133 99.7017 68.7515 99.6471 68.37 99.6471C67.9885 99.6471 67.6069 99.7017 67.2254 99.7564C67.3344 97.6808 67.4434 95.6053 67.4434 93.5843V89.4333H67.3889Z" fill="#00467F"/>
<path d="M88.4814 83.8075C84.7752 83.8075 81.8866 86.1562 81.8866 91.4543C81.8866 96.7524 84.7207 99.101 88.4814 99.101C92.242 99.101 95.0762 96.7524 95.0762 91.4543C95.0762 86.1562 92.1875 83.8075 88.4814 83.8075ZM88.4814 82.9336C93.7681 82.9336 97.4198 86.0469 97.4198 91.5089C97.4198 96.9162 93.7681 100.084 88.4814 100.084C83.2491 100.084 79.543 96.9708 79.543 91.5089C79.543 86.0469 83.2491 82.9336 88.4814 82.9336Z" fill="#00467F"/>
<path d="M101.017 89.4333C101.017 87.3577 100.908 85.2822 100.799 83.2612C101.18 83.3159 101.562 83.3705 101.943 83.3705C102.325 83.3705 102.707 83.3159 103.088 83.2612C102.979 85.3368 102.87 87.4123 102.87 89.4333C102.87 93.4205 102.925 96.2607 102.925 98.6094C105.159 98.6094 107.121 98.6094 109.519 98.2816C109.465 98.5001 109.41 98.7732 109.41 98.9917C109.41 99.2102 109.465 99.4833 109.519 99.7017C108.048 99.6471 106.576 99.5925 105.159 99.5925C103.688 99.5925 102.216 99.6471 100.744 99.7017C100.853 97.6262 100.962 95.5507 100.962 93.5297V89.4333H101.017Z" fill="#00467F"/>
</g>
<defs>
<clipPath id="clip0_1_465">
<rect width="109.005" height="99.8447" fill="white" transform="translate(0.786987 0.348633)"/>
</clipPath>
</defs>
</svg>
