<svg width="295" height="58" viewBox="0 0 295 58" fill="none" xmlns="http://www.w3.org/2000/svg">
<g clip-path="url(#clip0_1_475)">
<path d="M36.4798 47.109C40.2904 47.109 43.8078 46.5201 46.9345 45.4406C47.7161 45.1461 48.4978 44.8517 49.1818 44.5573C48.3024 46.7164 47.0322 48.483 45.3712 49.857C42.0491 52.3106 38.1408 53.979 33.8417 54.6661C35.0142 52.8013 35.8936 50.2496 36.4798 47.109ZM18.7948 52.4088C18.6971 52.3106 18.5993 52.3106 18.5016 52.2125C17.036 51.5255 16.4498 48.1886 17.2314 43.0851C20.065 44.361 23.1916 45.3424 26.4159 46.1276C28.8586 46.6183 31.3013 47.0109 33.744 47.109C32.5715 52.2125 31.0082 54.9605 30.0311 54.9605C29.9334 54.9605 29.9334 54.9605 29.8357 54.9605C25.9274 54.9605 22.1168 53.979 18.7948 52.4088ZM5.01802 36.0188C4.8226 35.1355 4.72489 34.2522 4.62719 33.3689C5.50655 34.6448 6.58134 35.9206 7.85153 37.0983C9.80568 38.8649 12.1507 40.5334 14.691 41.9074C14.2025 44.8517 14.0071 47.5016 14.3979 49.6607C10.0011 46.3238 6.67904 41.5148 5.01802 36.0188ZM38.1408 28.8543C38.1408 27.7747 38.1408 26.7933 38.1408 25.7137C41.4629 25.5174 44.4918 24.6341 47.0322 23.162C49.3772 27.7747 50.6474 32.6819 50.5497 37.2946C50.5497 38.6686 50.452 39.9445 50.2565 41.1222C49.0841 41.9074 47.7161 42.4962 46.1528 42.987C43.417 43.8703 40.2904 44.4591 36.9683 44.5573C37.75 39.7482 38.1408 34.154 38.1408 28.8543ZM27.0022 43.4777C23.6801 42.7907 20.5535 41.7111 17.72 40.3371C18.5993 36.1169 20.3581 31.1116 23.0939 25.4193C23.4847 24.6341 23.8755 23.849 24.2664 22.9657C26.2205 23.849 28.2724 24.536 30.4219 25.0267C32.083 25.4193 33.744 25.6156 35.405 25.6156C35.405 26.597 35.405 27.6766 35.405 28.7561C35.405 35.0373 34.9165 40.3371 34.1348 44.361C31.8875 44.361 29.4449 44.0665 27.0022 43.4777ZM9.70797 35.1355C7.4607 33.0745 5.89738 30.8172 5.11572 28.5599C5.70197 26.1063 6.97216 23.5545 8.7309 21.1991C10.3919 18.9418 12.5415 16.8808 14.9842 15.1142C15.6681 16.3901 16.6452 17.6659 17.9154 18.7455C19.0879 19.8251 20.4558 20.9047 22.0191 21.788C21.6283 22.5731 21.1397 23.4564 20.7489 24.2415C18.4039 29.1487 16.4498 34.3503 15.2773 39.0612C13.2254 37.9816 11.369 36.6076 9.70797 35.1355ZM36.3821 10.207C39.411 12.4643 42.1468 15.4086 44.4918 18.8436C44.8826 19.5306 45.3712 20.1195 45.762 20.8065C43.6124 22.0824 40.9743 22.7694 38.0431 22.9657C37.75 18.3529 37.2615 13.9365 36.3821 10.207ZM31.1059 22.475C29.1517 22.0824 27.393 21.4935 25.6343 20.7084C28.077 16.3901 30.8128 12.5625 33.5486 9.71629C34.4279 13.0532 35.1119 17.4696 35.405 22.9657C33.9394 22.9657 32.4738 22.7694 31.1059 22.475ZM19.6741 16.8808C18.5993 15.8012 17.72 14.7216 17.1337 13.642C19.6741 12.1699 22.4099 10.894 25.3412 10.0107C27.0999 9.52 28.8586 9.12743 30.6174 8.833C28.077 11.6792 25.5366 15.3105 23.1916 19.4325C21.9214 18.7455 20.7489 17.8622 19.6741 16.8808ZM14.0071 8.34228C14.0071 8.44042 13.9094 8.63671 13.9094 8.73485C13.6163 10.0107 13.714 11.2866 14.0071 12.5625C11.1736 14.5253 8.63319 16.8808 6.67904 19.5306C6.0928 20.3158 5.50655 21.1991 5.01802 21.9842C6.48363 16.5863 9.61026 11.7773 14.0071 8.34228ZM16.4498 9.32371C16.7429 7.9497 17.6223 6.67384 18.8925 5.6924C22.0191 4.80911 25.6343 5.0054 29.4449 6.37941C27.8815 6.67384 26.2205 7.06641 24.6572 7.55713C21.726 8.44042 18.9902 9.61814 16.4498 11.0903C16.3521 10.5014 16.3521 9.91257 16.4498 9.32371ZM38.0431 5.79054C38.9225 5.20168 39.8018 4.80911 40.4858 4.61282C41.8537 5.10354 43.1239 5.79054 44.3941 6.67384C42.4399 6.28126 40.2904 5.98683 38.0431 5.79054ZM33.6463 2.94438C34.7211 3.04252 35.8936 3.23881 37.066 3.53324C36.2844 3.92582 35.6004 4.41653 34.8188 5.00539C34.3302 4.22025 34.0371 3.53324 33.6463 2.94438ZM30.7151 4.02396C29.5426 3.53324 28.2724 3.23881 27.0999 2.94438C28.077 2.84624 28.9563 2.74809 29.9334 2.74809C30.4219 2.74809 30.9105 3.33695 31.4967 4.31839C31.3013 4.22025 31.0082 4.1221 30.7151 4.02396ZM1.40284 28.8543C1.40284 31.6023 1.79367 34.2522 2.47762 36.7058C2.47762 36.9021 2.57533 37.0002 2.57533 37.1965V37.2946C6.19051 49.0719 17.1337 57.6104 29.9334 57.6104C35.8936 57.6104 41.3652 55.7456 45.9574 52.605C45.9574 52.605 46.0551 52.605 46.0551 52.5069C46.3482 52.3106 46.5437 52.1143 46.8368 51.918C52.113 47.9923 56.0213 42.3 57.6823 35.7243C57.78 35.4299 57.8777 35.1355 57.8777 34.841C57.8777 34.7429 57.8777 34.7429 57.8777 34.6448C58.2685 32.78 58.464 30.8172 58.464 28.7561C58.464 24.8304 57.6823 21.1009 56.2167 17.5678C55.9236 16.8808 55.1419 16.5863 54.458 16.8808C53.774 17.1752 53.4809 17.9604 53.774 18.6474C55.1419 21.8861 55.8259 25.3211 55.8259 28.7561C55.8259 30.9153 55.5327 32.9763 55.0442 35.0373C54.6534 36.3132 53.9694 37.4909 52.9923 38.5705C52.9923 38.0798 52.9923 37.6872 52.9923 37.1965C52.9923 32.093 51.6244 26.597 48.9863 21.5917C50.9405 19.9232 52.113 17.8622 52.5038 15.6049C52.6015 14.9179 52.113 14.2309 51.429 14.0346C50.7451 13.9365 49.9634 14.4272 49.8657 15.1142C49.5726 16.5863 48.7909 18.0585 47.6184 19.2362C47.2276 18.6474 46.8368 17.9604 46.4459 17.3715C44.101 13.9365 41.3652 10.9922 38.3362 8.53856C42.3422 8.833 46.0551 9.81443 49.084 11.4829C49.5726 11.7773 50.1588 11.7773 50.6474 11.3847C51.2336 10.894 51.3313 10.1089 50.8428 9.52C46.5437 3.53324 39.1179 0.196359 29.9334 0.196359C14.2025 0.0982154 1.40284 12.955 1.40284 28.8543Z" fill="url(#paint0_radial_1_475)"/>
<path d="M287.002 20.4141C291.203 20.4141 293.548 22.4751 293.548 26.2045C293.548 29.7377 291.203 31.7987 287.392 31.7987H284.657V37.2948H281.139V20.4141M284.754 28.9526H286.904C288.956 28.9526 290.031 28.0693 290.031 26.2045C290.031 24.3398 288.858 23.3584 286.806 23.3584H284.754V28.9526ZM274.593 30.5229C274.593 32.9764 273.616 34.1542 271.662 34.1542C269.707 34.1542 268.73 32.8783 268.73 30.5229V20.4141H265.115V30.2284C265.115 32.682 265.701 34.4486 266.874 35.6263C267.949 36.7059 269.61 37.2948 271.662 37.2948C274.593 37.2948 278.11 36.0189 278.11 30.1303V20.3159H274.593V30.5229ZM255.442 20.3159C259.057 20.3159 262.966 22.5732 262.966 28.8544C262.966 35.1356 259.057 37.3929 255.442 37.3929C251.827 37.3929 247.919 35.1356 247.919 28.8544C247.919 22.5732 251.827 20.3159 255.442 20.3159ZM255.442 34.2523C256.81 34.2523 259.253 33.5653 259.253 28.8544C259.253 24.1435 256.908 23.4565 255.442 23.4565C252.999 23.4565 251.632 25.4194 251.632 28.8544C251.632 32.3876 252.999 34.2523 255.442 34.2523ZM244.303 32.1913C244.89 33.369 245.378 34.4486 246.551 34.4486H247.43V37.1966H247.332C247.332 37.1966 246.648 37.3929 245.574 37.3929C242.74 37.3929 241.861 35.43 241.177 33.7616C240.591 32.3876 240.004 31.1117 238.539 31.1117H236.975V37.2948H233.36V20.4141H239.32C243.619 20.4141 245.671 22.0825 245.671 25.7138C245.671 27.9711 244.303 29.3451 242.936 29.934C243.522 30.621 243.913 31.4061 244.303 32.1913ZM236.878 28.3637H238.832C240.786 28.3637 242.056 27.4804 242.056 25.9101C242.056 24.3398 240.981 23.4565 239.125 23.4565H236.878V28.3637ZM223.785 31.1117H227.498V31.308C227.498 32.3876 227.107 34.2523 224.567 34.2523C222.124 34.2523 220.658 32.2894 220.658 28.9526C220.658 25.5175 222.026 23.5547 224.469 23.5547C227.302 23.5547 227.4 26.499 227.4 26.5971V26.7934L230.722 26.3027V26.2045C230.722 25.0268 229.647 20.4141 224.371 20.4141C219.681 20.4141 216.945 23.5547 216.945 28.9526C216.945 34.2523 219.779 37.491 224.469 37.491C229.159 37.491 230.82 34.1542 230.82 31.4061V28.4618H223.785V31.1117ZM213.135 20.4141H208.933L203.364 27.9711V20.4141H199.749V37.2948H203.364V29.5414L209.031 37.2948H213.33L206.882 28.8544L213.135 20.4141ZM193.007 30.8173L187.145 20.4141H183.529V37.2948H187.145V27.2841L193.007 37.2948H196.622V20.4141H193.105V30.8173H193.007ZM176.397 20.6103L182.552 37.2948H178.839L177.374 33.1727H171.805L170.437 37.2948H166.724L172.879 20.5122H176.397V20.6103ZM174.638 25.0268L172.879 30.3266H176.495L174.638 25.0268ZM163.402 28.3637C164.672 28.7563 166.333 29.934 166.333 32.4857C166.333 35.5282 164.183 37.2948 160.47 37.2948H153.436V20.4141H159.787C163.402 20.4141 165.258 21.9844 165.258 24.9287C165.258 27.2841 164.183 28.1674 163.402 28.3637ZM159.396 27.2841C160.861 27.2841 161.545 26.6953 161.545 25.3212C161.545 24.0454 160.666 23.3584 158.907 23.3584H156.953V27.2841H159.396ZM156.953 34.3505H159.787C161.643 34.3505 162.425 33.6634 162.425 32.1913C162.425 30.4247 160.959 30.0321 159.689 30.0321H156.953V34.3505ZM138.682 20.4141C143.86 20.4141 146.987 23.6528 146.987 29.1488C146.987 34.3505 144.251 37.2948 139.366 37.2948H133.699V20.4141H138.682ZM137.314 34.3505H139.366C141.906 34.3505 143.469 32.3876 143.469 29.1488C143.469 25.4194 141.808 23.4565 138.682 23.4565H137.314V34.3505ZM124.807 20.4141H121.192V37.2948H132.038V34.3505H124.807V20.4141ZM116.404 32.1913C116.991 33.369 117.479 34.4486 118.652 34.4486H119.531V37.1966H119.433C119.433 37.1966 118.749 37.3929 117.675 37.3929C114.841 37.3929 113.962 35.43 113.278 33.7616C112.692 32.3876 112.105 31.1117 110.64 31.1117H109.076V37.2948H105.461V20.4141H111.421C115.721 20.4141 117.772 22.0825 117.772 25.7138C117.772 27.9711 116.404 29.3451 115.037 29.934C115.721 30.621 116.111 31.4061 116.404 32.1913ZM109.076 28.3637H111.031C112.985 28.3637 114.255 27.4804 114.255 25.9101C114.255 24.3398 113.18 23.4565 111.324 23.4565H109.076V28.3637ZM95.9836 20.3159C99.5988 20.3159 103.507 22.5732 103.507 28.8544C103.507 35.1356 99.5988 37.3929 95.9836 37.3929C92.3684 37.3929 88.4601 35.1356 88.4601 28.8544C88.4601 22.5732 92.3684 20.3159 95.9836 20.3159ZM95.9836 34.2523C97.4492 34.2523 99.7942 33.5653 99.7942 28.8544C99.7942 24.1435 97.4492 23.4565 95.9836 23.4565C93.5409 23.4565 92.173 25.4194 92.173 28.8544C92.173 32.3876 93.5409 34.2523 95.9836 34.2523ZM83.9656 20.4141H87.9716L83.1839 37.2948H79.1779L76.2467 26.7934L73.2178 37.2948H69.2118L64.4241 20.4141H68.5278L71.3613 32.682L74.7811 20.4141H77.81L81.0344 32.682L83.9656 20.4141Z" fill="#002244"/>
</g>
<defs>
<radialGradient id="paint0_radial_1_475" cx="0" cy="0" r="1" gradientUnits="userSpaceOnUse" gradientTransform="translate(56.0978 10.997) scale(47.1791 47.3897)">
<stop stop-color="white"/>
<stop offset="0.0597037" stop-color="#EBF3FC"/>
<stop offset="0.1825" stop-color="#B6D6F4"/>
<stop offset="0.3582" stop-color="#61A6E8"/>
<stop offset="0.544" stop-color="#006FDA"/>
<stop offset="1" stop-color="#002244"/>
</radialGradient>
<clipPath id="clip0_1_475">
<rect width="293.122" height="57.7084" fill="white" transform="translate(0.914307)"/>
</clipPath>
</defs>
</svg>
