<svg width="512" height="332" viewBox="0 0 512 332" fill="none" xmlns="http://www.w3.org/2000/svg">
<path d="M170.667 0.838867H16.5159L10.4839 17.3549V307.151C10.4839 316.272 17.8789 323.667 26.9999 323.667H170.667L189.936 306.384V25.6159L170.667 0.838867Z" fill="#41A71C"/>
<path d="M341.333 323.5H495.484L512 314.645V17.3549C512 8.23387 504.605 0.838867 495.484 0.838867H341.333L322.064 25.6169V306.385L341.333 323.5Z" fill="#CA2330"/>
<path d="M512 314.645H328.489L341.333 331.161H495.484C504.605 331.161 512 323.767 512 314.645Z" fill="#BC1626"/>
<path d="M16.516 265.097V0.838867C7.395 0.838867 0 8.23287 0 17.3549V314.645C0 323.767 7.395 331.161 16.516 331.161H170.667L183.511 314.645H66.065C38.7 314.645 16.516 292.462 16.516 265.097Z" fill="#1D9922"/>
<path d="M187.333 323.667H328.333L341.333 314.645V0.838867H170.667V314.645L187.333 323.667Z" fill="#F2F2F6"/>
<path d="M170.667 314.645H341.333V331.161H170.667V314.645Z" fill="#E1E1E6"/>
</svg>
