<svg width="90" height="83" viewBox="0 0 90 83" fill="none" xmlns="http://www.w3.org/2000/svg">
<g opacity="1" clip-path="url(#clip0_35_225)">
<path d="M68.441 58.5268H49.306V58.1182H68.441V58.5268ZM58.8735 61.5235C55.4025 61.5235 52.51 60.1614 50.73 59.0717H67.017C65.237 60.2068 62.3 61.5235 58.8735 61.5235ZM44.6335 56.302C39.6495 56.302 34.9325 54.9852 30.883 52.488L33.2415 48.4015C36.401 50.5355 40.317 51.8523 44.589 51.8523C48.861 51.8523 52.8215 50.581 55.9365 48.4015L58.295 52.488C54.3345 54.9852 49.6175 56.302 44.6335 56.302ZM45.746 62.0684L44.945 63.3397V56.8922C45.2565 56.8922 45.6125 56.8922 45.924 56.8468L45.746 62.0684ZM44.3665 63.3397L43.5655 62.0684L43.3875 56.8468C43.699 56.8468 44.055 56.8922 44.3665 56.8922V63.3397ZM40.0055 58.5268H20.8705V58.1182H40.0055V58.5268ZM30.438 61.5235C26.967 61.5235 24.0745 60.1614 22.2945 59.0717H38.5815C36.8015 60.2068 33.8645 61.5235 30.438 61.5235ZM25.6765 50.581C25.7655 50.6718 25.8545 50.7172 25.988 50.808C26.5665 51.2166 27.3675 51.5345 28.2575 51.7161C28.1685 51.7615 28.0795 51.8069 28.035 51.8523C27.857 51.9885 27.679 52.0793 27.5455 52.1701C27.0115 52.4426 26.433 52.5788 26.433 52.5788L25.81 52.715L26.2995 53.1236C27.7235 54.2587 29.014 54.6674 30.1265 54.8036V57.5279H23.1845L25.6765 50.581ZM23.0955 47.1302C23.8965 47.0848 25.632 47.1302 27.679 47.8567C28.925 48.3107 29.9485 48.8556 30.6605 49.4004C30.3935 49.5366 30.2155 49.8091 30.2155 50.1269C30.171 50.0815 30.1265 50.0815 30.082 50.0361C29.5925 49.7637 29.0585 49.5366 28.5245 49.3096C27.9905 49.128 27.412 48.9464 26.878 48.901L28.3465 49.7183L29.815 50.5356L30.2155 50.7626C29.7705 50.8988 29.37 51.0804 28.9695 51.262C27.8125 51.0804 26.9225 50.7172 26.255 50.3085C24.831 49.3096 23.7185 47.9929 23.0955 47.1302ZM22.873 41.5C23.229 41.6816 23.7185 41.9086 24.386 42.0903C24.6975 42.1811 24.9645 42.2719 25.2315 42.4081C25.365 42.6351 25.632 42.8167 25.9435 42.8167C25.988 42.8167 25.988 42.8167 25.988 42.8167C26.077 42.8621 26.166 42.9529 26.255 42.9983C26.2995 43.3616 26.611 43.634 26.967 43.6794C27.145 43.861 27.323 44.0881 27.501 44.3605C27.59 44.4967 27.679 44.6329 27.7235 44.7691C27.9905 45.8134 28.6135 46.8124 29.37 47.6296C29.2365 47.4934 29.103 47.4026 28.9695 47.2664L27.3675 45.8589C26.8335 45.3594 26.2995 44.9054 25.7655 44.4059C26.1215 45.0416 26.5665 45.6318 27.056 46.1767C27.501 46.6761 27.946 47.1302 28.4355 47.5842C28.2575 47.4934 28.0795 47.448 27.9015 47.3572C27.145 47.0848 26.3885 46.9032 25.7655 46.7669C24.564 45.5864 23.1845 43.7702 22.873 41.5ZM26.166 41.9994C26.166 42.1811 26.0325 42.3173 25.8545 42.3173C25.6765 42.3173 25.543 42.1811 25.543 41.9994C25.543 41.8178 25.6765 41.6816 25.8545 41.6816C26.0325 41.6362 26.166 41.8178 26.166 41.9994ZM27.323 42.8167C27.323 42.9984 27.1895 43.1346 27.0115 43.1346C26.8335 43.1346 26.7 42.9984 26.7 42.8167C26.7 42.6351 26.8335 42.4989 27.0115 42.4989C27.145 42.4535 27.323 42.6351 27.323 42.8167ZM22.6505 34.1898C22.962 34.5985 23.407 35.1433 23.941 35.7336C23.941 35.779 23.941 35.8244 23.941 35.8244C23.941 36.2784 24.297 36.6417 24.742 36.6417C24.7865 36.6417 24.7865 36.6417 24.831 36.6417C25.3205 37.1411 25.8545 37.5952 26.3885 38.0492C26.6555 39.5022 27.1005 40.9097 27.768 42.1811C27.768 42.2265 27.7235 42.3173 27.7235 42.3627C27.59 42.1357 27.323 41.9994 27.056 41.9994C26.967 41.9994 26.878 41.9994 26.789 42.0448C26.7445 41.9994 26.7445 41.9994 26.7445 41.954C26.7445 41.5454 26.4775 41.2276 26.1215 41.1368C25.7655 40.6827 25.454 40.1833 25.098 39.6838C24.742 39.0935 24.386 38.5033 24.0745 37.8222C24.0745 38.1854 24.1635 38.5487 24.297 38.9119C24.386 39.2752 24.564 39.593 24.6975 39.9108C24.92 40.3649 25.187 40.8189 25.4985 41.273C25.365 41.3638 25.2315 41.5454 25.187 41.727C25.1425 41.727 25.098 41.6816 25.0535 41.6816C23.318 39.2752 22.517 36.8233 22.6505 34.1898ZM24.92 35.7336C24.92 35.9152 24.7865 36.0514 24.6085 36.0514C24.4305 36.0514 24.297 35.9152 24.297 35.7336C24.297 35.552 24.4305 35.4157 24.6085 35.4157C24.7865 35.3703 24.92 35.552 24.92 35.7336ZM25.3205 26.4256C25.4985 26.6526 25.721 26.9704 26.0325 27.5153C25.81 28.0148 25.632 28.5596 25.632 29.1499C25.5875 30.4666 25.8545 31.5563 26.4775 32.6006C26.344 33.1455 26.2995 33.6904 26.2105 34.2352C26.166 34.1444 26.1215 34.0536 26.077 33.9628C25.8545 33.4179 25.6765 32.8731 25.543 32.2828C25.365 31.6925 25.2315 31.1477 25.098 30.5574C25.009 31.1477 25.0535 31.7834 25.098 32.3736C25.187 32.9639 25.3205 33.5996 25.543 34.1444C25.6765 34.5531 25.899 34.9163 26.1215 35.2795C26.1215 35.3703 26.1215 35.4612 26.1215 35.552C26.1215 36.0968 26.166 36.6417 26.2105 37.1865C25.899 36.9141 25.5875 36.6417 25.3205 36.3692C25.454 36.233 25.4985 36.0514 25.4985 35.8244C25.4985 35.3703 25.1425 35.0071 24.6975 35.0071C24.653 35.0071 24.6085 35.0071 24.6085 35.0071C23.9855 33.3271 22.9175 29.3315 25.3205 26.4256ZM26.166 29.1953C26.2105 27.7423 27.234 26.5164 27.8125 25.8353C27.9015 25.7445 27.946 25.6537 28.035 25.5629C28.124 25.4267 28.213 25.3359 28.302 25.1997C28.48 24.9726 28.7025 24.7456 28.836 24.5186C28.9695 24.9272 29.1475 25.5629 29.2365 26.5618C28.836 27.0613 28.48 27.6061 28.1685 28.1056C28.1685 27.9694 28.1685 27.8331 28.213 27.6969C28.213 27.4245 28.213 27.1521 28.213 26.8796C27.9905 27.1067 27.857 27.3337 27.768 27.6061C27.679 27.8785 27.59 28.151 27.59 28.4234C27.5455 28.6958 27.5455 28.9683 27.59 29.2407C27.1895 30.058 26.878 30.8753 26.6555 31.738C26.2995 31.0115 26.166 30.1488 26.166 29.1953ZM30.616 49.8999C30.616 49.7183 30.7495 49.582 30.9275 49.582C31.1055 49.582 31.239 49.7183 31.239 49.8999C31.239 50.0815 31.1055 50.2177 30.9275 50.2177C30.794 50.2177 30.616 50.0815 30.616 49.8999ZM32.307 54.622C32.307 54.4404 32.4405 54.3041 32.6185 54.3041C32.7965 54.3041 32.93 54.4404 32.93 54.622C32.93 54.8036 32.7965 54.9398 32.6185 54.9398C32.4405 54.9398 32.307 54.8036 32.307 54.622ZM32.574 55.4393C33.019 55.4393 33.375 55.076 33.375 54.622C33.375 54.5766 33.375 54.5312 33.375 54.4858C34.5765 55.0306 35.8225 55.4847 37.0685 55.8479L37.6915 57.5279H30.705V54.849C30.7495 54.849 30.7495 54.849 30.794 54.849C31.15 54.849 31.506 54.8036 31.8175 54.7582C31.862 55.1214 32.1735 55.4393 32.574 55.4393ZM30.26 52.7604L29.8595 52.8058C29.5035 52.8512 29.1475 52.8512 28.747 52.8966C29.103 53.0782 29.459 53.169 29.815 53.2598C30.171 53.3052 30.5715 53.3507 30.972 53.3052C31.0165 53.3052 31.061 53.3052 31.1055 53.2598C31.4615 53.4869 31.8175 53.6685 32.218 53.8501C32.129 53.8955 32.04 53.9863 31.951 54.0771C30.794 54.3496 29.103 54.3496 27.145 52.942C27.3675 52.8512 27.59 52.7604 27.8125 52.6696C27.946 52.5788 28.124 52.488 28.3465 52.3517C28.9695 51.8977 29.904 51.3074 30.9275 51.2166L30.082 52.6696L30.26 52.7604ZM32.129 48.9464C32.129 49.128 31.9955 49.2642 31.8175 49.2642C31.6395 49.2642 31.506 49.128 31.506 48.9464C31.506 48.7648 31.6395 48.6285 31.8175 48.6285C31.951 48.5831 32.129 48.7648 32.129 48.9464ZM31.773 48.0837C31.4615 48.0837 31.1945 48.2653 31.061 48.4923C29.9485 47.5388 28.7025 46.1767 28.2575 44.5875C28.1685 44.0427 28.124 43.5432 28.1685 42.9983C29.3255 44.9508 30.883 46.6761 32.7965 48.0383L32.5295 48.5377C32.396 48.2653 32.129 48.0837 31.773 48.0837ZM44.6335 19.9781C54.5125 19.9781 62.567 26.9704 62.567 35.5974C62.567 36.1422 62.5225 36.6871 62.478 37.1865C62.389 37.4136 61.944 37.5044 62.0775 37.8222C62.1665 37.6406 62.389 37.459 62.4335 37.3227C61.766 42.7259 57.8945 47.3118 52.5545 49.6275C52.51 49.6275 52.51 49.6729 52.4655 49.6729C52.332 49.6729 52.154 49.6729 52.154 49.5366L51.9315 49.4004C51.8425 49.2188 51.4865 49.2188 51.4865 48.9918C51.0415 48.8556 51.086 48.8102 50.6855 48.7648C50.374 48.7194 50.107 48.5831 49.751 48.5831C49.395 48.5377 48.594 49.0372 48.1935 49.0826C48.06 49.128 48.06 49.0372 47.971 48.901C47.4815 48.4015 46.547 48.7194 45.5235 49.128C45.2565 49.2642 44.856 49.4912 44.5445 49.4912C43.8325 49.4912 43.343 48.9918 42.4085 48.9464C42.097 48.9464 42.364 49.6729 42.2305 49.9907C42.097 49.9453 41.652 49.7637 41.652 49.7637C41.652 49.7637 41.207 49.7183 41.0735 49.6729C40.8955 49.6275 40.762 49.5821 40.7175 49.6275C40.4505 49.9453 40.228 49.0826 39.694 49.0372C39.4715 48.7194 39.0265 48.3561 38.6705 47.9929C38.4925 47.7659 38.0475 46.7215 38.0475 47.0394C38.003 47.8567 38.7595 48.2199 38.715 48.8102C38.715 48.7194 38.537 48.7648 38.5815 48.7648C38.5815 48.8556 38.359 48.901 38.4035 49.0826C38.181 49.128 37.647 49.128 37.558 49.2642C37.4245 49.5366 36.9795 49.6275 36.668 49.6729C30.7495 47.1302 26.7 41.8178 26.7 35.6428C26.7 26.9704 34.7545 19.9781 44.6335 19.9781ZM29.815 19.8419C33.464 17.2084 37.825 15.6646 42.4975 15.256C42.5865 16.1641 42.631 17.39 42.631 19.07V19.4332C38.6705 19.7965 35.1105 21.2494 32.307 23.4743L29.815 19.8419ZM42.72 13.0312C43.2095 13.0312 43.7435 13.0312 44.322 13.0312V19.3878C43.9215 19.3878 43.5655 19.3878 43.2095 19.4332V19.1154C43.2095 16.0733 43.0315 13.9847 42.72 13.0312ZM46.547 13.0312C46.2355 13.9847 46.0575 16.0733 46.0575 19.1154V19.4332C45.657 19.3878 45.301 19.3878 44.9005 19.3878V13.0312C45.5235 13.0312 46.0575 13.0312 46.547 13.0312ZM39.4715 12.3047V11.896C40.05 11.8506 41.563 11.7598 43.7435 11.7598H45.479C47.6595 11.7598 49.1725 11.8506 49.751 11.896V12.3047C49.128 12.3501 47.3035 12.4409 44.589 12.4409C41.919 12.4863 40.139 12.3501 39.4715 12.3047ZM46.0575 11.1696H45.5235C44.945 11.1696 44.322 11.1696 43.788 11.1696H43.2095C43.343 10.7155 43.432 9.80743 43.432 8.17285V3.17832C43.877 3.22373 44.322 3.22373 44.678 3.22373C44.9895 3.22373 45.479 3.17832 45.924 3.17832V8.17285C45.8795 9.85283 45.9685 10.7155 46.0575 11.1696ZM42.8535 2.54266V2.17942C43.254 2.13401 44.0105 2.08861 44.6335 2.08861C45.2565 2.08861 46.0575 2.13401 46.4135 2.17942V2.54266C45.9685 2.58806 45.0785 2.63347 44.6335 2.63347C44.1885 2.63347 43.2985 2.58806 42.8535 2.54266ZM44.6335 0.726463C44.9005 0.726463 45.1675 0.908082 45.1675 1.13511C45.1675 1.36213 44.945 1.54375 44.6335 1.54375C44.3665 1.54375 44.0995 1.36213 44.0995 1.13511C44.144 0.908082 44.3665 0.726463 44.6335 0.726463ZM59.452 19.7511L56.9155 23.4743C54.112 21.2948 50.552 19.8419 46.636 19.4787V19.07C46.636 17.39 46.6805 16.1641 46.7695 15.256C51.442 15.6192 55.803 17.163 59.452 19.7511ZM60.431 24.564C60.5645 24.791 60.787 25.018 60.965 25.2451C61.054 25.3813 61.143 25.4721 61.232 25.6083C61.2765 25.6991 61.3655 25.7445 61.4545 25.8807C62.033 26.5618 63.0565 27.7877 63.101 29.2407C63.1455 30.2396 63.012 31.0569 62.6115 31.8288C62.389 30.9661 62.0775 30.1488 61.677 29.3315C61.7215 29.0591 61.7215 28.7866 61.677 28.5142C61.6325 28.2418 61.588 27.9694 61.499 27.6969C61.41 27.4245 61.2765 27.1975 61.054 26.9705C61.054 27.2429 61.054 27.5153 61.054 27.7877C61.054 27.924 61.054 28.0602 61.0985 28.1964C60.787 27.6515 60.431 27.1521 60.0305 26.6526C60.075 25.6083 60.253 24.9272 60.431 24.564ZM63.9465 26.4256C66.3495 29.3315 65.2815 33.3271 64.6585 35.0525C64.614 35.0525 64.5695 35.0525 64.5695 35.0525C64.1245 35.0525 63.7685 35.4157 63.7685 35.8698C63.7685 36.0514 63.8575 36.2784 63.9465 36.4146C63.6795 36.6871 63.368 36.9595 63.0565 37.2319C63.101 36.6871 63.1455 36.1422 63.1455 35.5974C63.1455 35.5066 63.1455 35.4157 63.1455 35.3249C63.368 34.9617 63.5905 34.5985 63.724 34.1898C63.9465 33.5996 64.08 33.0093 64.169 32.419C64.258 31.8288 64.258 31.1931 64.169 30.6028C63.991 31.1931 63.8575 31.7834 63.724 32.3282C63.5905 32.9185 63.4125 33.4633 63.19 34.0082C63.1455 34.099 63.101 34.1898 63.0565 34.2806C63.012 33.7358 62.923 33.1909 62.7895 32.6461C63.4125 31.6017 63.6795 30.512 63.635 29.1953C63.635 28.605 63.457 28.0602 63.2345 27.5607C63.5015 26.9704 63.7685 26.6072 63.9465 26.4256ZM64.347 35.7336C64.347 35.552 64.4805 35.4157 64.6585 35.4157C64.8365 35.4157 64.97 35.552 64.97 35.7336C64.97 35.9152 64.8365 36.0514 64.6585 36.0514C64.4805 36.0514 64.347 35.9152 64.347 35.7336ZM65.326 35.7336C65.86 35.1433 66.305 34.5985 66.6165 34.1898C66.75 36.8233 65.949 39.2752 64.258 41.6816C64.2135 41.6816 64.169 41.727 64.1245 41.727C64.08 41.5454 63.9465 41.4092 63.813 41.273C64.1245 40.8643 64.347 40.4103 64.614 39.9108C64.792 39.593 64.9255 39.2297 65.0145 38.9119C65.1035 38.5487 65.1925 38.1854 65.237 37.8222C64.97 38.5033 64.614 39.0935 64.2135 39.6838C63.902 40.1833 63.546 40.6373 63.19 41.1368C62.834 41.2276 62.567 41.5454 62.567 41.954C62.567 41.9994 62.5225 41.9994 62.5225 42.0448C62.4335 41.9994 62.3445 41.9994 62.2555 41.9994C61.9885 41.9994 61.766 42.1357 61.588 42.3627C61.588 42.3173 61.5435 42.2265 61.5435 42.1811C62.211 40.8643 62.7005 39.5022 62.923 38.0492C63.457 37.5952 63.991 37.1411 64.4805 36.6417C64.525 36.6417 64.525 36.6417 64.5695 36.6417C65.0145 36.6417 65.3705 36.2784 65.3705 35.8244C65.326 35.8244 65.326 35.779 65.326 35.7336ZM63.101 41.9994C63.101 41.8178 63.2345 41.6816 63.4125 41.6816C63.5905 41.6816 63.724 41.8178 63.724 41.9994C63.724 42.1811 63.5905 42.3173 63.4125 42.3173C63.2345 42.3173 63.101 42.1811 63.101 41.9994ZM61.944 42.8167C61.944 42.6351 62.0775 42.4989 62.2555 42.4989C62.4335 42.4989 62.567 42.6351 62.567 42.8167C62.567 42.9984 62.4335 43.1346 62.2555 43.1346C62.122 43.1346 61.944 42.9984 61.944 42.8167ZM66.394 41.5C66.038 43.7702 64.703 45.5864 63.546 46.7669C62.8785 46.9032 62.1665 47.0848 61.41 47.3572C61.232 47.448 61.054 47.4934 60.876 47.5842C61.3655 47.1302 61.8105 46.6761 62.2555 46.1767C62.745 45.6318 63.19 45.0416 63.546 44.4059C63.012 44.9054 62.478 45.4048 61.944 45.8589L60.342 47.2664C60.2085 47.4026 60.075 47.4934 59.9415 47.6296C60.6535 46.8124 61.2765 45.8134 61.588 44.7691C61.677 44.6329 61.766 44.4967 61.8105 44.3605C61.9885 44.1335 62.1665 43.9064 62.3445 43.6794C62.7005 43.634 62.9675 43.3616 63.0565 42.9983C63.1455 42.9075 63.2345 42.8621 63.3235 42.8167C63.3235 42.8167 63.368 42.8167 63.4125 42.8167C63.724 42.8167 63.991 42.6351 64.1245 42.4081C64.3915 42.3173 64.6585 42.1811 64.97 42.0903C65.593 41.9086 66.0825 41.6816 66.394 41.5ZM66.1715 47.1302C65.5485 47.9929 64.4805 49.3096 62.9675 50.3085C62.3 50.7626 61.41 51.0804 60.253 51.262C59.897 51.0804 59.452 50.8534 59.007 50.7626L59.4075 50.5356L60.876 49.7183L62.3445 48.901C61.766 48.9464 61.232 49.128 60.698 49.3096C60.164 49.4912 59.63 49.7637 59.1405 50.0361C59.096 50.0815 59.0515 50.0815 59.007 50.1269C59.007 49.8091 58.829 49.5366 58.562 49.4004C59.3185 48.901 60.2975 48.3107 61.5435 47.8567C63.635 47.1302 65.3705 47.0848 66.1715 47.1302ZM58.295 49.582C58.473 49.582 58.6065 49.7183 58.6065 49.8999C58.6065 50.0815 58.473 50.2177 58.295 50.2177C58.117 50.2177 57.9835 50.0815 57.9835 49.8999C57.9835 49.7183 58.117 49.582 58.295 49.582ZM57.8055 48.9464C57.8055 49.128 57.672 49.2642 57.494 49.2642C57.316 49.2642 57.1825 49.128 57.1825 48.9464C57.1825 48.7648 57.316 48.6285 57.494 48.6285C57.672 48.5831 57.8055 48.7648 57.8055 48.9464ZM57.494 48.0837C57.1825 48.0837 56.9155 48.2653 56.782 48.5377L56.515 48.0383C58.4285 46.6307 59.986 44.9053 61.143 42.9983C61.1875 43.5432 61.143 44.0427 61.0095 44.5875C60.5645 46.1767 59.3185 47.5388 58.206 48.4923C58.028 48.2199 57.761 48.0837 57.494 48.0837ZM57.316 54.1225C57.227 54.0317 57.138 53.9409 57.049 53.8955C57.405 53.7139 57.8055 53.4869 58.1615 53.3052C58.206 53.3052 58.2505 53.3507 58.295 53.3507C58.6955 53.3961 59.0515 53.3507 59.452 53.3052C59.808 53.2598 60.2085 53.1236 60.52 52.942C60.1195 52.8966 59.7635 52.8512 59.4075 52.8512L59.007 52.8058L59.1405 52.715L58.295 51.262C59.3185 51.3074 60.253 51.9431 60.876 52.3971C61.0985 52.5334 61.2765 52.6696 61.41 52.715C61.6325 52.8512 61.8995 52.942 62.0775 52.9874C60.164 54.395 58.473 54.3496 57.316 54.1225ZM56.2925 54.622C56.2925 54.4404 56.426 54.3041 56.604 54.3041C56.782 54.3041 56.9155 54.4404 56.9155 54.622C56.9155 54.8036 56.782 54.9398 56.604 54.9398C56.4705 54.9398 56.2925 54.8036 56.2925 54.622ZM56.693 55.4393C57.0935 55.4393 57.4495 55.1214 57.494 54.7582C57.8055 54.8036 58.1615 54.849 58.5175 54.849C58.562 54.849 58.562 54.849 58.6065 54.849V57.5279H51.62L52.243 55.8479C53.5335 55.4847 54.735 55.0306 55.9365 54.4858C55.9365 54.5312 55.9365 54.5766 55.9365 54.622C55.892 55.076 56.248 55.4393 56.693 55.4393ZM66.0825 57.5279H59.1405V54.8036C60.253 54.6674 61.5435 54.2587 62.9675 53.1236L63.457 52.715L62.834 52.5788C62.834 52.5788 62.2555 52.4426 61.7215 52.1701C61.588 52.1247 61.4545 51.9885 61.232 51.8523C61.143 51.8069 61.0985 51.7615 61.0095 51.7161C61.944 51.4891 62.7005 51.1712 63.279 50.808C63.368 50.7172 63.5015 50.6718 63.5905 50.581L66.0825 57.5279ZM38.8485 13.3944H38.448C38.4035 13.0766 38.4035 12.5771 38.4035 12.1231C38.4035 11.669 38.448 11.1696 38.448 10.8517H38.8485C38.893 11.215 38.9375 11.8052 38.9375 12.1231C38.9375 12.4409 38.893 13.0312 38.8485 13.3944ZM37.469 12.6225C37.291 12.6225 37.113 12.3955 37.113 12.1231C37.113 11.8506 37.2465 11.6236 37.469 11.6236C37.647 11.6236 37.825 11.8506 37.825 12.1231C37.825 12.3955 37.6915 12.6225 37.469 12.6225ZM50.4185 10.8517H50.819C50.8635 11.1696 50.8635 11.669 50.8635 12.1231C50.8635 12.5771 50.819 13.0766 50.819 13.3944H50.4185C50.374 13.0312 50.374 12.4409 50.374 12.1231C50.374 11.8052 50.4185 11.215 50.4185 10.8517ZM51.798 11.6236C51.976 11.6236 52.154 11.8506 52.154 12.1231C52.154 12.3955 52.0205 12.6225 51.798 12.6225C51.62 12.6225 51.442 12.3955 51.442 12.1231C51.4865 11.8506 51.62 11.6236 51.798 11.6236ZM66.7055 57.5279L64.08 50.2177C65.504 49.0826 66.4385 47.7659 66.928 47.0394L67.195 46.6761L66.75 46.6307C66.7055 46.6307 65.8155 46.4945 64.4805 46.6307C66.038 44.9053 66.928 42.9529 67.0615 40.9551L67.106 40.3195L66.6165 40.7281C66.6165 40.7281 66.127 41.0913 65.148 41.4092C66.7945 38.8665 67.462 36.233 67.1505 33.4179L67.0615 32.6915L66.6165 33.2817C66.6165 33.2817 66.0825 34.0082 65.326 34.9163C66.038 32.8731 66.8835 28.7412 64.169 25.7899L63.991 25.5629L63.7685 25.7445C63.7685 25.7445 63.4125 26.1078 62.9675 26.8796C62.6115 26.244 62.211 25.7899 61.8995 25.4267C61.8105 25.3359 61.766 25.2451 61.7215 25.1997C61.6325 25.0634 61.5435 24.9726 61.41 24.8364C61.0985 24.4732 60.787 24.1099 60.698 23.7921L60.52 23.2927L60.2085 23.7467C60.164 23.7921 59.719 24.3824 59.541 25.9715C58.918 25.1997 58.1615 24.5186 57.405 23.8375L60.2975 19.6149L60.075 19.4332C56.2925 16.709 51.7535 15.0744 46.903 14.6657C47.0365 13.5306 47.17 13.122 47.259 12.9858C48.594 12.9404 49.484 12.895 49.929 12.8496C49.9735 13.2582 49.9735 13.6214 49.9735 13.6668V13.9393H51.3975L51.442 13.6668C51.442 13.6668 51.4865 13.3944 51.4865 13.0766C51.62 13.122 51.709 13.1674 51.8425 13.1674C52.332 13.1674 52.7325 12.6679 52.7325 12.0777C52.7325 11.4874 52.332 10.988 51.8425 10.988C51.709 10.988 51.5755 11.0334 51.4865 11.0788C51.4865 10.7609 51.442 10.4885 51.442 10.4885L51.3975 10.2161H49.9735V10.4885C49.9735 10.5339 49.929 10.8971 49.929 11.3058C49.4395 11.2604 48.327 11.215 46.7695 11.1696C46.6805 10.988 46.547 10.2615 46.547 8.17285V3.13292C46.725 3.13292 46.8585 3.08751 46.8585 3.08751H47.1255V1.63456L46.8585 1.58915C46.814 1.58915 46.3245 1.54375 45.746 1.49834C45.835 1.36213 45.835 1.22592 45.835 1.0897C45.835 0.544843 45.3455 0.1362 44.767 0.1362C44.1885 0.1362 43.699 0.590248 43.699 1.0897C43.699 1.22592 43.7435 1.36213 43.788 1.49834C43.165 1.54375 42.6755 1.58915 42.6755 1.58915L42.4085 1.63456V3.08751H42.6755C42.6755 3.08751 42.809 3.08751 42.987 3.13292V8.17285C42.987 10.3069 42.809 10.988 42.7645 11.1696C41.207 11.215 40.0945 11.2604 39.605 11.3058C39.5605 10.8971 39.5605 10.5339 39.5605 10.4885V10.2161H38.1365L38.092 10.4885C38.092 10.4885 38.0475 10.7609 38.0475 11.0788C37.914 11.0334 37.825 10.988 37.6915 10.988C37.202 10.988 36.8015 11.4874 36.8015 12.0777C36.8015 12.6679 37.202 13.1674 37.6915 13.1674C37.825 13.1674 37.9585 13.122 38.0475 13.0766C38.0475 13.3944 38.092 13.6668 38.092 13.6668L38.1365 13.9393H39.5605V13.6668C39.5605 13.6214 39.605 13.2582 39.605 12.8496C40.05 12.895 40.94 12.9404 42.275 12.9858C42.364 13.122 42.4975 13.5306 42.631 14.6657C37.736 15.0744 33.197 16.7544 29.4145 19.5241L29.0585 19.7057L31.9065 23.8375C31.15 24.4732 30.438 25.1997 29.815 25.9261C29.5925 24.337 29.1475 23.7467 29.1475 23.7013L28.836 23.2473L28.658 23.7467C28.569 24.0645 28.2575 24.4278 27.946 24.791C27.857 24.9272 27.768 25.018 27.6345 25.1543C27.59 25.1997 27.501 25.2905 27.4565 25.3813C27.1895 25.6991 26.789 26.1986 26.3885 26.8342C25.9435 26.0624 25.5875 25.6991 25.5875 25.6991L25.365 25.5175L25.187 25.7445C22.3835 28.7412 23.2735 32.8731 23.9855 34.9163C23.1845 34.0082 22.695 33.2817 22.695 33.2817L22.25 32.6915L22.161 33.4179C21.8495 36.233 22.4725 38.8665 24.1635 41.4092C23.1845 41.0913 22.695 40.7281 22.695 40.7281L22.2055 40.3195L22.25 40.9551C22.3835 42.9075 23.2735 44.8599 24.831 46.6307C23.496 46.4945 22.6505 46.6307 22.5615 46.6307L22.1165 46.6761L22.3835 47.0394C22.873 47.7659 23.8075 49.0826 25.2315 50.2177L22.606 57.5279H20.292V59.1171H21.2265C22.9175 60.2522 26.255 62.1138 30.438 62.1138C34.621 62.1138 37.9585 60.2522 39.6495 59.1171H40.584V57.5279H38.3145L37.7805 56.0295C39.427 56.4382 41.118 56.7106 42.809 56.8468L42.987 62.25L44.6335 64.7473L46.28 62.25L46.458 56.8468C48.1935 56.756 49.8845 56.4836 51.4865 56.0295L50.9525 57.5279H48.683V59.1171H49.6175C51.3085 60.2522 54.646 62.1138 58.829 62.1138C63.012 62.1138 66.3495 60.2522 68.0405 59.1171H68.975V57.5279H66.7055ZM59.096 44.6329C59.0515 44.6329 58.9625 44.6783 58.829 44.6329C58.74 44.5875 58.6955 44.4513 58.6955 44.4967C58.6955 44.4967 58.74 44.7237 58.6955 44.7691C58.651 44.9508 58.6065 45.0416 58.384 45.087C58.473 45.2686 58.473 45.4048 58.4285 45.4956C58.7845 45.1324 59.096 44.7691 59.096 44.6329ZM30.8385 31.2385C30.527 32.0104 31.239 32.419 31.2835 33.1455C31.4615 33.2363 31.3725 33.0093 31.506 33.0547C31.5505 33.2363 31.684 33.3271 31.684 33.5541C31.773 33.645 32.04 33.5541 32.129 33.6904C32.129 33.9628 32.04 34.099 32.129 34.326C32.2625 34.4168 32.485 34.4168 32.663 34.4622C32.663 34.5985 32.752 34.6893 32.7965 34.8255C32.663 35.0979 32.574 35.4157 32.396 35.6428C32.574 36.0514 32.3515 36.6417 32.4405 37.0957C32.5295 37.6406 33.108 38.0946 33.108 38.8665C33.8645 39.0935 33.8645 40.1833 34.265 40.7735C34.2205 41.727 34.7545 42.2265 34.621 43.18C34.888 43.634 34.9325 44.2697 35.333 44.5875C35.778 44.9508 36.668 46.0405 36.49 45.6318C36.401 45.4956 35.867 44.2243 35.9115 43.407C35.9115 42.9075 36.223 42.3627 36.4455 41.8178C36.8015 40.8643 36.5345 40.3195 37.291 40.047C37.291 40.047 37.4245 40.047 37.4245 40.0016C37.4245 39.9562 37.38 39.9562 37.38 39.9108C36.9795 38.8665 37.9585 38.0946 37.825 37.3227C37.736 36.8687 37.38 36.3692 37.291 36.2784C37.202 36.1876 36.935 36.2784 36.5345 36.233C36.2675 35.7336 35.6445 35.5974 35.6445 34.8255C35.422 34.6439 35.066 34.5985 35.066 34.1898C34.6655 34.2806 34.5765 33.7812 34.265 33.645C34.0425 33.6904 33.909 33.8266 33.7755 33.9628C33.464 33.7812 33.1525 33.9174 32.841 34.099C32.663 34.0536 32.574 33.9628 32.4405 33.872C32.4405 33.4179 32.574 33.0547 32.307 32.7823C32.396 32.419 32.574 32.1012 32.307 31.8742C32.04 31.8288 32.129 32.192 31.8175 32.0558C31.595 31.5109 32.3515 31.1023 32.307 30.4666C32.6185 30.3758 32.9745 30.4212 33.286 30.3304C33.464 30.4212 33.464 30.9207 33.286 31.0115C33.3305 31.1023 33.375 31.1477 33.464 31.1477C33.7755 30.9207 33.642 30.5574 33.731 30.1942C33.8645 29.8764 34.3095 29.6039 34.532 29.2407C34.621 29.1499 34.5765 28.9683 34.621 28.8775C34.6655 28.832 34.799 28.832 34.888 28.7412C34.9325 28.6958 34.9325 28.5142 34.977 28.5142C35.1995 28.3326 35.6445 28.1964 35.956 28.0148C36.134 27.924 36.2675 27.7877 36.579 27.7423C36.757 27.4245 36.668 26.8342 37.113 26.7888C37.0685 27.0159 37.113 27.1067 37.0685 27.3337C37.6915 27.1521 37.38 26.3348 37.8695 26.0169C37.736 25.4267 38.1365 25.2451 38.359 24.8818C38.181 24.7456 37.6915 24.7456 37.914 24.3824C38.181 24.2916 38.092 24.564 38.27 24.564C38.5815 24.5186 38.5815 24.1554 38.804 24.0191C38.982 23.9737 38.9375 24.2008 39.071 24.1554C39.16 23.8829 39.1155 23.4743 39.249 23.2018C38.6705 23.111 38.715 24.0645 38.003 24.0191C37.1575 24.564 36.935 25.7899 36.1785 26.4256C36.134 26.0624 35.9115 25.6537 35.956 25.3813C35.956 25.1997 36.223 24.7456 36.401 24.6094C36.5345 24.4732 36.8015 24.5186 36.935 24.4278C37.202 24.2462 37.291 23.9737 37.5135 23.8829C38.4035 23.9283 38.6705 23.3381 39.1155 22.7478C38.804 22.5208 38.4925 22.7932 38.2255 22.9294C38.27 22.7932 38.1365 22.8386 38.092 22.7932C37.914 22.657 38.27 22.5208 38.1365 22.3846C37.914 22.7478 37.38 22.7024 37.0685 22.9748C36.9795 23.1564 37.1575 23.5197 36.846 23.5197C36.7125 23.3835 36.935 23.2927 36.9795 23.1564C36.6235 22.8386 36.223 22.8386 35.8225 23.111C35.8225 22.9294 36.045 22.9748 36.0005 22.7478C35.867 22.7024 35.7335 22.657 35.6445 22.5662C35.3775 22.7024 35.155 23.0202 34.8435 22.9294C34.8435 22.884 34.621 22.7932 34.4875 22.7024C34.3985 22.7478 34.3095 22.7932 34.2205 22.8386C34.176 23.0656 34.087 23.3835 34.1315 23.5651C33.286 23.5197 33.197 24.2462 32.485 24.337C32.7075 24.7456 33.3305 23.9737 33.6865 24.337C33.1525 25.1089 32.7965 26.0624 31.9955 26.5618C31.8175 27.2883 31.239 27.6515 30.8385 28.151C30.7495 28.9683 30.616 29.5131 30.349 30.058C30.5715 30.6482 30.616 31.0569 30.8385 31.2385ZM56.871 46.3129C56.9155 46.3583 57.0935 46.4491 57.227 46.4037C57.494 46.3583 57.6275 46.1313 57.8055 45.9497C57.85 45.9043 58.028 45.9043 58.0725 45.8589C58.117 45.8134 58.0725 45.8134 58.117 45.768C58.206 45.6772 58.2505 45.7226 58.206 45.4956C57.7165 45.7226 57.2715 45.9951 56.871 46.3129ZM47.17 27.7877C47.3925 27.7877 47.348 28.0602 47.5705 28.151C47.7485 28.151 47.7485 27.924 48.0155 27.9694C48.1045 28.1964 48.1935 28.4688 48.505 28.5142C48.505 28.6958 48.416 28.7412 48.3715 28.8775C47.9265 28.605 47.526 28.9229 47.1255 28.832C47.348 28.5596 47.081 28.0602 47.17 27.7877ZM49.662 27.8785C49.751 28.0148 49.662 28.378 49.751 28.5142C49.751 28.6958 50.0625 28.5596 50.1515 28.6504C50.1515 28.9229 50.196 29.2407 50.196 29.6493C49.751 29.7401 49.5285 29.4677 49.395 29.0591C49.0835 28.378 48.861 27.6061 49.662 27.8785ZM42.72 27.2883C42.72 27.5153 43.076 27.4245 43.165 27.5607C43.2095 27.924 43.0315 28.0148 42.8535 28.151C42.6755 28.1056 42.4975 28.0602 42.3195 27.9694C41.9635 28.2872 41.919 28.9683 42.275 29.2861C42.4975 29.1953 42.987 29.1045 43.165 29.2407C43.254 29.1045 43.254 28.9229 43.254 28.7412C43.7435 28.605 44.055 27.9694 44.589 28.0148C44.9895 28.0602 45.2565 28.4688 45.5235 28.7866C45.568 28.9683 45.4345 29.0137 45.479 29.1953C45.657 29.1499 45.746 28.9683 45.835 28.832C45.746 28.4234 45.4345 28.2418 45.301 27.8331C45.568 27.924 45.7015 28.1056 45.9685 28.0602C45.835 28.7866 46.547 28.7866 46.5025 29.2407C46.7695 29.1499 46.636 28.605 47.081 28.6958C47.081 29.0591 47.2145 29.2861 47.437 29.4223C47.704 29.4223 47.704 29.1953 48.0155 29.2407C48.1935 29.4223 48.06 29.8764 48.1045 30.2396C47.9265 30.512 47.615 30.285 47.437 30.5574C47.17 30.5574 47.1255 30.3304 46.903 30.2396C46.191 30.6936 45.835 29.9672 45.0785 29.9218C44.945 29.7401 44.9895 29.4677 44.8115 29.3769C44.4555 29.4223 44.0995 29.5585 43.8325 29.3315C43.4765 29.5585 42.8535 29.6493 42.4085 29.5585C41.7855 29.8764 41.6965 30.6936 40.9845 30.8753C40.851 31.6471 39.783 32.8731 40.3615 33.6904C40.495 33.872 40.673 33.9174 40.762 34.1444C40.851 34.3714 40.7175 34.5985 40.8955 34.8255C41.474 35.2341 42.72 35.3703 43.3875 34.9163C43.9215 35.0979 44.322 35.0071 44.945 35.0979C44.9005 35.3249 45.034 35.4157 45.0785 35.5974C44.9895 35.779 44.856 35.9152 44.856 36.0968C44.767 36.7779 45.5235 37.0049 45.568 37.8222C45.6125 38.5033 45.1675 39.2298 45.1675 39.6838C45.1675 39.8654 45.3455 40.047 45.3455 40.2741C45.39 40.7735 45.123 41.4546 45.568 41.7724C45.6125 42.1811 45.7015 42.4535 45.924 42.7259C46.3245 42.4535 46.725 42.5443 47.081 42.3627C47.7485 42.0903 47.882 41.273 48.3715 40.8189C48.238 39.593 49.484 39.2297 49.395 38.1854C49.395 37.9584 49.217 37.8222 49.1725 37.5498C49.662 36.3692 50.5075 35.552 50.9525 34.3714C50.73 34.1444 50.3295 34.4168 49.929 34.326C49.0835 33.5996 48.7275 32.3282 48.2825 31.1931C48.683 31.1931 48.8165 31.738 48.772 32.0104C49.0835 32.6006 49.5285 33.1001 49.751 33.8266C50.3295 33.6904 51.3975 33.3271 51.4865 32.7369C51.4865 32.646 51.4865 32.2374 51.442 32.1466C51.3975 31.965 51.264 31.8742 51.086 31.6926C50.997 31.8288 50.9525 31.965 50.7745 31.965C50.463 31.6926 50.107 31.2839 50.196 30.7845C50.641 30.6936 50.552 31.1931 50.73 31.3747C50.9525 31.4201 50.9525 31.1931 51.2195 31.2385C51.3085 31.4201 51.3975 31.5563 51.442 31.738C52.0205 31.3747 52.599 31.6471 52.599 32.3736C52.6435 32.4644 52.7325 32.5552 52.9105 32.5552C53.1775 33.4179 53.6225 34.0536 54.023 34.7801C54.201 34.6439 54.1565 34.326 54.29 34.1898C53.8895 33.5087 54.5125 32.8731 54.8685 32.419C55.1355 32.5552 55.18 32.9639 55.536 33.0093C55.536 33.1001 55.536 33.1909 55.4915 33.2363C55.5805 33.3271 55.714 33.3725 55.892 33.3725C55.981 33.872 55.981 34.4622 56.337 34.6893C56.2925 35.0979 56.3815 35.3703 56.426 35.779C56.2925 35.779 56.2925 35.6882 56.159 35.6882C56.3815 36.4146 56.4705 37.2319 56.9155 37.686C57.0935 36.9141 56.6485 36.5055 56.4705 35.8698C56.7375 35.9606 56.693 35.4612 56.6485 35.3249C56.604 34.9163 56.07 34.3714 56.248 34.0082C56.515 34.0082 56.3815 34.4622 56.5595 34.5531C57.5385 34.1444 56.5595 33.1909 56.2035 32.7369C56.2925 32.2374 57.0045 32.3736 57.1825 31.965C57.138 31.5109 57.049 31.4655 57.1825 31.1023C57.138 30.9207 56.96 30.8753 56.871 30.6936C57.0045 29.831 56.4705 29.3769 56.248 29.0137C56.693 28.7866 56.6485 29.5585 57.0045 29.6947C57.227 29.5131 57.0045 29.0137 56.782 29.0137C56.7375 28.378 56.2925 27.4699 56.159 26.6072C55.7585 26.5164 55.4915 26.2894 55.358 25.9715C54.7795 26.0624 54.735 25.5629 54.4235 25.3359C54.379 25.1543 54.468 24.791 54.379 24.564C54.7795 24.7002 54.9575 25.1089 55.091 25.5175C55.536 25.8353 56.1145 26.1078 56.515 26.471C56.4705 26.2894 56.2035 25.9261 56.07 25.6537C55.5805 25.6083 55.5805 24.9726 55.002 25.018C54.8685 24.791 55.18 24.337 54.913 23.9737C54.646 23.6105 54.9575 23.2473 54.913 23.0656C54.8685 22.7478 54.379 22.7932 53.9785 22.4754C53.845 22.3846 52.955 22.3846 52.9995 22.43C52.777 22.3846 52.688 22.7478 52.5545 22.7478C52.4655 22.657 52.421 22.5208 52.2875 22.4754C51.976 22.5662 51.8425 22.8386 51.6645 23.0656C51.2195 22.7478 50.73 22.8386 50.552 23.2927C50.018 23.2927 49.573 22.7932 49.128 23.1564C48.95 22.8386 48.5495 22.5208 48.1935 22.7478C48.1935 22.9748 48.2825 23.111 48.238 23.3381C48.149 23.4289 48.0155 23.4743 47.8375 23.4289C47.793 23.6559 47.793 23.9283 47.615 23.9737C47.526 23.8829 47.526 23.9283 47.5705 23.7921C47.4815 23.7467 47.3035 23.8375 47.17 23.7467C47.081 23.5651 47.3925 23.7467 47.3035 23.5651C47.259 23.4743 47.081 23.4289 46.992 23.5197C47.17 24.0645 46.5915 24.3824 46.4135 24.8364C46.28 24.564 46.5025 24.337 46.5915 24.1554C46.369 23.8375 45.746 24.1099 45.5235 23.7013C44.411 23.6105 44.678 24.9272 43.966 25.2905C44.055 25.3813 43.966 25.6083 44.055 25.6991C44.322 25.6991 44.411 25.5175 44.678 25.5175C44.8115 25.6537 44.767 25.9715 44.9005 26.0624C44.9895 26.0169 45.0785 25.9261 45.301 25.9715C45.212 25.7445 45.123 25.4721 44.9895 25.2905C45.1675 25.1543 45.1675 24.8364 45.39 24.7456C45.7905 25.1997 45.8795 26.5164 44.945 26.6072C44.8115 26.3802 44.678 26.3802 44.4555 26.1532C44.411 26.2894 44.3665 26.471 44.2775 26.6072C43.9215 26.698 43.5655 26.8342 43.432 27.1521C43.165 26.8342 43.0315 27.2429 42.72 27.2883ZM57.3605 44.7237C57.227 44.7691 57.1825 44.6783 57.049 44.6783C57.0045 44.9054 56.7375 44.9054 56.7375 45.2232C57.138 45.2232 57.138 44.9054 57.3605 44.7237ZM29.0585 40.8643V40.6827C28.925 40.7281 28.8805 40.5465 28.836 40.7281C28.925 40.7735 28.8805 40.9097 29.0585 40.8643ZM50.73 40.0924C50.73 40.1833 50.6855 40.1833 50.6855 40.2741C50.819 40.2741 50.908 40.2741 50.8635 40.1378C50.819 40.1378 50.819 40.047 50.73 40.0924ZM56.604 41.0913C56.426 41.4092 56.159 41.9994 56.1145 42.2719C56.0255 42.7713 55.981 42.4989 55.981 43.0438C56.4705 43.2708 56.4705 42.8621 57.049 42.9529C57.5385 43.2708 57.405 43.861 57.2715 44.3605C57.8945 44.2697 58.117 43.8156 58.473 43.5432C58.9625 43.0438 59.808 41.8178 59.452 40.7281C59.7635 40.1833 59.7635 39.2298 59.5855 39.2298C59.5855 39.2298 59.3185 40.047 59.1405 40.2741C59.1405 40.2741 58.9625 40.0016 58.74 40.0016C58.829 39.6838 59.096 39.593 58.918 39.1843C58.7845 39.1843 58.6955 39.2298 58.562 39.2298C58.206 39.9108 58.117 39.6838 57.672 39.8654C57.672 40.5011 57.0045 40.7281 56.604 41.0913ZM50.73 39.366C50.5965 39.1389 50.7745 38.6395 50.5075 38.6395C50.374 39.1389 49.929 39.366 49.5285 39.6384C49.484 40.2741 49.306 40.8189 49.5285 41.3638C50.018 40.9551 50.285 40.3195 50.374 39.5476C50.5075 39.4568 50.6855 39.5022 50.73 39.366ZM60.8315 38.5941C60.698 38.5941 60.7425 38.6849 60.609 38.6395C60.698 38.8665 60.6535 39.0027 60.609 39.2298C60.8315 39.0935 60.698 38.8665 60.8315 38.5941ZM57.85 38.5941V38.7757C57.9835 38.8211 58.6065 38.8665 58.473 38.5941C58.295 38.6849 58.028 38.5487 57.85 38.5941ZM58.117 38.5033C58.2505 38.5487 58.295 38.4125 58.4285 38.4125C58.4285 38.2762 58.295 38.2762 58.2505 38.1854C58.1615 38.2308 58.0725 38.3217 58.117 38.5033ZM57.672 38.5033C57.405 38.2762 57.138 37.686 56.693 37.913C56.782 38.3671 57.227 38.5487 57.672 38.5033ZM58.7845 37.8222C58.74 37.7768 58.6955 37.7314 58.6065 37.7314C58.4285 37.8676 58.829 38.0946 58.7845 37.8222ZM59.9415 38.0038C60.0305 38.0492 60.1195 38.0946 60.2085 38.0946C60.1195 37.8676 60.253 37.6406 60.253 37.1865C60.164 37.1865 60.1195 37.0957 60.0305 37.0957C59.9415 37.5498 60.1195 37.686 59.9415 38.0038ZM59.185 38.7757C59.452 38.7757 59.363 38.4125 59.6745 38.4125C59.8525 38.5033 59.7635 38.9119 59.986 38.9573C60.1195 38.4579 59.719 37.9584 59.808 37.2319C59.4965 37.1865 59.274 37.1411 59.0515 36.9141C59.096 37.5952 59.4075 38.14 59.185 38.7757ZM59.986 36.9595C59.9415 36.7779 59.8525 36.5963 59.719 36.5055C59.7635 36.7779 59.7635 36.9141 59.986 36.9595ZM58.7845 37.1865C58.74 36.8687 58.918 36.6417 58.651 36.4146C58.5175 36.6871 58.6065 36.8687 58.562 37.1411C58.651 37.0957 58.651 37.2319 58.7845 37.1865ZM58.1615 36.3238C57.761 36.5963 57.761 37.2319 57.672 37.8676C57.8945 37.913 57.9835 37.7768 58.117 37.7314C58.028 37.0957 58.1615 36.9595 58.2505 36.4146C58.2505 36.3692 58.206 36.3238 58.1615 36.3238ZM57.4495 37.3682C57.5385 37.3682 57.5385 37.3227 57.6275 37.3227C57.494 36.7325 58.0725 36.2784 57.8055 35.5974H57.672C57.6275 35.9152 57.227 35.9152 57.138 36.2784C57.0935 36.6417 57.2715 37.0957 57.4495 37.3682ZM54.201 34.6439C54.2455 34.8709 53.9785 35.1433 54.201 35.2341C54.3345 35.1433 54.379 35.0071 54.4235 34.8255C54.3345 34.8709 54.379 34.6439 54.201 34.6439ZM58.117 35.4157C58.4285 35.4157 58.5175 34.7801 58.295 34.5985C58.206 34.7801 57.939 35.0071 58.117 35.4157ZM57.6275 33.1909C57.672 33.645 57.85 34.099 58.117 34.4622C58.1615 34.099 58.206 33.1455 57.6275 33.1909ZM56.426 32.9639H56.693C56.7375 32.6915 56.604 32.6006 56.426 32.6006C56.337 32.6915 56.426 32.8277 56.426 32.9639ZM33.5085 32.6006C33.464 32.7823 33.5975 32.8277 33.731 32.7823C33.731 32.646 33.642 32.6006 33.5085 32.6006ZM33.9535 32.7823C34.176 32.8731 34.2205 32.6915 34.4875 32.6915C34.4875 32.419 34.2205 32.3282 33.998 32.4644C33.731 32.3282 33.642 32.0558 33.464 31.8288C33.286 31.8288 33.108 31.8288 32.9745 31.9196C33.2415 31.965 33.464 32.1012 33.553 32.4644C33.6865 32.419 33.82 32.3736 33.909 32.5098C33.8645 32.6006 33.8645 32.7369 33.9535 32.7823ZM57.5385 32.419C57.6275 32.192 57.494 32.0558 57.6275 31.738C57.494 31.7834 57.5385 31.6471 57.4495 31.6471C57.405 31.7834 57.3605 32.0104 57.316 32.1466C57.405 32.192 57.405 32.3736 57.5385 32.419ZM47.7485 29.6947C47.793 29.5131 47.5705 29.5131 47.526 29.6039C47.526 29.7855 47.6595 29.7401 47.7485 29.6947ZM47.081 29.5131C46.903 29.5585 46.7695 29.3769 46.636 29.5131C46.725 29.5585 47.0365 29.6947 47.081 29.5131ZM57.8055 30.6028C57.85 30.3304 57.672 30.285 57.672 30.058C58.028 29.7401 57.761 29.1499 57.494 28.9229C57.8055 29.4677 56.871 30.4212 57.8055 30.6028ZM57.227 28.378C57.0045 28.2418 57.2715 27.924 57.0935 27.7877C57.0935 27.924 56.782 27.7423 56.7375 27.8785C56.9155 27.9694 56.96 28.4688 57.227 28.378ZM42.4975 26.2894H42.275C42.2305 26.3802 42.186 26.5618 42.275 26.6526H42.453C42.4085 26.4256 42.631 26.4256 42.4975 26.2894ZM43.0315 25.9715C42.987 25.8353 43.2095 25.6083 42.987 25.5629C42.4085 25.8807 43.2095 26.4256 42.898 26.8796C43.1205 26.8342 43.2985 26.7434 43.4765 26.698C43.4765 26.2894 43.076 26.2894 43.0315 25.9715ZM41.919 24.1554C41.83 24.2462 41.741 24.337 41.7855 24.564C42.097 24.6094 42.453 24.6094 42.453 24.2008C42.2305 24.0191 42.097 24.337 41.919 24.1554ZM47.0365 23.2473C47.0365 23.0656 46.992 23.0202 46.8585 23.0202C46.8585 23.111 46.903 23.2473 47.0365 23.2473ZM50.107 23.0656C50.285 23.111 50.3295 23.0202 50.5075 23.0202V22.8386C50.374 22.8386 50.3295 22.9294 50.1515 22.884C50.196 22.9748 50.107 22.9748 50.107 23.0656ZM39.872 22.5662C39.6495 22.3846 39.427 22.5208 39.4715 22.8386C39.7385 22.884 39.7385 22.657 39.872 22.5662ZM49.662 22.7478C49.9735 22.7932 50.1515 22.657 50.2405 22.4754C50.0625 22.3846 49.7955 22.5662 49.6175 22.5208C49.573 22.657 49.662 22.657 49.662 22.7478ZM38.893 22.3392C38.715 22.3846 38.6705 22.5208 38.5815 22.7024C38.7595 22.6116 38.893 22.5208 38.893 22.3392ZM38.715 22.2029C38.715 22.1121 38.6705 22.0667 38.626 22.0667C38.626 22.1575 38.448 22.1121 38.448 22.2029C38.4925 22.2938 38.626 22.2938 38.715 22.2029ZM40.1835 21.9305C40.05 21.8851 39.783 22.1121 39.783 22.3846C40.05 22.3392 40.1835 22.2029 40.1835 21.9305ZM39.0265 22.7478C39.2045 22.7478 39.249 22.657 39.3825 22.6116C39.427 22.4754 39.2935 22.5208 39.2935 22.43C39.5605 22.3392 39.6495 22.0667 39.8275 21.8851C39.4715 21.9305 39.338 22.2029 39.1155 22.3846C39.249 22.4754 39.0265 22.657 39.0265 22.7478ZM39.249 21.8851C39.071 21.8851 38.982 22.0213 38.893 22.1121C38.982 22.1121 38.982 22.2029 39.0265 22.2029C39.071 22.0667 39.338 22.0213 39.249 21.8851ZM41.7855 22.0667C41.2515 22.2029 40.584 22.1575 40.584 22.7932C40.7175 22.7932 40.851 22.657 40.94 22.7478C40.762 23.2018 40.317 23.3835 40.0055 23.7467C39.961 24.337 39.338 24.6094 39.516 25.2905C39.9165 25.1997 40.05 24.791 40.5395 24.7456C40.673 23.8829 41.9635 24.2008 42.3195 23.5651C42.3195 23.4289 42.097 23.6105 42.186 23.4289C42.364 23.4289 42.364 23.2927 42.5865 23.3381C42.7645 22.8386 43.254 22.6116 43.343 22.0667H42.987C42.987 21.9305 43.2095 22.0213 43.165 21.8397C42.72 21.6581 42.0525 21.7489 41.7855 22.0667ZM40.4505 22.5208C40.8065 22.0667 41.652 22.1121 41.9635 21.5673C41.1625 21.7035 40.6285 22.0213 40.139 22.43C40.1835 22.5208 40.317 22.5208 40.4505 22.5208ZM56.693 19.2062C56.159 18.8884 55.5805 19.2516 55.18 19.9327C54.6905 20.75 54.913 21.2494 55.358 21.5219C55.803 21.7943 56.426 21.6581 56.9155 20.7954C57.2715 20.0689 57.1825 19.4787 56.693 19.2062ZM56.8265 18.9792C57.6275 19.4332 57.9835 20.2959 57.494 21.204C57.049 21.9759 56.1145 22.2483 55.269 21.7489C54.468 21.2948 54.0675 20.4776 54.6015 19.5241C55.0465 18.7522 55.9365 18.4797 56.8265 18.9792ZM53.5335 17.7079C53.489 17.6625 53.4 17.6625 53.3555 17.6625C53.222 18.0711 53.044 18.4343 52.9105 18.843C53.1775 18.9338 53.5335 19.0246 53.756 18.4797C53.934 18.0257 53.756 17.7987 53.5335 17.7079ZM52.421 18.2981C52.599 17.8441 52.7325 17.5262 52.8215 17.1176C52.9105 17.163 52.9995 17.2084 53.133 17.2538C53.311 17.3446 53.5335 17.39 53.756 17.4808C54.1565 17.6171 54.3345 17.7987 54.379 17.9349C54.5125 18.1619 54.5125 18.3435 54.4235 18.616C54.201 19.2516 53.6225 19.3424 53.044 19.07L52.8215 18.9792C52.6435 19.3878 52.51 19.7965 52.3765 20.2505C52.2875 20.2051 52.1985 20.1597 52.065 20.1143C51.9315 20.0689 51.798 20.0235 51.709 20.0235C51.887 19.6603 52.0205 19.3424 52.1985 18.8884L52.421 18.2981ZM51.3975 19.3424C51.3085 19.4332 51.264 19.5695 51.2195 19.7057C50.9525 19.7511 50.641 19.7511 50.3295 19.6603C49.3505 19.3878 48.9055 18.616 49.128 17.7987C49.4395 16.6182 50.3295 16.3457 51.2195 16.5727C51.531 16.6636 51.887 16.8452 52.0205 17.0268C51.9315 17.163 51.8425 17.2992 51.798 17.4354H51.7535C51.62 17.1176 51.3975 16.936 51.1305 16.8452C50.6855 16.709 50.0625 16.9814 49.84 17.9349C49.6175 18.843 50.0625 19.297 50.552 19.4332C50.819 19.5241 51.175 19.4333 51.3975 19.297V19.3424ZM47.8375 17.2084C47.9265 16.709 47.9265 16.3911 47.971 15.9825C48.06 16.0279 48.1935 16.0279 48.327 16.0733C48.4605 16.0733 48.594 16.1187 48.683 16.1187C48.594 16.4819 48.5495 16.8452 48.4605 17.3446L48.3715 17.9349C48.2825 18.4343 48.238 18.7522 48.238 19.1608C48.149 19.1154 48.0155 19.1154 47.882 19.07C47.7485 19.07 47.615 19.0246 47.526 19.0246C47.615 18.6614 47.6595 18.2981 47.7485 17.7987L47.8375 17.2084ZM41.7855 18.4797C41.741 18.616 41.741 18.7522 41.741 18.8884C41.5185 19.07 41.2515 19.1608 40.8955 19.2516C39.9165 19.4333 39.2045 18.9338 39.0265 18.0711C38.804 16.8452 39.516 16.2549 40.406 16.0733C40.7175 16.0279 41.118 16.0279 41.3405 16.1187C41.296 16.2549 41.296 16.4365 41.3405 16.5727H41.296C41.029 16.3457 40.8065 16.2549 40.495 16.3457C40.05 16.4365 39.605 16.936 39.7385 17.8895C39.9165 18.7976 40.495 19.07 40.9845 18.9338C41.2515 18.8884 41.563 18.7068 41.6965 18.4343L41.7855 18.4797ZM37.1575 17.2084C37.0685 17.2084 37.024 17.2538 36.9795 17.2538C37.113 17.6625 37.202 18.0711 37.3355 18.4343C37.6025 18.3435 37.9585 18.1619 37.7805 17.6171C37.647 17.2084 37.38 17.1176 37.1575 17.2084ZM36.6235 18.3889C36.49 17.9349 36.3565 17.5717 36.223 17.2084C36.312 17.2084 36.4455 17.163 36.579 17.1176C36.757 17.0722 36.9795 16.9814 37.202 16.8906C37.6025 16.7544 37.825 16.7544 37.9585 16.8452C38.181 16.936 38.3145 17.0722 38.4035 17.3446C38.626 17.9803 38.2255 18.3889 37.6025 18.616L37.38 18.7068C37.5135 19.1154 37.647 19.5695 37.825 19.9781C37.736 19.9781 37.6025 20.0235 37.469 20.0689C37.3355 20.1143 37.202 20.1597 37.113 20.2051C37.024 19.8419 36.935 19.4787 36.757 19.0246L36.6235 18.3889ZM35.1995 19.0246C35.0215 18.5706 34.8435 18.2527 34.71 17.8895C34.799 17.8441 34.9325 17.8441 35.066 17.7533C35.1995 17.7079 35.2885 17.6171 35.3775 17.5717C35.511 17.9349 35.6445 18.2527 35.8225 18.7068L36.045 19.2516C36.223 19.7057 36.3565 20.0235 36.5345 20.3868C36.4455 20.4322 36.312 20.4322 36.1785 20.523C36.045 20.5684 35.956 20.6592 35.867 20.7046C35.7335 20.3413 35.6 20.0235 35.422 19.5695L35.1995 19.0246ZM32.485 19.2516C31.951 19.5695 31.951 20.2505 32.3515 20.9316C32.841 21.7489 33.375 21.7943 33.7755 21.5673C34.2205 21.2948 34.3985 20.6592 33.909 19.8419C33.553 19.1608 32.9745 18.9792 32.485 19.2516ZM32.3515 19.0246C33.1525 18.5252 34.0425 18.616 34.5765 19.5241C35.0215 20.2959 34.7545 21.2494 33.9535 21.7489C33.1525 22.2483 32.2625 22.2029 31.7285 21.2494C31.2835 20.523 31.506 19.5695 32.3515 19.0246ZM54.6015 51.6253C54.379 51.1258 54.201 50.808 53.9785 50.4447C54.0675 50.3993 54.201 50.3539 54.3345 50.3085C54.468 50.2177 54.6015 50.1723 54.6905 50.1269C54.8685 50.5356 55.002 50.8534 55.2245 51.3528L55.4915 51.9431C55.625 52.2609 55.803 52.5788 55.9365 52.8058C56.248 52.6696 56.5595 52.488 56.871 52.2609C56.871 52.3063 56.9155 52.3517 56.96 52.4426C57.0045 52.5334 57.049 52.5788 57.049 52.6242C56.9155 52.715 56.693 52.7604 56.2925 52.9874C55.625 53.3506 55.4915 53.3961 55.4025 53.4415C55.2245 53.0328 55.091 52.715 54.8685 52.2155L54.6015 51.6253ZM51.709 51.5345C51.086 51.7161 50.9525 52.488 51.175 53.2598C51.4865 54.2133 52.0205 54.4404 52.51 54.2587C53.044 54.0771 53.3555 53.4869 53.0885 52.488C52.8215 51.7161 52.2875 51.3528 51.709 51.5345ZM51.6645 51.262C52.599 50.9442 53.5335 51.262 53.845 52.3517C54.112 53.2598 53.6225 54.2133 52.6435 54.5312C51.709 54.849 50.7745 54.5766 50.463 53.4415C50.1515 52.5334 50.5965 51.5799 51.6645 51.262ZM48.3715 52.3971C48.2825 52.3971 48.238 52.4426 48.1935 52.4426C48.238 52.8966 48.327 53.3507 48.3715 53.7593C48.683 53.7139 49.039 53.5777 48.95 52.942C48.861 52.488 48.6385 52.3517 48.3715 52.3971ZM47.615 53.5777C47.526 53.0328 47.4815 52.6696 47.3925 52.2609C47.4815 52.2609 47.615 52.2609 47.793 52.2155C48.0155 52.1701 48.238 52.1247 48.4605 52.0793C48.9055 51.9885 49.128 52.0339 49.306 52.1247C49.5285 52.2609 49.662 52.4426 49.7065 52.715C49.7955 53.4415 49.3505 53.8047 48.683 53.8955L48.4605 53.9409C48.5495 54.395 48.594 54.8944 48.7275 55.3485C48.6385 55.3485 48.505 55.3485 48.327 55.3939C48.1935 55.4393 48.06 55.4393 47.971 55.4847C47.9265 55.076 47.882 54.7128 47.793 54.1679L47.615 53.5777ZM45.123 52.6696C45.123 53.1236 45.123 53.5323 45.1675 53.9863C45.212 53.9863 45.2565 53.9863 45.2565 53.9863C45.657 53.9863 45.8795 53.7139 45.8795 53.3052C45.835 52.715 45.657 52.6696 45.123 52.6696ZM45.212 54.1679L45.1675 54.3496C45.1675 54.8944 45.212 55.2577 45.2565 55.6663C45.1675 55.6663 45.034 55.6663 44.856 55.6663C44.7225 55.6663 44.589 55.7117 44.4555 55.7117C44.4555 55.3031 44.4555 54.9398 44.4555 54.395V53.7593C44.4555 53.2144 44.411 52.8512 44.3665 52.4426C44.4555 52.4426 44.589 52.4426 44.767 52.4426C44.945 52.4426 45.123 52.3971 45.4345 52.3971C45.924 52.3971 46.102 52.3971 46.2355 52.5334C46.4135 52.6696 46.547 52.8512 46.547 53.169C46.547 53.6231 46.3245 53.9409 45.835 54.0771C46.1465 54.622 46.5025 55.1214 46.903 55.6663C46.7695 55.6663 46.636 55.6663 46.5025 55.6663C46.369 55.6663 46.2355 55.7117 46.0575 55.7117L45.212 54.1679ZM41.6965 53.5777C41.741 53.0328 41.741 52.6696 41.7855 52.2609C42.0525 52.3063 42.3195 52.3517 42.631 52.3517C43.076 52.3971 43.4765 52.3971 43.61 52.3971C43.61 52.4426 43.5655 52.488 43.5655 52.5788C43.5655 52.6696 43.5655 52.715 43.5655 52.8058C43.2095 52.7604 42.6755 52.6696 42.4975 52.6696C42.453 53.0328 42.4085 53.3507 42.4085 53.7139C42.809 53.7593 43.1205 53.7593 43.4765 53.7593C43.432 53.8501 43.432 53.8955 43.432 53.9863C43.432 54.0317 43.432 54.0771 43.432 54.1679C43.076 54.1225 42.72 54.0771 42.364 54.0317C42.364 54.2133 42.3195 54.4404 42.3195 54.622C42.3195 54.8036 42.275 55.0306 42.275 55.2122C42.631 55.2577 42.987 55.2577 43.343 55.2577C43.343 55.3031 43.2985 55.3485 43.2985 55.4847C43.2985 55.6209 43.2985 55.6209 43.2985 55.7117C43.1205 55.7117 42.898 55.6663 42.4975 55.6209C41.741 55.5755 41.6075 55.5755 41.5185 55.5755C41.563 55.1668 41.6075 54.8036 41.652 54.2587L41.6965 53.5777ZM39.4715 52.6242C39.516 52.4426 39.5605 52.2609 39.5605 52.2155C39.3825 52.1701 38.982 52.1247 38.715 52.1247C38.7595 52.0793 38.7595 51.9885 38.7595 51.9431C38.7595 51.8523 38.7595 51.8069 38.7595 51.7161C39.16 51.8069 39.3825 51.8523 39.961 51.9885C40.5395 52.1247 40.7175 52.1247 41.118 52.2155C41.0735 52.3063 41.0735 52.3517 41.0735 52.3971C41.0735 52.488 41.0735 52.5334 41.0735 52.6242C40.851 52.5334 40.4505 52.4426 40.2725 52.3971C40.228 52.4426 40.228 52.6242 40.1835 52.8058L39.961 53.9863C39.872 54.5312 39.783 54.8944 39.7385 55.3031C39.6495 55.2577 39.516 55.2122 39.3825 55.2122C39.249 55.1668 39.1155 55.1668 38.982 55.1668C39.071 54.7582 39.16 54.395 39.2935 53.8955L39.4715 52.6242ZM35.511 50.581C35.5555 50.6264 35.6445 50.6718 35.689 50.6718C35.7335 50.7172 35.8225 50.7172 35.9115 50.7172C36.312 51.6707 36.668 52.6242 37.0685 53.5323C37.3355 52.8058 37.736 51.5799 37.7805 51.3982C37.825 51.4436 37.914 51.4891 37.9585 51.4891C38.003 51.5345 38.092 51.5345 38.181 51.5345C37.647 52.8058 37.4245 53.3961 37.024 54.622C36.9795 54.5766 36.935 54.5766 36.846 54.5312C36.8015 54.5312 36.7125 54.4858 36.668 54.4858C36.312 53.5323 35.9115 52.5788 35.511 51.5799C35.3775 51.8977 35.244 52.3063 35.155 52.6242C34.888 53.3507 34.8435 53.5777 34.799 53.7593C34.7545 53.7139 34.6655 53.6685 34.621 53.6685C34.532 53.6231 34.4875 53.6231 34.3985 53.6231C34.4875 53.4869 34.9325 52.3517 35.244 51.4436C35.333 51.035 35.422 50.7626 35.511 50.581ZM33.3305 50.9442C33.553 50.4901 33.731 50.1269 33.909 49.7637C33.998 49.8091 34.087 49.8999 34.2205 49.9453C34.354 50.0361 34.4875 50.0815 34.5765 50.0815C34.354 50.4447 34.176 50.7626 33.9535 51.262L33.642 51.8523C33.4195 52.3063 33.2415 52.6696 33.0635 53.0328C32.9745 52.9874 32.8855 52.8966 32.752 52.8512C32.6185 52.7604 32.485 52.715 32.396 52.715C32.6185 52.3517 32.7965 52.0339 33.019 51.5345L33.3305 50.9442Z" fill="white"/>
<path d="M0.444602 74.0552C0.444602 72.3299 0.355602 70.6045 0.266602 68.9245C0.578102 68.9699 0.889602 69.0153 1.2011 69.0153C1.5126 69.0153 1.8241 68.9699 2.1356 68.9245C2.0466 70.6499 2.0021 72.3753 2.0021 74.0552V77.4606C2.0021 79.186 2.0911 80.9114 2.1356 82.5913C1.8241 82.5459 1.5126 82.5005 1.2011 82.5005C0.889602 82.5005 0.578102 82.5459 0.266602 82.5913C0.355602 80.866 0.444602 79.1406 0.444602 77.4606V74.0552Z" fill="white"/>
<path d="M16.999 82.8638C14.062 79.3222 10.502 75.5082 7.16446 71.8758C7.16446 72.6023 7.11996 73.7828 7.11996 75.9168C7.11996 77.6422 7.20896 81.8195 7.29796 82.5913C7.07546 82.5459 6.85296 82.5005 6.63046 82.5005C6.40796 82.5005 6.14096 82.5459 5.91846 82.5913C6.09646 81.6378 6.31896 76.5525 6.31896 73.9644C6.31896 71.4672 6.31896 69.5148 6.27446 68.6521H6.58596C9.74546 72.1482 14.062 76.9611 16.4205 79.413C16.4205 75.8714 16.4205 71.9666 16.2425 68.9245C16.465 68.9699 16.6875 69.0153 16.91 69.0153C17.1325 69.0153 17.3105 68.9699 17.533 68.9245C17.3995 70.105 17.2215 74.0098 17.2215 75.5536C17.2215 77.5968 17.266 81.9557 17.266 82.8638H16.999Z" fill="white"/>
<path d="M24.1186 74.0552C24.1186 72.6931 24.1186 71.331 24.0741 69.9234C22.7391 69.9234 21.0036 70.0142 19.8911 70.1504C19.9356 69.9688 19.9801 69.7418 19.9801 69.5148C19.9801 69.3331 19.9356 69.1061 19.8911 68.8791C21.5821 68.9245 23.2286 68.9699 24.9196 68.9699C26.6106 68.9699 28.2571 68.9245 29.9481 68.8791C29.9036 69.1061 29.8591 69.2877 29.8591 69.5148C29.8591 69.6964 29.9036 69.9234 29.9481 70.1504C28.8801 70.0142 27.1446 69.9234 25.7651 69.9234C25.7206 71.2855 25.7206 72.6477 25.7206 74.0552V77.4606C25.7206 79.186 25.8096 80.9114 25.8986 82.5913C25.5871 82.5459 25.2756 82.5005 24.9641 82.5005C24.6526 82.5005 24.3411 82.5459 24.0296 82.5913C24.1186 80.866 24.2076 79.1406 24.2076 77.4606V74.0552H24.1186Z" fill="white"/>
<path d="M32.4403 74.0098C32.4403 72.2845 32.3513 70.5591 32.2623 68.8791C33.4193 68.9245 34.5763 68.9699 35.7333 68.9699C36.8903 68.9699 38.0473 68.9245 39.2043 68.8791C39.1598 69.0607 39.1598 69.2877 39.1598 69.4694C39.1598 69.651 39.1598 69.878 39.2043 70.0596C37.5578 69.9234 36.6233 69.7872 34.0868 69.7872C34.0868 70.6499 33.9978 71.331 33.9978 72.3299C33.9978 73.3742 33.9978 74.4639 33.9978 74.9633C36.3118 74.9633 37.5578 74.8725 38.7148 74.7817C38.6703 74.9633 38.6703 75.1904 38.6703 75.4174C38.6703 75.599 38.6703 75.826 38.7148 76.0076C37.3798 75.8714 34.9323 75.826 33.9978 75.826C33.9978 76.3255 33.9978 76.7795 33.9978 78.6865C33.9978 80.1849 33.9978 81.1838 34.0423 81.6832C35.7778 81.6832 38.0918 81.6832 39.2933 81.4108C39.2488 81.5924 39.2488 81.8649 39.2488 82.0465C39.2488 82.2281 39.2488 82.4551 39.2933 82.6367C38.1363 82.5913 36.9793 82.5459 35.7778 82.5459C34.5763 82.5459 33.4193 82.5913 32.2178 82.6367C32.3068 80.9114 32.3958 79.186 32.3958 77.4606V74.0098H32.4403Z" fill="white"/>
<path d="M44.0105 75.1904C44.3665 75.2812 44.8115 75.2812 45.301 75.2812C46.903 75.2812 49.039 74.6001 49.039 72.2391C49.039 70.1504 47.348 69.651 46.013 69.651C45.123 69.651 44.5445 69.6964 44.144 69.7418C44.0995 71.1947 44.0105 72.6023 44.0105 74.0552V75.1904ZM42.4085 74.0552C42.4085 72.3299 42.3195 70.6045 42.2305 68.9245C42.987 68.9699 43.699 69.0153 44.4555 69.0153C45.212 69.0153 45.924 68.9245 46.6805 68.9245C48.861 68.9245 50.73 69.6964 50.73 72.0574C50.73 74.6001 48.238 75.6444 46.725 75.8714C47.6595 77.0974 50.908 81.3654 52.065 82.6368C51.6645 82.5913 51.3085 82.5459 50.908 82.5459C50.552 82.5459 50.1515 82.5913 49.7955 82.6368C49.039 81.4108 46.4135 77.7784 44.767 76.0531H44.0105V77.506C44.0105 79.2314 44.0995 80.9568 44.1885 82.6368C43.877 82.5913 43.5655 82.5459 43.254 82.5459C42.9425 82.5459 42.631 82.5913 42.3195 82.6368C42.4085 80.9114 42.4975 79.186 42.4975 77.506V74.0552H42.4085Z" fill="white"/>
<path d="M56.1145 75.5082C56.515 75.599 57.049 75.6898 57.494 75.6898C59.096 75.6898 61.143 75.0541 61.143 72.3753C61.143 70.105 59.897 69.651 57.8945 69.651H56.159V75.5082H56.1145ZM54.5125 74.0552C54.5125 72.3299 54.4235 70.6045 54.3345 68.9245C54.9575 68.9699 55.5805 69.0153 56.2035 69.0153C56.8265 69.0153 58.0725 68.9245 58.6065 68.9245C59.7635 68.9245 62.8785 68.9699 62.8785 72.2845C62.8785 75.7806 59.4965 76.4617 57.6275 76.4617C57.049 76.4617 56.5595 76.4617 56.07 76.4163V77.506C56.07 79.2314 56.159 80.9568 56.248 82.6368C55.9365 82.5913 55.625 82.5459 55.3135 82.5459C55.002 82.5459 54.6905 82.5913 54.379 82.6368C54.468 80.9114 54.557 79.186 54.557 77.506V74.0552H54.5125Z" fill="white"/>
<path d="M71.734 69.3785C68.708 69.3785 66.3495 71.331 66.3495 75.7352C66.3495 80.1395 68.6635 82.0919 71.734 82.0919C74.8045 82.0919 77.1185 80.1395 77.1185 75.7352C77.1185 71.331 74.76 69.3785 71.734 69.3785ZM71.734 68.6521C76.0505 68.6521 79.032 71.2401 79.032 75.7806C79.032 80.2757 76.0505 82.9092 71.734 82.9092C67.462 82.9092 64.436 80.3211 64.436 75.7806C64.436 71.2401 67.462 68.6521 71.734 68.6521Z" fill="white"/>
<path d="M81.9686 74.0552C81.9686 72.3299 81.8796 70.6045 81.7906 68.9245C82.1021 68.9699 82.4136 69.0153 82.7251 69.0153C83.0366 69.0153 83.3481 68.9699 83.6596 68.9245C83.5706 70.6499 83.4816 72.3753 83.4816 74.0552C83.4816 77.3698 83.5261 79.7308 83.5261 81.6832C85.3506 81.6832 86.9526 81.6833 88.9106 81.4108C88.8661 81.5924 88.8216 81.8195 88.8216 82.0011C88.8216 82.1827 88.8661 82.4097 88.9106 82.5913C87.7091 82.5459 86.5076 82.5005 85.3506 82.5005C84.1491 82.5005 82.9476 82.5459 81.7461 82.5913C81.8351 80.866 81.9241 79.1406 81.9241 77.4606V74.0552H81.9686Z" fill="white"/>
</g>
<defs>
<clipPath id="clip0_35_225">
<rect width="89" height="83" fill="white" transform="translate(0.133301)"/>
</clipPath>
</defs>
</svg>
