<svg width="174" height="38" viewBox="0 0 174 38" fill="none" xmlns="http://www.w3.org/2000/svg">
<path d="M31.668 25.9746H32.3363L35.2255 30.1633C35.3557 30.3554 35.4825 30.5475 35.6059 30.7396C35.7362 30.9318 35.8595 31.1238 35.976 31.316H35.9966C35.9829 31.0621 35.9726 30.8117 35.9658 30.5647C35.9658 30.3108 35.9658 30.057 35.9658 29.8031V25.9746H36.6855V32.4583H36.0172L33.1897 28.3931C33.0457 28.1873 32.9018 27.9678 32.7578 27.7345C32.6208 27.4943 32.4905 27.2576 32.3671 27.0243H32.3466C32.3602 27.3331 32.3705 27.6384 32.3774 27.9403C32.3843 28.2353 32.3877 28.5372 32.3877 28.846V32.4583H31.668V25.9746ZM38.2119 28.0535C38.5341 27.8819 38.8289 27.7584 39.0962 27.683C39.3704 27.6007 39.672 27.5595 40.001 27.5595C40.2477 27.5595 40.4739 27.5904 40.6796 27.6521C40.8921 27.707 41.0737 27.8031 41.2245 27.9403C41.3822 28.0775 41.5021 28.2593 41.5844 28.4857C41.6735 28.7053 41.7181 28.9797 41.7181 29.3091V32.4583H41.1628L41.0497 31.8717H41.0292C40.8235 32.1118 40.587 32.2868 40.3197 32.3966C40.0593 32.4995 39.7714 32.551 39.4561 32.551C39.2299 32.551 39.0173 32.5201 38.8186 32.4583C38.6266 32.3897 38.4587 32.2937 38.3148 32.1702C38.1777 32.0467 38.068 31.8992 37.9857 31.7276C37.9104 31.5561 37.8726 31.364 37.8726 31.1513C37.8726 30.8974 37.9241 30.6745 38.0269 30.4823C38.1297 30.2902 38.2736 30.129 38.4587 29.9986C38.6507 29.8682 38.8769 29.7722 39.1373 29.7105C39.4046 29.6418 39.6994 29.6075 40.0216 29.6075H40.9983V29.2473C40.9983 28.8357 40.9024 28.5509 40.7104 28.3931C40.5185 28.2285 40.2649 28.1461 39.9496 28.1461C39.7576 28.1461 39.5383 28.177 39.2915 28.2387C39.0517 28.2936 38.7843 28.4034 38.4896 28.5681L38.2119 28.0535ZM40.9983 30.1324L40.1963 30.1427C39.6274 30.1564 39.223 30.2559 38.9831 30.4412C38.7432 30.6264 38.6232 30.8528 38.6232 31.1204C38.6232 31.4429 38.7226 31.6693 38.9214 31.7997C39.1201 31.93 39.3566 31.9952 39.6308 31.9952C39.8707 31.9952 40.1141 31.9403 40.3608 31.8305C40.6076 31.7139 40.8201 31.5252 40.9983 31.2645V30.1324ZM45.7316 28.1667H44.2099V31.1616C44.2099 31.4429 44.275 31.6316 44.4052 31.7276C44.5423 31.8236 44.7205 31.8717 44.9399 31.8717C45.1112 31.8717 45.2792 31.8545 45.4437 31.8202C45.6082 31.786 45.7522 31.7482 45.8755 31.707L45.9886 32.2525C45.8515 32.3074 45.6802 32.3554 45.4746 32.3966C45.2689 32.4377 45.0461 32.4583 44.8062 32.4583C43.9288 32.4583 43.4902 32.057 43.4902 31.2542V28.1667H42.6985V27.6212H43.4902V26.0775H44.2099V27.6212H45.7316V28.1667ZM47.0407 32.4583V27.6212H47.7604V32.4583H47.0407ZM47.4006 26.376C47.2635 26.376 47.147 26.3314 47.051 26.2422C46.9619 26.1529 46.9173 26.0363 46.9173 25.8922C46.9173 25.7482 46.9619 25.6315 47.051 25.5423C47.147 25.4463 47.2635 25.3982 47.4006 25.3982C47.524 25.3982 47.6337 25.4428 47.7296 25.532C47.8324 25.6213 47.8838 25.7413 47.8838 25.8922C47.8838 26.0432 47.8359 26.1632 47.7399 26.2525C47.6439 26.3348 47.5308 26.376 47.4006 26.376ZM53.5329 29.9883C53.5329 30.3931 53.4746 30.7568 53.3581 31.0792C53.2416 31.3949 53.0805 31.6625 52.8749 31.882C52.6692 32.1015 52.4258 32.2697 52.1448 32.3863C51.8706 32.4961 51.5759 32.551 51.2606 32.551C50.9385 32.551 50.6403 32.4995 50.3661 32.3966C50.0919 32.2868 49.8554 32.129 49.6566 31.9232C49.4579 31.7104 49.3002 31.4531 49.1837 31.1513C49.0672 30.8425 49.0089 30.4892 49.0089 30.0912C49.0089 29.6865 49.0672 29.3263 49.1837 29.0106C49.3071 28.695 49.4716 28.4309 49.6772 28.2182C49.8828 27.9986 50.1227 27.834 50.3969 27.7242C50.6779 27.6144 50.9796 27.5595 51.3017 27.5595C51.6171 27.5595 51.9118 27.611 52.186 27.7139C52.4602 27.8168 52.6967 27.9712 52.8954 28.177C53.0942 28.3828 53.2484 28.6367 53.3581 28.9386C53.4746 29.2404 53.5329 29.5904 53.5329 29.9883ZM52.7823 30.0398C52.7823 29.7036 52.7378 29.4154 52.6486 29.1753C52.5664 28.9283 52.4533 28.7293 52.3093 28.5784C52.1723 28.4206 52.0112 28.3074 51.8261 28.2387C51.6479 28.1633 51.4628 28.1255 51.2709 28.1255C51.0789 28.1255 50.8905 28.1598 50.7054 28.2285C50.5272 28.2971 50.3661 28.4068 50.2221 28.5578C50.0851 28.7088 49.972 28.9077 49.8828 29.1547C49.8006 29.3948 49.7595 29.6899 49.7595 30.0398C49.7595 30.3897 49.8006 30.6882 49.8828 30.9352C49.972 31.1822 50.0885 31.3846 50.2324 31.5424C50.3764 31.6933 50.5409 31.8065 50.7259 31.882C50.911 31.9506 51.0995 31.9849 51.2915 31.9849C51.4834 31.9849 51.6685 31.954 51.8467 31.8923C52.0249 31.8236 52.1826 31.7139 52.3196 31.563C52.4636 31.4052 52.5767 31.2027 52.6589 30.9557C52.7412 30.7087 52.7823 30.4034 52.7823 30.0398ZM55.3993 32.4583H54.6796V27.6212H55.2246L55.3377 28.2902C55.5776 28.0638 55.8278 27.8854 56.0882 27.755C56.3556 27.6246 56.6606 27.5595 57.0033 27.5595C57.4968 27.5595 57.8841 27.6967 58.1652 27.9712C58.4462 28.2456 58.5867 28.6298 58.5867 29.1238V32.4583H57.867V29.2576C57.867 28.9352 57.7847 28.671 57.6202 28.4652C57.4557 28.2524 57.1816 28.1461 56.7977 28.1461C56.5578 28.1461 56.3144 28.2079 56.0677 28.3314C55.8209 28.448 55.5982 28.6161 55.3993 28.8357V32.4583ZM60.0206 28.0535C60.3428 27.8819 60.6375 27.7584 60.9049 27.683C61.1791 27.6007 61.4807 27.5595 61.8097 27.5595C62.0564 27.5595 62.2826 27.5904 62.4883 27.6521C62.7008 27.707 62.8824 27.8031 63.0332 27.9403C63.1908 28.0775 63.3108 28.2593 63.3931 28.4857C63.4822 28.7053 63.5267 28.9797 63.5267 29.3091V32.4583H62.9715L62.8584 31.8717H62.8379C62.6322 32.1118 62.3957 32.2868 62.1284 32.3966C61.868 32.4995 61.5801 32.551 61.2647 32.551C61.0385 32.551 60.826 32.5201 60.6273 32.4583C60.4353 32.3897 60.2674 32.2937 60.1235 32.1702C59.9864 32.0467 59.8767 31.8992 59.7944 31.7276C59.7191 31.5561 59.6813 31.364 59.6813 31.1513C59.6813 30.8974 59.7327 30.6745 59.8356 30.4823C59.9384 30.2902 60.0823 30.129 60.2674 29.9986C60.4594 29.8682 60.6855 29.7722 60.946 29.7105C61.2133 29.6418 61.5081 29.6075 61.8302 29.6075H62.807V29.2473C62.807 28.8357 62.7111 28.5509 62.5191 28.3931C62.3272 28.2285 62.0736 28.1461 61.7583 28.1461C61.5663 28.1461 61.347 28.177 61.1002 28.2387C60.8603 28.2936 60.593 28.4034 60.2982 28.5681L60.0206 28.0535ZM62.807 30.1324L62.005 30.1427C61.4361 30.1564 61.0317 30.2559 60.7918 30.4412C60.5519 30.6264 60.4319 30.8528 60.4319 31.1204C60.4319 31.4429 60.5313 31.6693 60.7301 31.7997C60.9288 31.93 61.1653 31.9952 61.4395 31.9952C61.6794 31.9952 61.9228 31.9403 62.1695 31.8305C62.4163 31.7139 62.6288 31.5252 62.807 31.2645V30.1324ZM64.9624 32.4583V25.1512H65.6718V32.4583H64.9624ZM73.2033 25.9746V26.5818H70.2421V28.9283H72.9771V29.5252H70.2421V32.4583H69.5018V25.9746H73.2033ZM73.9676 32.4583V27.6212H74.4817L74.6154 28.5887C74.7319 28.2799 74.9272 28.0329 75.2014 27.8477C75.4756 27.6555 75.7875 27.5595 76.1371 27.5595C76.3085 27.5595 76.4558 27.5732 76.5792 27.6007C76.7026 27.6281 76.802 27.659 76.8774 27.6933L76.7437 28.3314C76.6614 28.2902 76.5689 28.2559 76.4661 28.2285C76.3633 28.201 76.2433 28.1873 76.1062 28.1873C75.9075 28.1873 75.7224 28.225 75.551 28.3005C75.3796 28.3691 75.2289 28.472 75.0986 28.6092C74.9683 28.7464 74.8655 28.9214 74.7901 29.1341C74.7148 29.3468 74.677 29.5904 74.677 29.8648V32.4583H73.9676ZM77.5419 28.0535C77.8641 27.8819 78.1588 27.7584 78.4261 27.683C78.7003 27.6007 79.0019 27.5595 79.3313 27.5595C79.5781 27.5595 79.8043 27.5904 80.0099 27.6521C80.2219 27.707 80.4038 27.8031 80.5548 27.9403C80.7122 28.0775 80.8325 28.2593 80.9147 28.4857C81.0033 28.7053 81.0484 28.9797 81.0484 29.3091V32.4583H80.4932L80.3801 31.8717H80.3595C80.1539 32.1118 79.9174 32.2868 79.65 32.3966C79.389 32.4995 79.1012 32.551 78.786 32.551C78.5598 32.551 78.3473 32.5201 78.1485 32.4583C77.9566 32.3897 77.7886 32.2937 77.6447 32.1702C77.5076 32.0467 77.3979 31.8992 77.3157 31.7276C77.2403 31.5561 77.2026 31.364 77.2026 31.1513C77.2026 30.8974 77.254 30.6745 77.3568 30.4823C77.4596 30.2902 77.6036 30.129 77.7886 29.9986C77.9806 29.8682 78.2068 29.7722 78.4672 29.7105C78.7346 29.6418 79.0293 29.6075 79.3519 29.6075H80.3286V29.2473C80.3286 28.8357 80.2322 28.5509 80.0408 28.3931C79.8486 28.2285 79.5947 28.1461 79.2799 28.1461C79.0876 28.1461 78.8682 28.177 78.6215 28.2387C78.3816 28.2936 78.1143 28.4034 77.8195 28.5681L77.5419 28.0535ZM80.3286 30.1324L79.5267 30.1427C78.9574 30.1564 78.553 30.2559 78.313 30.4412C78.0731 30.6264 77.9532 30.8528 77.9532 31.1204C77.9532 31.4429 78.0526 31.6693 78.2513 31.7997C78.4502 31.93 78.6866 31.9952 78.9608 31.9952C79.2008 31.9952 79.4444 31.9403 79.6912 31.8305C79.9379 31.7139 80.1499 31.5252 80.3286 31.2645V30.1324ZM85.6815 27.6212H86.4012V32.4583H85.8563L85.7535 31.8511H85.7226C85.5439 32.0433 85.3217 32.2079 85.0543 32.3451C84.787 32.4823 84.4746 32.551 84.1187 32.551C83.618 32.551 83.2139 32.4138 82.9054 32.1393C82.597 31.858 82.4427 31.4292 82.4427 30.8528V27.6212H83.1625V30.7396C83.1625 30.9797 83.1894 31.1788 83.2447 31.3365C83.2993 31.4943 83.3744 31.6213 83.4709 31.7173C83.5737 31.8134 83.69 31.882 83.8205 31.9232C83.9573 31.9574 84.1045 31.9746 84.2626 31.9746C84.5568 31.9746 84.8242 31.9095 85.0646 31.7791C85.3114 31.6487 85.517 31.4806 85.6815 31.2748V27.6212ZM91.0621 25.1512H91.7818V32.4583H91.1855L91.0929 31.9643H91.0724C90.8936 32.1565 90.6951 32.304 90.476 32.4069C90.2561 32.5029 89.9785 32.551 89.6432 32.551C89.3822 32.551 89.1291 32.4995 88.8823 32.3966C88.6356 32.2937 88.4125 32.1393 88.214 31.9335C88.0147 31.7276 87.8541 31.4703 87.7308 31.1616C87.6137 30.8459 87.556 30.4754 87.556 30.0501C87.556 29.6727 87.6034 29.3297 87.6999 29.0209C87.8027 28.7122 87.9467 28.4515 88.1318 28.2387C88.3232 28.0192 88.5533 27.8511 88.8206 27.7345C89.0943 27.6178 89.4027 27.5595 89.746 27.5595C89.9991 27.5595 90.2356 27.5973 90.4554 27.6727C90.6816 27.7482 90.8833 27.8648 91.0621 28.0226V25.1512ZM91.0621 28.6813C90.911 28.5029 90.7331 28.3656 90.5274 28.2696C90.3218 28.1667 90.109 28.1152 89.8899 28.1152C89.6843 28.1152 89.485 28.1495 89.2936 28.2182C89.1014 28.2868 88.9298 28.3965 88.7795 28.5475C88.6356 28.6985 88.5185 28.8974 88.4299 29.1444C88.3406 29.3845 88.2963 29.6762 88.2963 30.0192C88.2963 30.376 88.3374 30.6779 88.4196 30.9249C88.5082 31.1719 88.6253 31.3743 88.7692 31.5321C88.9132 31.6899 89.0737 31.8065 89.2525 31.882C89.4375 31.9506 89.6258 31.9849 89.818 31.9849C90.0988 31.9849 90.3423 31.93 90.548 31.8202C90.7536 31.7104 90.9245 31.5561 91.0621 31.3571V28.6813ZM95.9697 25.9746H96.9362L98.4373 30.4309C98.4927 30.5886 98.5504 30.7671 98.6121 30.966C98.6809 31.165 98.7426 31.3571 98.7972 31.5424H98.8177C98.8731 31.364 98.9308 31.1788 98.9925 30.9866C99.0542 30.7877 99.1127 30.6024 99.1673 30.4309L100.638 25.9746H101.614L102.231 32.4583H101.491L101.172 28.8871C101.138 28.5235 101.107 28.1667 101.08 27.8168C101.059 27.46 101.043 27.0998 101.028 26.7362H101.008C100.912 27.0655 100.806 27.4188 100.689 27.7962C100.58 28.1667 100.467 28.5303 100.35 28.8871L99.1262 32.4583H98.4579L97.2343 28.8768C97.1109 28.5132 96.9947 28.1598 96.8848 27.8168C96.7756 27.4669 96.6728 27.1067 96.5763 26.7362H96.5557C96.5352 27.0655 96.5114 27.4154 96.4838 27.7859C96.4569 28.1564 96.426 28.5235 96.3912 28.8871L96.0828 32.4583H95.363L95.9697 25.9746ZM107.824 29.9883C107.824 30.3931 107.765 30.7568 107.649 31.0792C107.533 31.3949 107.371 31.6625 107.166 31.882C106.96 32.1015 106.717 32.2697 106.436 32.3863C106.161 32.4961 105.867 32.551 105.552 32.551C105.23 32.551 104.931 32.4995 104.657 32.3966C104.383 32.2868 104.146 32.129 103.948 31.9232C103.749 31.7104 103.591 31.4531 103.475 31.1513C103.358 30.8425 103.3 30.4892 103.3 30.0912C103.3 29.6865 103.358 29.3263 103.475 29.0106C103.598 28.695 103.762 28.4309 103.968 28.2182C104.174 27.9986 104.413 27.834 104.688 27.7242C104.969 27.6144 105.271 27.5595 105.593 27.5595C105.908 27.5595 106.202 27.611 106.477 27.7139C106.751 27.8168 106.988 27.9712 107.186 28.177C107.385 28.3828 107.539 28.6367 107.649 28.9386C107.765 29.2404 107.824 29.5904 107.824 29.9883ZM107.073 30.0398C107.073 29.7036 107.029 29.4154 106.94 29.1753C106.857 28.9283 106.744 28.7293 106.6 28.5784C106.463 28.4206 106.302 28.3074 106.117 28.2387C105.939 28.1633 105.754 28.1255 105.562 28.1255C105.37 28.1255 105.181 28.1598 104.996 28.2285C104.818 28.2971 104.657 28.4068 104.513 28.5578C104.376 28.7088 104.263 28.9077 104.174 29.1547C104.092 29.3948 104.05 29.6899 104.05 30.0398C104.05 30.3897 104.092 30.6882 104.174 30.9352C104.263 31.1822 104.379 31.3846 104.523 31.5424C104.667 31.6933 104.832 31.8065 105.017 31.882C105.202 31.9506 105.39 31.9849 105.582 31.9849C105.775 31.9849 105.96 31.954 106.138 31.8923C106.316 31.8236 106.474 31.7139 106.611 31.563C106.755 31.4052 106.868 31.2027 106.95 30.9557C107.032 30.7087 107.073 30.4034 107.073 30.0398ZM109.69 32.4583H108.971V27.6212H109.516L109.629 28.2902C109.868 28.0638 110.118 27.8854 110.379 27.755C110.647 27.6246 110.951 27.5595 111.294 27.5595C111.788 27.5595 112.175 27.6967 112.456 27.9712C112.737 28.2456 112.878 28.6298 112.878 29.1238V32.4583H112.158V29.2576C112.158 28.9352 112.076 28.671 111.911 28.4652C111.747 28.2524 111.472 28.1461 111.089 28.1461C110.848 28.1461 110.605 28.2079 110.359 28.3314C110.112 28.448 109.889 28.6161 109.69 28.8357V32.4583ZM114.455 32.4583V27.6212H115.175V32.4583H114.455ZM114.815 26.376C114.678 26.376 114.561 26.3314 114.465 26.2422C114.376 26.1529 114.331 26.0363 114.331 25.8922C114.331 25.7482 114.376 25.6315 114.465 25.5423C114.561 25.4463 114.678 25.3982 114.815 25.3982C114.938 25.3982 115.048 25.4428 115.144 25.532C115.246 25.6213 115.298 25.7413 115.298 25.8922C115.298 26.0432 115.25 26.1632 115.154 26.2525C115.058 26.3348 114.945 26.376 114.815 26.376ZM119.251 28.1667H117.729V31.1616C117.729 31.4429 117.794 31.6316 117.925 31.7276C118.061 31.8236 118.239 31.8717 118.459 31.8717C118.63 31.8717 118.798 31.8545 118.963 31.8202C119.127 31.786 119.271 31.7482 119.395 31.707L119.508 32.2525C119.37 32.3074 119.199 32.3554 118.994 32.3966C118.788 32.4377 118.565 32.4583 118.325 32.4583C117.448 32.4583 117.009 32.057 117.009 31.2542V28.1667H116.218V27.6212H117.009V26.0775H117.729V27.6212H119.251V28.1667ZM124.662 29.9883C124.662 30.3931 124.604 30.7568 124.487 31.0792C124.371 31.3949 124.21 31.6625 124.004 31.882C123.799 32.1015 123.555 32.2697 123.274 32.3863C123 32.4961 122.706 32.551 122.39 32.551C122.068 32.551 121.77 32.4995 121.495 32.3966C121.221 32.2868 120.985 32.129 120.786 31.9232C120.588 31.7104 120.429 31.4531 120.313 31.1513C120.197 30.8425 120.138 30.4892 120.138 30.0912C120.138 29.6865 120.197 29.3263 120.313 29.0106C120.436 28.695 120.601 28.4309 120.807 28.2182C121.012 27.9986 121.252 27.834 121.526 27.7242C121.807 27.6144 122.109 27.5595 122.431 27.5595C122.747 27.5595 123.041 27.611 123.315 27.7139C123.59 27.8168 123.826 27.9712 124.025 28.177C124.223 28.3828 124.378 28.6367 124.487 28.9386C124.604 29.2404 124.662 29.5904 124.662 29.9883ZM123.912 30.0398C123.912 29.7036 123.867 29.4154 123.778 29.1753C123.696 28.9283 123.583 28.7293 123.439 28.5784C123.302 28.4206 123.141 28.3074 122.955 28.2387C122.778 28.1633 122.592 28.1255 122.4 28.1255C122.208 28.1255 122.02 28.1598 121.835 28.2285C121.657 28.2971 121.495 28.4068 121.352 28.5578C121.215 28.7088 121.102 28.9077 121.012 29.1547C120.93 29.3948 120.889 29.6899 120.889 30.0398C120.889 30.3897 120.93 30.6882 121.012 30.9352C121.102 31.1822 121.218 31.3846 121.362 31.5424C121.506 31.6933 121.67 31.8065 121.855 31.882C122.04 31.9506 122.229 31.9849 122.421 31.9849C122.613 31.9849 122.798 31.954 122.976 31.8923C123.154 31.8236 123.312 31.7139 123.449 31.563C123.593 31.4052 123.706 31.2027 123.788 30.9557C123.871 30.7087 123.912 30.4034 123.912 30.0398ZM125.789 32.4583V27.6212H126.303L126.436 28.5887C126.553 28.2799 126.748 28.0329 127.022 27.8477C127.296 27.6555 127.608 27.5595 127.958 27.5595C128.129 27.5595 128.277 27.5732 128.4 27.6007C128.523 27.6281 128.622 27.659 128.698 27.6933L128.565 28.3314C128.482 28.2902 128.39 28.2559 128.287 28.2285C128.184 28.201 128.064 28.1873 127.927 28.1873C127.728 28.1873 127.543 28.225 127.372 28.3005C127.2 28.3691 127.049 28.472 126.92 28.6092C126.789 28.7464 126.686 28.9214 126.611 29.1341C126.535 29.3468 126.498 29.5904 126.498 29.8648V32.4583H125.789ZM129.586 32.4583V27.6212H130.306V32.4583H129.586ZM129.946 26.376C129.81 26.376 129.692 26.3314 129.597 26.2422C129.507 26.1529 129.463 26.0363 129.463 25.8922C129.463 25.7482 129.507 25.6315 129.597 25.5423C129.692 25.4463 129.81 25.3982 129.946 25.3982C130.07 25.3982 130.18 25.4428 130.275 25.532C130.378 25.6213 130.43 25.7413 130.43 25.8922C130.43 26.0432 130.381 26.1632 130.286 26.2525C130.19 26.3348 130.077 26.376 129.946 26.376ZM132.603 32.4583H131.883V27.6212H132.428L132.541 28.2902C132.782 28.0638 133.032 27.8854 133.292 27.755C133.559 27.6246 133.864 27.5595 134.207 27.5595C134.7 27.5595 135.088 27.6967 135.369 27.9712C135.65 28.2456 135.79 28.6298 135.79 29.1238V32.4583H135.071V29.2576C135.071 28.9352 134.988 28.671 134.824 28.4652C134.659 28.2524 134.386 28.1461 134.001 28.1461C133.762 28.1461 133.518 28.2079 133.271 28.3314C133.025 28.448 132.802 28.6161 132.603 28.8357V32.4583ZM137.061 29.2267C137.061 28.9592 137.109 28.7225 137.205 28.5166C137.301 28.3039 137.435 28.1289 137.605 27.9917C137.777 27.8477 137.983 27.7413 138.222 27.6727C138.463 27.5973 138.723 27.5595 139.004 27.5595C139.121 27.5595 139.224 27.5664 139.312 27.5801C139.409 27.5938 139.501 27.6075 139.59 27.6212H141.636V28.1667H141.184L140.32 28.0741C140.492 28.2045 140.628 28.3725 140.731 28.5784C140.834 28.7773 140.885 28.99 140.885 29.2165C140.885 29.484 140.838 29.7241 140.741 29.9369C140.646 30.1427 140.512 30.3177 140.34 30.4617C140.176 30.6058 139.977 30.7156 139.744 30.7911C139.512 30.8597 139.258 30.894 138.983 30.894C138.888 30.894 138.792 30.8906 138.695 30.8837C138.607 30.8768 138.514 30.8665 138.418 30.8528C138.26 30.9077 138.137 30.99 138.048 31.0998C137.965 31.2027 137.924 31.3125 137.924 31.4292C137.924 31.5938 137.983 31.7104 138.099 31.7791C138.222 31.8477 138.381 31.882 138.572 31.882H139.837C140.371 31.882 140.779 31.9986 141.06 32.2319C141.342 32.4652 141.482 32.7774 141.482 33.1685C141.482 33.683 141.263 34.0878 140.824 34.3829C140.386 34.6779 139.789 34.8254 139.035 34.8254C138.35 34.8254 137.805 34.695 137.4 34.4343C136.996 34.1804 136.793 33.8168 136.793 33.3434C136.793 33.0895 136.869 32.8769 137.019 32.7053C137.178 32.5338 137.39 32.4 137.657 32.304C137.534 32.2285 137.435 32.1359 137.359 32.0261C137.291 31.9095 137.256 31.7619 137.256 31.5835C137.256 31.364 137.318 31.1822 137.441 31.0381C137.571 30.8871 137.736 30.7671 137.934 30.6779C137.688 30.5613 137.479 30.3828 137.307 30.1427C137.143 29.9026 137.061 29.5972 137.061 29.2267ZM138.109 32.4583C137.924 32.5338 137.777 32.6367 137.667 32.7671C137.564 32.9043 137.513 33.0621 137.513 33.2405C137.513 33.5767 137.647 33.8271 137.914 33.9918C138.188 34.1633 138.572 34.2491 139.066 34.2491C139.368 34.2491 139.625 34.2182 139.837 34.1565C140.057 34.1016 140.234 34.0227 140.371 33.9197C140.509 33.8237 140.608 33.7139 140.669 33.5904C140.731 33.4669 140.762 33.3434 140.762 33.2199C140.762 33.0689 140.731 32.942 140.669 32.8391C140.615 32.7431 140.533 32.6642 140.423 32.6024C140.32 32.5475 140.197 32.5098 140.053 32.4892C139.909 32.4686 139.751 32.4583 139.58 32.4583H138.109ZM140.145 29.2473C140.145 28.8631 140.039 28.575 139.826 28.3828C139.621 28.1907 139.347 28.0947 139.004 28.0947C138.654 28.0947 138.366 28.1873 138.14 28.3725C137.914 28.5578 137.801 28.8357 137.801 29.2062C137.801 29.5972 137.911 29.8888 138.13 30.081C138.356 30.2662 138.641 30.3588 138.983 30.3588C139.327 30.3588 139.604 30.2662 139.816 30.081C140.036 29.8957 140.145 29.6178 140.145 29.2473ZM146.706 25.9746C147.351 25.9746 147.851 26.1153 148.208 26.3965C148.571 26.671 148.753 27.0758 148.753 27.611C148.753 28.0089 148.639 28.3211 148.413 28.5475C148.194 28.767 147.917 28.9214 147.58 29.0106C147.773 29.0449 147.951 29.1067 148.115 29.1959C148.28 29.2782 148.424 29.388 148.547 29.5252C148.67 29.6624 148.766 29.8271 148.835 30.0192C148.91 30.2045 148.948 30.4137 148.948 30.647C148.948 30.9146 148.889 31.1616 148.773 31.388C148.663 31.6075 148.506 31.7963 148.3 31.954C148.095 32.1118 147.848 32.2353 147.56 32.3245C147.272 32.4138 146.956 32.4583 146.614 32.4583H144.969V25.9746H146.706ZM145.709 28.7533H146.491C146.683 28.7533 146.868 28.7361 147.046 28.7019C147.231 28.6676 147.392 28.6092 147.529 28.5269C147.673 28.4446 147.786 28.3348 147.868 28.1976C147.951 28.0535 147.992 27.8751 147.992 27.6624C147.992 27.2782 147.858 27.0003 147.591 26.8288C147.331 26.6572 146.987 26.5715 146.563 26.5715H145.709V28.7533ZM145.709 31.8614H146.511C146.737 31.8614 146.95 31.8408 147.149 31.7997C147.347 31.7516 147.522 31.6762 147.673 31.5732C147.824 31.4703 147.943 31.3365 148.033 31.1719C148.122 31.0003 148.166 30.7945 148.166 30.5544C148.166 30.3211 148.118 30.129 148.023 29.978C147.927 29.8203 147.796 29.6968 147.632 29.6075C147.474 29.5115 147.289 29.4429 147.077 29.4017C146.871 29.3605 146.658 29.34 146.439 29.34H145.709V31.8614ZM153.437 27.6212H154.157V32.4583H153.612L153.509 31.8511H153.478C153.299 32.0433 153.077 32.2079 152.81 32.3451C152.543 32.4823 152.23 32.551 151.874 32.551C151.374 32.551 150.969 32.4138 150.661 32.1393C150.353 31.858 150.198 31.4292 150.198 30.8528V27.6212H150.918V30.7396C150.918 30.9797 150.945 31.1788 151 31.3365C151.055 31.4943 151.13 31.6213 151.227 31.7173C151.329 31.8134 151.446 31.882 151.576 31.9232C151.713 31.9574 151.86 31.9746 152.018 31.9746C152.312 31.9746 152.58 31.9095 152.82 31.7791C153.067 31.6487 153.273 31.4806 153.437 31.2748V27.6212ZM155.62 32.4583V27.6212H156.134L156.268 28.5887C156.384 28.2799 156.579 28.0329 156.854 27.8477C157.128 27.6555 157.44 27.5595 157.789 27.5595C157.96 27.5595 158.108 27.5732 158.232 27.6007C158.355 27.6281 158.454 27.659 158.53 27.6933L158.396 28.3314C158.314 28.2902 158.221 28.2559 158.119 28.2285C158.016 28.201 157.895 28.1873 157.759 28.1873C157.559 28.1873 157.374 28.225 157.203 28.3005C157.032 28.3691 156.881 28.472 156.751 28.6092C156.621 28.7464 156.518 28.9214 156.443 29.1341C156.367 29.3468 156.329 29.5904 156.329 29.8648V32.4583H155.62ZM163.051 30.0912H159.596V30.1839C159.596 30.7533 159.75 31.1959 160.059 31.5115C160.367 31.8271 160.789 31.9849 161.323 31.9849C161.564 31.9849 161.786 31.9677 161.992 31.9335C162.197 31.8923 162.41 31.8271 162.629 31.7379L162.783 32.2731C162.592 32.3554 162.366 32.4206 162.105 32.4686C161.852 32.5235 161.58 32.551 161.292 32.551C160.957 32.551 160.641 32.5029 160.346 32.4069C160.052 32.3108 159.791 32.1633 159.565 31.9643C159.346 31.7585 159.171 31.4978 159.041 31.1822C158.911 30.8665 158.845 30.4892 158.845 30.0501C158.845 29.6727 158.901 29.3297 159.01 29.0209C159.12 28.7122 159.271 28.4515 159.462 28.2387C159.662 28.0192 159.898 27.8511 160.172 27.7345C160.453 27.6178 160.765 27.5595 161.107 27.5595C161.402 27.5595 161.667 27.611 161.899 27.7139C162.139 27.8099 162.345 27.9506 162.516 28.1358C162.688 28.3211 162.818 28.5441 162.907 28.8048C163.003 29.0655 163.051 29.3537 163.051 29.6693V30.0912ZM162.31 29.5561C162.31 29.3639 162.287 29.1822 162.238 29.0106C162.191 28.8323 162.115 28.6779 162.012 28.5475C161.916 28.4103 161.79 28.3039 161.632 28.2285C161.474 28.1461 161.286 28.105 161.066 28.105C160.669 28.105 160.34 28.2353 160.079 28.496C159.826 28.7567 159.672 29.1135 159.616 29.5664L162.31 29.5561ZM164.164 28.0535C164.486 27.8819 164.781 27.7584 165.048 27.683C165.323 27.6007 165.624 27.5595 165.953 27.5595C166.2 27.5595 166.426 27.5904 166.632 27.6521C166.845 27.707 167.026 27.8031 167.177 27.9403C167.334 28.0775 167.454 28.2593 167.537 28.4857C167.626 28.7053 167.67 28.9797 167.67 29.3091V32.4583H167.115L167.002 31.8717H166.981C166.776 32.1118 166.539 32.2868 166.272 32.3966C166.012 32.4995 165.724 32.551 165.408 32.551C165.182 32.551 164.969 32.5201 164.771 32.4583C164.579 32.3897 164.411 32.2937 164.267 32.1702C164.13 32.0467 164.02 31.8992 163.938 31.7276C163.863 31.5561 163.825 31.364 163.825 31.1513C163.825 30.8974 163.876 30.6745 163.979 30.4823C164.082 30.2902 164.226 30.129 164.411 29.9986C164.603 29.8682 164.829 29.7722 165.09 29.7105C165.357 29.6418 165.652 29.6075 165.974 29.6075H166.951V29.2473C166.951 28.8357 166.855 28.5509 166.663 28.3931C166.471 28.2285 166.217 28.1461 165.902 28.1461C165.71 28.1461 165.491 28.177 165.244 28.2387C165.004 28.2936 164.737 28.4034 164.442 28.5681L164.164 28.0535ZM166.951 30.1324L166.149 30.1427C165.58 30.1564 165.175 30.2559 164.935 30.4412C164.696 30.6264 164.576 30.8528 164.576 31.1204C164.576 31.4429 164.675 31.6693 164.874 31.7997C165.072 31.93 165.309 31.9952 165.583 31.9952C165.823 31.9952 166.066 31.9403 166.313 31.8305C166.56 31.7139 166.773 31.5252 166.951 31.2645V30.1324ZM172.303 27.6212H173.023V32.4583H172.478L172.375 31.8511H172.345C172.167 32.0433 171.944 32.2079 171.676 32.3451C171.409 32.4823 171.097 32.551 170.741 32.551C170.241 32.551 169.836 32.4138 169.527 32.1393C169.219 31.858 169.065 31.4292 169.065 30.8528V27.6212H169.784V30.7396C169.784 30.9797 169.812 31.1788 169.867 31.3365C169.922 31.4943 169.997 31.6213 170.093 31.7173C170.196 31.8134 170.313 31.882 170.442 31.9232C170.58 31.9574 170.727 31.9746 170.885 31.9746C171.18 31.9746 171.447 31.9095 171.687 31.7791C171.933 31.6487 172.139 31.4806 172.303 31.2748V27.6212Z" fill="#131B22"/>
<path d="M32.5156 4.62334H36.0589L39.5516 9.96867C40.1758 10.9313 40.7749 11.9193 41.3485 12.9327C41.9391 13.9291 42.3946 14.8327 42.7152 15.6433H42.7658C42.6814 14.63 42.6308 13.6167 42.614 12.6033C42.5971 11.5731 42.5886 10.5513 42.5886 9.538V4.62334H46.1319V20.5833H42.5886L38.8935 15.1367C38.2861 14.2415 37.7293 13.3295 37.2231 12.4007C36.7169 11.4718 36.2867 10.4922 35.9324 9.462H35.8817C35.9661 10.526 36.0167 11.5478 36.0336 12.5273C36.0504 13.5069 36.0589 14.5033 36.0589 15.5167V20.5833H32.5156V4.62334Z" fill="#131B22"/>
<path d="M58.0717 4.62334H62.8804L64.6014 10.222C64.7027 10.5598 64.8208 10.9567 64.9558 11.4127C65.0908 11.8518 65.2173 12.3162 65.3354 12.806C65.4704 13.2789 65.5885 13.7602 65.6897 14.25C65.8078 14.7398 65.9007 15.1958 65.9681 15.618H66.0947C66.1621 15.162 66.255 14.6722 66.3731 14.1487C66.5081 13.6082 66.6346 13.0931 66.7527 12.6033C66.8877 12.0967 67.0143 11.6322 67.1323 11.21C67.2504 10.7878 67.3433 10.4585 67.4107 10.222L69.0811 4.62334H73.8899L75.0288 20.5833H71.4349L71.1565 15.1873C71.1227 14.6807 71.0974 14.1318 71.0806 13.5407C71.0637 12.9327 71.0468 12.3162 71.0299 11.6913C71.0299 11.0665 71.0299 10.45 71.0299 9.842C71.0299 9.234 71.0299 8.67667 71.0299 8.17H70.954C70.8359 8.72734 70.7009 9.30153 70.5491 9.89267C70.4141 10.4838 70.2707 11.0749 70.1188 11.666C69.967 12.2402 69.8151 12.806 69.6633 13.3633C69.5114 13.9038 69.3595 14.402 69.2077 14.858L67.4361 20.5833H64.5508L62.7033 14.8833C62.5514 14.4105 62.3995 13.9038 62.2477 13.3633C62.0958 12.806 61.944 12.2402 61.7921 11.666C61.6571 11.0749 61.5222 10.4838 61.3872 9.89267C61.2522 9.30153 61.1341 8.72734 61.0329 8.17H60.9569C60.9738 8.71047 60.9738 9.30153 60.9569 9.94334C60.9569 10.5682 60.9485 11.2015 60.9316 11.8433C60.9148 12.4682 60.8895 13.0762 60.8557 13.6673C60.8388 14.2415 60.8219 14.7482 60.8051 15.1873L60.5267 20.5833H56.9834L58.0717 4.62334Z" fill="#131B22"/>
<path d="M59.5017 4.62334V7.562H52.972V11.4633H58.9449V14.3767H52.972V20.5833H49.125V4.62334H59.5017Z" fill="#131B22"/>
<mask id="mask0_573_8776" style="mask-type:luminance" maskUnits="userSpaceOnUse" x="48" y="3" width="13" height="19">
<path d="M60.8997 3.16667H48.2451V21.375H60.8997V3.16667Z" fill="white"/>
<path d="M59.5017 4.62334V7.562H52.972V11.4633H58.9449V14.3767H52.972V20.5833H49.125V4.62334H59.5017Z" fill="black"/>
</mask>
<g mask="url(#mask0_573_8776)">
<path d="M59.5016 4.62333H60.2925V3.83167H59.5016V4.62333ZM59.5016 7.562V8.35366H60.2925V7.562H59.5016ZM52.9719 7.562V6.77033H52.181V7.562H52.9719ZM52.9719 11.4633H52.181V12.255H52.9719V11.4633ZM58.9448 11.4633H59.7357V10.6717H58.9448V11.4633ZM58.9448 14.3767V15.1683H59.7357V14.3767H58.9448ZM52.9719 14.3767V13.585H52.181V14.3767H52.9719ZM52.9719 20.5833V21.375H53.7628V20.5833H52.9719ZM49.1249 20.5833H48.334V21.375H49.1249V20.5833ZM49.1249 4.62333V3.83167H48.334V4.62333H49.1249ZM58.7107 4.62333V7.562H60.2925V4.62333H58.7107ZM59.5016 6.77033H52.9719V8.35366H59.5016V6.77033ZM52.181 7.562V11.4633H53.7628V7.562H52.181ZM52.9719 12.255H58.9448V10.6717H52.9719V12.255ZM58.1539 11.4633V14.3767H59.7357V11.4633H58.1539ZM58.9448 13.585H52.9719V15.1683H58.9448V13.585ZM52.181 14.3767V20.5833H53.7628V14.3767H52.181ZM52.9719 19.7917H49.1249V21.375H52.9719V19.7917ZM49.9158 20.5833V4.62333H48.334V20.5833H49.9158ZM49.1249 5.415H59.5016V3.83167H49.1249V5.415Z" fill="white"/>
</g>
<path d="M82.8049 4.62334C84.5093 4.62334 85.8673 4.99489 86.8797 5.738C87.892 6.48112 88.3982 7.51134 88.3982 8.82867C88.3982 9.31847 88.3057 9.75753 88.1198 10.146C87.9513 10.5345 87.7236 10.8722 87.4365 11.1593C87.1494 11.4295 86.829 11.6575 86.4747 11.8433C86.137 12.0291 85.8001 12.1558 85.4623 12.2233C85.9179 12.3078 86.3482 12.4513 86.7531 12.654C87.1747 12.8398 87.5377 13.0931 87.8414 13.414C88.1617 13.718 88.4148 14.0895 88.6007 14.5287C88.7865 14.9678 88.8791 15.4745 88.8791 16.0487C88.8791 16.7073 88.7359 17.3153 88.4488 17.8727C88.1617 18.43 87.7489 18.9113 87.2087 19.3167C86.6685 19.7051 86.0104 20.0175 85.2346 20.254C84.4753 20.4735 83.6235 20.5833 82.6784 20.5833H76.8066V4.62334H82.8049ZM80.6536 10.906H82.1975C82.9227 10.906 83.4795 10.7455 83.8679 10.4247C84.2562 10.0869 84.45 9.64781 84.45 9.10734C84.45 8.60067 84.2641 8.2122 83.8932 7.942C83.5222 7.65489 82.9654 7.51134 82.2228 7.51134H80.6536V10.906ZM80.6536 17.6953H82.1469C82.9734 17.6953 83.6401 17.5433 84.1463 17.2393C84.6691 16.9353 84.9309 16.4202 84.9309 15.694C84.9309 15.0185 84.6778 14.5287 84.1716 14.2247C83.6654 13.9207 82.9987 13.7687 82.1722 13.7687H80.6536V17.6953Z" fill="#131B22"/>
<path d="M23.4906 27.3452C25.1464 27.2242 26.3788 27.2578 26.409 27.2588L26.8905 27.2737V16.6564L26.4323 16.6494C26.4068 16.6491 26.1752 16.6458 25.8426 16.6441V4.75H22.3245L22.1881 4.87684C20.8284 6.13974 19.0668 6.933 17.173 7.15017C17.175 7.11812 17.1783 7.08623 17.1783 7.05367C17.1783 6.15414 16.3906 5.42242 15.4223 5.42242C14.454 5.42242 13.6661 6.15414 13.6661 7.05367C13.6661 7.08623 13.6694 7.11812 13.6714 7.15017C11.7775 6.933 10.0159 6.13974 8.65629 4.87684L8.51994 4.75H5.00197V16.6441C4.66928 16.6458 4.43772 16.6491 4.41225 16.6494L3.9541 16.6564V27.2737L4.4355 27.2588C4.46613 27.2576 5.69814 27.224 7.35398 27.3455C8.3026 28.4842 9.4669 29.4137 10.8223 30.1046L15.4224 32.4583L20.0217 30.1048C21.3775 29.4135 22.5418 28.484 23.4906 27.3452ZM25.959 26.3866C24.9291 26.3812 22.4315 26.4306 19.9658 26.9319C22.0076 25.9325 23.7524 25.368 23.782 25.3586L24.0962 25.258V17.5253C24.7357 17.5066 25.4876 17.5066 25.959 17.5102V26.3866ZM18.1581 18.1589C20.1105 17.0016 22.166 16.1914 23.1646 15.8289V24.6455C22.3813 24.9155 20.2817 25.6875 18.1581 26.8803V18.1589ZM17.2267 27.432C16.7682 27.7187 16.3177 28.0246 15.8884 28.3493V17.0493L17.2267 15.1208V27.432ZM15.4221 16.1245L14.0059 14.084H16.8381L15.4221 16.1245ZM14.9571 17.0515V28.3505C14.5274 28.0253 14.0764 27.719 13.6175 27.432V15.1208L14.9571 17.0515ZM12.6859 26.8803C10.5623 25.6875 8.46252 24.9155 7.67947 24.6455V15.8289C8.67828 16.1914 10.7335 17.0016 12.6859 18.1589V26.8803ZM14.8981 11.8309V8.61088C15.0636 8.65901 15.2396 8.68506 15.4221 8.68506C15.6046 8.68506 15.7804 8.65901 15.9459 8.61088V11.8307L14.8981 11.8309ZM15.4221 6.28784C15.8767 6.28784 16.2467 6.6315 16.2467 7.05385C16.2467 7.47635 15.8767 7.82002 15.4221 7.82002C14.9673 7.82002 14.5973 7.47635 14.5973 7.05385C14.5973 6.6315 14.9673 6.28784 15.4221 6.28784ZM8.13651 5.61542C9.72355 7.0307 11.7768 7.8855 13.9666 8.048V11.8309H10.2213V12.6961H20.6225V11.8309H16.8774V8.048C19.0672 7.8855 21.1203 7.0307 22.7073 5.61542H24.911V16.6454C24.6399 16.6476 24.3606 16.6522 24.0959 16.6595V14.599L23.4788 14.796C23.3609 14.8337 20.7856 15.6642 18.1579 17.1396V14.0838H20.3774C20.6062 14.0838 20.7922 14.2566 20.7922 14.4691V14.5975H21.7237V14.4691C21.7237 13.7796 21.1198 13.2185 20.3774 13.2185H10.4664C9.7241 13.2185 9.12016 13.7796 9.12016 14.4691V14.5975H10.0516V14.4691C10.0516 14.2566 10.2376 14.0838 10.4664 14.0838H12.6859V17.1396C10.058 15.6642 7.48314 14.8337 7.36506 14.796L6.74785 14.599V16.6594C6.48325 16.652 6.2039 16.6475 5.93285 16.6453V5.61524L8.13651 5.61542ZM4.88517 26.3866V17.5102C5.35734 17.5066 6.10906 17.5066 6.74804 17.5253V25.2581L7.06245 25.3584C7.09197 25.3679 8.83733 25.9318 10.8804 26.9321C8.41253 26.4284 5.91476 26.3781 4.88517 26.3866ZM19.5726 29.3467L15.4221 31.4706L11.2707 29.3465C10.2977 28.8505 9.43107 28.2217 8.68326 27.4712C10.9253 27.7327 13.512 28.3014 14.9976 29.5288C15.0307 29.5546 15.0639 29.584 15.1031 29.6182L15.423 29.8975L15.742 29.6173C15.7771 29.5866 15.8116 29.5558 15.8572 29.5201C17.3374 28.297 19.9211 27.7305 22.1619 27.4701C21.4135 28.2213 20.5464 28.8503 19.5726 29.3467Z" fill="#131B22"/>
</svg>
