<svg width="81" height="80" viewBox="0 0 81 80" fill="none" xmlns="http://www.w3.org/2000/svg">
<g clip-path="url(#clip0_567_8558)">
<path fill-rule="evenodd" clip-rule="evenodd" d="M44.9287 15.0439H24.4952C21.7301 14.9033 18.637 13.0287 19.34 10.123H13.9035C11.3259 10.123 9.26379 12.232 9.26379 14.7627V70.6268C9.26379 73.2045 11.3259 75.2665 13.9035 75.2665H48.303C44.6475 71.3298 43.6633 66.362 44.9287 61.6286H35.6961C34.4776 61.6286 34.4776 59.754 35.6961 59.754H45.5848C45.9598 58.8635 46.3815 58.0668 46.8971 57.3169H32.931C31.7125 57.3169 31.7125 55.4423 32.931 55.4423H48.3968C51.3025 52.3492 55.3329 50.4745 60.2538 50.8963V14.7627C60.2538 12.232 58.1917 10.123 55.6141 10.123H50.2245C50.8807 13.0287 47.3657 15.0439 44.9287 15.0439ZM56.5514 72.6889C55.8484 72.6889 55.2392 72.4077 54.7705 71.9391L50.1777 67.3931C47.7875 65.0029 51.4431 61.5349 53.7395 63.8313L56.5514 66.5964L64.2843 58.8635C66.5807 56.5671 70.2363 60.0351 67.8461 62.4253L58.3323 71.9391C57.8637 72.4077 57.2076 72.6889 56.5514 72.6889ZM51.9586 64.9561C51.3962 64.9561 51.115 65.659 51.5368 66.0808L56.0828 70.6268C56.3171 70.8612 56.7389 70.8612 56.9732 70.6268L66.5339 61.1131C67.1431 60.5038 66.2058 59.5665 65.5965 60.1757L57.2076 68.5647C56.8326 68.9397 56.2234 68.9397 55.8484 68.5647C55.2861 68.0023 52.521 64.9561 51.9586 64.9561ZM59.0353 80C55.8016 80 52.8022 78.9221 50.412 77.1412H13.9035C10.2948 77.1412 7.38916 74.2355 7.38916 70.6268V14.7627C7.38916 11.2009 10.2948 8.24839 13.9035 8.24839H20.371C21.2615 7.21734 28.2913 1.54657 29.8848 0.234329C30.0722 0.0937317 30.3066 0 30.494 0H39.0236C39.2579 0 39.4454 0.0937317 39.6329 0.234329C41.2732 1.54657 48.2562 7.21734 49.1935 8.24839H55.6141C59.2228 8.24839 62.1285 11.2009 62.1285 14.7627V51.1775C68.6897 52.5835 73.6106 58.4417 73.6106 65.3779C73.6106 73.4388 67.0494 80 59.0353 80ZM58.6604 52.6772C52.3335 52.8647 47.3189 57.5981 46.4284 63.7844C45.3505 71.0955 51.3493 78.1254 59.0353 78.1254C66.0183 78.1254 71.736 72.4077 71.736 65.3779C71.736 59.051 67.0494 53.802 60.9568 52.8647L58.6604 52.6772ZM24.4015 63.925H17.0904C16.2468 63.925 15.5438 63.222 15.5438 62.3784V54.6456C15.5438 53.802 16.2468 53.1459 17.0904 53.1459H24.4015C25.245 53.1459 25.948 53.802 25.948 54.6456V62.3784C25.948 63.222 25.245 63.925 24.4015 63.925ZM17.4185 62.0504H24.0734V55.0205H17.4185V62.0504ZM51.0681 45.4599H35.6961C34.4776 45.4599 34.4776 43.5852 35.6961 43.5852H51.0681C52.3335 43.5852 52.3335 45.4599 51.0681 45.4599ZM53.8332 41.1482H32.931C31.7125 41.1482 31.7125 39.2736 32.931 39.2736H53.8332C55.0517 39.2736 55.0517 41.1482 53.8332 41.1482ZM24.4015 47.7563H17.0904C16.2468 47.7563 15.5438 47.0533 15.5438 46.2097V38.4769C15.5438 37.6333 16.2468 36.9772 17.0904 36.9772H24.4015C25.245 36.9772 25.948 37.6333 25.948 38.4769V46.2097C25.948 47.0533 25.245 47.7563 24.4015 47.7563ZM17.4185 45.8817H24.0734V38.8518H17.4185V45.8817ZM51.818 31.5876H17.3716C15.9656 31.5876 14.794 30.4159 14.794 28.9631V24.1359C14.794 22.6831 15.9656 21.5114 17.3716 21.5114H51.818C53.2708 21.5114 54.4425 22.6831 54.4425 24.1359V28.9631C54.4425 30.4159 53.2708 31.5876 51.818 31.5876ZM17.3716 23.3861C16.9967 23.3861 16.6686 23.7141 16.6686 24.1359V28.9631C16.6686 29.3849 16.9967 29.7129 17.3716 29.7129H51.818C52.2398 29.7129 52.5678 29.3849 52.5678 28.9631V24.1359C52.5678 23.7141 52.2398 23.3861 51.818 23.3861H17.3716ZM39.3048 8.43585H30.2128C28.9943 8.43585 28.9943 6.56122 30.2128 6.56122H39.3048C40.5233 6.56122 40.5233 8.43585 39.3048 8.43585ZM21.6832 9.6075C21.6364 9.65436 21.6364 9.70123 21.5895 9.7481C20.0429 11.8571 22.9486 13.1224 24.6827 13.1693C26.6042 13.2162 44.6006 13.263 45.538 13.0756C48.0219 12.56 49.5216 10.9197 47.2251 8.95138L38.6955 1.87463H30.8221C30.7752 1.9215 22.2456 8.90451 21.6832 9.6075Z" fill="url(#paint0_linear_567_8558)"/>
</g>
<defs>
<linearGradient id="paint0_linear_567_8558" x1="21.8774" y1="1.90767" x2="59.1066" y2="78.0762" gradientUnits="userSpaceOnUse">
<stop stop-color="#134879"/>
<stop offset="0.501961" stop-color="#0B5992"/>
<stop offset="1" stop-color="#3EA9FF"/>
</linearGradient>
<clipPath id="clip0_567_8558">
<rect width="80" height="80" fill="white" transform="translate(0.5)"/>
</clipPath>
</defs>
</svg>
