<svg width="81" height="80" viewBox="0 0 81 80" fill="none" xmlns="http://www.w3.org/2000/svg">
<g clip-path="url(#clip0_567_8555)">
<path fill-rule="evenodd" clip-rule="evenodd" d="M77.9693 22.8707H74.923C74.6418 23.2456 74.3137 23.5268 73.9857 23.808L78.2973 35.9463C79.9845 35.9463 79.8439 36.4149 79.8439 37.9146C79.8439 40.586 77.6412 42.7887 74.9698 42.7887H66.1591C63.4408 42.7887 61.285 40.586 61.285 37.9146C61.285 36.4149 61.1444 35.9463 62.8316 35.9463L67.1432 23.808C66.8152 23.5268 66.4871 23.2456 66.2059 22.8707H58.7543C59.4572 27.4635 58.6137 33.603 56.1766 41.1484C56.1298 41.2421 55.1925 44.757 51.2557 49.2562V52.3493C55.0987 52.115 55.8017 57.6451 52.193 58.5356C51.865 58.6293 51.5369 58.6762 51.162 58.7699V74.7512C51.162 75.2667 50.7402 75.6885 50.2247 75.6885H30.541C30.0255 75.6885 29.6037 75.2667 29.6037 74.7512V58.7699C29.2288 58.6762 28.8538 58.5825 28.5258 58.4887C25.0109 57.3639 26.0419 52.115 29.6974 52.3493V48.9281C24.2141 42.8824 23.2299 37.5397 22.855 35.7588C22.0583 31.4471 22.3864 27.1355 22.527 22.8707H14.138C13.8568 23.2456 13.5756 23.5268 13.2007 23.808L17.5123 35.9463C19.1995 35.9463 19.0589 36.4149 19.0589 37.9146C19.0589 40.586 16.9031 42.7887 14.1848 42.7887H5.37406C2.7027 42.7887 0.500009 40.586 0.500009 37.9146C0.500009 36.4149 0.406278 35.9463 2.04658 35.9463L6.35824 23.808C6.03018 23.5268 5.70212 23.2456 5.42092 22.8707H3.35883C1.99972 22.8707 0.874936 21.7459 0.874936 20.3868V18.4184C0.874936 17.0593 1.99972 15.9345 3.35883 15.9345H5.42092C7.67048 13.1226 11.9353 13.1226 14.138 15.9345H22.5738C22.6207 12.3259 26.7449 10.3575 29.6037 12.3727C29.9318 9.04526 33.8685 7.45182 36.4461 9.46705C37.4303 6.60823 40.9921 5.57718 43.3354 7.45182C44.9757 2.57777 52.4274 3.65568 52.4274 8.95152V14.2942C53.9271 14.6692 54.9581 15.7939 55.2393 15.9345H66.2059C68.4086 13.1226 72.6734 13.1226 74.923 15.9345H77.9693C79.3752 15.9345 80.5 17.0593 80.5 18.4184V20.3399C80.5 21.7459 79.3752 22.8707 77.9693 22.8707ZM4.06181 35.9463H15.5439L11.5604 24.6984C10.4356 25.0734 9.12333 25.0734 8.04541 24.6984L4.06181 35.9463ZM2.7027 37.8678L2.37464 37.8209C2.37464 39.5081 3.68689 40.914 5.37406 40.914H14.1848C15.872 40.914 17.1843 39.5081 17.1843 37.8209C12.4977 37.8209 7.34242 37.7272 2.7027 37.8678ZM15.1222 20.996H22.5738V17.8092H15.1222C15.4502 18.7934 15.4502 19.965 15.1222 20.996ZM4.43674 20.996C4.15555 19.965 4.15555 18.7934 4.43674 17.8092C2.32778 17.8092 2.74957 17.856 2.74957 20.3399C2.74957 21.2304 3.87435 20.996 4.43674 20.996ZM9.77945 15.7002C7.76422 15.7002 6.07705 17.3405 6.07705 19.4026C6.07705 21.4647 7.76422 23.105 9.77945 23.105C11.8415 23.105 13.4818 21.4647 13.4818 19.4026C13.4818 17.3405 11.8415 15.7002 9.77945 15.7002ZM64.8 35.9463H76.329L72.2985 24.6984C71.2206 25.0734 69.9083 25.0734 68.8304 24.6984L64.8 35.9463ZM63.4877 37.8678L63.1596 37.8209C63.1596 39.5081 64.4719 40.914 66.1591 40.914H74.9698C76.657 40.914 77.9693 39.5081 77.9693 37.8209C73.2827 37.8209 68.0806 37.7272 63.4877 37.8678ZM75.9072 20.996C78.9066 20.996 78.6254 21.4178 78.6254 18.4184C78.6254 17.4811 77.0319 17.8092 75.9072 17.8092C76.2352 18.7934 76.2352 19.965 75.9072 20.996ZM65.2217 20.996C64.8937 19.965 64.8937 18.7934 65.2217 17.8092H56.8796C57.5357 18.6996 58.0044 19.7775 58.3325 20.996H65.2217ZM70.5645 15.7002C68.5024 15.7002 66.8621 17.3405 66.8621 19.4026C66.8621 21.4647 68.5024 23.105 70.5645 23.105C72.6265 23.105 74.2669 21.4647 74.2669 19.4026C74.2669 17.3405 72.6265 15.7002 70.5645 15.7002ZM46.1474 28.7289C45.4444 28.4946 44.7882 28.0259 44.2727 27.5104C42.3981 30.4629 37.899 30.1349 36.5398 26.8543C34.384 28.682 31.1034 27.8853 29.9318 25.3546C28.3852 26.7137 25.9482 26.8074 24.3079 25.542C24.0267 33.1812 23.9798 39.9767 31.2909 47.897C31.4783 48.0845 31.5721 48.3188 31.5721 48.5532V52.818C37.2428 54.1771 43.7572 53.9427 49.3811 52.7242V48.9281C49.3811 48.6938 49.4748 48.4594 49.6154 48.272C53.4116 44.054 54.3489 40.6328 54.3489 40.6328C56.3172 34.5871 57.9107 27.4635 56.7859 22.3083C56.739 22.2146 56.6922 22.1208 56.6922 21.9802C56.0829 19.6369 54.9113 17.7154 52.896 16.5438C51.7712 15.8877 50.8808 16.0751 49.6154 16.0751C46.616 16.0751 42.5387 16.3095 42.4918 16.3095C39.3987 16.4032 40.1954 19.8244 44.4133 22.0271C47.2721 23.4799 49.7092 24.1361 52.4742 24.511C53.3178 24.6047 53.5522 25.8232 52.8023 26.245C45.3506 30.2286 41.1327 38.0084 41.0858 38.0552C40.5234 39.1331 38.8363 38.2427 39.4455 37.1648C39.5393 36.9304 41.8826 32.6656 46.1474 28.7289ZM24.4485 21.8865C24.4485 25.542 29.5568 25.3077 29.5568 22.0271V15.9814C29.5568 12.6071 24.4485 12.6071 24.4485 15.9814V21.8865ZM50.7871 54.3645C50.9277 54.3177 51.0214 54.2708 51.162 54.2708C52.7554 53.849 53.3178 56.3329 51.7712 56.7078C45.1163 58.3481 37.524 58.6293 30.7285 57.1296C29.6974 56.8953 27.8228 56.5672 28.2915 55.1144C28.7133 53.7553 29.9786 54.3645 30.4004 54.4583C37.0554 56.0986 44.179 55.8642 50.7871 54.3645ZM48.725 59.2386C43.1479 60.2228 40.8515 60.0353 35.9775 59.801C34.4778 59.7541 32.7437 59.426 31.4783 59.1917V73.8139H49.2874V59.1448L48.725 59.2386ZM50.5527 14.1536V8.95152C50.5527 5.29599 44.9757 5.29599 44.9757 8.95152V14.2942L50.5527 14.1536ZM43.1011 14.388V10.873C43.1011 7.59241 38.0864 7.59241 38.0864 10.873V25.1671C38.0864 28.4477 43.1011 28.4477 43.1011 25.1671V23.3862C37.0085 19.9181 37.7584 14.8098 42.4449 14.4348C42.4449 14.4348 42.6793 14.388 43.1011 14.388ZM44.9757 24.3704C44.9757 26.0107 46.3817 27.3229 48.022 27.1355C48.5375 26.7137 49.0999 26.3388 49.6623 25.917C47.9282 25.5889 46.616 25.1202 44.9757 24.3704ZM36.2118 23.6674V12.7477C36.1649 9.70138 31.4315 9.70138 31.4315 12.7945V23.6205C31.4315 26.7137 36.1181 26.7605 36.2118 23.6674Z" fill="url(#paint0_linear_567_8555)"/>
</g>
<defs>
<linearGradient id="paint0_linear_567_8555" x1="22.2369" y1="-1.94108" x2="58.7454" y2="81.9582" gradientUnits="userSpaceOnUse">
<stop stop-color="#134879"/>
<stop offset="0.501961" stop-color="#0B5992"/>
<stop offset="1" stop-color="#3EA9FF"/>
</linearGradient>
<clipPath id="clip0_567_8555">
<rect width="80" height="80" fill="white" transform="translate(0.5)"/>
</clipPath>
</defs>
</svg>
