<svg width="78" height="78" viewBox="0 0 78 78" fill="none" xmlns="http://www.w3.org/2000/svg">
<mask id="mask0_1_542" style="mask-type:luminance" maskUnits="userSpaceOnUse" x="0" y="0" width="78" height="78">
<path d="M0 7.62939e-06H78V78H0V7.62939e-06Z" fill="white"/>
</mask>
<g mask="url(#mask0_1_542)">
<path d="M2.28516 75.7148H75.7148" stroke="#0B0F11" stroke-width="2.5" stroke-miterlimit="10" stroke-linecap="round" stroke-linejoin="round"/>
<path d="M14.625 57.4336H8.53125C7.68986 57.4336 7.00781 58.1156 7.00781 58.957V75.7148H16.1484V58.957C16.1484 58.1156 15.4664 57.4336 14.625 57.4336Z" stroke="#0B0F11" stroke-width="2.5" stroke-miterlimit="10" stroke-linecap="round" stroke-linejoin="round"/>
<path d="M32.9062 51.9492H26.8125C25.9711 51.9492 25.2891 52.6313 25.2891 53.4727V75.7148H34.4297V53.4727C34.4297 52.6313 33.7476 51.9492 32.9062 51.9492Z" stroke="#0B0F11" stroke-width="2.5" stroke-miterlimit="10" stroke-linecap="round" stroke-linejoin="round"/>
<path d="M51.1875 43.5703H45.0938C44.2524 43.5703 43.5703 44.2524 43.5703 45.0938V75.7148H52.7109V45.0938C52.7109 44.2524 52.0289 43.5703 51.1875 43.5703Z" stroke="#0B0F11" stroke-width="2.5" stroke-miterlimit="10" stroke-linecap="round" stroke-linejoin="round"/>
<path d="M70.4766 32H66.5234C65.682 32 65 32.682 65 33.5234V74.7383H72V33.5234C72 32.682 71.318 32 70.4766 32Z" fill="#F7E6C5"/>
<path d="M69.4688 28.3359H63.375C62.5336 28.3359 61.8516 29.018 61.8516 29.8594V75.7148H70.9922V29.8594C70.9922 29.018 70.3101 28.3359 69.4688 28.3359Z" stroke="#0B0F11" stroke-width="2.5" stroke-miterlimit="10" stroke-linecap="round" stroke-linejoin="round"/>
<path d="M2.28516 46.8159C32.3001 46.8159 62.315 23.8698 71.9727 2.28584" stroke="#0B0F11" stroke-width="2.5" stroke-miterlimit="10" stroke-linecap="round" stroke-linejoin="round"/>
<path d="M58.0075 6.02716L71.9728 2.28514L75.7149 16.2505" stroke="#0B0F11" stroke-width="2.5" stroke-miterlimit="10" stroke-linecap="round" stroke-linejoin="round"/>
</g>
</svg>
