<svg width="78" height="78" viewBox="0 0 78 78" fill="none" xmlns="http://www.w3.org/2000/svg">
<path d="M20 16.5H12.7557C10.2725 16.5 8.38938 18.7389 8.81485 21.1854L9.88415 27.3339C9.96084 27.7748 10.111 28.1998 10.3284 28.5911L19.7659 45.5786C19.9214 45.8585 20.11 46.1187 20.3275 46.3537L31.9899 58.9491C32.327 59.3132 32.7289 59.6114 33.1751 59.8284L50.4791 68.2466C50.8246 68.4147 51.1924 68.5321 51.5714 68.5952L58.942 69.8237C61.1645 70.1941 63.2543 68.6566 63.5621 66.4246L64.4619 59.9012C64.7604 57.7369 63.2633 55.7186 61.1799 55.0605C57.3057 53.8368 52.978 51.8276 50.1235 50.3609C49.1067 49.8384 47.8947 49.8459 46.9021 50.4131C45.7505 51.0711 44.316 50.9715 43.2665 50.1605L34.3787 43.2926C34.1271 43.0982 33.8996 42.8745 33.701 42.6263L27.2719 34.5899C26.4965 33.6207 26.3555 32.2891 26.9105 31.1789C27.288 30.4241 27.3501 29.5502 27.0832 28.7496L23.9117 19.2351C23.3672 17.6017 21.8387 16.5 20.117 16.5H20Z" fill="#F7E6C5"/>
<path d="M71.5 54.9901V64.7401C71.5037 65.6452 71.3183 66.5411 70.9557 67.3704C70.593 68.1998 70.0612 68.9442 69.3942 69.5561C68.7273 70.168 67.9399 70.6339 67.0824 70.9239C66.225 71.2138 65.3165 71.3215 64.415 71.2401C54.4142 70.1534 44.8077 66.736 36.3675 61.2626C28.5149 56.2727 21.8573 49.6151 16.8675 41.7626C11.3749 33.284 7.95679 23.6308 6.89 13.5851C6.80878 12.6863 6.91559 11.7805 7.20362 10.9254C7.49166 10.0702 7.9546 9.28431 8.56299 8.61784C9.17137 7.95137 9.91186 7.41888 10.7373 7.05427C11.5628 6.68966 12.4551 6.50092 13.3575 6.50007H23.1075C24.6847 6.48455 26.2138 7.04308 27.4097 8.07155C28.6056 9.10003 29.3867 10.5283 29.6075 12.0901C30.019 15.2103 30.7822 18.2739 31.8825 21.2226C32.3198 22.3858 32.4144 23.65 32.1552 24.8654C31.896 26.0808 31.2938 27.1964 30.42 28.0801L26.2925 32.2076C30.9191 40.3441 37.656 47.081 45.7925 51.7076L49.92 47.5801C50.8036 46.7063 51.9192 46.1041 53.1346 45.8449C54.35 45.5857 55.6142 45.6803 56.7775 46.1176C59.7261 47.2179 62.7898 47.981 65.91 48.3926C67.4887 48.6153 68.9306 49.4105 69.9612 50.6269C70.9919 51.8434 71.5395 53.3962 71.5 54.9901Z" stroke="#0B0F11" stroke-width="2.5" stroke-linecap="round" stroke-linejoin="round"/>
</svg>
