<svg width="78" height="78" viewBox="0 0 78 78" fill="none" xmlns="http://www.w3.org/2000/svg">
<path d="M55.8386 35.1827C54.8368 34.1737 53.6473 33.3733 52.3382 32.8272C51.029 32.2811 49.6258 32 48.2087 32C46.7916 32 45.3883 32.2811 44.0792 32.8272C42.77 33.3733 41.5805 34.1737 40.5787 35.1827L38.4996 37.2757L36.4205 35.1827C34.3969 33.1455 31.6523 32.0011 28.7905 32.0011C25.9287 32.0011 23.1841 33.1455 21.1605 35.1827C19.1369 37.2198 18.0001 39.9828 18.0001 42.8637C18.0001 45.7447 19.1369 48.5077 21.1605 50.5448L23.2397 52.6379L38.4996 68L53.7595 52.6379L55.8386 50.5448C56.8409 49.5363 57.636 48.3388 58.1784 47.0209C58.7209 45.703 59.0001 44.2903 59.0001 42.8637C59.0001 41.4371 58.7209 40.0245 58.1784 38.7066C57.636 37.3886 56.8409 36.1912 55.8386 35.1827Z" fill="#F7E6C5"/>
<path d="M67.73 14.9826C66.07 13.3218 64.0991 12.0044 61.9299 11.1056C59.7607 10.2068 57.4356 9.74414 55.0875 9.74414C52.7394 9.74414 50.4143 10.2068 48.2451 11.1056C46.0759 12.0044 44.105 13.3218 42.445 14.9826L39 18.4276L35.555 14.9826C32.202 11.6296 27.6544 9.74588 22.9125 9.74588C18.1706 9.74588 13.623 11.6296 10.27 14.9826C6.91701 18.3356 5.03331 22.8832 5.03331 27.6251C5.03331 32.3669 6.91701 36.9146 10.27 40.2676L13.715 43.7126L39 68.9976L64.285 43.7126L67.73 40.2676C69.3907 38.6076 70.7081 36.6367 71.607 34.4675C72.5058 32.2982 72.9684 29.9732 72.9684 27.6251C72.9684 25.277 72.5058 22.9519 71.607 20.7827C70.7081 18.6134 69.3907 16.6425 67.73 14.9826Z" stroke="#0B0F11" stroke-width="2.5" stroke-linecap="round" stroke-linejoin="round"/>
</svg>
