<svg width="127" height="62" viewBox="0 0 127 62" fill="none" xmlns="http://www.w3.org/2000/svg">
<path d="M28.3352 9.56494H39.2523V11.633H34.9597V23.2589H32.5993V11.633H28.3257V9.56494H28.3352ZM38.786 13.3436H40.8038V15.257H40.8418C40.9085 14.9865 41.0322 14.7256 41.213 14.4743C41.3939 14.223 41.6128 13.9814 41.8698 13.7785C42.1268 13.5658 42.4123 13.4016 42.7264 13.2663C43.0405 13.1407 43.3641 13.073 43.6877 13.073C43.9352 13.073 44.116 13.0826 44.2112 13.0923C44.3064 13.102 44.4015 13.1213 44.5062 13.131V15.2378C44.3539 15.2088 44.2017 15.1894 44.0398 15.1701C43.878 15.1507 43.7258 15.1411 43.5735 15.1411C43.2118 15.1411 42.8692 15.2184 42.5456 15.3633C42.222 15.5083 41.9459 15.7306 41.708 16.0108C41.47 16.3008 41.2797 16.6487 41.1369 17.0739C40.9941 17.4991 40.9275 17.9823 40.9275 18.5331V23.2492H38.7764V13.3436H38.786ZM54.3954 23.2589H52.2824V21.8769H52.2444C51.9779 22.3795 51.5876 22.7757 51.0641 23.0753C50.5406 23.3748 50.0076 23.5295 49.4651 23.5295C48.1802 23.5295 47.2474 23.2106 46.6763 22.5631C46.1053 21.9156 45.8198 20.9395 45.8198 19.6349V13.3436H47.9708V19.4223C47.9708 20.292 48.1326 20.9105 48.4657 21.2681C48.7893 21.6257 49.2557 21.8093 49.8458 21.8093C50.3027 21.8093 50.6739 21.7416 50.9785 21.5967C51.2831 21.4517 51.5305 21.2681 51.7114 21.0265C51.9017 20.7946 52.035 20.5046 52.1206 20.1761C52.2063 19.8474 52.2444 19.4899 52.2444 19.1034V13.3532H54.3954V23.2589ZM58.0599 20.0794C58.1265 20.7172 58.3645 21.1617 58.7737 21.4227C59.1925 21.674 59.6875 21.8093 60.2681 21.8093C60.4679 21.8093 60.6964 21.79 60.9534 21.761C61.2103 21.732 61.4578 21.6643 61.6767 21.5773C61.9051 21.4904 62.086 21.3551 62.2383 21.1811C62.3811 21.0072 62.4477 20.7849 62.4382 20.5046C62.4286 20.2244 62.3239 19.9924 62.1336 19.8185C61.9432 19.6349 61.7053 19.4995 61.4102 19.3836C61.1152 19.2773 60.782 19.1807 60.4013 19.1034C60.0206 19.026 59.6399 18.9391 59.2496 18.8521C58.8499 18.7651 58.4596 18.6491 58.0884 18.5235C57.7172 18.3978 57.3841 18.2239 57.089 18.0017C56.794 17.7891 56.556 17.5088 56.3847 17.1706C56.2039 16.8323 56.1182 16.4168 56.1182 15.9142C56.1182 15.3731 56.2515 14.9285 56.5084 14.5612C56.7654 14.194 57.0986 13.9041 57.4888 13.6819C57.8885 13.4595 58.3264 13.305 58.8118 13.2083C59.2972 13.1213 59.7636 13.073 60.2014 13.073C60.7059 13.073 61.1913 13.131 61.6482 13.2373C62.105 13.3436 62.5238 13.5176 62.895 13.7688C63.2662 14.0104 63.5708 14.3293 63.8183 14.7159C64.0657 15.1025 64.218 15.576 64.2847 16.1268H62.0384C61.9337 15.6049 61.7053 15.2474 61.3341 15.0735C60.9629 14.8899 60.5346 14.8028 60.0587 14.8028C59.9064 14.8028 59.7255 14.8125 59.5161 14.8415C59.3067 14.8705 59.1164 14.9188 58.926 14.9865C58.7452 15.0541 58.5929 15.1604 58.4596 15.2957C58.3359 15.431 58.2693 15.6049 58.2693 15.8273C58.2693 16.0979 58.3644 16.3105 58.5453 16.4747C58.7261 16.639 58.9641 16.7743 59.2591 16.8903C59.5542 16.9966 59.8873 17.0932 60.2681 17.1706C60.6488 17.2479 61.039 17.3348 61.4388 17.4218C61.829 17.5088 62.2097 17.6248 62.5904 17.7504C62.9712 17.876 63.3043 18.0499 63.5994 18.2723C63.8944 18.4945 64.1324 18.7651 64.3132 19.0937C64.494 19.4223 64.5892 19.8378 64.5892 20.321C64.5892 20.9105 64.456 21.4033 64.1895 21.8189C63.923 22.2248 63.5803 22.5631 63.1615 22.8143C62.7427 23.0656 62.2668 23.2589 61.7529 23.3748C61.2389 23.4908 60.7249 23.5488 60.2205 23.5488C59.6018 23.5488 59.0307 23.4812 58.5072 23.3362C57.9837 23.1912 57.5269 22.9786 57.1461 22.6984C56.7654 22.4084 56.4609 22.0509 56.2419 21.6257C56.023 21.2004 55.9088 20.6883 55.8898 20.0987H58.0599V20.0794ZM65.1603 13.3436H66.7879V10.3671H68.9388V13.3436H70.8809V14.9768H68.9388V20.2727C68.9388 20.5046 68.9483 20.6979 68.9673 20.8719C68.9863 21.0362 69.0344 21.1811 69.1009 21.297C69.1674 21.4131 69.2718 21.5 69.4149 21.558C69.5579 21.616 69.7383 21.6449 69.9858 21.6449C70.1384 21.6449 70.2903 21.6449 70.4429 21.6353C70.5948 21.6257 70.7474 21.6063 70.8999 21.5677V23.2589C70.6619 23.2879 70.4239 23.3072 70.2049 23.3362C69.9763 23.3652 69.7478 23.3748 69.5098 23.3748C68.9388 23.3748 68.4818 23.3169 68.1393 23.2106C67.7968 23.1043 67.5208 22.94 67.3304 22.7274C67.1305 22.5148 67.0068 22.2538 66.9307 21.9349C66.864 21.616 66.8164 21.2488 66.8069 20.8429V14.9962H65.1793V13.3436H65.1603ZM72.4033 13.3436H74.4403V14.6869H74.4783C74.7828 14.1071 75.2019 13.7011 75.7444 13.4499C76.2868 13.1987 76.8673 13.073 77.5054 13.073C78.2757 13.073 78.9423 13.2083 79.5133 13.4885C80.0843 13.7592 80.5603 14.1361 80.9414 14.6193C81.3218 15.1025 81.5978 15.663 81.7884 16.3008C81.9789 16.9386 82.0739 17.6248 82.0739 18.3496C82.0739 19.0163 81.9884 19.6639 81.8169 20.2824C81.6453 20.9105 81.3883 21.4614 81.0458 21.9446C80.7034 22.4278 80.2653 22.8047 79.7323 23.0946C79.1993 23.3845 78.5809 23.5295 77.8574 23.5295C77.5434 23.5295 77.2294 23.5005 76.9148 23.4425C76.6008 23.3845 76.2963 23.2879 76.0109 23.1622C75.7254 23.0366 75.4494 22.8723 75.2114 22.6694C74.9639 22.4664 74.7638 22.2345 74.5929 21.9736H74.5543V26.9215H72.4033V13.3436ZM79.9229 18.3109C79.9229 17.8664 79.8659 17.4314 79.7513 17.0063C79.6374 16.5811 79.4658 16.2138 79.2373 15.8852C79.0088 15.5567 78.7233 15.2957 78.3904 15.1025C78.0479 14.9091 77.6573 14.8028 77.2193 14.8028C76.3153 14.8028 75.6298 15.1217 75.1734 15.7596C74.7163 16.3974 74.4878 17.2479 74.4878 18.3109C74.4878 18.8134 74.5448 19.2773 74.6689 19.7025C74.7923 20.1277 74.9639 20.495 75.2114 20.8042C75.4494 21.1135 75.7349 21.3551 76.0678 21.529C76.4008 21.7126 76.7914 21.7996 77.2294 21.7996C77.7238 21.7996 78.1333 21.6933 78.4758 21.4904C78.8189 21.2874 79.0949 21.0168 79.3133 20.6979C79.5323 20.3693 79.6944 20.0021 79.7893 19.5866C79.8754 19.171 79.9229 18.7457 79.9229 18.3109ZM83.7203 9.56494H85.8713V11.633H83.7203V9.56494ZM83.7203 13.3436H85.8713V23.2589H83.7203V13.3436ZM87.7944 9.56494H89.9454V23.2589H87.7944V9.56494ZM96.5414 23.5295C95.7609 23.5295 95.0658 23.3942 94.4569 23.1332C93.8472 22.8723 93.3332 22.5051 92.9053 22.0509C92.4863 21.587 92.1628 21.0362 91.9438 20.3983C91.7247 19.7605 91.6108 19.055 91.6108 18.2915C91.6108 17.5377 91.7247 16.8419 91.9438 16.2042C92.1628 15.5663 92.4863 15.0154 92.9053 14.5516C93.3237 14.0877 93.8472 13.7301 94.4569 13.4692C95.0658 13.2083 95.7609 13.073 96.5414 13.073C97.3219 13.073 98.0163 13.2083 98.6252 13.4692C99.2348 13.7301 99.7488 14.0974 100.177 14.5516C100.596 15.0154 100.919 15.5663 101.138 16.2042C101.357 16.8419 101.471 17.5377 101.471 18.2915C101.471 19.055 101.357 19.7605 101.138 20.3983C100.919 21.0362 100.596 21.587 100.177 22.0509C99.7583 22.5148 99.2348 22.8723 98.6252 23.1332C98.0163 23.3942 97.3219 23.5295 96.5414 23.5295ZM96.5414 21.7996C97.0167 21.7996 97.4358 21.6933 97.7877 21.4904C98.1404 21.2874 98.4258 21.0168 98.6544 20.6883C98.8822 20.3597 99.0443 19.9828 99.1589 19.5672C99.2633 19.1517 99.3203 18.7265 99.3203 18.2915C99.3203 17.8664 99.2633 17.4508 99.1589 17.0256C99.0538 16.6003 98.8822 16.2331 98.6544 15.9046C98.4258 15.576 98.1404 15.3151 97.7877 15.1121C97.4358 14.9091 97.0167 14.8028 96.5414 14.8028C96.0653 14.8028 95.6463 14.9091 95.2943 15.1121C94.9424 15.3151 94.6562 15.5857 94.4284 15.9046C94.1999 16.2331 94.0378 16.6003 93.9239 17.0256C93.8187 17.4508 93.7618 17.8664 93.7618 18.2915C93.7618 18.7265 93.8187 19.1517 93.9239 19.5672C94.0283 19.9828 94.1999 20.3597 94.4284 20.6883C94.6562 21.0168 94.9424 21.2874 95.2943 21.4904C95.6463 21.703 96.0653 21.7996 96.5414 21.7996ZM102.1 13.3436H103.727V10.3671H105.878V13.3436H107.82V14.9768H105.878V20.2727C105.878 20.5046 105.888 20.6979 105.907 20.8719C105.926 21.0362 105.973 21.1811 106.04 21.297C106.107 21.4131 106.211 21.5 106.354 21.558C106.497 21.616 106.678 21.6449 106.925 21.6449C107.077 21.6449 107.23 21.6449 107.382 21.6353C107.534 21.6257 107.687 21.6063 107.839 21.5677V23.2589C107.601 23.2879 107.363 23.3072 107.144 23.3362C106.916 23.3652 106.687 23.3748 106.449 23.3748C105.878 23.3748 105.421 23.3169 105.079 23.2106C104.736 23.1043 104.46 22.94 104.27 22.7274C104.07 22.5148 103.946 22.2538 103.87 21.9349C103.803 21.616 103.756 21.2488 103.746 20.8429V14.9962H102.119V13.3436H102.1Z" fill="white"/>
<path d="M25.8223 9.55949H15.9617L12.9159 0.0307617L9.86063 9.55949L0 9.54985L7.98558 15.4449L4.93032 24.9639L12.9159 19.0786L20.892 24.9639L17.8462 15.4449L25.8223 9.55949Z" fill="#00B67A"/>
<path d="M18.5316 17.6038L17.8463 15.4487L12.916 19.0824L18.5316 17.6038Z" fill="#005128"/>
<path d="M23.7339 35.8027H2.7124V57.1467H23.7339V35.8027Z" fill="#00B67A"/>
<path d="M21.5207 44.4905H15.1833L13.2258 38.0508L11.2622 44.4905L4.9248 44.4841L10.0571 48.4681L8.09349 54.9013L13.2258 50.9238L18.352 54.9013L16.3945 48.4681L21.5207 44.4905Z" fill="#FFFCE9"/>
<path d="M16.8353 49.9282L16.3948 48.4717L13.2261 50.9274L16.8353 49.9282Z" fill="#00B67A"/>
<path d="M48.146 35.8027H27.1245V57.1467H48.146V35.8027Z" fill="#00B67A"/>
<path d="M45.9328 44.4905H39.5954L37.6379 38.0508L35.6743 44.4905L29.3369 44.4841L34.4692 48.4681L32.5056 54.9013L37.6379 50.9238L42.7641 54.9013L40.8066 48.4681L45.9328 44.4905Z" fill="#FFFCE9"/>
<path d="M41.2469 49.9282L40.8064 48.4717L37.6377 50.9274L41.2469 49.9282Z" fill="#00B67A"/>
<path d="M72.5581 35.8027H51.5366V57.1467H72.5581V35.8027Z" fill="#00B67A"/>
<path d="M70.3447 44.4905H64.0075L62.05 38.0508L60.0864 44.4905L53.749 44.4841L58.8813 48.4681L56.9177 54.9013L62.05 50.9238L67.1762 54.9013L65.2187 48.4681L70.3447 44.4905Z" fill="#FFFCE9"/>
<path d="M65.659 49.9282L65.2186 48.4717L62.0498 50.9274L65.659 49.9282Z" fill="#00B67A"/>
<path d="M96.9702 35.8027H75.9487V57.1467H96.9702V35.8027Z" fill="#00B67A"/>
<path d="M94.7566 44.4905H88.4196L86.4619 38.0508L84.4981 44.4905L78.1611 44.4841L83.2931 48.4681L81.3299 54.9013L86.4619 50.9238L91.5884 54.9013L89.6307 48.4681L94.7566 44.4905Z" fill="#FFFCE9"/>
<path d="M90.0708 49.9282L89.6307 48.4717L86.4619 50.9274L90.0708 49.9282Z" fill="#00B67A"/>
<path d="M121.382 35.8027H100.36V57.1467H121.382V35.8027Z" fill="#DADDE4"/>
<path d="M111.888 35.8027H100.36V57.1467H111.888V35.8027Z" fill="#00B67A"/>
<path d="M119.169 44.4905H112.832L110.874 38.0508L108.91 44.4905L102.573 44.4841L107.705 48.4681L105.742 54.9013L110.874 50.9238L116.001 54.9013L114.043 48.4681L119.169 44.4905Z" fill="#FFFCE9"/>
<path d="M114.483 49.9282L114.043 48.4717L110.874 50.9274L114.483 49.9282Z" fill="#DADDE4"/>
</svg>
